<?xml version="1.0" encoding="UTF-8"?>
<svg id="Layer_1" data-name="Layer 1" xmlns="http://www.w3.org/2000/svg" viewBox="0 0 771.82 1073.65">
  <defs>
    <style>
      .cls-1 {
        fill: none;
        stroke: #ed1c24;
        stroke-miterlimit: 10;
      }
    </style>
  </defs>
  <circle class="cls-1" cx="236.28" cy="11" r="9.21" transform="translate(-.07 1.62) rotate(-.39)"/>
  <circle class="cls-1" cx="161.16" cy="11" r="9.21" transform="translate(-.07 1.1) rotate(-.39)"/>
  <circle class="cls-1" cx="386.51" cy="11" r="9.21" transform="translate(-.07 2.65) rotate(-.39)"/>
  <circle class="cls-1" cx="311.4" cy="11" r="9.21" transform="translate(-.07 2.13) rotate(-.39)"/>
  <circle class="cls-1" cx="86.04" cy="11" r="9.21" transform="translate(-.07 .59) rotate(-.39)"/>
  <circle class="cls-1" cx="10.92" cy="11" r="9.21" transform="translate(-.08 .08) rotate(-.39)"/>
  <circle class="cls-1" cx="461.63" cy="11" r="9.21" transform="translate(-.06 3.16) rotate(-.39)"/>
  <circle class="cls-1" cx="536.75" cy="11" r="9.21" transform="translate(-.06 3.68) rotate(-.39)"/>
  <circle class="cls-1" cx="236.28" cy="86.12" r="9.21" transform="translate(-.58 1.62) rotate(-.39)"/>
  <circle class="cls-1" cx="161.16" cy="86.12" r="9.21" transform="translate(-.59 1.11) rotate(-.39)"/>
  <circle class="cls-1" cx="386.51" cy="86.12" r="9.21" transform="translate(-.58 2.65) rotate(-.39)"/>
  <circle class="cls-1" cx="311.4" cy="86.12" r="9.21" transform="translate(-.58 2.13) rotate(-.39)"/>
  <circle class="cls-1" cx="86.04" cy="86.12" r="9.21" transform="translate(-.59 .59) rotate(-.39)"/>
  <circle class="cls-1" cx="10.92" cy="86.12" r="9.21" transform="translate(-.59 .08) rotate(-.39)"/>
  <circle class="cls-1" cx="461.63" cy="86.12" r="9.21" transform="translate(-.58 3.16) rotate(-.39)"/>
  <circle class="cls-1" cx="536.75" cy="86.12" r="9.21" transform="translate(-.58 3.68) rotate(-.39)"/>
  <circle class="cls-1" cx="236.28" cy="161.24" r="9.21" transform="translate(-1.1 1.62) rotate(-.39)"/>
  <circle class="cls-1" cx="161.16" cy="161.24" r="9.21" transform="translate(-1.1 1.11) rotate(-.39)"/>
  <circle class="cls-1" cx="386.51" cy="161.24" r="9.21" transform="translate(-1.1 2.65) rotate(-.39)"/>
  <circle class="cls-1" cx="311.4" cy="161.24" r="9.21" transform="translate(-1.1 2.14) rotate(-.39)"/>
  <circle class="cls-1" cx="86.04" cy="161.24" r="9.21" transform="translate(-1.1 .59) rotate(-.39)"/>
  <circle class="cls-1" cx="10.92" cy="161.24" r="9.21" transform="translate(-1.1 .08) rotate(-.39)"/>
  <circle class="cls-1" cx="461.63" cy="161.24" r="9.21" transform="translate(-1.09 3.17) rotate(-.39)"/>
  <circle class="cls-1" cx="536.75" cy="161.24" r="9.21" transform="translate(-1.09 3.68) rotate(-.39)"/>
  <circle class="cls-1" cx="236.28" cy="236.35" r="9.21" transform="translate(-1.61 1.62) rotate(-.39)"/>
  <circle class="cls-1" cx="161.16" cy="236.35" r="9.21" transform="translate(-1.61 1.11) rotate(-.39)"/>
  <circle class="cls-1" cx="386.51" cy="236.35" r="9.21" transform="translate(-1.61 2.65) rotate(-.39)"/>
  <circle class="cls-1" cx="311.4" cy="236.35" r="9.21" transform="translate(-1.61 2.14) rotate(-.39)"/>
  <circle class="cls-1" cx="86.04" cy="236.35" r="9.21" transform="translate(-1.62 .59) rotate(-.39)"/>
  <circle class="cls-1" cx="10.92" cy="236.35" r="9.21" transform="translate(-1.62 .08) rotate(-.39)"/>
  <circle class="cls-1" cx="461.63" cy="236.35" r="9.21" transform="translate(-1.61 3.17) rotate(-.39)"/>
  <circle class="cls-1" cx="536.75" cy="236.35" r="9.21" transform="translate(-1.61 3.68) rotate(-.39)"/>
  <circle class="cls-1" cx="236.28" cy="311.47" r="9.21" transform="translate(-2.13 1.63) rotate(-.39)"/>
  <circle class="cls-1" cx="161.16" cy="311.47" r="9.21" transform="translate(-2.13 1.11) rotate(-.39)"/>
  <circle class="cls-1" cx="386.51" cy="311.47" r="9.21" transform="translate(-2.12 2.65) rotate(-.39)"/>
  <circle class="cls-1" cx="311.4" cy="311.47" r="9.21" transform="translate(-2.13 2.14) rotate(-.39)"/>
  <circle class="cls-1" cx="86.04" cy="311.47" r="9.21" transform="translate(-2.13 .6) rotate(-.39)"/>
  <circle class="cls-1" cx="10.92" cy="311.47" r="9.21" transform="translate(-2.13 .08) rotate(-.39)"/>
  <circle class="cls-1" cx="461.63" cy="311.47" r="9.21" transform="translate(-2.12 3.17) rotate(-.39)"/>
  <circle class="cls-1" cx="536.75" cy="311.47" r="9.21" transform="translate(-2.12 3.68) rotate(-.39)"/>
  <circle class="cls-1" cx="236.28" cy="386.59" r="9.21" transform="translate(-2.64 1.63) rotate(-.39)"/>
  <circle class="cls-1" cx="161.16" cy="386.59" r="9.21" transform="translate(-2.64 1.11) rotate(-.39)"/>
  <circle class="cls-1" cx="386.51" cy="386.59" r="9.21" transform="translate(-2.64 2.66) rotate(-.39)"/>
  <circle class="cls-1" cx="311.4" cy="386.59" r="9.21" transform="translate(-2.64 2.14) rotate(-.39)"/>
  <circle class="cls-1" cx="86.04" cy="386.59" r="9.21" transform="translate(-2.65 .6) rotate(-.39)"/>
  <circle class="cls-1" cx="10.92" cy="386.59" r="9.21" transform="translate(-2.65 .08) rotate(-.39)"/>
  <circle class="cls-1" cx="461.63" cy="386.59" r="9.21" transform="translate(-2.64 3.17) rotate(-.39)"/>
  <circle class="cls-1" cx="536.75" cy="386.59" r="9.21" transform="translate(-2.64 3.69) rotate(-.39)"/>
  <circle class="cls-1" cx="236.28" cy="461.71" r="9.21" transform="translate(-3.16 1.63) rotate(-.39)"/>
  <circle class="cls-1" cx="161.16" cy="461.71" r="9.21" transform="translate(-3.16 1.11) rotate(-.39)"/>
  <circle class="cls-1" cx="386.51" cy="461.71" r="9.21" transform="translate(-3.15 2.66) rotate(-.39)"/>
  <circle class="cls-1" cx="311.4" cy="461.71" r="9.21" transform="translate(-3.15 2.14) rotate(-.39)"/>
  <circle class="cls-1" cx="86.04" cy="461.71" r="9.21" transform="translate(-3.16 .6) rotate(-.39)"/>
  <circle class="cls-1" cx="10.92" cy="461.71" r="9.21" transform="translate(-3.16 .09) rotate(-.39)"/>
  <circle class="cls-1" cx="461.63" cy="461.71" r="9.21" transform="translate(-3.15 3.17) rotate(-.39)"/>
  <circle class="cls-1" cx="536.75" cy="461.71" r="9.21" transform="translate(-3.15 3.69) rotate(-.39)"/>
  <circle class="cls-1" cx="236.28" cy="536.83" r="9.21" transform="translate(-3.67 1.63) rotate(-.39)"/>
  <circle class="cls-1" cx="161.16" cy="536.83" r="9.21" transform="translate(-3.67 1.12) rotate(-.39)"/>
  <circle class="cls-1" cx="386.51" cy="536.83" r="9.21" transform="translate(-3.67 2.66) rotate(-.39)"/>
  <circle class="cls-1" cx="311.4" cy="536.83" r="9.21" transform="translate(-3.67 2.15) rotate(-.39)"/>
  <circle class="cls-1" cx="86.04" cy="536.83" r="9.21" transform="translate(-3.67 .6) rotate(-.39)"/>
  <circle class="cls-1" cx="10.92" cy="536.83" r="9.21" transform="translate(-3.68 .09) rotate(-.39)"/>
  <circle class="cls-1" cx="461.63" cy="536.83" r="9.21" transform="translate(-3.67 3.17) rotate(-.39)"/>
  <circle class="cls-1" cx="536.75" cy="536.83" r="9.21" transform="translate(-3.66 3.69) rotate(-.39)"/>
  <circle class="cls-1" cx="236.28" cy="611.94" r="9.21" transform="translate(-4.19 1.63) rotate(-.39)"/>
  <circle class="cls-1" cx="161.16" cy="611.94" r="9.21" transform="translate(-4.19 1.12) rotate(-.39)"/>
  <circle class="cls-1" cx="386.51" cy="611.94" r="9.21" transform="translate(-4.18 2.66) rotate(-.39)"/>
  <circle class="cls-1" cx="311.4" cy="611.94" r="9.21" transform="translate(-4.18 2.15) rotate(-.39)"/>
  <circle class="cls-1" cx="86.04" cy="611.94" r="9.21" transform="translate(-4.19 .6) rotate(-.39)"/>
  <circle class="cls-1" cx="10.92" cy="611.94" r="9.21" transform="translate(-4.19 .09) rotate(-.39)"/>
  <circle class="cls-1" cx="461.63" cy="611.94" r="9.21" transform="translate(-4.18 3.18) rotate(-.39)"/>
  <circle class="cls-1" cx="536.75" cy="611.94" r="9.21" transform="translate(-4.18 3.69) rotate(-.39)"/>
  <circle class="cls-1" cx="236.28" cy="687.06" r="9.21" transform="translate(-4.7 1.63) rotate(-.39)"/>
  <circle class="cls-1" cx="161.16" cy="687.06" r="9.21" transform="translate(-4.7 1.12) rotate(-.39)"/>
  <circle class="cls-1" cx="386.51" cy="687.06" r="9.21" transform="translate(-4.7 2.66) rotate(-.39)"/>
  <circle class="cls-1" cx="311.4" cy="687.06" r="9.21" transform="translate(-4.7 2.15) rotate(-.39)"/>
  <circle class="cls-1" cx="86.04" cy="687.06" r="9.21" transform="translate(-4.7 .61) rotate(-.39)"/>
  <circle class="cls-1" cx="10.92" cy="687.06" r="9.21" transform="translate(-4.71 .09) rotate(-.39)"/>
  <circle class="cls-1" cx="461.63" cy="687.06" r="9.21" transform="translate(-4.69 3.18) rotate(-.39)"/>
  <circle class="cls-1" cx="536.75" cy="687.06" r="9.21" transform="translate(-4.69 3.69) rotate(-.39)"/>
  <circle class="cls-1" cx="236.28" cy="762.18" r="9.21" transform="translate(-5.21 1.64) rotate(-.39)"/>
  <circle class="cls-1" cx="161.16" cy="762.18" r="9.21" transform="translate(-5.22 1.12) rotate(-.39)"/>
  <circle class="cls-1" cx="386.51" cy="762.18" r="9.21" transform="translate(-5.21 2.67) rotate(-.39)"/>
  <circle class="cls-1" cx="311.4" cy="762.18" r="9.21" transform="translate(-5.21 2.15) rotate(-.39)"/>
  <circle class="cls-1" cx="86.04" cy="762.18" r="9.21" transform="translate(-5.22 .61) rotate(-.39)"/>
  <circle class="cls-1" cx="10.92" cy="762.18" r="9.21" transform="translate(-5.22 .09) rotate(-.39)"/>
  <circle class="cls-1" cx="461.63" cy="762.18" r="9.21" transform="translate(-5.21 3.18) rotate(-.39)"/>
  <circle class="cls-1" cx="536.75" cy="762.18" r="9.21" transform="translate(-5.21 3.69) rotate(-.39)"/>
  <circle class="cls-1" cx="611.87" cy="10.23" r="9.21" transform="translate(-.06 4.19) rotate(-.39)"/>
  <circle class="cls-1" cx="686.99" cy="10.23" r="9.21" transform="translate(-.05 4.71) rotate(-.39)"/>
  <circle class="cls-1" cx="611.87" cy="85.35" r="9.21" transform="translate(-.57 4.19) rotate(-.39)"/>
  <circle class="cls-1" cx="686.99" cy="85.35" r="9.21" transform="translate(-.57 4.71) rotate(-.39)"/>
  <circle class="cls-1" cx="611.87" cy="160.46" r="9.21" transform="translate(-1.08 4.19) rotate(-.39)"/>
  <circle class="cls-1" cx="686.99" cy="160.46" r="9.21" transform="translate(-1.08 4.71) rotate(-.39)"/>
  <circle class="cls-1" cx="611.87" cy="235.58" r="9.21" transform="translate(-1.6 4.2) rotate(-.39)"/>
  <circle class="cls-1" cx="686.99" cy="235.58" r="9.21" transform="translate(-1.6 4.71) rotate(-.39)"/>
  <circle class="cls-1" cx="611.87" cy="310.7" r="9.21" transform="translate(-2.11 4.2) rotate(-.39)"/>
  <circle class="cls-1" cx="686.99" cy="310.7" r="9.21" transform="translate(-2.11 4.71) rotate(-.39)"/>
  <circle class="cls-1" cx="611.87" cy="385.82" r="9.21" transform="translate(-2.63 4.2) rotate(-.39)"/>
  <circle class="cls-1" cx="686.99" cy="385.82" r="9.21" transform="translate(-2.63 4.71) rotate(-.39)"/>
  <circle class="cls-1" cx="611.87" cy="460.94" r="9.21" transform="translate(-3.14 4.2) rotate(-.39)"/>
  <circle class="cls-1" cx="686.99" cy="460.94" r="9.21" transform="translate(-3.14 4.72) rotate(-.39)"/>
  <circle class="cls-1" cx="611.87" cy="536.05" r="9.21" transform="translate(-3.66 4.2) rotate(-.39)"/>
  <circle class="cls-1" cx="686.99" cy="536.05" r="9.21" transform="translate(-3.66 4.72) rotate(-.39)"/>
  <circle class="cls-1" cx="611.87" cy="611.17" r="9.21" transform="translate(-4.17 4.2) rotate(-.39)"/>
  <circle class="cls-1" cx="686.99" cy="611.17" r="9.21" transform="translate(-4.17 4.72) rotate(-.39)"/>
  <circle class="cls-1" cx="611.87" cy="686.29" r="9.21" transform="translate(-4.69 4.21) rotate(-.39)"/>
  <circle class="cls-1" cx="686.99" cy="686.29" r="9.21" transform="translate(-4.68 4.72) rotate(-.39)"/>
  <circle class="cls-1" cx="611.87" cy="761.41" r="9.21" transform="translate(-5.2 4.21) rotate(-.39)"/>
  <circle class="cls-1" cx="686.99" cy="761.41" r="9.21" transform="translate(-5.2 4.72) rotate(-.39)"/>
  <circle class="cls-1" cx="762.11" cy="9.71" r="9.21" transform="translate(-.05 5.22) rotate(-.39)"/>
  <circle class="cls-1" cx="762.11" cy="84.83" r="9.21" transform="translate(-.56 5.22) rotate(-.39)"/>
  <circle class="cls-1" cx="762.11" cy="159.95" r="9.21" transform="translate(-1.08 5.22) rotate(-.39)"/>
  <circle class="cls-1" cx="762.11" cy="235.07" r="9.21" transform="translate(-1.59 5.23) rotate(-.39)"/>
  <circle class="cls-1" cx="762.11" cy="310.19" r="9.21" transform="translate(-2.11 5.23) rotate(-.39)"/>
  <circle class="cls-1" cx="762.11" cy="385.3" r="9.21" transform="translate(-2.62 5.23) rotate(-.39)"/>
  <circle class="cls-1" cx="762.11" cy="460.42" r="9.21" transform="translate(-3.14 5.23) rotate(-.39)"/>
  <circle class="cls-1" cx="762.11" cy="535.54" r="9.21" transform="translate(-3.65 5.23) rotate(-.39)"/>
  <circle class="cls-1" cx="762.11" cy="610.66" r="9.21" transform="translate(-4.16 5.23) rotate(-.39)"/>
  <circle class="cls-1" cx="762.11" cy="685.78" r="9.21" transform="translate(-4.68 5.24) rotate(-.39)"/>
  <circle class="cls-1" cx="762.11" cy="760.89" r="9.21" transform="translate(-5.19 5.24) rotate(-.39)"/>
  <circle class="cls-1" cx="235.07" cy="838.58" r="9.21" transform="translate(-5.74 1.63) rotate(-.39)"/>
  <circle class="cls-1" cx="159.95" cy="838.58" r="9.21" transform="translate(-5.74 1.12) rotate(-.39)"/>
  <circle class="cls-1" cx="385.3" cy="838.58" r="9.21" transform="translate(-5.73 2.66) rotate(-.39)"/>
  <circle class="cls-1" cx="310.19" cy="838.58" r="9.21" transform="translate(-5.74 2.14) rotate(-.39)"/>
  <circle class="cls-1" cx="84.83" cy="838.58" r="9.21" transform="translate(-5.74 .6) rotate(-.39)"/>
  <circle class="cls-1" cx="9.71" cy="838.58" r="9.21" transform="translate(-5.74 .09) rotate(-.39)"/>
  <circle class="cls-1" cx="460.42" cy="838.58" r="9.21" transform="translate(-5.73 3.17) rotate(-.39)"/>
  <circle class="cls-1" cx="535.54" cy="838.58" r="9.21" transform="translate(-5.73 3.69) rotate(-.39)"/>
  <circle class="cls-1" cx="235.07" cy="913.7" r="9.21" transform="translate(-6.25 1.63) rotate(-.39)"/>
  <circle class="cls-1" cx="159.95" cy="913.7" r="9.21" transform="translate(-6.25 1.12) rotate(-.39)"/>
  <circle class="cls-1" cx="385.3" cy="913.7" r="9.21" transform="translate(-6.25 2.66) rotate(-.39)"/>
  <circle class="cls-1" cx="310.19" cy="913.7" r="9.21" transform="translate(-6.25 2.15) rotate(-.39)"/>
  <circle class="cls-1" cx="84.83" cy="913.7" r="9.21" transform="translate(-6.26 .6) rotate(-.39)"/>
  <circle class="cls-1" cx="9.71" cy="913.7" r="9.21" transform="translate(-6.26 .09) rotate(-.39)"/>
  <circle class="cls-1" cx="460.42" cy="913.7" r="9.21" transform="translate(-6.25 3.17) rotate(-.39)"/>
  <circle class="cls-1" cx="535.54" cy="913.7" r="9.21" transform="translate(-6.25 3.69) rotate(-.39)"/>
  <circle class="cls-1" cx="235.07" cy="988.82" r="9.21" transform="translate(-6.77 1.63) rotate(-.39)"/>
  <circle class="cls-1" cx="159.95" cy="988.82" r="9.21" transform="translate(-6.77 1.12) rotate(-.39)"/>
  <circle class="cls-1" cx="385.3" cy="988.82" r="9.21" transform="translate(-6.76 2.66) rotate(-.39)"/>
  <circle class="cls-1" cx="310.19" cy="988.82" r="9.21" transform="translate(-6.76 2.15) rotate(-.39)"/>
  <circle class="cls-1" cx="84.83" cy="988.82" r="9.21" transform="translate(-6.77 .6) rotate(-.39)"/>
  <circle class="cls-1" cx="9.71" cy="988.82" r="9.21" transform="translate(-6.77 .09) rotate(-.39)"/>
  <circle class="cls-1" cx="460.42" cy="988.82" r="9.21" transform="translate(-6.76 3.18) rotate(-.39)"/>
  <circle class="cls-1" cx="535.54" cy="988.82" r="9.21" transform="translate(-6.76 3.69) rotate(-.39)"/>
  <circle class="cls-1" cx="235.07" cy="1063.94" r="9.21" transform="translate(-7.28 1.63) rotate(-.39)"/>
  <circle class="cls-1" cx="159.95" cy="1063.94" r="9.21" transform="translate(-7.28 1.12) rotate(-.39)"/>
  <circle class="cls-1" cx="385.3" cy="1063.94" r="9.21" transform="translate(-7.28 2.66) rotate(-.39)"/>
  <circle class="cls-1" cx="310.19" cy="1063.94" r="9.21" transform="translate(-7.28 2.15) rotate(-.39)"/>
  <circle class="cls-1" cx="84.83" cy="1063.94" r="9.21" transform="translate(-7.28 .61) rotate(-.39)"/>
  <circle class="cls-1" cx="9.71" cy="1063.94" r="9.21" transform="translate(-7.29 .09) rotate(-.39)"/>
  <circle class="cls-1" cx="460.42" cy="1063.94" r="9.21" transform="translate(-7.28 3.18) rotate(-.39)"/>
  <circle class="cls-1" cx="535.54" cy="1063.94" r="9.21" transform="translate(-7.27 3.69) rotate(-.39)"/>
  <circle class="cls-1" cx="610.66" cy="837.81" r="9.21" transform="translate(-5.72 4.2) rotate(-.39)"/>
  <circle class="cls-1" cx="685.78" cy="837.81" r="9.21" transform="translate(-5.72 4.72) rotate(-.39)"/>
  <circle class="cls-1" cx="610.66" cy="912.93" r="9.21" transform="translate(-6.24 4.2) rotate(-.39)"/>
  <circle class="cls-1" cx="685.78" cy="912.93" r="9.21" transform="translate(-6.24 4.72) rotate(-.39)"/>
  <circle class="cls-1" cx="610.66" cy="988.05" r="9.21" transform="translate(-6.75 4.21) rotate(-.39)"/>
  <circle class="cls-1" cx="685.78" cy="988.05" r="9.21" transform="translate(-6.75 4.72) rotate(-.39)"/>
  <circle class="cls-1" cx="610.66" cy="1063.17" r="9.21" transform="translate(-7.27 4.21) rotate(-.39)"/>
  <circle class="cls-1" cx="685.78" cy="1063.17" r="9.21" transform="translate(-7.27 4.72) rotate(-.39)"/>
  <circle class="cls-1" cx="760.89" cy="837.3" r="9.21" transform="translate(-5.72 5.23) rotate(-.39)"/>
  <circle class="cls-1" cx="760.89" cy="912.42" r="9.21" transform="translate(-6.23 5.23) rotate(-.39)"/>
  <circle class="cls-1" cx="760.89" cy="987.53" r="9.21" transform="translate(-6.75 5.23) rotate(-.39)"/>
  <circle class="cls-1" cx="760.89" cy="1062.65" r="9.21" transform="translate(-7.26 5.24) rotate(-.39)"/>
</svg>