<?xml version="1.0" encoding="UTF-8"?>
<svg id="Layer_1" xmlns="http://www.w3.org/2000/svg" version="1.1" viewBox="0 0 887.63 895.13">
  <!-- Generator: Adobe Illustrator 30.0.0, SVG Export Plug-In . SVG Version: 2.1.1 Build 123)  -->
  <defs>
    <style>
      .st0 {
        fill: #fff;
        stroke-miterlimit: 10;
        stroke-width: 1px;
      }

      .st0, .st1 {
        stroke: #ed1c24;
      }

      .st1 {
        fill: none;
        stroke-miterlimit: 10;
      }
    </style>
  </defs>
  <circle class="st0" cx="630.15" cy="327.54" r="7.09"/>
  <path class="st1" d="M859.76,301.18c14.09,0,25.52,11.1,25.52,24.8s-11.43,24.8-25.52,24.8h-459.21c-14.09,0-25.52-11.1-25.52-24.8s11.43-24.8,25.52-24.8h459.21"/>
  <path class="st1" d="M527.39,209.12v19.13h-56.42v-19.13h-69.53v19.13h-59.01s-.37-17.8,6.84-28.38c9.67-14.18,15.69-18.33,29.43-25.46,18.89-9.79,175.94-20.94,175.94-20.94v31.72h11.53v-29.39s37.2,1.02,50.52,7.24c8.76,4.09,16.73,18.79,20.04,37.49.96,5.4,2.82,27.72,2.82,27.72h-42.46v-19.13h-69.72.02Z"/>
  <path class="st1" d="M650.75,235.67l-.13-19.13,56.42-.39.13,19.13c37.31-.26,68.6-.47,69.53-.48l-.13-19.13,59.01-.4s.49,17.8-6.65,28.43c-9.57,14.25-15.56,18.44-29.26,25.66-18.82,9.91-175.79,22.15-175.79,22.15l-.22-31.72-11.53.08.2,29.39s-37.21-.77-50.57-6.9c-8.79-4.03-16.86-18.68-20.3-37.36-.99-5.4-3.01-27.7-3.01-27.7l42.46-.29.13,19.13c3.11-.02,33.65-.23,69.71-.48h0Z"/>
  <circle class="st0" cx="555.04" cy="327.54" r="7.09"/>
  <circle class="st0" cx="705.27" cy="327.54" r="7.09"/>
  <circle class="st0" cx="780.3" cy="327.54" r="7.09"/>
  <circle class="st0" cx="855.42" cy="327.54" r="7.09"/>
  <circle class="st0" cx="480.03" cy="327.54" r="7.09"/>
  <circle class="st0" cx="404.91" cy="327.54" r="7.09"/>
  <circle class="st0" cx="630.15" cy="386.82" r="7.09"/>
  <path class="st1" d="M859.76,360.45c14.09,0,25.52,11.1,25.52,24.8s-11.43,24.8-25.52,24.8h-459.21c-14.09,0-25.52-11.1-25.52-24.8s11.43-24.8,25.52-24.8h459.21"/>
  <circle class="st0" cx="555.04" cy="386.82" r="7.09"/>
  <circle class="st0" cx="705.27" cy="386.82" r="7.09"/>
  <circle class="st0" cx="780.3" cy="386.82" r="7.09"/>
  <circle class="st0" cx="855.42" cy="386.82" r="7.09"/>
  <circle class="st0" cx="480.03" cy="386.82" r="7.09"/>
  <circle class="st0" cx="404.91" cy="386.82" r="7.09"/>
  <circle class="st0" cx="630.15" cy="446.09" r="7.09"/>
  <path class="st1" d="M859.76,419.72c14.09,0,25.52,11.1,25.52,24.8s-11.43,24.8-25.52,24.8h-459.21c-14.09,0-25.52-11.1-25.52-24.8s11.43-24.8,25.52-24.8h459.21"/>
  <circle class="st0" cx="555.04" cy="446.09" r="7.09"/>
  <circle class="st0" cx="705.27" cy="446.09" r="7.09"/>
  <circle class="st0" cx="780.3" cy="446.09" r="7.09"/>
  <circle class="st0" cx="855.42" cy="446.09" r="7.09"/>
  <circle class="st0" cx="480.03" cy="446.09" r="7.09"/>
  <circle class="st0" cx="404.91" cy="446.09" r="7.09"/>
  <circle class="st0" cx="630.15" cy="505.36" r="7.09"/>
  <path class="st1" d="M859.76,479c14.09,0,25.52,11.1,25.52,24.8s-11.43,24.8-25.52,24.8h-459.21c-14.09,0-25.52-11.1-25.52-24.8s11.43-24.8,25.52-24.8h459.21"/>
  <circle class="st0" cx="555.04" cy="505.36" r="7.09"/>
  <circle class="st0" cx="705.27" cy="505.36" r="7.09"/>
  <circle class="st0" cx="780.3" cy="505.36" r="7.09"/>
  <circle class="st0" cx="855.42" cy="505.36" r="7.09"/>
  <circle class="st0" cx="480.03" cy="505.36" r="7.09"/>
  <circle class="st0" cx="404.91" cy="505.36" r="7.09"/>
  <circle class="st0" cx="630.15" cy="683.18" r="7.09"/>
  <path class="st1" d="M859.76,656.82c14.09,0,25.52,11.1,25.52,24.8s-11.43,24.8-25.52,24.8h-459.21c-14.09,0-25.52-11.1-25.52-24.8s11.43-24.8,25.52-24.8h459.21"/>
  <circle class="st0" cx="555.04" cy="683.18" r="7.09"/>
  <circle class="st0" cx="705.27" cy="683.18" r="7.09"/>
  <circle class="st0" cx="780.3" cy="683.18" r="7.09"/>
  <circle class="st0" cx="855.42" cy="683.18" r="7.09"/>
  <circle class="st0" cx="480.03" cy="683.18" r="7.09"/>
  <circle class="st0" cx="404.91" cy="683.18" r="7.09"/>
  <circle class="st0" cx="630.15" cy="742.45" r="7.09"/>
  <path class="st1" d="M859.76,716.09c14.09,0,25.52,11.1,25.52,24.8s-11.43,24.8-25.52,24.8h-459.21c-14.09,0-25.52-11.1-25.52-24.8s11.43-24.8,25.52-24.8h459.21"/>
  <circle class="st0" cx="555.04" cy="742.45" r="7.09"/>
  <circle class="st0" cx="705.27" cy="742.45" r="7.09"/>
  <circle class="st0" cx="780.3" cy="742.45" r="7.09"/>
  <circle class="st0" cx="855.42" cy="742.45" r="7.09"/>
  <circle class="st0" cx="480.03" cy="742.45" r="7.09"/>
  <circle class="st0" cx="404.91" cy="742.45" r="7.09"/>
  <circle class="st0" cx="630.16" cy="564.64" r="7.09"/>
  <path class="st1" d="M859.76,538.27c14.09,0,25.52,11.1,25.52,24.8s-11.43,24.8-25.52,24.8h-459.21c-14.09,0-25.52-11.1-25.52-24.8s11.43-24.8,25.52-24.8h459.21"/>
  <circle class="st0" cx="555.04" cy="564.64" r="7.09"/>
  <circle class="st0" cx="705.27" cy="564.64" r="7.09"/>
  <circle class="st0" cx="780.3" cy="564.64" r="7.09"/>
  <circle class="st0" cx="855.42" cy="564.64" r="7.09"/>
  <circle class="st0" cx="480.03" cy="564.64" r="7.09"/>
  <circle class="st0" cx="404.91" cy="564.64" r="7.09"/>
  <circle class="st0" cx="630.15" cy="623.91" r="7.09"/>
  <path class="st1" d="M859.76,597.54c14.09,0,25.52,11.1,25.52,24.8s-11.43,24.8-25.52,24.8h-459.21c-14.09,0-25.52-11.1-25.52-24.8s11.43-24.8,25.52-24.8h459.21"/>
  <circle class="st0" cx="555.04" cy="623.91" r="7.09"/>
  <circle class="st0" cx="705.27" cy="623.91" r="7.09"/>
  <circle class="st0" cx="780.3" cy="623.91" r="7.09"/>
  <circle class="st0" cx="855.42" cy="623.91" r="7.09"/>
  <circle class="st0" cx="480.03" cy="623.91" r="7.09"/>
  <circle class="st0" cx="404.91" cy="623.91" r="7.09"/>
  <circle class="st0" cx="630.16" cy="801.73" r="7.09"/>
  <path class="st1" d="M859.76,775.36c14.09,0,25.52,11.1,25.52,24.8s-11.43,24.8-25.52,24.8h-459.21c-14.09,0-25.52-11.1-25.52-24.8s11.43-24.8,25.52-24.8h459.21"/>
  <circle class="st0" cx="555.04" cy="801.73" r="7.09"/>
  <circle class="st0" cx="705.27" cy="801.73" r="7.09"/>
  <circle class="st0" cx="780.3" cy="801.73" r="7.09"/>
  <circle class="st0" cx="855.42" cy="801.73" r="7.09"/>
  <circle class="st0" cx="480.03" cy="801.73" r="7.09"/>
  <circle class="st0" cx="404.91" cy="801.73" r="7.09"/>
  <circle class="st0" cx="630.15" cy="861" r="7.09"/>
  <path class="st1" d="M859.76,834.64c14.09,0,25.52,11.1,25.52,24.8s-11.43,24.8-25.52,24.8h-459.21c-14.09,0-25.52-11.1-25.52-24.8s11.43-24.8,25.52-24.8h459.21"/>
  <circle class="st0" cx="555.04" cy="861" r="7.09"/>
  <circle class="st0" cx="705.27" cy="861" r="7.09"/>
  <circle class="st0" cx="780.3" cy="861" r="7.09"/>
  <circle class="st0" cx="855.42" cy="861" r="7.09"/>
  <circle class="st0" cx="480.03" cy="861" r="7.09"/>
  <circle class="st0" cx="404.91" cy="861" r="7.09"/>
</svg>