<?xml version="1.0" encoding="UTF-8"?>
<svg xmlns="http://www.w3.org/2000/svg" viewBox="0 0 771.82 1073.65" version="1.1">
  <title>MS4N 03 Crank Slider and Motion Trace Passport</title>
  <defs>
    <style>
      .cut { fill: none; stroke: #ed1c24; stroke-width: 1; stroke-miterlimit: 10; }
      .score { fill: none; stroke: #0071bc; stroke-width: 0.8; stroke-miterlimit: 10; }
      .guide { fill: none; stroke: #999999; stroke-width: 0.5; stroke-dasharray: 4 4; }
      .fillcut { fill: #ffffff; stroke: #ed1c24; stroke-width: 1; stroke-miterlimit: 10; }
      .label { fill: #333333; font-family: Arial, Helvetica, sans-serif; font-size: 14px; }
      .tiny { fill: #333333; font-family: Arial, Helvetica, sans-serif; font-size: 9px; }
      .card { fill: #ffffff; stroke: #ed1c24; stroke-width: 1; }
      .soft { fill: #f5f7fa; stroke: #999999; stroke-width: 0.5; }
    </style>
  </defs>
    <text class="label" x="24" y="30" font-size="16" text-anchor="start">MS4N-03 Crank-Slider: crank radius → stroke amplitude</text>
    <circle class="cut" cx="115" cy="135" r="60"/>
    <circle class="cut" cx="115" cy="135" r="7.09"/>
    <circle class="cut" cx="141.29" cy="135" r="7.09"/>
    <line class="score" x1="115" y1="135" x2="141.29" y2="135"/>
    <circle class="cut" cx="156.32" cy="135" r="7.09"/>
    <line class="score" x1="115" y1="135" x2="156.32" y2="135"/>
    <circle class="cut" cx="171.34" cy="135" r="7.09"/>
    <line class="score" x1="115" y1="135" x2="171.34" y2="135"/>
    <text class="tiny" x="115" y="213" font-size="9" text-anchor="middle">crank wheel 1</text>
    <circle class="cut" cx="300" cy="135" r="75"/>
    <circle class="cut" cx="300" cy="135" r="7.09"/>
    <circle class="cut" cx="326.29" cy="135" r="7.09"/>
    <line class="score" x1="300" y1="135" x2="326.29" y2="135"/>
    <circle class="cut" cx="341.32" cy="135" r="7.09"/>
    <line class="score" x1="300" y1="135" x2="341.32" y2="135"/>
    <circle class="cut" cx="356.34" cy="135" r="7.09"/>
    <line class="score" x1="300" y1="135" x2="356.34" y2="135"/>
    <text class="tiny" x="300" y="228" font-size="9" text-anchor="middle">crank wheel 2</text>
    <circle class="cut" cx="505" cy="135" r="92"/>
    <circle class="cut" cx="505" cy="135" r="7.09"/>
    <circle class="cut" cx="531.29" cy="135" r="7.09"/>
    <line class="score" x1="505" y1="135" x2="531.29" y2="135"/>
    <circle class="cut" cx="546.32" cy="135" r="7.09"/>
    <line class="score" x1="505" y1="135" x2="546.32" y2="135"/>
    <circle class="cut" cx="561.34" cy="135" r="7.09"/>
    <line class="score" x1="505" y1="135" x2="561.34" y2="135"/>
    <text class="tiny" x="505" y="245" font-size="9" text-anchor="middle">crank wheel 3</text>
    <path class="cut" d="M 75 313 L 640 313 A 22 22 0 0 1 640 357 L 75 357 A 22 22 0 0 1 75 313 Z"/>
    <path class="cut" d="M 120 328 L 595 328 A 7 7 0 0 1 595 342 L 120 342 A 7 7 0 0 1 120 328 Z"/>
    <circle class="score" cx="75" cy="335" r="4.5"/>
    <circle class="score" cx="150" cy="335" r="4.5"/>
    <circle class="score" cx="225" cy="335" r="4.5"/>
    <circle class="score" cx="300" cy="335" r="4.5"/>
    <circle class="score" cx="375" cy="335" r="4.5"/>
    <circle class="score" cx="450" cy="335" r="4.5"/>
    <circle class="score" cx="525" cy="335" r="4.5"/>
    <circle class="score" cx="600" cy="335" r="4.5"/>
    <circle class="cut" cx="75" cy="335" r="7.09"/>
    <circle class="cut" cx="640" cy="335" r="7.09"/>
    <text class="tiny" x="357" y="374" font-size="8" text-anchor="middle">slider rail 1 / trace scale</text>
    <path class="cut" d="M 75 418 L 640 418 A 22 22 0 0 1 640 462 L 75 462 A 22 22 0 0 1 75 418 Z"/>
    <path class="cut" d="M 120 433 L 595 433 A 7 7 0 0 1 595 447 L 120 447 A 7 7 0 0 1 120 433 Z"/>
    <circle class="score" cx="75" cy="440" r="4.5"/>
    <circle class="score" cx="150" cy="440" r="4.5"/>
    <circle class="score" cx="225" cy="440" r="4.5"/>
    <circle class="score" cx="300" cy="440" r="4.5"/>
    <circle class="score" cx="375" cy="440" r="4.5"/>
    <circle class="score" cx="450" cy="440" r="4.5"/>
    <circle class="score" cx="525" cy="440" r="4.5"/>
    <circle class="score" cx="600" cy="440" r="4.5"/>
    <circle class="cut" cx="75" cy="440" r="7.09"/>
    <circle class="cut" cx="640" cy="440" r="7.09"/>
    <text class="tiny" x="357" y="479" font-size="8" text-anchor="middle">slider rail 2 / trace scale</text>
    <path class="cut" d="M 75 523 L 640 523 A 22 22 0 0 1 640 567 L 75 567 A 22 22 0 0 1 75 523 Z"/>
    <path class="cut" d="M 120 538 L 595 538 A 7 7 0 0 1 595 552 L 120 552 A 7 7 0 0 1 120 538 Z"/>
    <circle class="score" cx="75" cy="545" r="4.5"/>
    <circle class="score" cx="150" cy="545" r="4.5"/>
    <circle class="score" cx="225" cy="545" r="4.5"/>
    <circle class="score" cx="300" cy="545" r="4.5"/>
    <circle class="score" cx="375" cy="545" r="4.5"/>
    <circle class="score" cx="450" cy="545" r="4.5"/>
    <circle class="score" cx="525" cy="545" r="4.5"/>
    <circle class="score" cx="600" cy="545" r="4.5"/>
    <circle class="cut" cx="75" cy="545" r="7.09"/>
    <circle class="cut" cx="640" cy="545" r="7.09"/>
    <text class="tiny" x="357" y="584" font-size="8" text-anchor="middle">slider rail 3 / trace scale</text>
    <path class="cut" d="M 75 628 L 640 628 A 22 22 0 0 1 640 672 L 75 672 A 22 22 0 0 1 75 628 Z"/>
    <path class="cut" d="M 120 643 L 595 643 A 7 7 0 0 1 595 657 L 120 657 A 7 7 0 0 1 120 643 Z"/>
    <circle class="score" cx="75" cy="650" r="4.5"/>
    <circle class="score" cx="150" cy="650" r="4.5"/>
    <circle class="score" cx="225" cy="650" r="4.5"/>
    <circle class="score" cx="300" cy="650" r="4.5"/>
    <circle class="score" cx="375" cy="650" r="4.5"/>
    <circle class="score" cx="450" cy="650" r="4.5"/>
    <circle class="score" cx="525" cy="650" r="4.5"/>
    <circle class="score" cx="600" cy="650" r="4.5"/>
    <circle class="cut" cx="75" cy="650" r="7.09"/>
    <circle class="cut" cx="640" cy="650" r="7.09"/>
    <text class="tiny" x="357" y="689" font-size="8" text-anchor="middle">slider rail 4 / trace scale</text>
    <rect class="cut" x="90" y="780" width="95" height="52" rx="10" ry="10"/>
    <circle class="cut" cx="114" cy="806" r="7.09"/>
    <circle class="cut" cx="161" cy="806" r="7.09"/>
    <line class="score" x1="100" y1="792" x2="175" y2="792"/>
    <text class="tiny" x="137.5" y="852" font-size="8" text-anchor="middle">slider block</text>
    <rect class="cut" x="235" y="780" width="95" height="52" rx="10" ry="10"/>
    <circle class="cut" cx="259" cy="806" r="7.09"/>
    <circle class="cut" cx="306" cy="806" r="7.09"/>
    <line class="score" x1="245" y1="792" x2="320" y2="792"/>
    <text class="tiny" x="282.5" y="852" font-size="8" text-anchor="middle">slider block</text>
    <rect class="cut" x="380" y="780" width="95" height="52" rx="10" ry="10"/>
    <circle class="cut" cx="404" cy="806" r="7.09"/>
    <circle class="cut" cx="451" cy="806" r="7.09"/>
    <line class="score" x1="390" y1="792" x2="465" y2="792"/>
    <text class="tiny" x="427.5" y="852" font-size="8" text-anchor="middle">slider block</text>
    <rect class="cut" x="525" y="780" width="95" height="52" rx="10" ry="10"/>
    <circle class="cut" cx="549" cy="806" r="7.09"/>
    <circle class="cut" cx="596" cy="806" r="7.09"/>
    <line class="score" x1="535" y1="792" x2="610" y2="792"/>
    <text class="tiny" x="572.5" y="852" font-size="8" text-anchor="middle">slider block</text>
    <rect class="cut" x="90" y="885" width="95" height="52" rx="10" ry="10"/>
    <circle class="cut" cx="114" cy="911" r="7.09"/>
    <circle class="cut" cx="161" cy="911" r="7.09"/>
    <line class="score" x1="100" y1="897" x2="175" y2="897"/>
    <text class="tiny" x="137.5" y="957" font-size="8" text-anchor="middle">slider block</text>
    <rect class="cut" x="235" y="885" width="95" height="52" rx="10" ry="10"/>
    <circle class="cut" cx="259" cy="911" r="7.09"/>
    <circle class="cut" cx="306" cy="911" r="7.09"/>
    <line class="score" x1="245" y1="897" x2="320" y2="897"/>
    <text class="tiny" x="282.5" y="957" font-size="8" text-anchor="middle">slider block</text>
    <rect class="cut" x="380" y="885" width="95" height="52" rx="10" ry="10"/>
    <circle class="cut" cx="404" cy="911" r="7.09"/>
    <circle class="cut" cx="451" cy="911" r="7.09"/>
    <line class="score" x1="390" y1="897" x2="465" y2="897"/>
    <text class="tiny" x="427.5" y="957" font-size="8" text-anchor="middle">slider block</text>
    <rect class="cut" x="525" y="885" width="95" height="52" rx="10" ry="10"/>
    <circle class="cut" cx="549" cy="911" r="7.09"/>
    <circle class="cut" cx="596" cy="911" r="7.09"/>
    <line class="score" x1="535" y1="897" x2="610" y2="897"/>
    <text class="tiny" x="572.5" y="957" font-size="8" text-anchor="middle">slider block</text>
</svg>
