<?xml version="1.0" encoding="UTF-8"?>
<svg xmlns="http://www.w3.org/2000/svg" viewBox="0 0 771.82 1073.65" version="1.1">
  <title>MS4N 02 Cam Shape Composer</title>
  <defs>
    <style>
      .cut { fill: none; stroke: #ed1c24; stroke-width: 1; stroke-miterlimit: 10; }
      .score { fill: none; stroke: #0071bc; stroke-width: 0.8; stroke-miterlimit: 10; }
      .guide { fill: none; stroke: #999999; stroke-width: 0.5; stroke-dasharray: 4 4; }
      .fillcut { fill: #ffffff; stroke: #ed1c24; stroke-width: 1; stroke-miterlimit: 10; }
      .label { fill: #333333; font-family: Arial, Helvetica, sans-serif; font-size: 14px; }
      .tiny { fill: #333333; font-family: Arial, Helvetica, sans-serif; font-size: 9px; }
      .card { fill: #ffffff; stroke: #ed1c24; stroke-width: 1; }
      .soft { fill: #f5f7fa; stroke: #999999; stroke-width: 0.5; }
    </style>
  </defs>
    <text class="label" x="24" y="30" font-size="16" text-anchor="start">MS4N-02 Cam Shape Composer: cam shape → follower height/rhythm</text>
    <path class="cut" d="M 157 125 L 156.9 128.07 L 156.6 131.13 L 156.1 134.17 L 155.4 137.16 L 154.51 140.11 L 153.42 142.99 L 152.15 145.79 L 150.7 148.5 L 149.08 151.11 L 147.29 153.61 L 145.34 155.99 L 143.23 158.23 L 140.99 160.34 L 138.61 162.29 L 136.11 164.08 L 133.5 165.7 L 130.79 167.15 L 127.99 168.42 L 125.11 169.51 L 122.16 170.4 L 119.17 171.1 L 116.13 171.6 L 113.07 171.9 L 110 172 L 106.93 171.9 L 103.87 171.6 L 100.83 171.1 L 97.84 170.4 L 94.89 169.51 L 92.01 168.42 L 89.21 167.15 L 86.5 165.7 L 83.89 164.08 L 81.39 162.29 L 79.01 160.34 L 76.77 158.23 L 74.66 155.99 L 72.71 153.61 L 70.92 151.11 L 69.3 148.5 L 67.85 145.79 L 66.58 142.99 L 65.49 140.11 L 64.6 137.16 L 63.9 134.17 L 63.4 131.13 L 63.1 128.07 L 63 125 L 63.1 121.93 L 63.4 118.87 L 63.9 115.83 L 64.6 112.84 L 65.49 109.89 L 66.58 107.01 L 67.85 104.21 L 69.3 101.5 L 70.92 98.89 L 72.71 96.39 L 74.66 94.01 L 76.77 91.77 L 79.01 89.66 L 81.39 87.71 L 83.89 85.92 L 86.5 84.3 L 89.21 82.85 L 92.01 81.58 L 94.89 80.49 L 97.84 79.6 L 100.83 78.9 L 103.87 78.4 L 106.93 78.1 L 110 78 L 113.07 78.1 L 116.13 78.4 L 119.17 78.9 L 122.16 79.6 L 125.11 80.49 L 127.99 81.58 L 130.79 82.85 L 133.5 84.3 L 136.11 85.92 L 138.61 87.71 L 140.99 89.66 L 143.23 91.77 L 145.34 94.01 L 147.29 96.39 L 149.08 98.89 L 150.7 101.5 L 152.15 104.21 L 153.42 107.01 L 154.51 109.89 L 155.4 112.84 L 156.1 115.83 L 156.6 118.87 L 156.9 121.93 Z"/>
    <circle class="cut" cx="110" cy="125" r="7.09"/>
    <circle class="score" cx="132" cy="125" r="3.5"/>
    <line class="score" x1="110" y1="125" x2="132" y2="125"/>
    <text class="tiny" x="110" y="203" font-size="9" text-anchor="middle">circle / steady</text>
    <path class="cut" d="M 328 125 L 327.86 128.79 L 327.44 132.56 L 326.73 136.29 L 325.76 139.94 L 324.52 143.51 L 323.02 146.96 L 321.28 150.29 L 319.3 153.46 L 317.1 156.47 L 314.7 159.3 L 312.11 161.93 L 309.36 164.36 L 306.45 166.56 L 303.4 168.53 L 300.25 170.27 L 297 171.77 L 293.68 173.02 L 290.31 174.02 L 286.9 174.78 L 283.48 175.3 L 280.06 175.57 L 276.66 175.61 L 273.3 175.42 L 270 175 L 266.76 174.37 L 263.61 173.54 L 260.55 172.51 L 257.59 171.3 L 254.75 169.91 L 252.04 168.37 L 249.45 166.67 L 247 164.84 L 244.69 162.88 L 242.53 160.8 L 240.51 158.63 L 238.64 156.36 L 236.93 154 L 235.37 151.57 L 233.96 149.08 L 232.7 146.54 L 231.59 143.94 L 230.63 141.31 L 229.83 138.64 L 229.17 135.94 L 228.66 133.22 L 228.29 130.49 L 228.07 127.75 L 228 125 L 228.07 122.25 L 228.29 119.51 L 228.66 116.78 L 229.17 114.06 L 229.83 111.36 L 230.63 108.69 L 231.59 106.06 L 232.7 103.46 L 233.96 100.92 L 235.37 98.43 L 236.93 96 L 238.64 93.64 L 240.51 91.37 L 242.53 89.2 L 244.69 87.12 L 247 85.16 L 249.45 83.33 L 252.04 81.63 L 254.75 80.09 L 257.59 78.7 L 260.55 77.49 L 263.61 76.46 L 266.76 75.63 L 270 75 L 273.3 74.58 L 276.66 74.39 L 280.06 74.43 L 283.48 74.7 L 286.9 75.22 L 290.31 75.98 L 293.68 76.98 L 297 78.23 L 300.25 79.73 L 303.4 81.47 L 306.45 83.44 L 309.36 85.64 L 312.11 88.07 L 314.7 90.7 L 317.1 93.53 L 319.3 96.54 L 321.28 99.71 L 323.02 103.04 L 324.52 106.49 L 325.76 110.06 L 326.73 113.71 L 327.44 117.44 L 327.86 121.21 Z"/>
    <circle class="cut" cx="270" cy="125" r="7.09"/>
    <circle class="score" cx="292" cy="125" r="3.5"/>
    <line class="score" x1="270" y1="125" x2="292" y2="125"/>
    <text class="tiny" x="270" y="203" font-size="9" text-anchor="middle">eccentric / bounce</text>
    <path class="cut" d="M 492 125 L 491.71 129.04 L 490.86 133.01 L 489.49 136.83 L 487.65 140.45 L 485.43 143.82 L 482.9 146.91 L 480.12 149.72 L 477.19 152.24 L 474.14 154.49 L 471.03 156.49 L 467.9 158.24 L 464.77 159.77 L 461.67 161.11 L 458.6 162.27 L 455.57 163.26 L 452.58 164.11 L 449.64 164.84 L 446.75 165.44 L 443.89 165.93 L 441.07 166.32 L 438.28 166.62 L 435.51 166.83 L 432.75 166.96 L 430 167 L 427.25 166.96 L 424.49 166.83 L 421.72 166.62 L 418.93 166.32 L 416.11 165.93 L 413.25 165.44 L 410.36 164.84 L 407.42 164.11 L 404.43 163.26 L 401.4 162.27 L 398.33 161.11 L 395.23 159.77 L 392.1 158.24 L 388.97 156.49 L 385.86 154.49 L 382.81 152.24 L 379.88 149.72 L 377.1 146.91 L 374.57 143.82 L 372.35 140.45 L 370.51 136.83 L 369.14 133.01 L 368.29 129.04 L 368 125 L 368.29 120.96 L 369.14 116.99 L 370.51 113.17 L 372.35 109.55 L 374.57 106.18 L 377.1 103.09 L 379.88 100.28 L 382.81 97.76 L 385.86 95.51 L 388.97 93.51 L 392.1 91.76 L 395.23 90.23 L 398.33 88.89 L 401.4 87.73 L 404.43 86.74 L 407.42 85.89 L 410.36 85.16 L 413.25 84.56 L 416.11 84.07 L 418.93 83.68 L 421.72 83.38 L 424.49 83.17 L 427.25 83.04 L 430 83 L 432.75 83.04 L 435.51 83.17 L 438.28 83.38 L 441.07 83.68 L 443.89 84.07 L 446.75 84.56 L 449.64 85.16 L 452.58 85.89 L 455.57 86.74 L 458.6 87.73 L 461.67 88.89 L 464.77 90.23 L 467.9 91.76 L 471.03 93.51 L 474.14 95.51 L 477.19 97.76 L 480.12 100.28 L 482.9 103.09 L 485.43 106.18 L 487.65 109.55 L 489.49 113.17 L 490.86 116.99 L 491.71 120.96 Z"/>
    <circle class="cut" cx="430" cy="125" r="7.09"/>
    <circle class="score" cx="452" cy="125" r="3.5"/>
    <line class="score" x1="430" y1="125" x2="452" y2="125"/>
    <text class="tiny" x="430" y="203" font-size="9" text-anchor="middle">oval / smooth rise</text>
    <path class="cut" d="M 650.9 125 L 651.85 129.05 L 652.46 133.22 L 652.72 137.47 L 652.6 141.77 L 652.09 146.08 L 651.18 150.34 L 649.88 154.53 L 648.17 158.58 L 646.07 162.47 L 643.6 166.13 L 640.79 169.54 L 637.65 172.65 L 634.23 175.43 L 630.56 177.85 L 626.68 179.9 L 622.65 181.54 L 618.5 182.79 L 614.28 183.62 L 610.05 184.06 L 605.84 184.1 L 601.69 183.77 L 597.65 183.09 L 593.74 182.08 L 590 180.78 L 586.45 179.23 L 583.1 177.45 L 579.96 175.48 L 577.04 173.35 L 574.35 171.11 L 571.87 168.78 L 569.59 166.39 L 567.5 163.97 L 565.59 161.53 L 563.84 159.09 L 562.23 156.67 L 560.74 154.26 L 559.36 151.87 L 558.06 149.51 L 556.84 147.16 L 555.69 144.81 L 554.6 142.46 L 553.56 140.09 L 552.59 137.7 L 551.68 135.27 L 550.84 132.79 L 550.09 130.25 L 549.44 127.66 L 548.9 125 L 548.5 122.28 L 548.25 119.5 L 548.17 116.68 L 548.28 113.82 L 548.59 110.94 L 549.11 108.06 L 549.86 105.2 L 550.83 102.39 L 552.04 99.64 L 553.49 96.98 L 555.15 94.44 L 557.04 92.04 L 559.13 89.8 L 561.41 87.74 L 563.85 85.87 L 566.45 84.21 L 569.17 82.77 L 572 81.55 L 574.91 80.55 L 577.88 79.78 L 580.89 79.23 L 583.93 78.88 L 586.97 78.74 L 590 78.78 L 593.01 79.01 L 596 79.4 L 598.96 79.94 L 601.89 80.62 L 604.79 81.44 L 607.65 82.38 L 610.49 83.45 L 613.31 84.63 L 616.1 85.94 L 618.88 87.36 L 621.64 88.92 L 624.38 90.62 L 627.1 92.47 L 629.79 94.47 L 632.43 96.65 L 635.02 99.01 L 637.54 101.56 L 639.96 104.31 L 642.26 107.26 L 644.41 110.42 L 646.38 113.79 L 648.14 117.35 L 649.66 121.09 Z"/>
    <circle class="cut" cx="590" cy="125" r="7.09"/>
    <circle class="score" cx="612" cy="125" r="3.5"/>
    <line class="score" x1="590" y1="125" x2="612" y2="125"/>
    <text class="tiny" x="590" y="203" font-size="9" text-anchor="middle">pear / slow-fast</text>
    <path class="cut" d="M 177 300 L 176.68 304.37 L 175.72 308.65 L 174.16 312.76 L 172.05 316.63 L 169.44 320.18 L 166.43 323.37 L 163.09 326.18 L 159.52 328.59 L 155.81 330.61 L 152.03 332.25 L 148.27 333.56 L 144.58 334.58 L 141.01 335.36 L 137.59 335.95 L 134.33 336.42 L 131.25 336.81 L 128.32 337.15 L 125.53 337.48 L 122.84 337.81 L 120.22 338.14 L 117.65 338.45 L 115.1 338.73 L 112.55 338.92 L 110 339 L 107.45 338.92 L 104.91 338.67 L 102.39 338.25 L 99.91 337.67 L 97.46 336.93 L 95.08 336.03 L 92.75 334.98 L 90.5 333.77 L 88.33 332.43 L 86.26 330.94 L 84.29 329.32 L 82.42 327.58 L 80.68 325.71 L 79.06 323.74 L 77.57 321.67 L 76.23 319.5 L 75.02 317.25 L 73.97 314.92 L 73.07 312.54 L 72.33 310.09 L 71.75 307.61 L 71.33 305.09 L 71.08 302.55 L 71 300 L 71.08 297.45 L 71.33 294.91 L 71.75 292.39 L 72.33 289.91 L 73.07 287.46 L 73.97 285.08 L 75.02 282.75 L 76.23 280.5 L 77.57 278.33 L 79.06 276.26 L 80.68 274.29 L 82.42 272.42 L 84.29 270.68 L 86.26 269.06 L 88.33 267.57 L 90.5 266.23 L 92.75 265.02 L 95.08 263.97 L 97.46 263.07 L 99.91 262.33 L 102.39 261.75 L 104.91 261.33 L 107.45 261.08 L 110 261 L 112.55 261.08 L 115.1 261.27 L 117.65 261.55 L 120.22 261.86 L 122.84 262.19 L 125.53 262.52 L 128.32 262.85 L 131.25 263.19 L 134.33 263.58 L 137.59 264.05 L 141.01 264.64 L 144.58 265.42 L 148.27 266.44 L 152.03 267.75 L 155.81 269.39 L 159.52 271.41 L 163.09 273.82 L 166.43 276.63 L 169.44 279.82 L 172.05 283.37 L 174.16 287.24 L 175.72 291.35 L 176.68 295.63 Z"/>
    <circle class="cut" cx="110" cy="300" r="7.09"/>
    <circle class="score" cx="132" cy="300" r="3.5"/>
    <line class="score" x1="110" y1="300" x2="132" y2="300"/>
    <text class="tiny" x="110" y="378" font-size="9" text-anchor="middle">single bump / surprise</text>
    <path class="cut" d="M 330.9 300 L 331.85 304.05 L 332.46 308.22 L 332.72 312.47 L 332.6 316.77 L 332.09 321.08 L 331.18 325.34 L 329.88 329.53 L 328.17 333.58 L 326.07 337.47 L 323.6 341.13 L 320.79 344.54 L 317.65 347.65 L 314.23 350.43 L 310.56 352.85 L 306.68 354.9 L 302.65 356.54 L 298.5 357.79 L 294.28 358.62 L 290.05 359.06 L 285.84 359.1 L 281.69 358.77 L 277.65 358.09 L 273.74 357.08 L 270 355.78 L 266.45 354.23 L 263.1 352.45 L 259.96 350.48 L 257.04 348.35 L 254.35 346.11 L 251.87 343.78 L 249.59 341.39 L 247.5 338.97 L 245.59 336.53 L 243.84 334.09 L 242.23 331.67 L 240.74 329.26 L 239.36 326.87 L 238.06 324.51 L 236.84 322.16 L 235.69 319.81 L 234.6 317.46 L 233.56 315.09 L 232.59 312.7 L 231.68 310.27 L 230.84 307.79 L 230.09 305.25 L 229.44 302.66 L 228.9 300 L 228.5 297.28 L 228.25 294.5 L 228.17 291.68 L 228.28 288.82 L 228.59 285.94 L 229.11 283.06 L 229.86 280.2 L 230.83 277.39 L 232.04 274.64 L 233.49 271.98 L 235.15 269.44 L 237.04 267.04 L 239.13 264.8 L 241.41 262.74 L 243.85 260.87 L 246.45 259.21 L 249.17 257.77 L 252 256.55 L 254.91 255.55 L 257.88 254.78 L 260.89 254.23 L 263.93 253.88 L 266.97 253.74 L 270 253.78 L 273.01 254.01 L 276 254.4 L 278.96 254.94 L 281.89 255.62 L 284.79 256.44 L 287.65 257.38 L 290.49 258.45 L 293.31 259.63 L 296.1 260.94 L 298.88 262.36 L 301.64 263.92 L 304.38 265.62 L 307.1 267.47 L 309.79 269.47 L 312.43 271.65 L 315.02 274.01 L 317.54 276.56 L 319.96 279.31 L 322.26 282.26 L 324.41 285.42 L 326.38 288.79 L 328.14 292.35 L 329.66 296.09 Z"/>
    <circle class="cut" cx="270" cy="300" r="7.09"/>
    <circle class="score" cx="292" cy="300" r="3.5"/>
    <line class="score" x1="270" y1="300" x2="292" y2="300"/>
    <text class="tiny" x="270" y="378" font-size="9" text-anchor="middle">pear copy / compare</text>
    <rect class="cut" x="390" y="288" width="30" height="205" rx="10" ry="10"/>
    <path class="score" d="M 405 314 L 405 314 A 6 6 0 0 1 405 326 L 405 326 A 6 6 0 0 1 405 314 Z"/>
    <circle class="cut" cx="405" cy="335" r="7.09"/>
    <circle class="cut" cx="405" cy="410" r="7.09"/>
    <rect class="cut" x="370" y="490" width="70" height="16" rx="3" ry="3"/>
    <text class="tiny" x="405" y="535" font-size="8" text-anchor="middle">flat follower</text>
    <rect class="cut" x="505" y="288" width="30" height="205" rx="10" ry="10"/>
    <path class="score" d="M 520 314 L 520 314 A 6 6 0 0 1 520 326 L 520 326 A 6 6 0 0 1 520 314 Z"/>
    <circle class="cut" cx="520" cy="335" r="7.09"/>
    <circle class="cut" cx="520" cy="410" r="7.09"/>
    <circle class="cut" cx="520" cy="498" r="20"/>
    <circle class="cut" cx="520" cy="498" r="5"/>
    <text class="tiny" x="520" y="535" font-size="8" text-anchor="middle">roller follower</text>
    <rect class="cut" x="620" y="288" width="30" height="205" rx="10" ry="10"/>
    <path class="score" d="M 635 314 L 635 314 A 6 6 0 0 1 635 326 L 635 326 A 6 6 0 0 1 635 314 Z"/>
    <circle class="cut" cx="635" cy="335" r="7.09"/>
    <circle class="cut" cx="635" cy="410" r="7.09"/>
    <path class="cut" d="M 605 490 L 665 490 L 635 520 Z"/>
    <text class="tiny" x="635" y="535" font-size="8" text-anchor="middle">point follower</text>
    <path class="cut" d="M 85 577 L 325 577 A 18 18 0 0 1 325 613 L 85 613 A 18 18 0 0 1 85 577 Z"/>
    <path class="cut" d="M 110 589.5 L 300 589.5 A 5.5 5.5 0 0 1 300 600.5 L 110 600.5 A 5.5 5.5 0 0 1 110 589.5 Z"/>
    <circle class="cut" cx="85" cy="595" r="7.09"/>
    <circle class="cut" cx="325" cy="595" r="7.09"/>
    <text class="tiny" x="205" y="631" font-size="8" text-anchor="middle">vertical guide rail 1</text>
    <path class="cut" d="M 85 667 L 325 667 A 18 18 0 0 1 325 703 L 85 703 A 18 18 0 0 1 85 667 Z"/>
    <path class="cut" d="M 110 679.5 L 300 679.5 A 5.5 5.5 0 0 1 300 690.5 L 110 690.5 A 5.5 5.5 0 0 1 110 679.5 Z"/>
    <circle class="cut" cx="85" cy="685" r="7.09"/>
    <circle class="cut" cx="325" cy="685" r="7.09"/>
    <text class="tiny" x="205" y="721" font-size="8" text-anchor="middle">vertical guide rail 2</text>
    <path class="cut" d="M 85 757 L 325 757 A 18 18 0 0 1 325 793 L 85 793 A 18 18 0 0 1 85 757 Z"/>
    <path class="cut" d="M 110 769.5 L 300 769.5 A 5.5 5.5 0 0 1 300 780.5 L 110 780.5 A 5.5 5.5 0 0 1 110 769.5 Z"/>
    <circle class="cut" cx="85" cy="775" r="7.09"/>
    <circle class="cut" cx="325" cy="775" r="7.09"/>
    <text class="tiny" x="205" y="811" font-size="8" text-anchor="middle">vertical guide rail 3</text>
    <circle class="cut" cx="430" cy="610" r="32"/>
    <circle class="cut" cx="430" cy="610" r="7.09"/>
    <circle class="cut" cx="450" cy="610" r="4"/>
    <text class="tiny" x="430" y="658" font-size="8" text-anchor="middle">hub</text>
    <circle class="cut" cx="520" cy="610" r="32"/>
    <circle class="cut" cx="520" cy="610" r="7.09"/>
    <circle class="cut" cx="540" cy="610" r="4"/>
    <text class="tiny" x="520" y="658" font-size="8" text-anchor="middle">hub</text>
    <circle class="cut" cx="610" cy="610" r="32"/>
    <circle class="cut" cx="610" cy="610" r="7.09"/>
    <circle class="cut" cx="630" cy="610" r="4"/>
    <text class="tiny" x="610" y="658" font-size="8" text-anchor="middle">hub</text>
    <circle class="cut" cx="430" cy="730" r="32"/>
    <circle class="cut" cx="430" cy="730" r="7.09"/>
    <circle class="cut" cx="450" cy="730" r="4"/>
    <text class="tiny" x="430" y="778" font-size="8" text-anchor="middle">hub</text>
    <circle class="cut" cx="520" cy="730" r="32"/>
    <circle class="cut" cx="520" cy="730" r="7.09"/>
    <circle class="cut" cx="540" cy="730" r="4"/>
    <text class="tiny" x="520" y="778" font-size="8" text-anchor="middle">hub</text>
    <circle class="cut" cx="610" cy="730" r="32"/>
    <circle class="cut" cx="610" cy="730" r="7.09"/>
    <circle class="cut" cx="630" cy="730" r="4"/>
    <text class="tiny" x="610" y="778" font-size="8" text-anchor="middle">hub</text>
    <text class="tiny" x="84" y="920" font-size="10" text-anchor="start">Prompt: 이 봉우리를 더 가파르게 만들면 follower의 높이/속도/리듬은 어떻게 변할까?</text>
</svg>
