<?xml version="1.0" encoding="UTF-8"?>
<svg xmlns="http://www.w3.org/2000/svg" viewBox="0 0 771.82 1073.65" version="1.1">
  <title>MS4N 04 Gear Mood Dial and Belt Transfer</title>
  <defs>
    <style>
      .cut { fill: none; stroke: #ed1c24; stroke-width: 1; stroke-miterlimit: 10; }
      .score { fill: none; stroke: #0071bc; stroke-width: 0.8; stroke-miterlimit: 10; }
      .guide { fill: none; stroke: #999999; stroke-width: 0.5; stroke-dasharray: 4 4; }
      .fillcut { fill: #ffffff; stroke: #ed1c24; stroke-width: 1; stroke-miterlimit: 10; }
      .label { fill: #333333; font-family: Arial, Helvetica, sans-serif; font-size: 14px; }
      .tiny { fill: #333333; font-family: Arial, Helvetica, sans-serif; font-size: 9px; }
      .card { fill: #ffffff; stroke: #ed1c24; stroke-width: 1; }
      .soft { fill: #f5f7fa; stroke: #999999; stroke-width: 0.5; }
    </style>
  </defs>
    <text class="label" x="24" y="30" font-size="16" text-anchor="start">MS4N-04 Gear Mood Dial: gear ratio/direction → speed/timing</text>
    <polygon class="cut" points="159,145 168.74,150.29 167.96,155.53 157.11,157.77 155.65,161.84 162.62,170.46 159.9,175 149.01,172.91 146.11,176.11 149.26,186.74 145,189.9 135.74,183.8 131.84,185.65 130.68,196.67 125.53,197.96 119.31,188.79 115,189 109.71,198.74 104.47,197.96 102.23,187.11 98.16,185.65 89.54,192.62 85,189.9 87.09,179.01 83.89,176.11 73.26,179.26 70.1,175 76.2,165.74 74.35,161.84 63.33,160.68 62.04,155.53 71.21,149.31 71,145 61.26,139.71 62.04,134.47 72.89,132.23 74.35,128.16 67.38,119.54 70.1,115 80.99,117.09 83.89,113.89 80.74,103.26 85,100.1 94.26,106.2 98.16,104.35 99.32,93.33 104.47,92.04 110.69,101.21 115,101 120.29,91.26 125.53,92.04 127.77,102.89 131.84,104.35 140.46,97.38 145,100.1 142.91,110.99 146.11,113.89 156.74,110.74 159.9,115 153.8,124.26 155.65,128.16 166.67,129.32 167.96,134.47 158.79,140.69"/>
    <circle class="cut" cx="115" cy="145" r="7.09"/>
    <circle class="score" cx="115" cy="145" r="24.2"/>
    <circle class="cut" cx="130.4" cy="145" r="4.2"/>
    <circle class="cut" cx="115" cy="160.4" r="4.2"/>
    <circle class="cut" cx="99.6" cy="145" r="4.2"/>
    <circle class="cut" cx="115" cy="129.6" r="4.2"/>
    <text class="tiny" x="115" y="215" font-size="9" text-anchor="middle">G16 fast</text>
    <polygon class="cut" points="363,145 375.84,149.97 375.35,154.92 361.79,157.29 360.85,161.31 371.97,169.43 370.21,174.08 356.5,172.86 354.56,176.5 363.19,187.22 360.29,191.27 347.37,186.54 344.55,189.55 350.11,202.14 346.27,205.29 335,197.38 331.5,199.56 333.61,213.16 329.08,215.21 320.25,204.66 316.31,205.85 314.83,219.54 309.92,220.35 304.12,207.87 300,208 295.03,220.84 290.08,220.35 287.71,206.79 283.69,205.85 275.57,216.97 270.92,215.21 272.14,201.5 268.5,199.56 257.78,208.19 253.73,205.29 258.46,192.37 255.45,189.55 242.86,195.11 239.71,191.27 247.62,180 245.44,176.5 231.84,178.61 229.79,174.08 240.34,165.25 239.15,161.31 225.46,159.83 224.65,154.92 237.13,149.12 237,145 224.16,140.03 224.65,135.08 238.21,132.71 239.15,128.69 228.03,120.57 229.79,115.92 243.5,117.14 245.44,113.5 236.81,102.78 239.71,98.73 252.63,103.46 255.45,100.45 249.89,87.86 253.73,84.71 265,92.62 268.5,90.44 266.39,76.84 270.92,74.79 279.75,85.34 283.69,84.15 285.17,70.46 290.08,69.65 295.88,82.13 300,82 304.97,69.16 309.92,69.65 312.29,83.21 316.31,84.15 324.43,73.03 329.08,74.79 327.86,88.5 331.5,90.44 342.22,81.81 346.27,84.71 341.54,97.63 344.55,100.45 357.14,94.89 360.29,98.73 352.38,110 354.56,113.5 368.16,111.39 370.21,115.92 359.66,124.75 360.85,128.69 374.54,130.17 375.35,135.08 362.87,140.88"/>
    <circle class="cut" cx="300" cy="145" r="7.09"/>
    <circle class="score" cx="300" cy="145" r="34.65"/>
    <circle class="cut" cx="322.05" cy="145" r="4.2"/>
    <circle class="cut" cx="300" cy="167.05" r="4.2"/>
    <circle class="cut" cx="277.95" cy="145" r="4.2"/>
    <circle class="cut" cx="300" cy="122.95" r="4.2"/>
    <text class="tiny" x="300" y="237" font-size="9" text-anchor="middle">G24 medium</text>
    <polygon class="cut" points="627,155 641.88,160 641.51,165 626.06,167.77 625.33,171.97 638.94,179.78 637.61,184.61 621.91,184.31 620.38,188.29 632.21,198.61 629.96,203.08 614.62,199.73 612.34,203.33 621.93,215.76 618.85,219.71 604.46,213.43 601.52,216.52 608.5,230.58 604.71,233.85 591.83,224.88 588.33,227.34 592.44,242.49 588.08,244.96 577.2,233.65 573.29,235.38 574.36,251.04 569.61,252.61 561.14,239.39 556.97,240.33 554.97,255.9 550,256.51 544.27,241.9 540,242 535,256.88 530,256.51 527.23,241.06 523.03,240.33 515.22,253.94 510.39,252.61 510.69,236.91 506.71,235.38 496.39,247.21 491.92,244.96 495.27,229.62 491.67,227.34 479.24,236.93 475.29,233.85 481.57,219.46 478.48,216.52 464.42,223.5 461.15,219.71 470.12,206.83 467.66,203.33 452.51,207.44 450.04,203.08 461.35,192.2 459.62,188.29 443.96,189.36 442.39,184.61 455.61,176.14 454.67,171.97 439.1,169.97 438.49,165 453.1,159.27 453,155 438.12,150 438.49,145 453.94,142.23 454.67,138.03 441.06,130.22 442.39,125.39 458.09,125.69 459.62,121.71 447.79,111.39 450.04,106.92 465.38,110.27 467.66,106.67 458.07,94.24 461.15,90.29 475.54,96.57 478.48,93.48 471.5,79.42 475.29,76.15 488.17,85.12 491.67,82.66 487.56,67.51 491.92,65.04 502.8,76.35 506.71,74.62 505.64,58.96 510.39,57.39 518.86,70.61 523.03,69.67 525.03,54.1 530,53.49 535.73,68.1 540,68 545,53.12 550,53.49 552.77,68.94 556.97,69.67 564.78,56.06 569.61,57.39 569.31,73.09 573.29,74.62 583.61,62.79 588.08,65.04 584.73,80.38 588.33,82.66 600.76,73.07 604.71,76.15 598.43,90.54 601.52,93.48 615.58,86.5 618.85,90.29 609.88,103.17 612.34,106.67 627.49,102.56 629.96,106.92 618.65,117.8 620.38,121.71 636.04,120.64 637.61,125.39 624.39,133.86 625.33,138.03 640.9,140.03 641.51,145 626.9,150.73"/>
    <circle class="cut" cx="540" cy="155" r="7.09"/>
    <circle class="score" cx="540" cy="155" r="47.85"/>
    <circle class="cut" cx="570.45" cy="155" r="4.2"/>
    <circle class="cut" cx="540" cy="185.45" r="4.2"/>
    <circle class="cut" cx="509.55" cy="155" r="4.2"/>
    <circle class="cut" cx="540" cy="124.55" r="4.2"/>
    <text class="tiny" x="540" y="273" font-size="9" text-anchor="middle">G32 slow</text>
    <polygon class="cut" points="204,405 215.8,410.18 215.19,415.32 202.51,417.61 201.36,421.69 210.98,430.26 208.81,434.96 196.04,433.21 193.69,436.74 200.19,447.86 196.67,451.67 185.07,446.06 181.74,448.69 184.48,461.27 179.96,463.81 170.66,454.89 166.69,456.36 165.41,469.18 160.32,470.19 154.24,458.83 150,459 144.82,470.8 139.68,470.19 137.39,457.51 133.31,456.36 124.74,465.98 120.04,463.81 121.79,451.04 118.26,448.69 107.14,455.19 103.33,451.67 108.94,440.07 106.31,436.74 93.73,439.48 91.19,434.96 100.11,425.66 98.64,421.69 85.82,420.41 84.81,415.32 96.17,409.24 96,405 84.2,399.82 84.81,394.68 97.49,392.39 98.64,388.31 89.02,379.74 91.19,375.04 103.96,376.79 106.31,373.26 99.81,362.14 103.33,358.33 114.93,363.94 118.26,361.31 115.52,348.73 120.04,346.19 129.34,355.11 133.31,353.64 134.59,340.82 139.68,339.81 145.76,351.17 150,351 155.18,339.2 160.32,339.81 162.61,352.49 166.69,353.64 175.26,344.02 179.96,346.19 178.21,358.96 181.74,361.31 192.86,354.81 196.67,358.33 191.06,369.93 193.69,373.26 206.27,370.52 208.81,375.04 199.89,384.34 201.36,388.31 214.18,389.59 215.19,394.68 203.83,400.76"/>
    <circle class="cut" cx="150" cy="405" r="7.09"/>
    <circle class="score" cx="150" cy="405" r="29.7"/>
    <circle class="cut" cx="168.9" cy="405" r="4.2"/>
    <circle class="cut" cx="150" cy="423.9" r="4.2"/>
    <circle class="cut" cx="131.1" cy="405" r="4.2"/>
    <circle class="cut" cx="150" cy="386.1" r="4.2"/>
    <text class="tiny" x="150" y="487" font-size="9" text-anchor="middle">G20</text>
    <polygon class="cut" points="446,410 460.86,415.1 460.43,420.19 444.93,422.73 444.09,426.91 457.44,435.19 455.89,440.06 440.21,439.08 438.47,442.98 449.65,454.02 447.05,458.41 431.98,453.98 429.42,457.39 437.85,470.64 434.35,474.35 420.64,466.67 417.39,469.42 422.66,484.22 418.41,487.05 406.76,476.52 402.98,478.47 404.82,494.07 400.06,495.89 391.04,483.03 386.91,484.09 385.24,499.71 380.19,500.43 374.26,485.88 370,486 364.9,500.86 359.81,500.43 357.27,484.93 353.09,484.09 344.81,497.44 339.94,495.89 340.92,480.21 337.02,478.47 325.98,489.65 321.59,487.05 326.02,471.98 322.61,469.42 309.36,477.85 305.65,474.35 313.33,460.64 310.58,457.39 295.78,462.66 292.95,458.41 303.48,446.76 301.53,442.98 285.93,444.82 284.11,440.06 296.97,431.04 295.91,426.91 280.29,425.24 279.57,420.19 294.12,414.26 294,410 279.14,404.9 279.57,399.81 295.07,397.27 295.91,393.09 282.56,384.81 284.11,379.94 299.79,380.92 301.53,377.02 290.35,365.98 292.95,361.59 308.02,366.02 310.58,362.61 302.15,349.36 305.65,345.65 319.36,353.33 322.61,350.58 317.34,335.78 321.59,332.95 333.24,343.48 337.02,341.53 335.18,325.93 339.94,324.11 348.96,336.97 353.09,335.91 354.76,320.29 359.81,319.57 365.74,334.12 370,334 375.1,319.14 380.19,319.57 382.73,335.07 386.91,335.91 395.19,322.56 400.06,324.11 399.08,339.79 402.98,341.53 414.02,330.35 418.41,332.95 413.98,348.02 417.39,350.58 430.64,342.15 434.35,345.65 426.67,359.36 429.42,362.61 444.22,357.34 447.05,361.59 436.52,373.24 438.47,377.02 454.07,375.18 455.89,379.94 443.03,388.96 444.09,393.09 459.71,394.76 460.43,399.81 445.88,405.74"/>
    <circle class="cut" cx="370" cy="410" r="7.09"/>
    <circle class="score" cx="370" cy="410" r="41.8"/>
    <circle class="cut" cx="396.6" cy="410" r="4.2"/>
    <circle class="cut" cx="370" cy="436.6" r="4.2"/>
    <circle class="cut" cx="343.4" cy="410" r="4.2"/>
    <circle class="cut" cx="370" cy="383.4" r="4.2"/>
    <text class="tiny" x="370" y="517" font-size="9" text-anchor="middle">G28</text>
    <polygon class="cut" points="669,405 679.77,410.23 679.09,415.42 667.33,417.68 666.04,421.76 674.38,430.36 671.96,435 660.14,433.11 657.54,436.5 662.43,447.43 658.57,450.96 648.11,445.14 644.5,447.44 645.36,459.38 640.52,461.38 632.68,452.33 628.51,453.26 625.23,464.77 620,465 615.73,453.81 611.49,453.26 604.47,462.96 599.48,461.38 599.29,449.41 595.5,447.44 585.59,454.15 581.43,450.96 585.35,439.65 582.46,436.5 570.85,439.41 568.04,435 575.59,425.71 573.96,421.76 562.04,420.53 560.91,415.42 571.19,409.27 571,405 560.23,399.77 560.91,394.58 572.67,392.32 573.96,388.24 565.62,379.64 568.04,375 579.86,376.89 582.46,373.5 577.57,362.57 581.43,359.04 591.89,364.86 595.5,362.56 594.64,350.62 599.48,348.62 607.32,357.67 611.49,356.74 614.77,345.23 620,345 624.27,356.19 628.51,356.74 635.53,347.04 640.52,348.62 640.71,360.59 644.5,362.56 654.41,355.85 658.57,359.04 654.65,370.35 657.54,373.5 669.15,370.59 671.96,375 664.41,384.29 666.04,388.24 677.96,389.47 679.09,394.58 668.81,400.73"/>
    <circle class="cut" cx="620" cy="405" r="7.09"/>
    <circle class="score" cx="620" cy="405" r="26.95"/>
    <circle class="cut" cx="637.15" cy="405" r="4.2"/>
    <circle class="cut" cx="620" cy="422.15" r="4.2"/>
    <circle class="cut" cx="602.85" cy="405" r="4.2"/>
    <circle class="cut" cx="620" cy="387.85" r="4.2"/>
    <text class="tiny" x="620" y="481" font-size="9" text-anchor="middle">G18 idler</text>
    <circle class="cut" cx="145" cy="705" r="36"/>
    <circle class="score" cx="145" cy="705" r="28"/>
    <circle class="cut" cx="145" cy="705" r="7.09"/>
    <circle class="cut" cx="161" cy="705" r="3.2"/>
    <circle class="cut" cx="153" cy="718.86" r="3.2"/>
    <circle class="cut" cx="137" cy="718.86" r="3.2"/>
    <circle class="cut" cx="129" cy="705" r="3.2"/>
    <circle class="cut" cx="137" cy="691.14" r="3.2"/>
    <circle class="cut" cx="153" cy="691.14" r="3.2"/>
    <text class="tiny" x="145" y="755" font-size="9" text-anchor="middle">small pulley</text>
    <circle class="cut" cx="355" cy="705" r="52"/>
    <circle class="score" cx="355" cy="705" r="44"/>
    <circle class="cut" cx="355" cy="705" r="7.09"/>
    <circle class="cut" cx="387" cy="705" r="3.2"/>
    <circle class="cut" cx="371" cy="732.71" r="3.2"/>
    <circle class="cut" cx="339" cy="732.71" r="3.2"/>
    <circle class="cut" cx="323" cy="705" r="3.2"/>
    <circle class="cut" cx="339" cy="677.29" r="3.2"/>
    <circle class="cut" cx="371" cy="677.29" r="3.2"/>
    <text class="tiny" x="355" y="771" font-size="9" text-anchor="middle">medium pulley</text>
    <circle class="cut" cx="565" cy="705" r="72"/>
    <circle class="score" cx="565" cy="705" r="64"/>
    <circle class="cut" cx="565" cy="705" r="7.09"/>
    <circle class="cut" cx="617" cy="705" r="3.2"/>
    <circle class="cut" cx="591" cy="750.03" r="3.2"/>
    <circle class="cut" cx="539" cy="750.03" r="3.2"/>
    <circle class="cut" cx="513" cy="705" r="3.2"/>
    <circle class="cut" cx="539" cy="659.97" r="3.2"/>
    <circle class="cut" cx="591" cy="659.97" r="3.2"/>
    <text class="tiny" x="565" y="791" font-size="9" text-anchor="middle">large pulley</text>
    <rect class="cut" x="90" y="865" width="130" height="70" rx="8" ry="8"/>
    <text class="tiny" x="155" y="892" font-size="9" text-anchor="middle">clockwise</text>
    <path class="score" d="M 128 910 C 148 885 182 895 182 916"/>
    <path class="score" d="M 182 916 L 172 908 L 186 904"/>
    <rect class="cut" x="255" y="865" width="130" height="70" rx="8" ry="8"/>
    <text class="tiny" x="320" y="892" font-size="9" text-anchor="middle">counter</text>
    <path class="score" d="M 293 910 C 313 885 347 895 347 916"/>
    <path class="score" d="M 347 916 L 337 908 L 351 904"/>
    <rect class="cut" x="420" y="865" width="130" height="70" rx="8" ry="8"/>
    <text class="tiny" x="485" y="892" font-size="9" text-anchor="middle">idler flips</text>
    <path class="score" d="M 458 910 C 478 885 512 895 512 916"/>
    <path class="score" d="M 512 916 L 502 908 L 516 904"/>
    <rect class="cut" x="585" y="865" width="130" height="70" rx="8" ry="8"/>
    <text class="tiny" x="650" y="892" font-size="9" text-anchor="middle">ratio card</text>
    <path class="score" d="M 623 910 C 643 885 677 895 677 916"/>
    <path class="score" d="M 677 916 L 667 908 L 681 904"/>
</svg>
