<?xml version="1.0" encoding="UTF-8"?>
<svg xmlns="http://www.w3.org/2000/svg" version="1.1"
     width="128.2mm" height="140.2mm"
     viewBox="0 0 128.2 140.2"
     data-profile-key="motionsmith-ms4n"
     data-grid-pitch-mm="20.4"
     data-hole-diameter-mm="5.0">
  <title>Automataii fabrication cam eccentric</title>
  <desc>Eccentric / bounce cam profile with 5 mm axle hole for the physical Automataii kit.</desc>
  <defs>
    <style>
      .cut { fill: none; stroke: #ed1c24; stroke-width: 0.25; stroke-miterlimit: 10; }
      .drill { fill: none; stroke: #0071bc; stroke-width: 0.2; stroke-miterlimit: 10; }
      .score { fill: none; stroke: #777777; stroke-width: 0.15; stroke-dasharray: 2 1; }
      .label { fill: #333333; font-family: Arial, Helvetica, sans-serif; font-size: 4px; }
      .tiny { fill: #333333; font-family: Arial, Helvetica, sans-serif; font-size: 3px; }
      .paper { fill: #ffffff; stroke: none; }
    </style>
  </defs>
  <path d="M 120.2 64.1 L 120.139 66.547 L 119.958 68.987 L 119.655 71.414 L 119.233 73.821 L 118.693 76.203 L 118.037 78.552 L 117.266 80.863 L 116.383 83.13 L 115.392 85.346 L 114.294 87.506 L 113.095 89.605 L 111.796 91.638 L 110.404 93.599 L 108.921 95.484 L 107.353 97.289 L 105.704 99.01 L 103.979 100.643 L 102.184 102.184 L 100.324 103.632 L 98.404 104.982 L 96.43 106.233 L 94.407 107.382 L 92.341 108.429 L 90.237 109.371 L 88.103 110.209 L 85.942 110.941 L 83.761 111.567 L 81.566 112.087 L 79.361 112.502 L 77.152 112.812 L 74.945 113.018 L 72.744 113.122 L 70.554 113.125 L 68.381 113.03 L 66.228 112.837 L 64.1 112.55 L 62.001 112.171 L 59.935 111.701 L 57.906 111.146 L 55.917 110.506 L 53.972 109.785 L 52.073 108.987 L 50.223 108.114 L 48.424 107.169 L 46.679 106.157 L 44.99 105.08 L 43.359 103.942 L 41.788 102.746 L 40.276 101.496 L 38.827 100.194 L 37.441 98.843 L 36.118 97.448 L 34.859 96.011 L 33.666 94.534 L 32.537 93.022 L 31.474 91.476 L 30.477 89.9 L 29.545 88.295 L 28.679 86.666 L 27.879 85.012 L 27.143 83.338 L 26.473 81.646 L 25.868 79.936 L 25.327 78.212 L 24.851 76.475 L 24.438 74.727 L 24.09 72.97 L 23.805 71.205 L 23.584 69.434 L 23.426 67.658 L 23.332 65.88 L 23.3 64.1 L 23.332 62.32 L 23.426 60.542 L 23.584 58.766 L 23.805 56.995 L 24.09 55.23 L 24.438 53.473 L 24.851 51.725 L 25.327 49.988 L 25.868 48.264 L 26.473 46.554 L 27.143 44.862 L 27.879 43.188 L 28.679 41.534 L 29.545 39.905 L 30.477 38.3 L 31.474 36.724 L 32.537 35.178 L 33.666 33.666 L 34.859 32.189 L 36.118 30.752 L 37.441 29.357 L 38.827 28.006 L 40.276 26.704 L 41.787 25.454 L 43.359 24.258 L 44.99 23.12 L 46.679 22.043 L 48.424 21.031 L 50.223 20.086 L 52.073 19.213 L 53.972 18.415 L 55.917 17.694 L 57.906 17.054 L 59.935 16.499 L 62.001 16.029 L 64.1 15.65 L 66.228 15.363 L 68.381 15.17 L 70.554 15.075 L 72.744 15.078 L 74.945 15.182 L 77.152 15.388 L 79.361 15.698 L 81.566 16.113 L 83.761 16.633 L 85.942 17.259 L 88.103 17.991 L 90.237 18.829 L 92.341 19.771 L 94.407 20.818 L 96.43 21.967 L 98.404 23.218 L 100.324 24.568 L 102.184 26.016 L 103.979 27.557 L 105.704 29.19 L 107.353 30.911 L 108.921 32.716 L 110.404 34.601 L 111.796 36.562 L 113.095 38.595 L 114.294 40.694 L 115.392 42.854 L 116.383 45.07 L 117.266 47.337 L 118.037 49.648 L 118.693 51.997 L 119.233 54.379 L 119.655 56.786 L 119.958 59.213 L 120.139 61.653 Z" class="cut cam-outline" data-cam-key="eccentric" data-base-radius-mm="40.8" data-eccentricity-mm="15.3"/>
  <circle cx="64.1" cy="64.1" r="2.5" class="drill axle-hole" data-hole-role="axle" data-hole-diameter-mm="5.0"/>
  <line x1="64.1" y1="64.1" x2="104.9" y2="64.1" class="score cam-base-radius"/>
  <circle cx="64.1" cy="64.1" r="40.8" class="score cam-base-circle"/>
  <text x="64.1" y="127.2" class="label" text-anchor="middle">Eccentric / bounce</text>
</svg>
