<?xml version="1.0" encoding="UTF-8"?>
<svg xmlns="http://www.w3.org/2000/svg" version="1.1"
     width="156mm" height="168mm"
     viewBox="0 0 156 168"
     data-profile-key="motionsmith-ms4n"
     data-grid-pitch-mm="20"
     data-hole-diameter-mm="6">
  <title>Automataii fabrication cam pear</title>
  <desc>Pear / slow-fast cam profile with 6 mm axle and linkage/bracket/crank/handle holes.</desc>
  <defs>
    <style>
      .cut { fill: none; stroke: #ed1c24; stroke-width: 0.25; stroke-miterlimit: 10; }
      .drill { fill: none; stroke: #0071bc; stroke-width: 0.2; stroke-miterlimit: 10; }
      .score { fill: none; stroke: #777777; stroke-width: 0.15; stroke-dasharray: 2 1; }
      .label { fill: #333333; font-family: Arial, Helvetica, sans-serif; font-size: 4px; }
      .tiny { fill: #333333; font-family: Arial, Helvetica, sans-serif; font-size: 3px; }
      .paper { fill: #ffffff; stroke: none; }
    </style>
  </defs>
  <path d="M 78 8 L 81.051 8.124 L 84.081 8.494 L 87.07 9.106 L 89.998 9.957 L 92.845 11.037 L 95.594 12.338 L 98.227 13.847 L 100.729 15.553 L 103.084 17.441 L 105.282 19.494 L 107.31 21.696 L 109.16 24.029 L 110.826 26.474 L 112.302 29.012 L 113.585 31.624 L 114.676 34.292 L 115.574 36.995 L 116.284 39.716 L 116.81 42.437 L 117.16 45.141 L 117.34 47.813 L 117.361 50.439 L 117.234 53.005 L 116.971 55.5 L 116.584 57.914 L 116.087 60.24 L 115.493 62.47 L 114.817 64.6 L 114.072 66.627 L 113.272 68.549 L 112.43 70.367 L 111.558 72.083 L 110.669 73.699 L 109.774 75.22 L 108.881 76.652 L 108 78 L 107.138 79.272 L 106.301 80.476 L 105.493 81.62 L 104.718 82.711 L 103.977 83.759 L 103.272 84.772 L 102.601 85.757 L 101.961 86.721 L 101.351 87.672 L 100.766 88.616 L 100.201 89.557 L 99.651 90.5 L 99.108 91.447 L 98.567 92.402 L 98.022 93.363 L 97.463 94.332 L 96.887 95.306 L 96.284 96.284 L 95.65 97.262 L 94.98 98.236 L 94.267 99.199 L 93.508 100.148 L 92.7 101.074 L 91.84 101.971 L 90.927 102.832 L 89.961 103.65 L 88.942 104.417 L 87.873 105.126 L 86.756 105.77 L 85.594 106.342 L 84.393 106.837 L 83.157 107.25 L 81.894 107.575 L 80.608 107.81 L 79.308 107.952 L 78 108 L 76.692 107.952 L 75.392 107.81 L 74.106 107.575 L 72.843 107.25 L 71.607 106.837 L 70.406 106.342 L 69.244 105.77 L 68.127 105.126 L 67.058 104.417 L 66.039 103.65 L 65.073 102.832 L 64.16 101.971 L 63.3 101.074 L 62.492 100.148 L 61.733 99.199 L 61.02 98.236 L 60.35 97.262 L 59.716 96.284 L 59.113 95.306 L 58.537 94.332 L 57.978 93.363 L 57.433 92.402 L 56.892 91.447 L 56.349 90.5 L 55.799 89.557 L 55.234 88.616 L 54.649 87.672 L 54.039 86.721 L 53.399 85.757 L 52.728 84.772 L 52.023 83.759 L 51.282 82.711 L 50.507 81.62 L 49.699 80.476 L 48.862 79.272 L 48 78 L 47.119 76.652 L 46.226 75.22 L 45.331 73.699 L 44.442 72.083 L 43.57 70.367 L 42.728 68.549 L 41.928 66.627 L 41.183 64.6 L 40.507 62.47 L 39.913 60.24 L 39.416 57.914 L 39.029 55.5 L 38.766 53.005 L 38.639 50.439 L 38.66 47.813 L 38.84 45.141 L 39.19 42.437 L 39.716 39.716 L 40.426 36.995 L 41.324 34.292 L 42.415 31.624 L 43.698 29.012 L 45.174 26.474 L 46.84 24.029 L 48.69 21.696 L 50.718 19.494 L 52.916 17.441 L 55.271 15.553 L 57.773 13.847 L 60.406 12.338 L 63.155 11.037 L 66.002 9.957 L 68.93 9.106 L 71.919 8.494 L 74.949 8.124 Z" class="cut cam-outline" data-cam-key="pear" data-base-radius-mm="40" data-eccentricity-mm="20" data-cam-lobes="1" data-profile-harmonic="0.5" data-rise-deg="150" data-high-dwell-deg="45" data-return-deg="75" data-physical-cam-preset="pear" data-profile-source="automataii.domain.mechanisms.cam.profile.build_pear_cam_profile_from_params" data-profile-sample-count="144"/>
  <circle cx="78" cy="78" r="3" class="drill axle-hole" data-hole-role="axle" data-hole-diameter-mm="6"/>
  <line x1="78" y1="78" x2="118" y2="78" class="score cam-base-radius"/>
  <circle cx="78" cy="78" r="40" class="score cam-base-circle"/>
  <circle cx="78" cy="58" r="3" class="drill linkage-hole bracket-hole crank-hole handle-hole" data-hole-role="linkage-bracket-crank-handle" data-attachment-kinds="linkage bracket crank handle" data-hole-diameter-mm="6" data-hole-index="0" data-hole-x-offset-mm="0" data-hole-y-offset-mm="-20"/>
  <circle cx="58" cy="78" r="3" class="drill linkage-hole bracket-hole crank-hole handle-hole" data-hole-role="linkage-bracket-crank-handle" data-attachment-kinds="linkage bracket crank handle" data-hole-diameter-mm="6" data-hole-index="1" data-hole-x-offset-mm="-20" data-hole-y-offset-mm="0"/>
  <circle cx="98" cy="78" r="3" class="drill linkage-hole bracket-hole crank-hole handle-hole" data-hole-role="linkage-bracket-crank-handle" data-attachment-kinds="linkage bracket crank handle" data-hole-diameter-mm="6" data-hole-index="2" data-hole-x-offset-mm="20" data-hole-y-offset-mm="0"/>
  <circle cx="78" cy="98" r="3" class="drill linkage-hole bracket-hole crank-hole handle-hole" data-hole-role="linkage-bracket-crank-handle" data-attachment-kinds="linkage bracket crank handle" data-hole-diameter-mm="6" data-hole-index="3" data-hole-x-offset-mm="0" data-hole-y-offset-mm="20"/>
  <circle cx="58" cy="58" r="3" class="drill linkage-hole bracket-hole crank-hole handle-hole" data-hole-role="linkage-bracket-crank-handle" data-attachment-kinds="linkage bracket crank handle" data-hole-diameter-mm="6" data-hole-index="4" data-hole-x-offset-mm="-20" data-hole-y-offset-mm="-20"/>
  <circle cx="98" cy="58" r="3" class="drill linkage-hole bracket-hole crank-hole handle-hole" data-hole-role="linkage-bracket-crank-handle" data-attachment-kinds="linkage bracket crank handle" data-hole-diameter-mm="6" data-hole-index="5" data-hole-x-offset-mm="20" data-hole-y-offset-mm="-20"/>
  <circle cx="78" cy="38" r="3" class="drill linkage-hole bracket-hole crank-hole handle-hole" data-hole-role="linkage-bracket-crank-handle" data-attachment-kinds="linkage bracket crank handle" data-hole-diameter-mm="6" data-hole-index="6" data-hole-x-offset-mm="0" data-hole-y-offset-mm="-40"/>
  <circle cx="58" cy="38" r="3" class="drill linkage-hole bracket-hole crank-hole handle-hole" data-hole-role="linkage-bracket-crank-handle" data-attachment-kinds="linkage bracket crank handle" data-hole-diameter-mm="6" data-hole-index="7" data-hole-x-offset-mm="-20" data-hole-y-offset-mm="-40"/>
  <circle cx="98" cy="38" r="3" class="drill linkage-hole bracket-hole crank-hole handle-hole" data-hole-role="linkage-bracket-crank-handle" data-attachment-kinds="linkage bracket crank handle" data-hole-diameter-mm="6" data-hole-index="8" data-hole-x-offset-mm="20" data-hole-y-offset-mm="-40"/>
  <circle cx="78" cy="18" r="3" class="drill linkage-hole bracket-hole crank-hole handle-hole" data-hole-role="linkage-bracket-crank-handle" data-attachment-kinds="linkage bracket crank handle" data-hole-diameter-mm="6" data-hole-index="9" data-hole-x-offset-mm="0" data-hole-y-offset-mm="-60"/>
  <text x="78" y="155" class="label" text-anchor="middle">Pear / slow-fast</text>
</svg>
