<?xml version="1.0" encoding="UTF-8"?>
<svg xmlns="http://www.w3.org/2000/svg" version="1.1"
     width="115.946mm" height="127.946mm"
     viewBox="0 0 115.946 127.946"
     data-profile-key="motionsmith-ms4n"
     data-grid-pitch-mm="20"
     data-hole-diameter-mm="6">
  <title>Automataii fabrication cam pear</title>
  <desc>Pear / slow-fast cam profile with 6 mm axle and linkage/bracket/crank/handle holes.</desc>
  <defs>
    <style>
      .cut { fill: none; stroke: #ed1c24; stroke-width: 0.25; stroke-miterlimit: 10; }
      .drill { fill: none; stroke: #0071bc; stroke-width: 0.2; stroke-miterlimit: 10; }
      .score { fill: none; stroke: #777777; stroke-width: 0.15; stroke-dasharray: 2 1; }
      .label { fill: #333333; font-family: Arial, Helvetica, sans-serif; font-size: 4px; }
      .tiny { fill: #333333; font-family: Arial, Helvetica, sans-serif; font-size: 3px; }
      .paper { fill: #ffffff; stroke: none; }
    </style>
  </defs>
  <path d="M 103.743 57.973 L 103.86 59.977 L 103.902 61.991 L 103.865 64.015 L 103.748 66.045 L 103.551 68.077 L 103.271 70.111 L 102.906 72.14 L 102.454 74.163 L 101.915 76.174 L 101.286 78.17 L 100.566 80.145 L 99.753 82.095 L 98.848 84.013 L 97.849 85.895 L 96.757 87.733 L 95.572 89.522 L 94.294 91.255 L 92.925 92.925 L 91.468 94.526 L 89.924 96.05 L 88.297 97.491 L 86.59 98.843 L 84.81 100.098 L 82.96 101.251 L 81.046 102.296 L 79.075 103.227 L 77.054 104.039 L 74.991 104.729 L 72.893 105.292 L 70.768 105.726 L 68.627 106.028 L 66.476 106.196 L 64.326 106.231 L 62.186 106.132 L 60.066 105.901 L 57.973 105.539 L 55.918 105.05 L 53.908 104.436 L 51.953 103.703 L 50.059 102.855 L 48.235 101.899 L 46.487 100.841 L 44.82 99.689 L 43.241 98.449 L 41.753 97.131 L 40.361 95.743 L 39.066 94.293 L 37.871 92.79 L 36.777 91.244 L 35.784 89.663 L 34.891 88.055 L 34.096 86.429 L 33.397 84.794 L 32.791 83.156 L 32.273 81.523 L 31.84 79.901 L 31.487 78.297 L 31.208 76.715 L 30.996 75.159 L 30.847 73.634 L 30.754 72.143 L 30.71 70.686 L 30.709 69.266 L 30.745 67.883 L 30.813 66.537 L 30.906 65.226 L 31.019 63.949 L 31.148 62.703 L 31.287 61.486 L 31.435 60.295 L 31.588 59.125 L 31.743 57.973 L 31.898 56.835 L 32.054 55.706 L 32.21 54.581 L 32.367 53.458 L 32.526 52.332 L 32.689 51.198 L 32.858 50.054 L 33.038 48.897 L 33.231 47.724 L 33.442 46.534 L 33.675 45.324 L 33.935 44.095 L 34.228 42.846 L 34.559 41.578 L 34.932 40.293 L 35.352 38.992 L 35.826 37.679 L 36.357 36.357 L 36.949 35.03 L 37.608 33.702 L 38.335 32.38 L 39.135 31.069 L 40.009 29.775 L 40.96 28.505 L 41.987 27.265 L 43.093 26.062 L 44.275 24.903 L 45.533 23.795 L 46.866 22.745 L 48.27 21.76 L 49.742 20.845 L 51.279 20.008 L 52.876 19.254 L 54.527 18.588 L 56.229 18.015 L 57.973 17.539 L 59.755 17.164 L 61.567 16.892 L 63.403 16.726 L 65.256 16.667 L 67.119 16.717 L 68.985 16.875 L 70.847 17.141 L 72.699 17.515 L 74.533 17.995 L 76.343 18.578 L 78.125 19.262 L 79.871 20.044 L 81.578 20.921 L 83.239 21.889 L 84.852 22.944 L 86.412 24.081 L 87.915 25.297 L 89.359 26.587 L 90.741 27.947 L 92.06 29.371 L 93.313 30.856 L 94.498 32.398 L 95.616 33.992 L 96.665 35.634 L 97.644 37.322 L 98.554 39.05 L 99.393 40.816 L 100.162 42.618 L 100.86 44.451 L 101.488 46.313 L 102.044 48.203 L 102.529 50.117 L 102.942 52.053 L 103.282 54.009 L 103.55 55.983 Z" class="cut cam-outline" data-cam-key="pear" data-base-radius-mm="40" data-eccentricity-mm="20"/>
  <circle cx="57.973" cy="57.973" r="3" class="drill axle-hole" data-hole-role="axle" data-hole-diameter-mm="6"/>
  <line x1="57.973" y1="57.973" x2="97.973" y2="57.973" class="score cam-base-radius"/>
  <circle cx="57.973" cy="57.973" r="40" class="score cam-base-circle"/>
  <circle cx="57.973" cy="37.973" r="3" class="drill linkage-hole bracket-hole crank-hole handle-hole" data-hole-role="linkage-bracket-crank-handle" data-attachment-kinds="linkage bracket crank handle" data-hole-diameter-mm="6" data-hole-index="0" data-hole-x-offset-mm="0" data-hole-y-offset-mm="-20"/>
  <circle cx="77.973" cy="57.973" r="3" class="drill linkage-hole bracket-hole crank-hole handle-hole" data-hole-role="linkage-bracket-crank-handle" data-attachment-kinds="linkage bracket crank handle" data-hole-diameter-mm="6" data-hole-index="1" data-hole-x-offset-mm="20" data-hole-y-offset-mm="0"/>
  <circle cx="57.973" cy="77.973" r="3" class="drill linkage-hole bracket-hole crank-hole handle-hole" data-hole-role="linkage-bracket-crank-handle" data-attachment-kinds="linkage bracket crank handle" data-hole-diameter-mm="6" data-hole-index="2" data-hole-x-offset-mm="0" data-hole-y-offset-mm="20"/>
  <circle cx="77.973" cy="37.973" r="3" class="drill linkage-hole bracket-hole crank-hole handle-hole" data-hole-role="linkage-bracket-crank-handle" data-attachment-kinds="linkage bracket crank handle" data-hole-diameter-mm="6" data-hole-index="3" data-hole-x-offset-mm="20" data-hole-y-offset-mm="-20"/>
  <circle cx="37.973" cy="77.973" r="3" class="drill linkage-hole bracket-hole crank-hole handle-hole" data-hole-role="linkage-bracket-crank-handle" data-attachment-kinds="linkage bracket crank handle" data-hole-diameter-mm="6" data-hole-index="4" data-hole-x-offset-mm="-20" data-hole-y-offset-mm="20"/>
  <circle cx="77.973" cy="77.973" r="3" class="drill linkage-hole bracket-hole crank-hole handle-hole" data-hole-role="linkage-bracket-crank-handle" data-attachment-kinds="linkage bracket crank handle" data-hole-diameter-mm="6" data-hole-index="5" data-hole-x-offset-mm="20" data-hole-y-offset-mm="20"/>
  <circle cx="57.973" cy="97.973" r="3" class="drill linkage-hole bracket-hole crank-hole handle-hole" data-hole-role="linkage-bracket-crank-handle" data-attachment-kinds="linkage bracket crank handle" data-hole-diameter-mm="6" data-hole-index="6" data-hole-x-offset-mm="0" data-hole-y-offset-mm="40"/>
  <text x="57.973" y="114.946" class="label" text-anchor="middle">Pear / slow-fast</text>
</svg>
