<?xml version="1.0" encoding="UTF-8"?>
<svg xmlns="http://www.w3.org/2000/svg" version="1.1"
     width="117.388mm" height="129.388mm"
     viewBox="0 0 117.388 129.388"
     data-profile-key="motionsmith-ms4n"
     data-grid-pitch-mm="20.4"
     data-hole-diameter-mm="5.0">
  <title>Automataii fabrication cam oval</title>
  <desc>Oval / smooth rise cam profile with 5 mm axle hole for the physical Automataii kit.</desc>
  <defs>
    <style>
      .cut { fill: none; stroke: #ed1c24; stroke-width: 0.25; stroke-miterlimit: 10; }
      .drill { fill: none; stroke: #0071bc; stroke-width: 0.2; stroke-miterlimit: 10; }
      .score { fill: none; stroke: #777777; stroke-width: 0.15; stroke-dasharray: 2 1; }
      .label { fill: #333333; font-family: Arial, Helvetica, sans-serif; font-size: 4px; }
      .tiny { fill: #333333; font-family: Arial, Helvetica, sans-serif; font-size: 3px; }
      .paper { fill: #ffffff; stroke: none; }
    </style>
  </defs>
  <path d="M 109.388 58.694 L 109.309 60.904 L 109.074 63.102 L 108.685 65.275 L 108.144 67.413 L 107.456 69.504 L 106.626 71.537 L 105.662 73.503 L 104.572 75.392 L 103.363 77.196 L 102.044 78.909 L 100.627 80.523 L 99.12 82.034 L 97.536 83.439 L 95.884 84.735 L 94.176 85.92 L 92.422 86.995 L 90.633 87.961 L 88.819 88.819 L 86.99 89.573 L 85.154 90.227 L 83.319 90.786 L 81.494 91.256 L 79.684 91.642 L 77.895 91.952 L 76.132 92.192 L 74.397 92.37 L 72.694 92.492 L 71.023 92.566 L 69.384 92.6 L 67.779 92.598 L 66.204 92.568 L 64.657 92.514 L 63.137 92.442 L 61.639 92.355 L 60.159 92.257 L 58.694 92.15 L 57.238 92.035 L 55.788 91.912 L 54.338 91.782 L 52.884 91.642 L 51.423 91.49 L 49.951 91.323 L 48.465 91.137 L 46.962 90.927 L 45.441 90.689 L 43.902 90.416 L 42.343 90.103 L 40.767 89.744 L 39.176 89.331 L 37.572 88.86 L 35.959 88.323 L 34.342 87.716 L 32.726 87.033 L 31.119 86.269 L 29.527 85.42 L 27.959 84.484 L 26.422 83.457 L 24.926 82.339 L 23.48 81.128 L 22.093 79.826 L 20.774 78.434 L 19.533 76.955 L 18.379 75.393 L 17.32 73.753 L 16.364 72.04 L 15.52 70.262 L 14.794 68.427 L 14.191 66.541 L 13.717 64.615 L 13.375 62.659 L 13.169 60.682 L 13.1 58.694 L 13.169 56.706 L 13.375 54.729 L 13.717 52.773 L 14.191 50.847 L 14.794 48.961 L 15.52 47.126 L 16.364 45.348 L 17.32 43.635 L 18.379 41.995 L 19.533 40.433 L 20.774 38.954 L 22.093 37.562 L 23.48 36.26 L 24.926 35.049 L 26.422 33.931 L 27.959 32.904 L 29.527 31.968 L 31.119 31.119 L 32.726 30.355 L 34.342 29.672 L 35.959 29.065 L 37.572 28.528 L 39.176 28.057 L 40.767 27.644 L 42.343 27.285 L 43.902 26.972 L 45.441 26.699 L 46.962 26.461 L 48.465 26.251 L 49.951 26.065 L 51.423 25.898 L 52.884 25.746 L 54.338 25.606 L 55.788 25.476 L 57.238 25.353 L 58.694 25.238 L 60.159 25.131 L 61.639 25.033 L 63.137 24.946 L 64.657 24.874 L 66.204 24.82 L 67.779 24.79 L 69.384 24.788 L 71.023 24.822 L 72.694 24.896 L 74.397 25.018 L 76.132 25.196 L 77.895 25.436 L 79.684 25.746 L 81.494 26.132 L 83.319 26.602 L 85.154 27.161 L 86.99 27.815 L 88.819 28.569 L 90.633 29.427 L 92.422 30.393 L 94.176 31.468 L 95.884 32.653 L 97.536 33.949 L 99.12 35.354 L 100.627 36.865 L 102.044 38.479 L 103.363 40.192 L 104.572 41.996 L 105.662 43.885 L 106.626 45.851 L 107.456 47.884 L 108.144 49.975 L 108.685 52.113 L 109.074 54.286 L 109.309 56.484 Z" class="cut cam-outline" data-cam-key="oval" data-base-radius-mm="40.8" data-eccentricity-mm="10.2"/>
  <circle cx="58.694" cy="58.694" r="2.5" class="drill axle-hole" data-hole-role="axle" data-hole-diameter-mm="5.0"/>
  <line x1="58.694" y1="58.694" x2="99.494" y2="58.694" class="score cam-base-radius"/>
  <circle cx="58.694" cy="58.694" r="40.8" class="score cam-base-circle"/>
  <text x="58.694" y="116.388" class="label" text-anchor="middle">Oval / smooth rise</text>
</svg>
