<?xml version="1.0" encoding="UTF-8"?>
<svg xmlns="http://www.w3.org/2000/svg" version="1.1"
     width="96mm" height="108mm"
     viewBox="0 0 96 108"
     data-profile-key="motionsmith-ms4n"
     data-grid-pitch-mm="20"
     data-hole-diameter-mm="6">
  <title>Automataii fabrication cam circle</title>
  <desc>Circle / steady cam profile with 6 mm axle and linkage/bracket/crank/handle holes.</desc>
  <defs>
    <style>
      .cut { fill: none; stroke: #ed1c24; stroke-width: 0.25; stroke-miterlimit: 10; }
      .drill { fill: none; stroke: #0071bc; stroke-width: 0.2; stroke-miterlimit: 10; }
      .score { fill: none; stroke: #777777; stroke-width: 0.15; stroke-dasharray: 2 1; }
      .label { fill: #333333; font-family: Arial, Helvetica, sans-serif; font-size: 4px; }
      .tiny { fill: #333333; font-family: Arial, Helvetica, sans-serif; font-size: 3px; }
      .paper { fill: #ffffff; stroke: none; }
    </style>
  </defs>
  <path d="M 88 48 L 87.962 49.745 L 87.848 51.486 L 87.658 53.221 L 87.392 54.946 L 87.052 56.658 L 86.637 58.353 L 86.149 60.028 L 85.588 61.681 L 84.955 63.307 L 84.252 64.905 L 83.48 66.47 L 82.641 68 L 81.736 69.492 L 80.766 70.943 L 79.734 72.35 L 78.642 73.712 L 77.491 75.024 L 76.284 76.284 L 75.024 77.491 L 73.712 78.642 L 72.35 79.734 L 70.943 80.766 L 69.492 81.736 L 68 82.641 L 66.47 83.48 L 64.905 84.252 L 63.307 84.955 L 61.681 85.588 L 60.028 86.149 L 58.353 86.637 L 56.658 87.052 L 54.946 87.392 L 53.221 87.658 L 51.486 87.848 L 49.745 87.962 L 48 88 L 46.255 87.962 L 44.514 87.848 L 42.779 87.658 L 41.054 87.392 L 39.342 87.052 L 37.647 86.637 L 35.972 86.149 L 34.319 85.588 L 32.693 84.955 L 31.095 84.252 L 29.53 83.48 L 28 82.641 L 26.508 81.736 L 25.057 80.766 L 23.65 79.734 L 22.288 78.642 L 20.976 77.491 L 19.716 76.284 L 18.509 75.024 L 17.358 73.712 L 16.266 72.35 L 15.234 70.943 L 14.264 69.492 L 13.359 68 L 12.52 66.47 L 11.748 64.905 L 11.045 63.307 L 10.412 61.681 L 9.851 60.028 L 9.363 58.353 L 8.948 56.658 L 8.608 54.946 L 8.342 53.221 L 8.152 51.486 L 8.038 49.745 L 8 48 L 8.038 46.255 L 8.152 44.514 L 8.342 42.779 L 8.608 41.054 L 8.948 39.342 L 9.363 37.647 L 9.851 35.972 L 10.412 34.319 L 11.045 32.693 L 11.748 31.095 L 12.52 29.53 L 13.359 28 L 14.264 26.508 L 15.234 25.057 L 16.266 23.65 L 17.358 22.288 L 18.509 20.976 L 19.716 19.716 L 20.976 18.509 L 22.288 17.358 L 23.65 16.266 L 25.057 15.234 L 26.508 14.264 L 28 13.359 L 29.53 12.52 L 31.095 11.748 L 32.693 11.045 L 34.319 10.412 L 35.972 9.851 L 37.647 9.363 L 39.342 8.948 L 41.054 8.608 L 42.779 8.342 L 44.514 8.152 L 46.255 8.038 L 48 8 L 49.745 8.038 L 51.486 8.152 L 53.221 8.342 L 54.946 8.608 L 56.658 8.948 L 58.353 9.363 L 60.028 9.851 L 61.681 10.412 L 63.307 11.045 L 64.905 11.748 L 66.47 12.52 L 68 13.359 L 69.492 14.264 L 70.943 15.234 L 72.35 16.266 L 73.712 17.358 L 75.024 18.509 L 76.284 19.716 L 77.491 20.976 L 78.642 22.288 L 79.734 23.65 L 80.766 25.057 L 81.736 26.508 L 82.641 28 L 83.48 29.53 L 84.252 31.095 L 84.955 32.693 L 85.588 34.319 L 86.149 35.972 L 86.637 37.647 L 87.052 39.342 L 87.392 41.054 L 87.658 42.779 L 87.848 44.514 L 87.962 46.255 Z" class="cut cam-outline" data-cam-key="circle" data-base-radius-mm="40" data-eccentricity-mm="0"/>
  <circle cx="48" cy="48" r="3" class="drill axle-hole" data-hole-role="axle" data-hole-diameter-mm="6"/>
  <line x1="48" y1="48" x2="88" y2="48" class="score cam-base-radius"/>
  <circle cx="48" cy="48" r="40" class="score cam-base-circle"/>
  <circle cx="48" cy="28" r="3" class="drill linkage-hole bracket-hole crank-hole handle-hole" data-hole-role="linkage-bracket-crank-handle" data-attachment-kinds="linkage bracket crank handle" data-hole-diameter-mm="6" data-hole-index="0" data-hole-x-offset-mm="0" data-hole-y-offset-mm="-20"/>
  <circle cx="28" cy="48" r="3" class="drill linkage-hole bracket-hole crank-hole handle-hole" data-hole-role="linkage-bracket-crank-handle" data-attachment-kinds="linkage bracket crank handle" data-hole-diameter-mm="6" data-hole-index="1" data-hole-x-offset-mm="-20" data-hole-y-offset-mm="0"/>
  <circle cx="68" cy="48" r="3" class="drill linkage-hole bracket-hole crank-hole handle-hole" data-hole-role="linkage-bracket-crank-handle" data-attachment-kinds="linkage bracket crank handle" data-hole-diameter-mm="6" data-hole-index="2" data-hole-x-offset-mm="20" data-hole-y-offset-mm="0"/>
  <circle cx="48" cy="68" r="3" class="drill linkage-hole bracket-hole crank-hole handle-hole" data-hole-role="linkage-bracket-crank-handle" data-attachment-kinds="linkage bracket crank handle" data-hole-diameter-mm="6" data-hole-index="3" data-hole-x-offset-mm="0" data-hole-y-offset-mm="20"/>
  <circle cx="28" cy="28" r="3" class="drill linkage-hole bracket-hole crank-hole handle-hole" data-hole-role="linkage-bracket-crank-handle" data-attachment-kinds="linkage bracket crank handle" data-hole-diameter-mm="6" data-hole-index="4" data-hole-x-offset-mm="-20" data-hole-y-offset-mm="-20"/>
  <circle cx="68" cy="28" r="3" class="drill linkage-hole bracket-hole crank-hole handle-hole" data-hole-role="linkage-bracket-crank-handle" data-attachment-kinds="linkage bracket crank handle" data-hole-diameter-mm="6" data-hole-index="5" data-hole-x-offset-mm="20" data-hole-y-offset-mm="-20"/>
  <circle cx="28" cy="68" r="3" class="drill linkage-hole bracket-hole crank-hole handle-hole" data-hole-role="linkage-bracket-crank-handle" data-attachment-kinds="linkage bracket crank handle" data-hole-diameter-mm="6" data-hole-index="6" data-hole-x-offset-mm="-20" data-hole-y-offset-mm="20"/>
  <circle cx="68" cy="68" r="3" class="drill linkage-hole bracket-hole crank-hole handle-hole" data-hole-role="linkage-bracket-crank-handle" data-attachment-kinds="linkage bracket crank handle" data-hole-diameter-mm="6" data-hole-index="7" data-hole-x-offset-mm="20" data-hole-y-offset-mm="20"/>
  <text x="48" y="95" class="label" text-anchor="middle">Circle / steady</text>
</svg>
