<?xml version="1.0" encoding="UTF-8"?>
<svg xmlns="http://www.w3.org/2000/svg" version="1.1"
     width="121mm" height="133mm"
     viewBox="0 0 121 133"
     data-profile-key="motionsmith-ms4n"
     data-grid-pitch-mm="20"
     data-hole-diameter-mm="6">
  <title>Automataii fabrication cam oval</title>
  <desc>Oval / smooth rise cam profile with 6 mm axle and linkage/bracket/crank/handle holes.</desc>
  <defs>
    <style>
      .cut { fill: none; stroke: #ed1c24; stroke-width: 0.25; stroke-miterlimit: 10; }
      .drill { fill: none; stroke: #0071bc; stroke-width: 0.2; stroke-miterlimit: 10; }
      .score { fill: none; stroke: #777777; stroke-width: 0.15; stroke-dasharray: 2 1; }
      .label { fill: #333333; font-family: Arial, Helvetica, sans-serif; font-size: 4px; }
      .tiny { fill: #333333; font-family: Arial, Helvetica, sans-serif; font-size: 3px; }
      .paper { fill: #ffffff; stroke: none; }
    </style>
  </defs>
  <path d="M 60.5 8 L 62.787 8.126 L 65.049 8.501 L 67.264 9.119 L 69.41 9.968 L 71.467 11.031 L 73.418 12.29 L 75.249 13.723 L 76.949 15.306 L 78.513 17.012 L 79.938 18.816 L 81.224 20.69 L 82.375 22.611 L 83.399 24.555 L 84.306 26.501 L 85.108 28.43 L 85.818 30.328 L 86.449 32.182 L 87.017 33.983 L 87.533 35.729 L 88.012 37.415 L 88.463 39.043 L 88.896 40.617 L 89.316 42.142 L 89.728 43.625 L 90.134 45.073 L 90.533 46.495 L 90.922 47.899 L 91.297 49.291 L 91.652 50.678 L 91.979 52.065 L 92.272 53.456 L 92.524 54.853 L 92.728 56.257 L 92.877 57.667 L 92.969 59.082 L 93 60.5 L 92.969 61.918 L 92.877 63.333 L 92.728 64.743 L 92.524 66.147 L 92.272 67.544 L 91.979 68.935 L 91.652 70.322 L 91.297 71.709 L 90.922 73.101 L 90.533 74.505 L 90.134 75.927 L 89.728 77.375 L 89.316 78.858 L 88.896 80.383 L 88.463 81.957 L 88.012 83.585 L 87.533 85.271 L 87.017 87.017 L 86.449 88.818 L 85.818 90.672 L 85.108 92.57 L 84.306 94.499 L 83.399 96.445 L 82.375 98.389 L 81.224 100.31 L 79.938 102.184 L 78.513 103.988 L 76.949 105.694 L 75.249 107.277 L 73.418 108.71 L 71.467 109.969 L 69.41 111.032 L 67.264 111.881 L 65.049 112.499 L 62.787 112.874 L 60.5 113 L 58.213 112.874 L 55.951 112.499 L 53.736 111.881 L 51.59 111.032 L 49.533 109.969 L 47.582 108.71 L 45.751 107.277 L 44.051 105.694 L 42.487 103.988 L 41.062 102.184 L 39.776 100.31 L 38.625 98.389 L 37.601 96.445 L 36.694 94.499 L 35.892 92.57 L 35.182 90.672 L 34.551 88.818 L 33.983 87.017 L 33.467 85.271 L 32.988 83.585 L 32.537 81.957 L 32.104 80.383 L 31.684 78.858 L 31.272 77.375 L 30.866 75.927 L 30.467 74.505 L 30.078 73.101 L 29.703 71.709 L 29.348 70.322 L 29.021 68.935 L 28.728 67.544 L 28.476 66.147 L 28.272 64.743 L 28.123 63.333 L 28.031 61.918 L 28 60.5 L 28.031 59.082 L 28.123 57.667 L 28.272 56.257 L 28.476 54.853 L 28.728 53.456 L 29.021 52.065 L 29.348 50.678 L 29.703 49.291 L 30.078 47.899 L 30.467 46.495 L 30.866 45.073 L 31.272 43.625 L 31.684 42.142 L 32.104 40.617 L 32.537 39.043 L 32.988 37.415 L 33.467 35.729 L 33.983 33.983 L 34.551 32.182 L 35.182 30.328 L 35.892 28.43 L 36.694 26.501 L 37.601 24.555 L 38.625 22.611 L 39.776 20.69 L 41.062 18.816 L 42.487 17.012 L 44.051 15.306 L 45.751 13.723 L 47.582 12.29 L 49.533 11.031 L 51.59 9.968 L 53.736 9.119 L 55.951 8.501 L 58.213 8.126 Z" class="cut cam-outline" data-cam-key="oval" data-base-radius-mm="40" data-eccentricity-mm="10" data-cam-lobes="2" data-profile-harmonic="0.25" data-rise-deg="120" data-high-dwell-deg="30" data-return-deg="120" data-physical-cam-preset="oval" data-profile-source="automataii.domain.mechanisms.cam.profile.build_pear_cam_profile_from_params" data-profile-sample-count="144"/>
  <circle cx="60.5" cy="60.5" r="3" class="drill axle-hole" data-hole-role="axle" data-hole-diameter-mm="6"/>
  <line x1="60.5" y1="60.5" x2="100.5" y2="60.5" class="score cam-base-radius"/>
  <circle cx="60.5" cy="60.5" r="40" class="score cam-base-circle"/>
  <circle cx="60.5" cy="40.5" r="3" class="drill linkage-hole bracket-hole crank-hole handle-hole" data-hole-role="linkage-bracket-crank-handle" data-attachment-kinds="linkage bracket crank handle" data-hole-diameter-mm="6" data-hole-index="0" data-hole-x-offset-mm="0" data-hole-y-offset-mm="-20"/>
  <circle cx="40.5" cy="60.5" r="3" class="drill linkage-hole bracket-hole crank-hole handle-hole" data-hole-role="linkage-bracket-crank-handle" data-attachment-kinds="linkage bracket crank handle" data-hole-diameter-mm="6" data-hole-index="1" data-hole-x-offset-mm="-20" data-hole-y-offset-mm="0"/>
  <circle cx="80.5" cy="60.5" r="3" class="drill linkage-hole bracket-hole crank-hole handle-hole" data-hole-role="linkage-bracket-crank-handle" data-attachment-kinds="linkage bracket crank handle" data-hole-diameter-mm="6" data-hole-index="2" data-hole-x-offset-mm="20" data-hole-y-offset-mm="0"/>
  <circle cx="60.5" cy="80.5" r="3" class="drill linkage-hole bracket-hole crank-hole handle-hole" data-hole-role="linkage-bracket-crank-handle" data-attachment-kinds="linkage bracket crank handle" data-hole-diameter-mm="6" data-hole-index="3" data-hole-x-offset-mm="0" data-hole-y-offset-mm="20"/>
  <circle cx="40.5" cy="40.5" r="3" class="drill linkage-hole bracket-hole crank-hole handle-hole" data-hole-role="linkage-bracket-crank-handle" data-attachment-kinds="linkage bracket crank handle" data-hole-diameter-mm="6" data-hole-index="4" data-hole-x-offset-mm="-20" data-hole-y-offset-mm="-20"/>
  <circle cx="80.5" cy="40.5" r="3" class="drill linkage-hole bracket-hole crank-hole handle-hole" data-hole-role="linkage-bracket-crank-handle" data-attachment-kinds="linkage bracket crank handle" data-hole-diameter-mm="6" data-hole-index="5" data-hole-x-offset-mm="20" data-hole-y-offset-mm="-20"/>
  <circle cx="40.5" cy="80.5" r="3" class="drill linkage-hole bracket-hole crank-hole handle-hole" data-hole-role="linkage-bracket-crank-handle" data-attachment-kinds="linkage bracket crank handle" data-hole-diameter-mm="6" data-hole-index="6" data-hole-x-offset-mm="-20" data-hole-y-offset-mm="20"/>
  <circle cx="80.5" cy="80.5" r="3" class="drill linkage-hole bracket-hole crank-hole handle-hole" data-hole-role="linkage-bracket-crank-handle" data-attachment-kinds="linkage bracket crank handle" data-hole-diameter-mm="6" data-hole-index="7" data-hole-x-offset-mm="20" data-hole-y-offset-mm="20"/>
  <circle cx="60.5" cy="20.5" r="3" class="drill linkage-hole bracket-hole crank-hole handle-hole" data-hole-role="linkage-bracket-crank-handle" data-attachment-kinds="linkage bracket crank handle" data-hole-diameter-mm="6" data-hole-index="8" data-hole-x-offset-mm="0" data-hole-y-offset-mm="-40"/>
  <circle cx="60.5" cy="100.5" r="3" class="drill linkage-hole bracket-hole crank-hole handle-hole" data-hole-role="linkage-bracket-crank-handle" data-attachment-kinds="linkage bracket crank handle" data-hole-diameter-mm="6" data-hole-index="9" data-hole-x-offset-mm="0" data-hole-y-offset-mm="40"/>
  <text x="60.5" y="120" class="label" text-anchor="middle">Oval / smooth rise</text>
</svg>
