<?xml version="1.0" encoding="UTF-8"?>
<svg xmlns="http://www.w3.org/2000/svg" version="1.1"
     width="126mm" height="138mm"
     viewBox="0 0 126 138"
     data-profile-key="motionsmith-ms4n"
     data-grid-pitch-mm="20"
     data-hole-diameter-mm="6">
  <title>Automataii fabrication cam eccentric</title>
  <desc>Eccentric / bounce cam profile with 6 mm axle and linkage/bracket/crank/handle holes.</desc>
  <defs>
    <style>
      .cut { fill: none; stroke: #ed1c24; stroke-width: 0.25; stroke-miterlimit: 10; }
      .drill { fill: none; stroke: #0071bc; stroke-width: 0.2; stroke-miterlimit: 10; }
      .score { fill: none; stroke: #777777; stroke-width: 0.15; stroke-dasharray: 2 1; }
      .label { fill: #333333; font-family: Arial, Helvetica, sans-serif; font-size: 4px; }
      .tiny { fill: #333333; font-family: Arial, Helvetica, sans-serif; font-size: 3px; }
      .paper { fill: #ffffff; stroke: none; }
    </style>
  </defs>
  <path d="M 118 63 L 117.941 65.399 L 117.762 67.791 L 117.466 70.171 L 117.052 72.531 L 116.523 74.866 L 115.879 77.169 L 115.123 79.434 L 114.258 81.656 L 113.286 83.829 L 112.21 85.947 L 111.034 88.005 L 109.761 89.998 L 108.396 91.92 L 106.942 93.769 L 105.405 95.538 L 103.788 97.225 L 102.098 98.826 L 100.338 100.338 L 98.514 101.756 L 96.631 103.08 L 94.696 104.307 L 92.712 105.434 L 90.687 106.46 L 88.625 107.384 L 86.532 108.205 L 84.414 108.922 L 82.276 109.536 L 80.123 110.046 L 77.962 110.452 L 75.796 110.756 L 73.632 110.959 L 71.474 111.061 L 69.328 111.064 L 67.197 110.97 L 65.086 110.782 L 63 110.5 L 60.942 110.128 L 58.917 109.668 L 56.928 109.123 L 54.978 108.496 L 53.07 107.789 L 51.209 107.006 L 49.395 106.151 L 47.631 105.225 L 45.921 104.233 L 44.265 103.177 L 42.666 102.061 L 41.125 100.889 L 39.643 99.662 L 38.223 98.386 L 36.863 97.062 L 35.566 95.694 L 34.333 94.285 L 33.162 92.838 L 32.056 91.355 L 31.014 89.839 L 30.036 88.294 L 29.123 86.721 L 28.274 85.123 L 27.489 83.502 L 26.768 81.861 L 26.111 80.202 L 25.517 78.526 L 24.987 76.836 L 24.52 75.133 L 24.116 73.419 L 23.775 71.696 L 23.495 69.966 L 23.279 68.229 L 23.124 66.489 L 23.031 64.745 L 23 63 L 23.031 61.255 L 23.124 59.511 L 23.279 57.771 L 23.495 56.034 L 23.775 54.304 L 24.116 52.581 L 24.52 50.867 L 24.987 49.164 L 25.517 47.474 L 26.111 45.798 L 26.768 44.139 L 27.489 42.498 L 28.274 40.877 L 29.123 39.279 L 30.036 37.706 L 31.014 36.161 L 32.056 34.645 L 33.162 33.162 L 34.333 31.715 L 35.566 30.306 L 36.863 28.938 L 38.223 27.614 L 39.643 26.338 L 41.125 25.111 L 42.666 23.939 L 44.265 22.823 L 45.921 21.767 L 47.631 20.775 L 49.395 19.849 L 51.209 18.994 L 53.07 18.211 L 54.978 17.504 L 56.928 16.877 L 58.917 16.332 L 60.942 15.872 L 63 15.5 L 65.086 15.218 L 67.197 15.03 L 69.328 14.936 L 71.474 14.939 L 73.632 15.041 L 75.796 15.244 L 77.962 15.548 L 80.123 15.954 L 82.276 16.464 L 84.414 17.078 L 86.532 17.795 L 88.625 18.616 L 90.687 19.54 L 92.712 20.566 L 94.696 21.693 L 96.631 22.92 L 98.514 24.244 L 100.338 25.662 L 102.098 27.174 L 103.788 28.775 L 105.405 30.462 L 106.942 32.231 L 108.396 34.08 L 109.761 36.002 L 111.034 37.995 L 112.21 40.053 L 113.286 42.171 L 114.258 44.344 L 115.123 46.566 L 115.879 48.831 L 116.523 51.134 L 117.052 53.469 L 117.466 55.829 L 117.762 58.209 L 117.941 60.601 Z" class="cut cam-outline" data-cam-key="eccentric" data-base-radius-mm="40" data-eccentricity-mm="15"/>
  <circle cx="63" cy="63" r="3" class="drill axle-hole" data-hole-role="axle" data-hole-diameter-mm="6"/>
  <line x1="63" y1="63" x2="103" y2="63" class="score cam-base-radius"/>
  <circle cx="63" cy="63" r="40" class="score cam-base-circle"/>
  <circle cx="63" cy="43" r="3" class="drill linkage-hole bracket-hole crank-hole handle-hole" data-hole-role="linkage-bracket-crank-handle" data-attachment-kinds="linkage bracket crank handle" data-hole-diameter-mm="6" data-hole-index="0" data-hole-x-offset-mm="0" data-hole-y-offset-mm="-20"/>
  <circle cx="43" cy="63" r="3" class="drill linkage-hole bracket-hole crank-hole handle-hole" data-hole-role="linkage-bracket-crank-handle" data-attachment-kinds="linkage bracket crank handle" data-hole-diameter-mm="6" data-hole-index="1" data-hole-x-offset-mm="-20" data-hole-y-offset-mm="0"/>
  <circle cx="83" cy="63" r="3" class="drill linkage-hole bracket-hole crank-hole handle-hole" data-hole-role="linkage-bracket-crank-handle" data-attachment-kinds="linkage bracket crank handle" data-hole-diameter-mm="6" data-hole-index="2" data-hole-x-offset-mm="20" data-hole-y-offset-mm="0"/>
  <circle cx="63" cy="83" r="3" class="drill linkage-hole bracket-hole crank-hole handle-hole" data-hole-role="linkage-bracket-crank-handle" data-attachment-kinds="linkage bracket crank handle" data-hole-diameter-mm="6" data-hole-index="3" data-hole-x-offset-mm="0" data-hole-y-offset-mm="20"/>
  <circle cx="43" cy="43" r="3" class="drill linkage-hole bracket-hole crank-hole handle-hole" data-hole-role="linkage-bracket-crank-handle" data-attachment-kinds="linkage bracket crank handle" data-hole-diameter-mm="6" data-hole-index="4" data-hole-x-offset-mm="-20" data-hole-y-offset-mm="-20"/>
  <circle cx="83" cy="43" r="3" class="drill linkage-hole bracket-hole crank-hole handle-hole" data-hole-role="linkage-bracket-crank-handle" data-attachment-kinds="linkage bracket crank handle" data-hole-diameter-mm="6" data-hole-index="5" data-hole-x-offset-mm="20" data-hole-y-offset-mm="-20"/>
  <circle cx="43" cy="83" r="3" class="drill linkage-hole bracket-hole crank-hole handle-hole" data-hole-role="linkage-bracket-crank-handle" data-attachment-kinds="linkage bracket crank handle" data-hole-diameter-mm="6" data-hole-index="6" data-hole-x-offset-mm="-20" data-hole-y-offset-mm="20"/>
  <circle cx="83" cy="83" r="3" class="drill linkage-hole bracket-hole crank-hole handle-hole" data-hole-role="linkage-bracket-crank-handle" data-attachment-kinds="linkage bracket crank handle" data-hole-diameter-mm="6" data-hole-index="7" data-hole-x-offset-mm="20" data-hole-y-offset-mm="20"/>
  <circle cx="63" cy="23" r="3" class="drill linkage-hole bracket-hole crank-hole handle-hole" data-hole-role="linkage-bracket-crank-handle" data-attachment-kinds="linkage bracket crank handle" data-hole-diameter-mm="6" data-hole-index="8" data-hole-x-offset-mm="0" data-hole-y-offset-mm="-40"/>
  <circle cx="103" cy="63" r="3" class="drill linkage-hole bracket-hole crank-hole handle-hole" data-hole-role="linkage-bracket-crank-handle" data-attachment-kinds="linkage bracket crank handle" data-hole-diameter-mm="6" data-hole-index="9" data-hole-x-offset-mm="40" data-hole-y-offset-mm="0"/>
  <circle cx="63" cy="103" r="3" class="drill linkage-hole bracket-hole crank-hole handle-hole" data-hole-role="linkage-bracket-crank-handle" data-attachment-kinds="linkage bracket crank handle" data-hole-diameter-mm="6" data-hole-index="10" data-hole-x-offset-mm="0" data-hole-y-offset-mm="40"/>
  <circle cx="103" cy="43" r="3" class="drill linkage-hole bracket-hole crank-hole handle-hole" data-hole-role="linkage-bracket-crank-handle" data-attachment-kinds="linkage bracket crank handle" data-hole-diameter-mm="6" data-hole-index="11" data-hole-x-offset-mm="40" data-hole-y-offset-mm="-20"/>
  <circle cx="103" cy="83" r="3" class="drill linkage-hole bracket-hole crank-hole handle-hole" data-hole-role="linkage-bracket-crank-handle" data-attachment-kinds="linkage bracket crank handle" data-hole-diameter-mm="6" data-hole-index="12" data-hole-x-offset-mm="40" data-hole-y-offset-mm="20"/>
  <text x="63" y="125" class="label" text-anchor="middle">Eccentric / bounce</text>
</svg>
