<?xml version="1.0" encoding="UTF-8"?>
<svg xmlns="http://www.w3.org/2000/svg" version="1.1"
     width="115.4mm" height="127.4mm"
     viewBox="0 0 115.4 127.4"
     data-profile-key="motionsmith-ms4n"
     data-grid-pitch-mm="20"
     data-hole-diameter-mm="6">
  <title>Automataii fabrication cam oval</title>
  <desc>Oval / smooth rise cam profile with 6 mm axle and linkage/bracket/crank/handle holes.</desc>
  <defs>
    <style>
      .cut { fill: none; stroke: #ed1c24; stroke-width: 0.25; stroke-miterlimit: 10; }
      .drill { fill: none; stroke: #0071bc; stroke-width: 0.2; stroke-miterlimit: 10; }
      .score { fill: none; stroke: #777777; stroke-width: 0.15; stroke-dasharray: 2 1; }
      .label { fill: #333333; font-family: Arial, Helvetica, sans-serif; font-size: 4px; }
      .tiny { fill: #333333; font-family: Arial, Helvetica, sans-serif; font-size: 3px; }
      .paper { fill: #ffffff; stroke: none; }
    </style>
  </defs>
  <path d="M 107.4 57.7 L 107.323 59.867 L 107.092 62.021 L 106.71 64.152 L 106.18 66.248 L 105.505 68.298 L 104.692 70.292 L 103.748 72.219 L 102.678 74.071 L 101.493 75.84 L 100.2 77.518 L 98.811 79.101 L 97.334 80.583 L 95.78 81.96 L 94.161 83.23 L 92.486 84.392 L 90.767 85.446 L 89.013 86.393 L 87.234 87.234 L 85.441 87.974 L 83.641 88.615 L 81.843 89.163 L 80.053 89.623 L 78.279 90.002 L 76.525 90.306 L 74.796 90.541 L 73.095 90.715 L 71.425 90.835 L 69.787 90.908 L 68.181 90.941 L 66.606 90.939 L 65.062 90.909 L 63.546 90.857 L 62.056 90.786 L 60.587 90.701 L 59.137 90.605 L 57.7 90.5 L 56.273 90.387 L 54.851 90.267 L 53.429 90.139 L 52.004 90.002 L 50.572 89.853 L 49.129 89.689 L 47.671 89.507 L 46.198 89.301 L 44.707 89.068 L 43.198 88.8 L 41.67 88.493 L 40.125 88.141 L 38.565 87.736 L 36.992 87.274 L 35.41 86.748 L 33.825 86.153 L 32.241 85.483 L 30.666 84.734 L 29.105 83.902 L 27.568 82.984 L 26.061 81.977 L 24.594 80.881 L 23.176 79.694 L 21.816 78.417 L 20.523 77.053 L 19.307 75.603 L 18.175 74.072 L 17.137 72.464 L 16.2 70.785 L 15.373 69.042 L 14.66 67.242 L 14.069 65.393 L 13.604 63.505 L 13.27 61.587 L 13.068 59.649 L 13 57.7 L 13.068 55.751 L 13.27 53.813 L 13.604 51.895 L 14.069 50.007 L 14.66 48.158 L 15.373 46.358 L 16.2 44.615 L 17.137 42.936 L 18.175 41.328 L 19.307 39.797 L 20.523 38.347 L 21.816 36.983 L 23.176 35.706 L 24.594 34.519 L 26.061 33.423 L 27.568 32.416 L 29.105 31.498 L 30.666 30.666 L 32.241 29.917 L 33.825 29.247 L 35.41 28.652 L 36.992 28.126 L 38.565 27.664 L 40.125 27.259 L 41.67 26.907 L 43.198 26.6 L 44.707 26.332 L 46.198 26.099 L 47.671 25.893 L 49.129 25.711 L 50.572 25.547 L 52.004 25.398 L 53.429 25.261 L 54.851 25.133 L 56.273 25.013 L 57.7 24.9 L 59.137 24.795 L 60.587 24.699 L 62.056 24.614 L 63.546 24.543 L 65.062 24.491 L 66.606 24.461 L 68.181 24.459 L 69.787 24.492 L 71.425 24.565 L 73.095 24.685 L 74.796 24.859 L 76.525 25.094 L 78.279 25.398 L 80.053 25.777 L 81.843 26.237 L 83.641 26.785 L 85.441 27.426 L 87.234 28.166 L 89.013 29.007 L 90.767 29.954 L 92.486 31.008 L 94.161 32.17 L 95.78 33.44 L 97.334 34.817 L 98.811 36.299 L 100.2 37.882 L 101.493 39.56 L 102.678 41.329 L 103.748 43.181 L 104.692 45.108 L 105.505 47.102 L 106.18 49.152 L 106.71 51.248 L 107.092 53.379 L 107.323 55.533 Z" class="cut cam-outline" data-cam-key="oval" data-base-radius-mm="40" data-eccentricity-mm="10"/>
  <circle cx="57.7" cy="57.7" r="3" class="drill axle-hole" data-hole-role="axle" data-hole-diameter-mm="6"/>
  <line x1="57.7" y1="57.7" x2="97.7" y2="57.7" class="score cam-base-radius"/>
  <circle cx="57.7" cy="57.7" r="40" class="score cam-base-circle"/>
  <circle cx="57.7" cy="37.7" r="3" class="drill linkage-hole bracket-hole crank-hole handle-hole" data-hole-role="linkage-bracket-crank-handle" data-attachment-kinds="linkage bracket crank handle" data-hole-diameter-mm="6" data-hole-index="0" data-hole-x-offset-mm="0" data-hole-y-offset-mm="-20"/>
  <circle cx="37.7" cy="57.7" r="3" class="drill linkage-hole bracket-hole crank-hole handle-hole" data-hole-role="linkage-bracket-crank-handle" data-attachment-kinds="linkage bracket crank handle" data-hole-diameter-mm="6" data-hole-index="1" data-hole-x-offset-mm="-20" data-hole-y-offset-mm="0"/>
  <circle cx="77.7" cy="57.7" r="3" class="drill linkage-hole bracket-hole crank-hole handle-hole" data-hole-role="linkage-bracket-crank-handle" data-attachment-kinds="linkage bracket crank handle" data-hole-diameter-mm="6" data-hole-index="2" data-hole-x-offset-mm="20" data-hole-y-offset-mm="0"/>
  <circle cx="57.7" cy="77.7" r="3" class="drill linkage-hole bracket-hole crank-hole handle-hole" data-hole-role="linkage-bracket-crank-handle" data-attachment-kinds="linkage bracket crank handle" data-hole-diameter-mm="6" data-hole-index="3" data-hole-x-offset-mm="0" data-hole-y-offset-mm="20"/>
  <circle cx="37.7" cy="37.7" r="3" class="drill linkage-hole bracket-hole crank-hole handle-hole" data-hole-role="linkage-bracket-crank-handle" data-attachment-kinds="linkage bracket crank handle" data-hole-diameter-mm="6" data-hole-index="4" data-hole-x-offset-mm="-20" data-hole-y-offset-mm="-20"/>
  <circle cx="77.7" cy="37.7" r="3" class="drill linkage-hole bracket-hole crank-hole handle-hole" data-hole-role="linkage-bracket-crank-handle" data-attachment-kinds="linkage bracket crank handle" data-hole-diameter-mm="6" data-hole-index="5" data-hole-x-offset-mm="20" data-hole-y-offset-mm="-20"/>
  <circle cx="37.7" cy="77.7" r="3" class="drill linkage-hole bracket-hole crank-hole handle-hole" data-hole-role="linkage-bracket-crank-handle" data-attachment-kinds="linkage bracket crank handle" data-hole-diameter-mm="6" data-hole-index="6" data-hole-x-offset-mm="-20" data-hole-y-offset-mm="20"/>
  <circle cx="77.7" cy="77.7" r="3" class="drill linkage-hole bracket-hole crank-hole handle-hole" data-hole-role="linkage-bracket-crank-handle" data-attachment-kinds="linkage bracket crank handle" data-hole-diameter-mm="6" data-hole-index="7" data-hole-x-offset-mm="20" data-hole-y-offset-mm="20"/>
  <circle cx="97.7" cy="57.7" r="3" class="drill linkage-hole bracket-hole crank-hole handle-hole" data-hole-role="linkage-bracket-crank-handle" data-attachment-kinds="linkage bracket crank handle" data-hole-diameter-mm="6" data-hole-index="8" data-hole-x-offset-mm="40" data-hole-y-offset-mm="0"/>
  <text x="57.7" y="114.4" class="label" text-anchor="middle">Oval / smooth rise</text>
</svg>
