<?xml version="1.0" encoding="UTF-8"?>
<svg xmlns="http://www.w3.org/2000/svg" version="1.1"
     width="126mm" height="138mm"
     viewBox="0 0 126 138"
     data-profile-key="motionsmith-ms4n"
     data-grid-pitch-mm="20"
     data-hole-diameter-mm="6">
  <title>Automataii fabrication cam eccentric</title>
  <desc>Eccentric / bounce cam profile with 6 mm axle and linkage/bracket/crank/handle holes.</desc>
  <defs>
    <style>
      .cut { fill: none; stroke: #ed1c24; stroke-width: 0.25; stroke-miterlimit: 10; }
      .drill { fill: none; stroke: #0071bc; stroke-width: 0.2; stroke-miterlimit: 10; }
      .score { fill: none; stroke: #777777; stroke-width: 0.15; stroke-dasharray: 2 1; }
      .label { fill: #333333; font-family: Arial, Helvetica, sans-serif; font-size: 4px; }
      .tiny { fill: #333333; font-family: Arial, Helvetica, sans-serif; font-size: 3px; }
      .paper { fill: #ffffff; stroke: none; }
    </style>
  </defs>
  <path d="M 63 8 L 65.398 8.067 L 67.789 8.266 L 70.162 8.598 L 72.511 9.06 L 74.827 9.651 L 77.103 10.368 L 79.33 11.208 L 81.502 12.167 L 83.611 13.242 L 85.65 14.427 L 87.614 15.718 L 89.495 17.109 L 91.289 18.595 L 92.991 20.169 L 94.595 21.825 L 96.098 23.556 L 97.495 25.355 L 98.784 27.216 L 99.963 29.13 L 101.028 31.091 L 101.979 33.091 L 102.814 35.122 L 103.533 37.178 L 104.136 39.25 L 104.624 41.332 L 104.998 43.416 L 105.258 45.496 L 105.409 47.565 L 105.451 49.615 L 105.387 51.642 L 105.221 53.64 L 104.957 55.602 L 104.599 57.523 L 104.15 59.4 L 103.616 61.227 L 103 63 L 102.308 64.716 L 101.545 66.372 L 100.717 67.965 L 99.827 69.494 L 98.882 70.955 L 97.887 72.348 L 96.847 73.672 L 95.767 74.926 L 94.652 76.111 L 93.507 77.226 L 92.337 78.272 L 91.146 79.25 L 89.938 80.162 L 88.718 81.008 L 87.49 81.792 L 86.256 82.514 L 85.02 83.177 L 83.784 83.784 L 82.552 84.337 L 81.325 84.839 L 80.106 85.293 L 78.895 85.701 L 77.695 86.066 L 76.505 86.391 L 75.326 86.679 L 74.159 86.931 L 73.004 87.152 L 71.86 87.342 L 70.726 87.505 L 69.603 87.642 L 68.488 87.755 L 67.381 87.845 L 66.28 87.913 L 65.184 87.962 L 64.091 87.99 L 63 88 L 61.909 87.99 L 60.816 87.962 L 59.72 87.913 L 58.619 87.845 L 57.512 87.755 L 56.397 87.642 L 55.274 87.505 L 54.14 87.342 L 52.996 87.152 L 51.841 86.931 L 50.674 86.679 L 49.495 86.391 L 48.305 86.066 L 47.105 85.701 L 45.894 85.293 L 44.675 84.839 L 43.448 84.337 L 42.216 83.784 L 40.98 83.177 L 39.744 82.514 L 38.51 81.792 L 37.282 81.008 L 36.062 80.162 L 34.854 79.25 L 33.663 78.272 L 32.493 77.226 L 31.348 76.111 L 30.233 74.926 L 29.153 73.672 L 28.113 72.348 L 27.118 70.955 L 26.173 69.494 L 25.283 67.965 L 24.455 66.372 L 23.692 64.716 L 23 63 L 22.384 61.227 L 21.85 59.4 L 21.401 57.523 L 21.043 55.602 L 20.779 53.64 L 20.613 51.642 L 20.549 49.615 L 20.591 47.565 L 20.742 45.496 L 21.002 43.416 L 21.376 41.332 L 21.864 39.25 L 22.467 37.178 L 23.186 35.122 L 24.021 33.091 L 24.972 31.091 L 26.037 29.13 L 27.216 27.216 L 28.505 25.355 L 29.902 23.556 L 31.405 21.825 L 33.009 20.169 L 34.711 18.595 L 36.505 17.109 L 38.386 15.718 L 40.35 14.427 L 42.389 13.242 L 44.498 12.167 L 46.67 11.208 L 48.897 10.368 L 51.173 9.651 L 53.489 9.06 L 55.838 8.598 L 58.211 8.266 L 60.602 8.067 Z" class="cut cam-outline" data-cam-key="eccentric" data-base-radius-mm="40" data-eccentricity-mm="15" data-cam-lobes="1" data-profile-harmonic="0" data-rise-deg="90" data-high-dwell-deg="60" data-return-deg="90" data-physical-cam-preset="eccentric" data-profile-source="automataii.domain.mechanisms.cam.profile.build_pear_cam_profile_from_params" data-profile-sample-count="144"/>
  <circle cx="63" cy="63" r="3" class="drill axle-hole" data-hole-role="axle" data-hole-diameter-mm="6"/>
  <line x1="63" y1="63" x2="103" y2="63" class="score cam-base-radius"/>
  <circle cx="63" cy="63" r="40" class="score cam-base-circle"/>
  <circle cx="63" cy="43" r="3" class="drill linkage-hole bracket-hole crank-hole handle-hole" data-hole-role="linkage-bracket-crank-handle" data-attachment-kinds="linkage bracket crank handle" data-hole-diameter-mm="6" data-hole-index="0" data-hole-x-offset-mm="0" data-hole-y-offset-mm="-20"/>
  <circle cx="43" cy="63" r="3" class="drill linkage-hole bracket-hole crank-hole handle-hole" data-hole-role="linkage-bracket-crank-handle" data-attachment-kinds="linkage bracket crank handle" data-hole-diameter-mm="6" data-hole-index="1" data-hole-x-offset-mm="-20" data-hole-y-offset-mm="0"/>
  <circle cx="83" cy="63" r="3" class="drill linkage-hole bracket-hole crank-hole handle-hole" data-hole-role="linkage-bracket-crank-handle" data-attachment-kinds="linkage bracket crank handle" data-hole-diameter-mm="6" data-hole-index="2" data-hole-x-offset-mm="20" data-hole-y-offset-mm="0"/>
  <circle cx="43" cy="43" r="3" class="drill linkage-hole bracket-hole crank-hole handle-hole" data-hole-role="linkage-bracket-crank-handle" data-attachment-kinds="linkage bracket crank handle" data-hole-diameter-mm="6" data-hole-index="3" data-hole-x-offset-mm="-20" data-hole-y-offset-mm="-20"/>
  <circle cx="83" cy="43" r="3" class="drill linkage-hole bracket-hole crank-hole handle-hole" data-hole-role="linkage-bracket-crank-handle" data-attachment-kinds="linkage bracket crank handle" data-hole-diameter-mm="6" data-hole-index="4" data-hole-x-offset-mm="20" data-hole-y-offset-mm="-20"/>
  <circle cx="63" cy="23" r="3" class="drill linkage-hole bracket-hole crank-hole handle-hole" data-hole-role="linkage-bracket-crank-handle" data-attachment-kinds="linkage bracket crank handle" data-hole-diameter-mm="6" data-hole-index="5" data-hole-x-offset-mm="0" data-hole-y-offset-mm="-40"/>
  <circle cx="43" cy="23" r="3" class="drill linkage-hole bracket-hole crank-hole handle-hole" data-hole-role="linkage-bracket-crank-handle" data-attachment-kinds="linkage bracket crank handle" data-hole-diameter-mm="6" data-hole-index="6" data-hole-x-offset-mm="-20" data-hole-y-offset-mm="-40"/>
  <circle cx="83" cy="23" r="3" class="drill linkage-hole bracket-hole crank-hole handle-hole" data-hole-role="linkage-bracket-crank-handle" data-attachment-kinds="linkage bracket crank handle" data-hole-diameter-mm="6" data-hole-index="7" data-hole-x-offset-mm="20" data-hole-y-offset-mm="-40"/>
  <text x="63" y="125" class="label" text-anchor="middle">Eccentric / bounce</text>
</svg>
