<?xml version="1.0" encoding="UTF-8"?>
<svg xmlns="http://www.w3.org/2000/svg" version="1.1"
     width="56mm" height="68mm"
     viewBox="0 0 56 68"
     data-profile-key="motionsmith-ms4n"
     data-grid-pitch-mm="20"
     data-hole-diameter-mm="4">
  <title>Automataii fabrication cam eccentric</title>
  <desc>Eccentric / bounce cam profile with 4 mm axle and linkage/bracket/crank/handle holes.</desc>
  <defs>
    <style>
      .cut { fill: none; stroke: #ed1c24; stroke-width: 0.25; stroke-miterlimit: 10; }
      .drill { fill: none; stroke: #0071bc; stroke-width: 0.2; stroke-miterlimit: 10; }
      .score { fill: none; stroke: #777777; stroke-width: 0.15; stroke-dasharray: 2 1; }
      .label { fill: #333333; font-family: Arial, Helvetica, sans-serif; font-size: 4px; }
      .tiny { fill: #333333; font-family: Arial, Helvetica, sans-serif; font-size: 3px; }
      .small { fill: #333333; font-family: Arial, Helvetica, sans-serif; font-size: 3.6px; }
      .step-title { fill: #111827; font-family: Arial, Helvetica, sans-serif; font-size: 5px; font-weight: bold; }
      .part-card-label { fill: #111827; font-family: Arial, Helvetica, sans-serif; font-size: 3.5px; font-weight: bold; }
      .coord-label { fill: #111827; font-family: Arial, Helvetica, sans-serif; font-size: 6px; font-weight: bold; }
      .paper { fill: #ffffff; stroke: none; }
    </style>
  </defs>
  <path d="M 28 8 L 28.872 8.024 L 29.741 8.095 L 30.605 8.214 L 31.46 8.379 L 32.303 8.59 L 33.132 8.846 L 33.945 9.146 L 34.737 9.489 L 35.508 9.874 L 36.254 10.298 L 36.974 10.761 L 37.665 11.26 L 38.325 11.793 L 38.953 12.358 L 39.546 12.953 L 40.104 13.575 L 40.624 14.223 L 41.107 14.893 L 41.55 15.584 L 41.953 16.292 L 42.315 17.016 L 42.637 17.751 L 42.917 18.497 L 43.155 19.25 L 43.353 20.008 L 43.51 20.768 L 43.626 21.528 L 43.702 22.285 L 43.74 23.037 L 43.739 23.783 L 43.701 24.519 L 43.627 25.245 L 43.519 25.957 L 43.377 26.655 L 43.204 27.336 L 43 28 L 42.768 28.645 L 42.509 29.269 L 42.225 29.873 L 41.917 30.454 L 41.588 31.012 L 41.239 31.547 L 40.872 32.058 L 40.488 32.545 L 40.09 33.008 L 39.68 33.446 L 39.257 33.86 L 38.825 34.25 L 38.385 34.616 L 37.938 34.959 L 37.485 35.278 L 37.029 35.576 L 36.569 35.852 L 36.107 36.107 L 35.643 36.341 L 35.18 36.557 L 34.717 36.753 L 34.254 36.932 L 33.794 37.094 L 33.335 37.24 L 32.878 37.371 L 32.424 37.488 L 31.972 37.59 L 31.523 37.68 L 31.077 37.758 L 30.632 37.824 L 30.19 37.879 L 29.75 37.923 L 29.311 37.957 L 28.873 37.981 L 28.436 37.995 L 28 38 L 27.564 37.995 L 27.127 37.981 L 26.689 37.957 L 26.25 37.923 L 25.81 37.879 L 25.368 37.824 L 24.923 37.758 L 24.477 37.68 L 24.028 37.59 L 23.576 37.488 L 23.122 37.371 L 22.665 37.24 L 22.206 37.094 L 21.746 36.932 L 21.283 36.753 L 20.82 36.557 L 20.357 36.341 L 19.893 36.107 L 19.431 35.852 L 18.971 35.576 L 18.515 35.278 L 18.062 34.959 L 17.615 34.616 L 17.175 34.25 L 16.743 33.86 L 16.32 33.446 L 15.91 33.008 L 15.512 32.545 L 15.128 32.058 L 14.761 31.547 L 14.412 31.012 L 14.083 30.454 L 13.775 29.873 L 13.491 29.269 L 13.232 28.645 L 13 28 L 12.796 27.336 L 12.623 26.655 L 12.481 25.957 L 12.373 25.245 L 12.299 24.519 L 12.261 23.783 L 12.26 23.037 L 12.298 22.285 L 12.374 21.528 L 12.49 20.768 L 12.647 20.008 L 12.845 19.25 L 13.083 18.497 L 13.363 17.751 L 13.685 17.016 L 14.047 16.292 L 14.45 15.584 L 14.893 14.893 L 15.376 14.223 L 15.896 13.575 L 16.454 12.953 L 17.047 12.358 L 17.675 11.793 L 18.335 11.26 L 19.026 10.761 L 19.746 10.298 L 20.492 9.874 L 21.263 9.489 L 22.055 9.146 L 22.868 8.846 L 23.697 8.59 L 24.54 8.379 L 25.395 8.214 L 26.259 8.095 L 27.128 8.024 Z" class="cut cam-outline" data-cam-key="eccentric" data-base-radius-mm="15" data-eccentricity-mm="5" data-cam-lobes="1" data-profile-harmonic="0" data-rise-deg="90" data-high-dwell-deg="60" data-return-deg="90" data-physical-cam-preset="eccentric" data-profile-source="automataii.domain.mechanisms.cam.profile.build_pear_cam_profile_from_params" data-profile-sample-count="144"/>
  <circle cx="28" cy="28" r="2" class="drill axle-hole" data-hole-role="axle" data-hole-diameter-mm="4"/>
  <line x1="28" y1="28" x2="43" y2="28" class="score cam-base-radius"/>
  <circle cx="28" cy="28" r="15" class="score cam-base-circle"/>
  <circle cx="40" cy="28" r="2" class="drill linkage-hole bracket-hole crank-hole handle-hole" data-hole-role="linkage-bracket-crank-handle" data-attachment-kinds="linkage bracket crank handle" data-hole-diameter-mm="4" data-hole-index="0" data-hole-x-offset-mm="12" data-hole-y-offset-mm="0"/>
  <circle cx="16.913" cy="23.408" r="2" class="drill linkage-hole bracket-hole crank-hole handle-hole" data-hole-role="linkage-bracket-crank-handle" data-attachment-kinds="linkage bracket crank handle" data-hole-diameter-mm="4" data-hole-index="1" data-hole-x-offset-mm="-11.087" data-hole-y-offset-mm="-4.592"/>
  <circle cx="28" cy="16" r="2" class="drill linkage-hole bracket-hole crank-hole handle-hole" data-hole-role="linkage-bracket-crank-handle" data-attachment-kinds="linkage bracket crank handle" data-hole-diameter-mm="4" data-hole-index="2" data-hole-x-offset-mm="-0" data-hole-y-offset-mm="-12"/>
  <circle cx="36.485" cy="19.515" r="2" class="drill linkage-hole bracket-hole crank-hole handle-hole" data-hole-role="linkage-bracket-crank-handle" data-attachment-kinds="linkage bracket crank handle" data-hole-diameter-mm="4" data-hole-index="3" data-hole-x-offset-mm="8.485" data-hole-y-offset-mm="-8.485"/>
  <text x="28" y="55" class="label" text-anchor="middle">Eccentric / bounce</text>
</svg>
