<?xml version="1.0" encoding="UTF-8"?>
<svg xmlns="http://www.w3.org/2000/svg" version="1.1"
     width="117.945mm" height="129.945mm"
     viewBox="0 0 117.945 129.945"
     data-profile-key="motionsmith-ms4n"
     data-grid-pitch-mm="20.4"
     data-hole-diameter-mm="5.0">
  <title>Automataii fabrication cam pear</title>
  <desc>Pear / slow-fast cam profile with 5 mm axle hole for the physical Automataii kit.</desc>
  <defs>
    <style>
      .cut { fill: none; stroke: #ed1c24; stroke-width: 0.25; stroke-miterlimit: 10; }
      .drill { fill: none; stroke: #0071bc; stroke-width: 0.2; stroke-miterlimit: 10; }
      .score { fill: none; stroke: #777777; stroke-width: 0.15; stroke-dasharray: 2 1; }
      .label { fill: #333333; font-family: Arial, Helvetica, sans-serif; font-size: 4px; }
      .tiny { fill: #333333; font-family: Arial, Helvetica, sans-serif; font-size: 3px; }
      .paper { fill: #ffffff; stroke: none; }
    </style>
  </defs>
  <path d="M 105.657 58.973 L 105.778 61.016 L 105.82 63.071 L 105.782 65.135 L 105.663 67.205 L 105.462 69.279 L 105.176 71.353 L 104.804 73.423 L 104.343 75.486 L 103.793 77.538 L 103.151 79.573 L 102.417 81.588 L 101.588 83.577 L 100.665 85.534 L 99.646 87.453 L 98.532 89.328 L 97.323 91.153 L 96.02 92.92 L 94.624 94.624 L 93.137 96.256 L 91.562 97.811 L 89.903 99.281 L 88.162 100.66 L 86.346 101.94 L 84.459 103.116 L 82.507 104.182 L 80.497 105.131 L 78.435 105.96 L 76.331 106.664 L 74.191 107.238 L 72.024 107.68 L 69.839 107.988 L 67.646 108.16 L 65.453 108.196 L 63.27 108.095 L 61.107 107.859 L 58.973 107.49 L 56.876 106.991 L 54.826 106.365 L 52.832 105.617 L 50.9 104.752 L 49.04 103.777 L 47.256 102.698 L 45.557 101.522 L 43.946 100.258 L 42.428 98.914 L 41.008 97.498 L 39.687 96.019 L 38.469 94.486 L 37.353 92.909 L 36.34 91.296 L 35.428 89.656 L 34.618 87.998 L 33.905 86.329 L 33.286 84.659 L 32.759 82.993 L 32.317 81.339 L 31.957 79.703 L 31.672 78.089 L 31.456 76.502 L 31.304 74.947 L 31.209 73.426 L 31.164 71.94 L 31.163 70.492 L 31.2 69.081 L 31.269 67.707 L 31.364 66.37 L 31.479 65.068 L 31.61 63.797 L 31.753 62.556 L 31.904 61.341 L 32.059 60.148 L 32.217 58.973 L 32.376 57.811 L 32.536 56.66 L 32.695 55.513 L 32.855 54.367 L 33.016 53.218 L 33.182 52.062 L 33.355 50.895 L 33.538 49.715 L 33.735 48.519 L 33.95 47.305 L 34.188 46.071 L 34.454 44.817 L 34.753 43.543 L 35.09 42.25 L 35.47 40.939 L 35.899 39.612 L 36.382 38.272 L 36.924 36.924 L 37.528 35.57 L 38.2 34.217 L 38.942 32.868 L 39.758 31.531 L 40.649 30.211 L 41.619 28.915 L 42.667 27.65 L 43.794 26.423 L 45 25.241 L 46.284 24.111 L 47.643 23.04 L 49.075 22.035 L 50.577 21.102 L 52.144 20.249 L 53.773 19.479 L 55.458 18.8 L 57.193 18.216 L 58.973 17.73 L 60.79 17.347 L 62.639 17.07 L 64.511 16.9 L 66.402 16.84 L 68.302 16.891 L 70.205 17.052 L 72.104 17.324 L 73.993 17.705 L 75.863 18.195 L 77.71 18.789 L 79.527 19.487 L 81.309 20.285 L 83.049 21.18 L 84.744 22.167 L 86.389 23.243 L 87.98 24.403 L 89.513 25.643 L 90.986 26.959 L 92.396 28.345 L 93.741 29.798 L 95.019 31.313 L 96.228 32.886 L 97.368 34.512 L 98.438 36.187 L 99.437 37.908 L 100.365 39.671 L 101.221 41.473 L 102.005 43.31 L 102.717 45.18 L 103.357 47.08 L 103.925 49.007 L 104.419 50.959 L 104.841 52.934 L 105.188 54.929 L 105.461 56.943 Z" class="cut cam-outline" data-cam-key="pear" data-base-radius-mm="40.8" data-eccentricity-mm="20.4"/>
  <circle cx="58.973" cy="58.973" r="2.5" class="drill axle-hole" data-hole-role="axle" data-hole-diameter-mm="5.0"/>
  <line x1="58.973" y1="58.973" x2="99.773" y2="58.973" class="score cam-base-radius"/>
  <circle cx="58.973" cy="58.973" r="40.8" class="score cam-base-circle"/>
  <text x="58.973" y="116.945" class="label" text-anchor="middle">Pear / slow-fast</text>
</svg>
