<?xml version="1.0" encoding="UTF-8"?>
<svg xmlns="http://www.w3.org/2000/svg" version="1.1"
     width="330mm" height="335mm"
     viewBox="0 0 330 335"
     data-profile-key="motionsmith-ms4n"
     data-grid-pitch-mm="20"
     data-hole-diameter-mm="4">
  <title>Automataii 15x15 assembly board map</title>
  <desc>Coordinate board used by Automataii fabrication assembly guides.</desc>
  <defs>
    <style>
      .cut { fill: none; stroke: #ed1c24; stroke-width: 0.25; stroke-miterlimit: 10; }
      .drill { fill: none; stroke: #0071bc; stroke-width: 0.2; stroke-miterlimit: 10; }
      .score { fill: none; stroke: #777777; stroke-width: 0.15; stroke-dasharray: 2 1; }
      .label { fill: #333333; font-family: Arial, Helvetica, sans-serif; font-size: 4px; }
      .tiny { fill: #333333; font-family: Arial, Helvetica, sans-serif; font-size: 3px; }
      .paper { fill: #ffffff; stroke: none; }
    </style>
  </defs>
  <text x="12" y="14" class="label" text-anchor="start">15x15 board coordinate map</text>
  <text x="12" y="22" class="tiny" text-anchor="start">Use row letters and column numbers for every assembly step.</text>
  <g id="layer-board-grid">
  <rect x="26" y="38" width="288" height="288" class="score board-outline"/>
  <text x="30" y="35" class="tiny" text-anchor="middle">1</text>
  <text x="50" y="35" class="tiny" text-anchor="middle">2</text>
  <text x="70" y="35" class="tiny" text-anchor="middle">3</text>
  <text x="90" y="35" class="tiny" text-anchor="middle">4</text>
  <text x="110" y="35" class="tiny" text-anchor="middle">5</text>
  <text x="130" y="35" class="tiny" text-anchor="middle">6</text>
  <text x="150" y="35" class="tiny" text-anchor="middle">7</text>
  <text x="170" y="35" class="tiny" text-anchor="middle">8</text>
  <text x="190" y="35" class="tiny" text-anchor="middle">9</text>
  <text x="210" y="35" class="tiny" text-anchor="middle">10</text>
  <text x="230" y="35" class="tiny" text-anchor="middle">11</text>
  <text x="250" y="35" class="tiny" text-anchor="middle">12</text>
  <text x="270" y="35" class="tiny" text-anchor="middle">13</text>
  <text x="290" y="35" class="tiny" text-anchor="middle">14</text>
  <text x="310" y="35" class="tiny" text-anchor="middle">15</text>
  <text x="23" y="43" class="tiny" text-anchor="middle">A</text>
  <text x="23" y="63" class="tiny" text-anchor="middle">B</text>
  <text x="23" y="83" class="tiny" text-anchor="middle">C</text>
  <text x="23" y="103" class="tiny" text-anchor="middle">D</text>
  <text x="23" y="123" class="tiny" text-anchor="middle">E</text>
  <text x="23" y="143" class="tiny" text-anchor="middle">F</text>
  <text x="23" y="163" class="tiny" text-anchor="middle">G</text>
  <text x="23" y="183" class="tiny" text-anchor="middle">H</text>
  <text x="23" y="203" class="tiny" text-anchor="middle">I</text>
  <text x="23" y="223" class="tiny" text-anchor="middle">J</text>
  <text x="23" y="243" class="tiny" text-anchor="middle">K</text>
  <text x="23" y="263" class="tiny" text-anchor="middle">L</text>
  <text x="23" y="283" class="tiny" text-anchor="middle">M</text>
  <text x="23" y="303" class="tiny" text-anchor="middle">N</text>
  <text x="23" y="323" class="tiny" text-anchor="middle">O</text>
  <circle cx="30" cy="42" r="2" class="drill board-hole" data-board-coord="A1"/>
  <circle cx="50" cy="42" r="2" class="drill board-hole" data-board-coord="A2"/>
  <circle cx="70" cy="42" r="2" class="drill board-hole" data-board-coord="A3"/>
  <circle cx="90" cy="42" r="2" class="drill board-hole" data-board-coord="A4"/>
  <circle cx="110" cy="42" r="2" class="drill board-hole" data-board-coord="A5"/>
  <circle cx="130" cy="42" r="2" class="drill board-hole" data-board-coord="A6"/>
  <circle cx="150" cy="42" r="2" class="drill board-hole" data-board-coord="A7"/>
  <circle cx="170" cy="42" r="2" class="drill board-hole" data-board-coord="A8"/>
  <circle cx="190" cy="42" r="2" class="drill board-hole" data-board-coord="A9"/>
  <circle cx="210" cy="42" r="2" class="drill board-hole" data-board-coord="A10"/>
  <circle cx="230" cy="42" r="2" class="drill board-hole" data-board-coord="A11"/>
  <circle cx="250" cy="42" r="2" class="drill board-hole" data-board-coord="A12"/>
  <circle cx="270" cy="42" r="2" class="drill board-hole" data-board-coord="A13"/>
  <circle cx="290" cy="42" r="2" class="drill board-hole" data-board-coord="A14"/>
  <circle cx="310" cy="42" r="2" class="drill board-hole" data-board-coord="A15"/>
  <circle cx="30" cy="62" r="2" class="drill board-hole" data-board-coord="B1"/>
  <circle cx="50" cy="62" r="2" class="drill board-hole" data-board-coord="B2"/>
  <circle cx="70" cy="62" r="2" class="drill board-hole" data-board-coord="B3"/>
  <circle cx="90" cy="62" r="2" class="drill board-hole" data-board-coord="B4"/>
  <circle cx="110" cy="62" r="2" class="drill board-hole" data-board-coord="B5"/>
  <circle cx="130" cy="62" r="2" class="drill board-hole" data-board-coord="B6"/>
  <circle cx="150" cy="62" r="2" class="drill board-hole" data-board-coord="B7"/>
  <circle cx="170" cy="62" r="2" class="drill board-hole" data-board-coord="B8"/>
  <circle cx="190" cy="62" r="2" class="drill board-hole" data-board-coord="B9"/>
  <circle cx="210" cy="62" r="2" class="drill board-hole" data-board-coord="B10"/>
  <circle cx="230" cy="62" r="2" class="drill board-hole" data-board-coord="B11"/>
  <circle cx="250" cy="62" r="2" class="drill board-hole" data-board-coord="B12"/>
  <circle cx="270" cy="62" r="2" class="drill board-hole" data-board-coord="B13"/>
  <circle cx="290" cy="62" r="2" class="drill board-hole" data-board-coord="B14"/>
  <circle cx="310" cy="62" r="2" class="drill board-hole" data-board-coord="B15"/>
  <circle cx="30" cy="82" r="2" class="drill board-hole" data-board-coord="C1"/>
  <circle cx="50" cy="82" r="2" class="drill board-hole" data-board-coord="C2"/>
  <circle cx="70" cy="82" r="2" class="drill board-hole" data-board-coord="C3"/>
  <circle cx="90" cy="82" r="2" class="drill board-hole" data-board-coord="C4"/>
  <circle cx="110" cy="82" r="2" class="drill board-hole" data-board-coord="C5"/>
  <circle cx="130" cy="82" r="2" class="drill board-hole" data-board-coord="C6"/>
  <circle cx="150" cy="82" r="2" class="drill board-hole" data-board-coord="C7"/>
  <circle cx="170" cy="82" r="2" class="drill board-hole" data-board-coord="C8"/>
  <circle cx="190" cy="82" r="2" class="drill board-hole" data-board-coord="C9"/>
  <circle cx="210" cy="82" r="2" class="drill board-hole" data-board-coord="C10"/>
  <circle cx="230" cy="82" r="2" class="drill board-hole" data-board-coord="C11"/>
  <circle cx="250" cy="82" r="2" class="drill board-hole" data-board-coord="C12"/>
  <circle cx="270" cy="82" r="2" class="drill board-hole" data-board-coord="C13"/>
  <circle cx="290" cy="82" r="2" class="drill board-hole" data-board-coord="C14"/>
  <circle cx="310" cy="82" r="2" class="drill board-hole" data-board-coord="C15"/>
  <circle cx="30" cy="102" r="2" class="drill board-hole" data-board-coord="D1"/>
  <circle cx="50" cy="102" r="2" class="drill board-hole" data-board-coord="D2"/>
  <circle cx="70" cy="102" r="2" class="drill board-hole" data-board-coord="D3"/>
  <circle cx="90" cy="102" r="2" class="drill board-hole" data-board-coord="D4"/>
  <circle cx="110" cy="102" r="2" class="drill board-hole" data-board-coord="D5"/>
  <circle cx="130" cy="102" r="2" class="drill board-hole" data-board-coord="D6"/>
  <circle cx="150" cy="102" r="2" class="drill board-hole" data-board-coord="D7"/>
  <circle cx="170" cy="102" r="2" class="drill board-hole" data-board-coord="D8"/>
  <circle cx="190" cy="102" r="2" class="drill board-hole" data-board-coord="D9"/>
  <circle cx="210" cy="102" r="2" class="drill board-hole" data-board-coord="D10"/>
  <circle cx="230" cy="102" r="2" class="drill board-hole" data-board-coord="D11"/>
  <circle cx="250" cy="102" r="2" class="drill board-hole" data-board-coord="D12"/>
  <circle cx="270" cy="102" r="2" class="drill board-hole" data-board-coord="D13"/>
  <circle cx="290" cy="102" r="2" class="drill board-hole" data-board-coord="D14"/>
  <circle cx="310" cy="102" r="2" class="drill board-hole" data-board-coord="D15"/>
  <circle cx="30" cy="122" r="2" class="drill board-hole" data-board-coord="E1"/>
  <circle cx="50" cy="122" r="2" class="drill board-hole" data-board-coord="E2"/>
  <circle cx="70" cy="122" r="2" class="drill board-hole" data-board-coord="E3"/>
  <circle cx="90" cy="122" r="2" class="drill board-hole" data-board-coord="E4"/>
  <circle cx="110" cy="122" r="2" class="drill board-hole" data-board-coord="E5"/>
  <circle cx="130" cy="122" r="2" class="drill board-hole" data-board-coord="E6"/>
  <circle cx="150" cy="122" r="2" class="drill board-hole" data-board-coord="E7"/>
  <circle cx="170" cy="122" r="2" class="drill board-hole" data-board-coord="E8"/>
  <circle cx="190" cy="122" r="2" class="drill board-hole" data-board-coord="E9"/>
  <circle cx="210" cy="122" r="2" class="drill board-hole" data-board-coord="E10"/>
  <circle cx="230" cy="122" r="2" class="drill board-hole" data-board-coord="E11"/>
  <circle cx="250" cy="122" r="2" class="drill board-hole" data-board-coord="E12"/>
  <circle cx="270" cy="122" r="2" class="drill board-hole" data-board-coord="E13"/>
  <circle cx="290" cy="122" r="2" class="drill board-hole" data-board-coord="E14"/>
  <circle cx="310" cy="122" r="2" class="drill board-hole" data-board-coord="E15"/>
  <circle cx="30" cy="142" r="2" class="drill board-hole" data-board-coord="F1"/>
  <circle cx="50" cy="142" r="2" class="drill board-hole" data-board-coord="F2"/>
  <circle cx="70" cy="142" r="2" class="drill board-hole" data-board-coord="F3"/>
  <circle cx="90" cy="142" r="2" class="drill board-hole" data-board-coord="F4"/>
  <circle cx="110" cy="142" r="2" class="drill board-hole" data-board-coord="F5"/>
  <circle cx="130" cy="142" r="2" class="drill board-hole" data-board-coord="F6"/>
  <circle cx="150" cy="142" r="2" class="drill board-hole" data-board-coord="F7"/>
  <circle cx="170" cy="142" r="2" class="drill board-hole" data-board-coord="F8"/>
  <circle cx="190" cy="142" r="2" class="drill board-hole" data-board-coord="F9"/>
  <circle cx="210" cy="142" r="2" class="drill board-hole" data-board-coord="F10"/>
  <circle cx="230" cy="142" r="2" class="drill board-hole" data-board-coord="F11"/>
  <circle cx="250" cy="142" r="2" class="drill board-hole" data-board-coord="F12"/>
  <circle cx="270" cy="142" r="2" class="drill board-hole" data-board-coord="F13"/>
  <circle cx="290" cy="142" r="2" class="drill board-hole" data-board-coord="F14"/>
  <circle cx="310" cy="142" r="2" class="drill board-hole" data-board-coord="F15"/>
  <circle cx="30" cy="162" r="2" class="drill board-hole" data-board-coord="G1"/>
  <circle cx="50" cy="162" r="2" class="drill board-hole" data-board-coord="G2"/>
  <circle cx="70" cy="162" r="2" class="drill board-hole" data-board-coord="G3"/>
  <circle cx="90" cy="162" r="2" class="drill board-hole" data-board-coord="G4"/>
  <circle cx="110" cy="162" r="2" class="drill board-hole" data-board-coord="G5"/>
  <circle cx="130" cy="162" r="2" class="drill board-hole" data-board-coord="G6"/>
  <circle cx="150" cy="162" r="2" class="drill board-hole" data-board-coord="G7"/>
  <circle cx="170" cy="162" r="2" class="drill board-hole" data-board-coord="G8"/>
  <circle cx="190" cy="162" r="2" class="drill board-hole" data-board-coord="G9"/>
  <circle cx="210" cy="162" r="2" class="drill board-hole" data-board-coord="G10"/>
  <circle cx="230" cy="162" r="2" class="drill board-hole" data-board-coord="G11"/>
  <circle cx="250" cy="162" r="2" class="drill board-hole" data-board-coord="G12"/>
  <circle cx="270" cy="162" r="2" class="drill board-hole" data-board-coord="G13"/>
  <circle cx="290" cy="162" r="2" class="drill board-hole" data-board-coord="G14"/>
  <circle cx="310" cy="162" r="2" class="drill board-hole" data-board-coord="G15"/>
  <circle cx="30" cy="182" r="2" class="drill board-hole" data-board-coord="H1"/>
  <circle cx="50" cy="182" r="2" class="drill board-hole" data-board-coord="H2"/>
  <circle cx="70" cy="182" r="2" class="drill board-hole" data-board-coord="H3"/>
  <circle cx="90" cy="182" r="2" class="drill board-hole" data-board-coord="H4"/>
  <circle cx="110" cy="182" r="2" class="drill board-hole" data-board-coord="H5"/>
  <circle cx="130" cy="182" r="2" class="drill board-hole" data-board-coord="H6"/>
  <circle cx="150" cy="182" r="2" class="drill board-hole" data-board-coord="H7"/>
  <circle cx="170" cy="182" r="2" class="drill board-hole" data-board-coord="H8"/>
  <circle cx="190" cy="182" r="2" class="drill board-hole" data-board-coord="H9"/>
  <circle cx="210" cy="182" r="2" class="drill board-hole" data-board-coord="H10"/>
  <circle cx="230" cy="182" r="2" class="drill board-hole" data-board-coord="H11"/>
  <circle cx="250" cy="182" r="2" class="drill board-hole" data-board-coord="H12"/>
  <circle cx="270" cy="182" r="2" class="drill board-hole" data-board-coord="H13"/>
  <circle cx="290" cy="182" r="2" class="drill board-hole" data-board-coord="H14"/>
  <circle cx="310" cy="182" r="2" class="drill board-hole" data-board-coord="H15"/>
  <circle cx="30" cy="202" r="2" class="drill board-hole" data-board-coord="I1"/>
  <circle cx="50" cy="202" r="2" class="drill board-hole" data-board-coord="I2"/>
  <circle cx="70" cy="202" r="2" class="drill board-hole" data-board-coord="I3"/>
  <circle cx="90" cy="202" r="2" class="drill board-hole" data-board-coord="I4"/>
  <circle cx="110" cy="202" r="2" class="drill board-hole" data-board-coord="I5"/>
  <circle cx="130" cy="202" r="2" class="drill board-hole" data-board-coord="I6"/>
  <circle cx="150" cy="202" r="2" class="drill board-hole" data-board-coord="I7"/>
  <circle cx="170" cy="202" r="2" class="drill board-hole" data-board-coord="I8"/>
  <circle cx="190" cy="202" r="2" class="drill board-hole" data-board-coord="I9"/>
  <circle cx="210" cy="202" r="2" class="drill board-hole" data-board-coord="I10"/>
  <circle cx="230" cy="202" r="2" class="drill board-hole" data-board-coord="I11"/>
  <circle cx="250" cy="202" r="2" class="drill board-hole" data-board-coord="I12"/>
  <circle cx="270" cy="202" r="2" class="drill board-hole" data-board-coord="I13"/>
  <circle cx="290" cy="202" r="2" class="drill board-hole" data-board-coord="I14"/>
  <circle cx="310" cy="202" r="2" class="drill board-hole" data-board-coord="I15"/>
  <circle cx="30" cy="222" r="2" class="drill board-hole" data-board-coord="J1"/>
  <circle cx="50" cy="222" r="2" class="drill board-hole" data-board-coord="J2"/>
  <circle cx="70" cy="222" r="2" class="drill board-hole" data-board-coord="J3"/>
  <circle cx="90" cy="222" r="2" class="drill board-hole" data-board-coord="J4"/>
  <circle cx="110" cy="222" r="2" class="drill board-hole" data-board-coord="J5"/>
  <circle cx="130" cy="222" r="2" class="drill board-hole" data-board-coord="J6"/>
  <circle cx="150" cy="222" r="2" class="drill board-hole" data-board-coord="J7"/>
  <circle cx="170" cy="222" r="2" class="drill board-hole" data-board-coord="J8"/>
  <circle cx="190" cy="222" r="2" class="drill board-hole" data-board-coord="J9"/>
  <circle cx="210" cy="222" r="2" class="drill board-hole" data-board-coord="J10"/>
  <circle cx="230" cy="222" r="2" class="drill board-hole" data-board-coord="J11"/>
  <circle cx="250" cy="222" r="2" class="drill board-hole" data-board-coord="J12"/>
  <circle cx="270" cy="222" r="2" class="drill board-hole" data-board-coord="J13"/>
  <circle cx="290" cy="222" r="2" class="drill board-hole" data-board-coord="J14"/>
  <circle cx="310" cy="222" r="2" class="drill board-hole" data-board-coord="J15"/>
  <circle cx="30" cy="242" r="2" class="drill board-hole" data-board-coord="K1"/>
  <circle cx="50" cy="242" r="2" class="drill board-hole" data-board-coord="K2"/>
  <circle cx="70" cy="242" r="2" class="drill board-hole" data-board-coord="K3"/>
  <circle cx="90" cy="242" r="2" class="drill board-hole" data-board-coord="K4"/>
  <circle cx="110" cy="242" r="2" class="drill board-hole" data-board-coord="K5"/>
  <circle cx="130" cy="242" r="2" class="drill board-hole" data-board-coord="K6"/>
  <circle cx="150" cy="242" r="2" class="drill board-hole" data-board-coord="K7"/>
  <circle cx="170" cy="242" r="2" class="drill board-hole" data-board-coord="K8"/>
  <circle cx="190" cy="242" r="2" class="drill board-hole" data-board-coord="K9"/>
  <circle cx="210" cy="242" r="2" class="drill board-hole" data-board-coord="K10"/>
  <circle cx="230" cy="242" r="2" class="drill board-hole" data-board-coord="K11"/>
  <circle cx="250" cy="242" r="2" class="drill board-hole" data-board-coord="K12"/>
  <circle cx="270" cy="242" r="2" class="drill board-hole" data-board-coord="K13"/>
  <circle cx="290" cy="242" r="2" class="drill board-hole" data-board-coord="K14"/>
  <circle cx="310" cy="242" r="2" class="drill board-hole" data-board-coord="K15"/>
  <circle cx="30" cy="262" r="2" class="drill board-hole" data-board-coord="L1"/>
  <circle cx="50" cy="262" r="2" class="drill board-hole" data-board-coord="L2"/>
  <circle cx="70" cy="262" r="2" class="drill board-hole" data-board-coord="L3"/>
  <circle cx="90" cy="262" r="2" class="drill board-hole" data-board-coord="L4"/>
  <circle cx="110" cy="262" r="2" class="drill board-hole" data-board-coord="L5"/>
  <circle cx="130" cy="262" r="2" class="drill board-hole" data-board-coord="L6"/>
  <circle cx="150" cy="262" r="2" class="drill board-hole" data-board-coord="L7"/>
  <circle cx="170" cy="262" r="2" class="drill board-hole" data-board-coord="L8"/>
  <circle cx="190" cy="262" r="2" class="drill board-hole" data-board-coord="L9"/>
  <circle cx="210" cy="262" r="2" class="drill board-hole" data-board-coord="L10"/>
  <circle cx="230" cy="262" r="2" class="drill board-hole" data-board-coord="L11"/>
  <circle cx="250" cy="262" r="2" class="drill board-hole" data-board-coord="L12"/>
  <circle cx="270" cy="262" r="2" class="drill board-hole" data-board-coord="L13"/>
  <circle cx="290" cy="262" r="2" class="drill board-hole" data-board-coord="L14"/>
  <circle cx="310" cy="262" r="2" class="drill board-hole" data-board-coord="L15"/>
  <circle cx="30" cy="282" r="2" class="drill board-hole" data-board-coord="M1"/>
  <circle cx="50" cy="282" r="2" class="drill board-hole" data-board-coord="M2"/>
  <circle cx="70" cy="282" r="2" class="drill board-hole" data-board-coord="M3"/>
  <circle cx="90" cy="282" r="2" class="drill board-hole" data-board-coord="M4"/>
  <circle cx="110" cy="282" r="2" class="drill board-hole" data-board-coord="M5"/>
  <circle cx="130" cy="282" r="2" class="drill board-hole" data-board-coord="M6"/>
  <circle cx="150" cy="282" r="2" class="drill board-hole" data-board-coord="M7"/>
  <circle cx="170" cy="282" r="2" class="drill board-hole" data-board-coord="M8"/>
  <circle cx="190" cy="282" r="2" class="drill board-hole" data-board-coord="M9"/>
  <circle cx="210" cy="282" r="2" class="drill board-hole" data-board-coord="M10"/>
  <circle cx="230" cy="282" r="2" class="drill board-hole" data-board-coord="M11"/>
  <circle cx="250" cy="282" r="2" class="drill board-hole" data-board-coord="M12"/>
  <circle cx="270" cy="282" r="2" class="drill board-hole" data-board-coord="M13"/>
  <circle cx="290" cy="282" r="2" class="drill board-hole" data-board-coord="M14"/>
  <circle cx="310" cy="282" r="2" class="drill board-hole" data-board-coord="M15"/>
  <circle cx="30" cy="302" r="2" class="drill board-hole" data-board-coord="N1"/>
  <circle cx="50" cy="302" r="2" class="drill board-hole" data-board-coord="N2"/>
  <circle cx="70" cy="302" r="2" class="drill board-hole" data-board-coord="N3"/>
  <circle cx="90" cy="302" r="2" class="drill board-hole" data-board-coord="N4"/>
  <circle cx="110" cy="302" r="2" class="drill board-hole" data-board-coord="N5"/>
  <circle cx="130" cy="302" r="2" class="drill board-hole" data-board-coord="N6"/>
  <circle cx="150" cy="302" r="2" class="drill board-hole" data-board-coord="N7"/>
  <circle cx="170" cy="302" r="2" class="drill board-hole" data-board-coord="N8"/>
  <circle cx="190" cy="302" r="2" class="drill board-hole" data-board-coord="N9"/>
  <circle cx="210" cy="302" r="2" class="drill board-hole" data-board-coord="N10"/>
  <circle cx="230" cy="302" r="2" class="drill board-hole" data-board-coord="N11"/>
  <circle cx="250" cy="302" r="2" class="drill board-hole" data-board-coord="N12"/>
  <circle cx="270" cy="302" r="2" class="drill board-hole" data-board-coord="N13"/>
  <circle cx="290" cy="302" r="2" class="drill board-hole" data-board-coord="N14"/>
  <circle cx="310" cy="302" r="2" class="drill board-hole" data-board-coord="N15"/>
  <circle cx="30" cy="322" r="2" class="drill board-hole" data-board-coord="O1"/>
  <circle cx="50" cy="322" r="2" class="drill board-hole" data-board-coord="O2"/>
  <circle cx="70" cy="322" r="2" class="drill board-hole" data-board-coord="O3"/>
  <circle cx="90" cy="322" r="2" class="drill board-hole" data-board-coord="O4"/>
  <circle cx="110" cy="322" r="2" class="drill board-hole" data-board-coord="O5"/>
  <circle cx="130" cy="322" r="2" class="drill board-hole" data-board-coord="O6"/>
  <circle cx="150" cy="322" r="2" class="drill board-hole" data-board-coord="O7"/>
  <circle cx="170" cy="322" r="2" class="drill board-hole" data-board-coord="O8"/>
  <circle cx="190" cy="322" r="2" class="drill board-hole" data-board-coord="O9"/>
  <circle cx="210" cy="322" r="2" class="drill board-hole" data-board-coord="O10"/>
  <circle cx="230" cy="322" r="2" class="drill board-hole" data-board-coord="O11"/>
  <circle cx="250" cy="322" r="2" class="drill board-hole" data-board-coord="O12"/>
  <circle cx="270" cy="322" r="2" class="drill board-hole" data-board-coord="O13"/>
  <circle cx="290" cy="322" r="2" class="drill board-hole" data-board-coord="O14"/>
  <circle cx="310" cy="322" r="2" class="drill board-hole" data-board-coord="O15"/>
  </g>
</svg>
