<?xml version="1.0" encoding="UTF-8"?>
<svg xmlns="http://www.w3.org/2000/svg" version="1.1"
     width="420mm" height="320mm"
     viewBox="0 0 420 320"
     data-profile-key="motionsmith-ms4n"
     data-grid-pitch-mm="20"
     data-hole-diameter-mm="6">
  <title>Automataii fabrication sheet 01-gear-set: Gear set</title>
  <desc>Workshop sheet containing: gears. Nominal holes are 6 mm.</desc>
  <defs>
    <style>
      .cut { fill: none; stroke: #ed1c24; stroke-width: 0.25; stroke-miterlimit: 10; }
      .drill { fill: none; stroke: #0071bc; stroke-width: 0.2; stroke-miterlimit: 10; }
      .score { fill: none; stroke: #777777; stroke-width: 0.15; stroke-dasharray: 2 1; }
      .label { fill: #333333; font-family: Arial, Helvetica, sans-serif; font-size: 4px; }
      .tiny { fill: #333333; font-family: Arial, Helvetica, sans-serif; font-size: 3px; }
      .paper { fill: #ffffff; stroke: none; }
    </style>
  </defs>
  <text x="12" y="12" class="label" text-anchor="start">01 Gear set</text>
  <text x="12" y="18" class="tiny" text-anchor="start">Gears include 6 mm axle + linkage/bracket/crank/handle holes</text>
  <g transform="translate(12 28)">
  <path d="M 43.925 27.8 L 47.431 30.384 L 46.925 32.925 L 42.698 33.971 L 41.765 35.862 L 43.508 39.853 L 41.801 41.801 L 37.616 40.593 L 35.863 41.765 L 35.377 46.093 L 32.925 46.925 L 29.905 43.787 L 27.8 43.925 L 25.216 47.431 L 22.675 46.925 L 21.629 42.698 L 19.738 41.765 L 15.747 43.508 L 13.799 41.801 L 15.007 37.616 L 13.835 35.862 L 9.507 35.377 L 8.675 32.925 L 11.813 29.905 L 11.675 27.8 L 8.169 25.216 L 8.675 22.675 L 12.902 21.629 L 13.835 19.738 L 12.092 15.747 L 13.799 13.799 L 17.984 15.007 L 19.737 13.835 L 20.223 9.507 L 22.675 8.675 L 25.695 11.813 L 27.8 11.675 L 30.384 8.169 L 32.925 8.675 L 33.971 12.902 L 35.863 13.835 L 39.853 12.092 L 41.801 13.799 L 40.593 17.984 L 41.765 19.737 L 46.093 20.223 L 46.925 22.675 L 43.787 25.695 Z" class="cut gear-outline" data-teeth="12" data-pitch-radius-mm="18" data-root-radius-mm="16.125" data-outer-radius-mm="19.8" data-attachment-hole-pattern="radial"/>
  </g>
  <g transform="translate(12 28)">
  <circle cx="27.8" cy="27.8" r="3" class="drill axle-hole" data-hole-role="axle" data-hole-diameter-mm="6"/>
  </g>
  <g transform="translate(12 28)">
  <circle cx="27.8" cy="27.8" r="18" class="score pitch-circle"/>
  </g>
  <g transform="translate(12 28)">
  <circle cx="36.925" cy="27.8" r="3" class="drill linkage-hole bracket-hole crank-hole handle-hole" data-hole-role="linkage-bracket-crank-handle" data-attachment-kinds="linkage bracket crank handle" data-hole-diameter-mm="6" data-hole-index="0" data-hole-x-offset-mm="9.125" data-hole-y-offset-mm="0" data-hole-radius-mm="9.125"/>
  </g>
  <g transform="translate(12 28)">
  <circle cx="27.8" cy="36.925" r="3" class="drill linkage-hole bracket-hole crank-hole handle-hole" data-hole-role="linkage-bracket-crank-handle" data-attachment-kinds="linkage bracket crank handle" data-hole-diameter-mm="6" data-hole-index="1" data-hole-x-offset-mm="0" data-hole-y-offset-mm="9.125" data-hole-radius-mm="9.125"/>
  </g>
  <g transform="translate(12 28)">
  <circle cx="18.675" cy="27.8" r="3" class="drill linkage-hole bracket-hole crank-hole handle-hole" data-hole-role="linkage-bracket-crank-handle" data-attachment-kinds="linkage bracket crank handle" data-hole-diameter-mm="6" data-hole-index="2" data-hole-x-offset-mm="-9.125" data-hole-y-offset-mm="0" data-hole-radius-mm="9.125"/>
  </g>
  <g transform="translate(12 28)">
  <circle cx="27.8" cy="18.675" r="3" class="drill linkage-hole bracket-hole crank-hole handle-hole" data-hole-role="linkage-bracket-crank-handle" data-attachment-kinds="linkage bracket crank handle" data-hole-diameter-mm="6" data-hole-index="3" data-hole-x-offset-mm="-0" data-hole-y-offset-mm="-9.125" data-hole-radius-mm="9.125"/>
  </g>
  <g transform="translate(118 28)">
  <path d="M 49.925 30.8 L 53.457 33.353 L 53.028 35.873 L 48.852 37.117 L 48.031 39.098 L 50.105 42.93 L 48.626 45.016 L 44.323 44.323 L 42.724 45.753 L 42.93 50.105 L 40.693 51.342 L 37.117 48.852 L 35.056 49.445 L 33.353 53.457 L 30.8 53.6 L 28.659 49.805 L 26.544 49.445 L 23.27 52.321 L 20.907 51.342 L 20.625 46.994 L 18.876 45.753 L 14.678 46.922 L 12.974 45.016 L 14.606 40.975 L 13.569 39.098 L 9.279 38.33 L 8.572 35.873 L 11.795 32.941 L 11.675 30.8 L 8.143 28.247 L 8.572 25.727 L 12.748 24.483 L 13.569 22.502 L 11.495 18.67 L 12.974 16.584 L 17.277 17.277 L 18.876 15.847 L 18.67 11.495 L 20.907 10.258 L 24.483 12.748 L 26.544 12.155 L 28.247 8.143 L 30.8 8 L 32.941 11.795 L 35.056 12.155 L 38.33 9.279 L 40.693 10.258 L 40.975 14.606 L 42.724 15.847 L 46.922 14.678 L 48.626 16.584 L 46.994 20.625 L 48.031 22.502 L 52.321 23.27 L 53.028 25.727 L 49.805 28.659 Z" class="cut gear-outline" data-teeth="14" data-pitch-radius-mm="21" data-root-radius-mm="19.125" data-outer-radius-mm="22.8" data-attachment-hole-pattern="radial"/>
  </g>
  <g transform="translate(118 28)">
  <circle cx="30.8" cy="30.8" r="3" class="drill axle-hole" data-hole-role="axle" data-hole-diameter-mm="6"/>
  </g>
  <g transform="translate(118 28)">
  <circle cx="30.8" cy="30.8" r="21" class="score pitch-circle"/>
  </g>
  <g transform="translate(118 28)">
  <circle cx="42.925" cy="30.8" r="3" class="drill linkage-hole bracket-hole crank-hole handle-hole" data-hole-role="linkage-bracket-crank-handle" data-attachment-kinds="linkage bracket crank handle" data-hole-diameter-mm="6" data-hole-index="0" data-hole-x-offset-mm="12.125" data-hole-y-offset-mm="0" data-hole-radius-mm="12.125"/>
  </g>
  <g transform="translate(118 28)">
  <circle cx="30.8" cy="42.925" r="3" class="drill linkage-hole bracket-hole crank-hole handle-hole" data-hole-role="linkage-bracket-crank-handle" data-attachment-kinds="linkage bracket crank handle" data-hole-diameter-mm="6" data-hole-index="1" data-hole-x-offset-mm="0" data-hole-y-offset-mm="12.125" data-hole-radius-mm="12.125"/>
  </g>
  <g transform="translate(118 28)">
  <circle cx="18.675" cy="30.8" r="3" class="drill linkage-hole bracket-hole crank-hole handle-hole" data-hole-role="linkage-bracket-crank-handle" data-attachment-kinds="linkage bracket crank handle" data-hole-diameter-mm="6" data-hole-index="2" data-hole-x-offset-mm="-12.125" data-hole-y-offset-mm="0" data-hole-radius-mm="12.125"/>
  </g>
  <g transform="translate(118 28)">
  <circle cx="30.8" cy="18.675" r="3" class="drill linkage-hole bracket-hole crank-hole handle-hole" data-hole-role="linkage-bracket-crank-handle" data-attachment-kinds="linkage bracket crank handle" data-hole-diameter-mm="6" data-hole-index="3" data-hole-x-offset-mm="-0" data-hole-y-offset-mm="-12.125" data-hole-radius-mm="12.125"/>
  </g>
  <g transform="translate(12 150)">
  <path d="M 55.925 33.8 L 59.476 36.329 L 59.104 38.833 L 54.972 40.223 L 54.241 42.267 L 56.554 45.962 L 55.252 48.134 L 50.903 47.836 L 49.445 49.445 L 50.167 53.744 L 48.134 55.252 L 44.23 53.313 L 42.267 54.241 L 41.289 58.489 L 38.833 59.104 L 35.969 55.818 L 33.8 55.925 L 31.271 59.476 L 28.767 59.104 L 27.377 54.972 L 25.333 54.241 L 21.638 56.554 L 19.466 55.252 L 19.764 50.903 L 18.155 49.445 L 13.856 50.167 L 12.348 48.134 L 14.287 44.23 L 13.359 42.267 L 9.111 41.289 L 8.496 38.833 L 11.782 35.969 L 11.675 33.8 L 8.124 31.271 L 8.496 28.767 L 12.628 27.377 L 13.359 25.333 L 11.046 21.638 L 12.348 19.466 L 16.697 19.764 L 18.155 18.155 L 17.433 13.856 L 19.466 12.348 L 23.37 14.287 L 25.333 13.359 L 26.311 9.111 L 28.767 8.496 L 31.631 11.782 L 33.8 11.675 L 36.329 8.124 L 38.833 8.496 L 40.223 12.628 L 42.267 13.359 L 45.962 11.046 L 48.134 12.348 L 47.836 16.697 L 49.445 18.155 L 53.744 17.433 L 55.252 19.466 L 53.313 23.37 L 54.241 25.333 L 58.489 26.311 L 59.104 28.767 L 55.818 31.631 Z" class="cut gear-outline" data-teeth="16" data-pitch-radius-mm="24" data-root-radius-mm="22.125" data-outer-radius-mm="25.8" data-attachment-hole-pattern="radial"/>
  </g>
  <g transform="translate(12 150)">
  <circle cx="33.8" cy="33.8" r="3" class="drill axle-hole" data-hole-role="axle" data-hole-diameter-mm="6"/>
  </g>
  <g transform="translate(12 150)">
  <circle cx="33.8" cy="33.8" r="24" class="score pitch-circle"/>
  </g>
  <g transform="translate(12 150)">
  <circle cx="48.925" cy="33.8" r="3" class="drill linkage-hole bracket-hole crank-hole handle-hole" data-hole-role="linkage-bracket-crank-handle" data-attachment-kinds="linkage bracket crank handle" data-hole-diameter-mm="6" data-hole-index="0" data-hole-x-offset-mm="15.125" data-hole-y-offset-mm="0" data-hole-radius-mm="15.125"/>
  </g>
  <g transform="translate(12 150)">
  <circle cx="33.8" cy="48.925" r="3" class="drill linkage-hole bracket-hole crank-hole handle-hole" data-hole-role="linkage-bracket-crank-handle" data-attachment-kinds="linkage bracket crank handle" data-hole-diameter-mm="6" data-hole-index="1" data-hole-x-offset-mm="0" data-hole-y-offset-mm="15.125" data-hole-radius-mm="15.125"/>
  </g>
  <g transform="translate(12 150)">
  <circle cx="18.675" cy="33.8" r="3" class="drill linkage-hole bracket-hole crank-hole handle-hole" data-hole-role="linkage-bracket-crank-handle" data-attachment-kinds="linkage bracket crank handle" data-hole-diameter-mm="6" data-hole-index="2" data-hole-x-offset-mm="-15.125" data-hole-y-offset-mm="0" data-hole-radius-mm="15.125"/>
  </g>
  <g transform="translate(12 150)">
  <circle cx="33.8" cy="18.675" r="3" class="drill linkage-hole bracket-hole crank-hole handle-hole" data-hole-role="linkage-bracket-crank-handle" data-attachment-kinds="linkage bracket crank handle" data-hole-diameter-mm="6" data-hole-index="3" data-hole-x-offset-mm="-0" data-hole-y-offset-mm="-15.125" data-hole-radius-mm="15.125"/>
  </g>
  <g transform="translate(144 150)">
  <path d="M 61.925 36.8 L 65.49 39.31 L 65.162 41.801 L 61.069 43.303 L 60.41 45.393 L 62.902 48.971 L 61.742 51.2 L 57.381 51.211 L 56.047 52.95 L 57.165 57.165 L 55.312 58.862 L 51.211 57.381 L 49.362 58.559 L 48.971 62.902 L 46.65 63.863 L 43.303 61.069 L 41.163 61.543 L 39.31 65.49 L 36.8 65.6 L 34.61 61.829 L 32.437 61.543 L 29.346 64.619 L 26.95 63.863 L 26.182 59.571 L 24.238 58.559 L 20.281 60.392 L 18.288 58.862 L 19.034 54.566 L 17.553 52.95 L 13.208 53.319 L 11.858 51.2 L 14.029 47.418 L 13.19 45.393 L 8.981 44.254 L 8.438 41.801 L 11.771 38.99 L 11.675 36.8 L 8.11 34.29 L 8.438 31.799 L 12.531 30.297 L 13.19 28.207 L 10.698 24.629 L 11.858 22.4 L 16.219 22.389 L 17.553 20.65 L 16.435 16.435 L 18.288 14.738 L 22.389 16.219 L 24.237 15.041 L 24.629 10.698 L 26.95 9.737 L 30.297 12.531 L 32.437 12.057 L 34.29 8.11 L 36.8 8 L 38.99 11.771 L 41.163 12.057 L 44.254 8.981 L 46.65 9.737 L 47.418 14.029 L 49.362 15.041 L 53.319 13.208 L 55.312 14.738 L 54.566 19.034 L 56.047 20.65 L 60.392 20.281 L 61.742 22.4 L 59.571 26.182 L 60.41 28.207 L 64.619 29.346 L 65.162 31.799 L 61.829 34.61 Z" class="cut gear-outline" data-teeth="18" data-pitch-radius-mm="27" data-root-radius-mm="25.125" data-outer-radius-mm="28.8" data-attachment-hole-pattern="radial"/>
  </g>
  <g transform="translate(144 150)">
  <circle cx="36.8" cy="36.8" r="3" class="drill axle-hole" data-hole-role="axle" data-hole-diameter-mm="6"/>
  </g>
  <g transform="translate(144 150)">
  <circle cx="36.8" cy="36.8" r="27" class="score pitch-circle"/>
  </g>
  <g transform="translate(144 150)">
  <circle cx="54.925" cy="36.8" r="3" class="drill linkage-hole bracket-hole crank-hole handle-hole" data-hole-role="linkage-bracket-crank-handle" data-attachment-kinds="linkage bracket crank handle" data-hole-diameter-mm="6" data-hole-index="0" data-hole-x-offset-mm="18.125" data-hole-y-offset-mm="0" data-hole-radius-mm="18.125"/>
  </g>
  <g transform="translate(144 150)">
  <circle cx="36.8" cy="54.925" r="3" class="drill linkage-hole bracket-hole crank-hole handle-hole" data-hole-role="linkage-bracket-crank-handle" data-attachment-kinds="linkage bracket crank handle" data-hole-diameter-mm="6" data-hole-index="1" data-hole-x-offset-mm="0" data-hole-y-offset-mm="18.125" data-hole-radius-mm="18.125"/>
  </g>
  <g transform="translate(144 150)">
  <circle cx="18.675" cy="36.8" r="3" class="drill linkage-hole bracket-hole crank-hole handle-hole" data-hole-role="linkage-bracket-crank-handle" data-attachment-kinds="linkage bracket crank handle" data-hole-diameter-mm="6" data-hole-index="2" data-hole-x-offset-mm="-18.125" data-hole-y-offset-mm="0" data-hole-radius-mm="18.125"/>
  </g>
  <g transform="translate(144 150)">
  <circle cx="36.8" cy="18.675" r="3" class="drill linkage-hole bracket-hole crank-hole handle-hole" data-hole-role="linkage-bracket-crank-handle" data-attachment-kinds="linkage bracket crank handle" data-hole-diameter-mm="6" data-hole-index="3" data-hole-x-offset-mm="-0" data-hole-y-offset-mm="-18.125" data-hole-radius-mm="18.125"/>
  </g>
</svg>
