<?xml version="1.0" encoding="UTF-8"?>
<svg xmlns="http://www.w3.org/2000/svg" version="1.1"
     width="420mm" height="320mm"
     viewBox="0 0 420 320"
     data-profile-key="motionsmith-ms4n"
     data-grid-pitch-mm="20"
     data-hole-diameter-mm="6">
  <title>Automataii fabrication sheet 01-gear-set: Gear set</title>
  <desc>Workshop sheet containing: gears. Nominal holes are 6 mm.</desc>
  <defs>
    <style>
      .cut { fill: none; stroke: #ed1c24; stroke-width: 0.25; stroke-miterlimit: 10; }
      .drill { fill: none; stroke: #0071bc; stroke-width: 0.2; stroke-miterlimit: 10; }
      .score { fill: none; stroke: #777777; stroke-width: 0.15; stroke-dasharray: 2 1; }
      .label { fill: #333333; font-family: Arial, Helvetica, sans-serif; font-size: 4px; }
      .tiny { fill: #333333; font-family: Arial, Helvetica, sans-serif; font-size: 3px; }
      .paper { fill: #ffffff; stroke: none; }
    </style>
  </defs>
  <text x="12" y="12" class="label" text-anchor="start">01 Gear set</text>
  <text x="12" y="18" class="tiny" text-anchor="start">Gears include 6 mm axle + linkage/bracket/crank/handle holes</text>
  <g transform="translate(12 28)">
  <path d="M 55.9 34.4 L 60.574 37.846 L 59.9 41.233 L 54.263 42.628 L 53.02 45.15 L 55.345 50.471 L 53.068 53.068 L 47.488 51.457 L 45.15 53.02 L 44.503 58.79 L 41.233 59.9 L 37.206 55.716 L 34.4 55.9 L 30.954 60.574 L 27.567 59.9 L 26.172 54.263 L 23.65 53.02 L 18.329 55.345 L 15.732 53.068 L 17.343 47.488 L 15.78 45.15 L 10.01 44.503 L 8.9 41.233 L 13.084 37.206 L 12.9 34.4 L 8.226 30.954 L 8.9 27.567 L 14.537 26.172 L 15.78 23.65 L 13.455 18.329 L 15.732 15.732 L 21.312 17.343 L 23.65 15.78 L 24.297 10.01 L 27.567 8.9 L 31.594 13.084 L 34.4 12.9 L 37.846 8.226 L 41.233 8.9 L 42.628 14.537 L 45.15 15.78 L 50.471 13.455 L 53.068 15.732 L 51.457 21.312 L 53.02 23.65 L 58.79 24.297 L 59.9 27.567 L 55.716 31.594 Z" class="cut gear-outline" data-teeth="12" data-pitch-radius-mm="24" data-root-radius-mm="21.5" data-outer-radius-mm="26.4" data-attachment-hole-pattern="radial"/>
  </g>
  <g transform="translate(12 28)">
  <circle cx="34.4" cy="34.4" r="3" class="drill axle-hole" data-hole-role="axle" data-hole-diameter-mm="6"/>
  </g>
  <g transform="translate(12 28)">
  <circle cx="34.4" cy="34.4" r="24" class="score pitch-circle"/>
  </g>
  <g transform="translate(12 28)">
  <circle cx="48.9" cy="34.4" r="3" class="drill linkage-hole bracket-hole crank-hole handle-hole" data-hole-role="linkage-bracket-crank-handle" data-attachment-kinds="linkage bracket crank handle" data-hole-diameter-mm="6" data-hole-index="0" data-hole-x-offset-mm="14.5" data-hole-y-offset-mm="0" data-hole-radius-mm="14.5"/>
  </g>
  <g transform="translate(12 28)">
  <circle cx="34.4" cy="48.9" r="3" class="drill linkage-hole bracket-hole crank-hole handle-hole" data-hole-role="linkage-bracket-crank-handle" data-attachment-kinds="linkage bracket crank handle" data-hole-diameter-mm="6" data-hole-index="1" data-hole-x-offset-mm="0" data-hole-y-offset-mm="14.5" data-hole-radius-mm="14.5"/>
  </g>
  <g transform="translate(12 28)">
  <circle cx="19.9" cy="34.4" r="3" class="drill linkage-hole bracket-hole crank-hole handle-hole" data-hole-role="linkage-bracket-crank-handle" data-attachment-kinds="linkage bracket crank handle" data-hole-diameter-mm="6" data-hole-index="2" data-hole-x-offset-mm="-14.5" data-hole-y-offset-mm="0" data-hole-radius-mm="14.5"/>
  </g>
  <g transform="translate(12 28)">
  <circle cx="34.4" cy="19.9" r="3" class="drill linkage-hole bracket-hole crank-hole handle-hole" data-hole-role="linkage-bracket-crank-handle" data-attachment-kinds="linkage bracket crank handle" data-hole-diameter-mm="6" data-hole-index="3" data-hole-x-offset-mm="-0" data-hole-y-offset-mm="-14.5" data-hole-radius-mm="14.5"/>
  </g>
  <g transform="translate(118 28)">
  <path d="M 71.9 42.4 L 76.634 45.772 L 76.139 49.111 L 70.63 50.963 L 69.654 53.689 L 72.738 58.616 L 71.003 61.512 L 65.204 61.115 L 63.26 63.26 L 64.223 68.992 L 61.512 71.003 L 56.306 68.417 L 53.689 69.654 L 52.386 75.319 L 49.111 76.139 L 45.292 71.758 L 42.4 71.9 L 39.028 76.634 L 35.689 76.139 L 33.837 70.63 L 31.111 69.654 L 26.184 72.738 L 23.288 71.003 L 23.685 65.204 L 21.54 63.26 L 15.808 64.223 L 13.797 61.512 L 16.383 56.306 L 15.146 53.689 L 9.481 52.386 L 8.661 49.111 L 13.042 45.292 L 12.9 42.4 L 8.166 39.028 L 8.661 35.689 L 14.17 33.837 L 15.146 31.111 L 12.062 26.184 L 13.797 23.288 L 19.596 23.685 L 21.54 21.54 L 20.577 15.808 L 23.288 13.797 L 28.494 16.383 L 31.111 15.146 L 32.414 9.481 L 35.689 8.661 L 39.508 13.042 L 42.4 12.9 L 45.772 8.166 L 49.111 8.661 L 50.963 14.17 L 53.689 15.146 L 58.616 12.062 L 61.512 13.797 L 61.115 19.596 L 63.26 21.54 L 68.992 20.577 L 71.003 23.288 L 68.417 28.494 L 69.654 31.111 L 75.319 32.414 L 76.139 35.689 L 71.758 39.508 Z" class="cut gear-outline" data-teeth="16" data-pitch-radius-mm="32" data-root-radius-mm="29.5" data-outer-radius-mm="34.4" data-attachment-hole-pattern="grid"/>
  </g>
  <g transform="translate(118 28)">
  <circle cx="42.4" cy="42.4" r="3" class="drill axle-hole" data-hole-role="axle" data-hole-diameter-mm="6"/>
  </g>
  <g transform="translate(118 28)">
  <circle cx="42.4" cy="42.4" r="32" class="score pitch-circle"/>
  </g>
  <g transform="translate(118 28)">
  <circle cx="42.4" cy="22.4" r="3" class="drill linkage-hole bracket-hole crank-hole handle-hole" data-hole-role="linkage-bracket-crank-handle" data-attachment-kinds="linkage bracket crank handle" data-hole-diameter-mm="6" data-hole-index="0" data-hole-x-offset-mm="0" data-hole-y-offset-mm="-20" data-hole-radius-mm="20"/>
  </g>
  <g transform="translate(118 28)">
  <circle cx="22.4" cy="42.4" r="3" class="drill linkage-hole bracket-hole crank-hole handle-hole" data-hole-role="linkage-bracket-crank-handle" data-attachment-kinds="linkage bracket crank handle" data-hole-diameter-mm="6" data-hole-index="1" data-hole-x-offset-mm="-20" data-hole-y-offset-mm="0" data-hole-radius-mm="20"/>
  </g>
  <g transform="translate(118 28)">
  <circle cx="62.4" cy="42.4" r="3" class="drill linkage-hole bracket-hole crank-hole handle-hole" data-hole-role="linkage-bracket-crank-handle" data-attachment-kinds="linkage bracket crank handle" data-hole-diameter-mm="6" data-hole-index="2" data-hole-x-offset-mm="20" data-hole-y-offset-mm="0" data-hole-radius-mm="20"/>
  </g>
  <g transform="translate(118 28)">
  <circle cx="42.4" cy="62.4" r="3" class="drill linkage-hole bracket-hole crank-hole handle-hole" data-hole-role="linkage-bracket-crank-handle" data-attachment-kinds="linkage bracket crank handle" data-hole-diameter-mm="6" data-hole-index="3" data-hole-x-offset-mm="0" data-hole-y-offset-mm="20" data-hole-radius-mm="20"/>
  </g>
  <g transform="translate(12 150)">
  <path d="M 87.9 50.4 L 92.669 53.727 L 92.278 57.033 L 86.864 59.154 L 86.065 61.988 L 89.572 66.626 L 88.179 69.649 L 82.374 69.994 L 80.738 72.442 L 82.641 77.937 L 80.381 80.381 L 74.754 78.915 L 72.442 80.738 L 72.554 86.552 L 69.649 88.179 L 64.751 85.045 L 61.988 86.065 L 60.298 91.628 L 57.033 92.278 L 53.342 87.784 L 50.4 87.9 L 47.073 92.669 L 43.767 92.278 L 41.646 86.864 L 38.812 86.065 L 34.174 89.572 L 31.151 88.179 L 30.806 82.374 L 28.358 80.738 L 22.863 82.641 L 20.419 80.381 L 21.885 74.754 L 20.062 72.442 L 14.248 72.554 L 12.621 69.649 L 15.755 64.751 L 14.735 61.988 L 9.172 60.298 L 8.522 57.033 L 13.016 53.342 L 12.9 50.4 L 8.131 47.073 L 8.522 43.767 L 13.936 41.646 L 14.735 38.812 L 11.228 34.174 L 12.621 31.151 L 18.426 30.806 L 20.062 28.358 L 18.159 22.863 L 20.419 20.419 L 26.046 21.885 L 28.358 20.062 L 28.246 14.248 L 31.151 12.621 L 36.049 15.755 L 38.812 14.735 L 40.502 9.172 L 43.767 8.522 L 47.458 13.016 L 50.4 12.9 L 53.727 8.131 L 57.033 8.522 L 59.154 13.936 L 61.988 14.735 L 66.626 11.228 L 69.649 12.621 L 69.994 18.426 L 72.442 20.062 L 77.937 18.159 L 80.381 20.419 L 78.915 26.046 L 80.738 28.358 L 86.552 28.246 L 88.179 31.151 L 85.045 36.049 L 86.065 38.812 L 91.628 40.502 L 92.278 43.767 L 87.784 47.458 Z" class="cut gear-outline" data-teeth="20" data-pitch-radius-mm="40" data-root-radius-mm="37.5" data-outer-radius-mm="42.4" data-attachment-hole-pattern="grid"/>
  </g>
  <g transform="translate(12 150)">
  <circle cx="50.4" cy="50.4" r="3" class="drill axle-hole" data-hole-role="axle" data-hole-diameter-mm="6"/>
  </g>
  <g transform="translate(12 150)">
  <circle cx="50.4" cy="50.4" r="40" class="score pitch-circle"/>
  </g>
  <g transform="translate(12 150)">
  <circle cx="50.4" cy="30.4" r="3" class="drill linkage-hole bracket-hole crank-hole handle-hole" data-hole-role="linkage-bracket-crank-handle" data-attachment-kinds="linkage bracket crank handle" data-hole-diameter-mm="6" data-hole-index="0" data-hole-x-offset-mm="0" data-hole-y-offset-mm="-20" data-hole-radius-mm="20"/>
  </g>
  <g transform="translate(12 150)">
  <circle cx="30.4" cy="50.4" r="3" class="drill linkage-hole bracket-hole crank-hole handle-hole" data-hole-role="linkage-bracket-crank-handle" data-attachment-kinds="linkage bracket crank handle" data-hole-diameter-mm="6" data-hole-index="1" data-hole-x-offset-mm="-20" data-hole-y-offset-mm="0" data-hole-radius-mm="20"/>
  </g>
  <g transform="translate(12 150)">
  <circle cx="70.4" cy="50.4" r="3" class="drill linkage-hole bracket-hole crank-hole handle-hole" data-hole-role="linkage-bracket-crank-handle" data-attachment-kinds="linkage bracket crank handle" data-hole-diameter-mm="6" data-hole-index="2" data-hole-x-offset-mm="20" data-hole-y-offset-mm="0" data-hole-radius-mm="20"/>
  </g>
  <g transform="translate(12 150)">
  <circle cx="50.4" cy="70.4" r="3" class="drill linkage-hole bracket-hole crank-hole handle-hole" data-hole-role="linkage-bracket-crank-handle" data-attachment-kinds="linkage bracket crank handle" data-hole-diameter-mm="6" data-hole-index="3" data-hole-x-offset-mm="0" data-hole-y-offset-mm="20" data-hole-radius-mm="20"/>
  </g>
  <g transform="translate(12 150)">
  <circle cx="30.4" cy="30.4" r="3" class="drill linkage-hole bracket-hole crank-hole handle-hole" data-hole-role="linkage-bracket-crank-handle" data-attachment-kinds="linkage bracket crank handle" data-hole-diameter-mm="6" data-hole-index="4" data-hole-x-offset-mm="-20" data-hole-y-offset-mm="-20" data-hole-radius-mm="28.284"/>
  </g>
  <g transform="translate(12 150)">
  <circle cx="70.4" cy="30.4" r="3" class="drill linkage-hole bracket-hole crank-hole handle-hole" data-hole-role="linkage-bracket-crank-handle" data-attachment-kinds="linkage bracket crank handle" data-hole-diameter-mm="6" data-hole-index="5" data-hole-x-offset-mm="20" data-hole-y-offset-mm="-20" data-hole-radius-mm="28.284"/>
  </g>
  <g transform="translate(12 150)">
  <circle cx="30.4" cy="70.4" r="3" class="drill linkage-hole bracket-hole crank-hole handle-hole" data-hole-role="linkage-bracket-crank-handle" data-attachment-kinds="linkage bracket crank handle" data-hole-diameter-mm="6" data-hole-index="6" data-hole-x-offset-mm="-20" data-hole-y-offset-mm="20" data-hole-radius-mm="28.284"/>
  </g>
  <g transform="translate(12 150)">
  <circle cx="70.4" cy="70.4" r="3" class="drill linkage-hole bracket-hole crank-hole handle-hole" data-hole-role="linkage-bracket-crank-handle" data-attachment-kinds="linkage bracket crank handle" data-hole-diameter-mm="6" data-hole-index="7" data-hole-x-offset-mm="20" data-hole-y-offset-mm="20" data-hole-radius-mm="28.284"/>
  </g>
  <g transform="translate(144 150)">
  <path d="M 103.9 58.4 L 108.692 61.696 L 108.369 64.979 L 103.026 67.277 L 102.35 70.176 L 106.125 74.601 L 104.964 77.687 L 99.208 78.524 L 97.804 81.15 L 100.306 86.401 L 98.385 89.082 L 92.609 88.4 L 90.573 90.573 L 91.631 96.293 L 89.082 98.385 L 83.678 96.232 L 81.15 97.804 L 80.691 103.602 L 77.687 104.964 L 73.025 101.485 L 70.176 102.35 L 68.233 107.832 L 64.979 108.369 L 61.376 103.803 L 58.4 103.9 L 55.104 108.692 L 51.821 108.369 L 49.523 103.026 L 46.624 102.35 L 42.199 106.125 L 39.113 104.964 L 38.276 99.208 L 35.65 97.804 L 30.399 100.306 L 27.718 98.385 L 28.4 92.609 L 26.227 90.573 L 20.507 91.631 L 18.415 89.082 L 20.568 83.678 L 18.996 81.15 L 13.198 80.691 L 11.836 77.687 L 15.315 73.025 L 14.45 70.176 L 8.968 68.233 L 8.431 64.979 L 12.997 61.376 L 12.9 58.4 L 8.108 55.104 L 8.431 51.821 L 13.774 49.523 L 14.45 46.624 L 10.675 42.199 L 11.836 39.113 L 17.592 38.276 L 18.996 35.65 L 16.494 30.399 L 18.415 27.718 L 24.191 28.4 L 26.227 26.227 L 25.169 20.507 L 27.718 18.415 L 33.122 20.568 L 35.65 18.996 L 36.109 13.198 L 39.113 11.836 L 43.775 15.315 L 46.624 14.45 L 48.567 8.968 L 51.821 8.431 L 55.424 12.997 L 58.4 12.9 L 61.696 8.108 L 64.979 8.431 L 67.277 13.774 L 70.176 14.45 L 74.601 10.675 L 77.687 11.836 L 78.524 17.592 L 81.15 18.996 L 86.401 16.494 L 89.082 18.415 L 88.4 24.191 L 90.573 26.227 L 96.293 25.169 L 98.385 27.718 L 96.232 33.122 L 97.804 35.65 L 103.602 36.109 L 104.964 39.113 L 101.485 43.775 L 102.35 46.624 L 107.832 48.567 L 108.369 51.821 L 103.803 55.424 Z" class="cut gear-outline" data-teeth="24" data-pitch-radius-mm="48" data-root-radius-mm="45.5" data-outer-radius-mm="50.4" data-attachment-hole-pattern="grid"/>
  </g>
  <g transform="translate(144 150)">
  <circle cx="58.4" cy="58.4" r="3" class="drill axle-hole" data-hole-role="axle" data-hole-diameter-mm="6"/>
  </g>
  <g transform="translate(144 150)">
  <circle cx="58.4" cy="58.4" r="48" class="score pitch-circle"/>
  </g>
  <g transform="translate(144 150)">
  <circle cx="58.4" cy="38.4" r="3" class="drill linkage-hole bracket-hole crank-hole handle-hole" data-hole-role="linkage-bracket-crank-handle" data-attachment-kinds="linkage bracket crank handle" data-hole-diameter-mm="6" data-hole-index="0" data-hole-x-offset-mm="0" data-hole-y-offset-mm="-20" data-hole-radius-mm="20"/>
  </g>
  <g transform="translate(144 150)">
  <circle cx="38.4" cy="58.4" r="3" class="drill linkage-hole bracket-hole crank-hole handle-hole" data-hole-role="linkage-bracket-crank-handle" data-attachment-kinds="linkage bracket crank handle" data-hole-diameter-mm="6" data-hole-index="1" data-hole-x-offset-mm="-20" data-hole-y-offset-mm="0" data-hole-radius-mm="20"/>
  </g>
  <g transform="translate(144 150)">
  <circle cx="78.4" cy="58.4" r="3" class="drill linkage-hole bracket-hole crank-hole handle-hole" data-hole-role="linkage-bracket-crank-handle" data-attachment-kinds="linkage bracket crank handle" data-hole-diameter-mm="6" data-hole-index="2" data-hole-x-offset-mm="20" data-hole-y-offset-mm="0" data-hole-radius-mm="20"/>
  </g>
  <g transform="translate(144 150)">
  <circle cx="58.4" cy="78.4" r="3" class="drill linkage-hole bracket-hole crank-hole handle-hole" data-hole-role="linkage-bracket-crank-handle" data-attachment-kinds="linkage bracket crank handle" data-hole-diameter-mm="6" data-hole-index="3" data-hole-x-offset-mm="0" data-hole-y-offset-mm="20" data-hole-radius-mm="20"/>
  </g>
  <g transform="translate(144 150)">
  <circle cx="38.4" cy="38.4" r="3" class="drill linkage-hole bracket-hole crank-hole handle-hole" data-hole-role="linkage-bracket-crank-handle" data-attachment-kinds="linkage bracket crank handle" data-hole-diameter-mm="6" data-hole-index="4" data-hole-x-offset-mm="-20" data-hole-y-offset-mm="-20" data-hole-radius-mm="28.284"/>
  </g>
  <g transform="translate(144 150)">
  <circle cx="78.4" cy="38.4" r="3" class="drill linkage-hole bracket-hole crank-hole handle-hole" data-hole-role="linkage-bracket-crank-handle" data-attachment-kinds="linkage bracket crank handle" data-hole-diameter-mm="6" data-hole-index="5" data-hole-x-offset-mm="20" data-hole-y-offset-mm="-20" data-hole-radius-mm="28.284"/>
  </g>
  <g transform="translate(144 150)">
  <circle cx="38.4" cy="78.4" r="3" class="drill linkage-hole bracket-hole crank-hole handle-hole" data-hole-role="linkage-bracket-crank-handle" data-attachment-kinds="linkage bracket crank handle" data-hole-diameter-mm="6" data-hole-index="6" data-hole-x-offset-mm="-20" data-hole-y-offset-mm="20" data-hole-radius-mm="28.284"/>
  </g>
  <g transform="translate(144 150)">
  <circle cx="78.4" cy="78.4" r="3" class="drill linkage-hole bracket-hole crank-hole handle-hole" data-hole-role="linkage-bracket-crank-handle" data-attachment-kinds="linkage bracket crank handle" data-hole-diameter-mm="6" data-hole-index="7" data-hole-x-offset-mm="20" data-hole-y-offset-mm="20" data-hole-radius-mm="28.284"/>
  </g>
</svg>
