<?xml version="1.0" encoding="UTF-8"?>
<svg xmlns="http://www.w3.org/2000/svg" version="1.1"
     width="420mm" height="320mm"
     viewBox="0 0 420 320"
     data-profile-key="motionsmith-ms4n"
     data-grid-pitch-mm="20.4"
     data-hole-diameter-mm="5.0">
  <title>Automataii fabrication sheet 02-linkage-set: Linkage set</title>
  <desc>Workshop sheet containing: linkages. Nominal holes are 5 mm.</desc>
  <defs>
    <style>
      .cut { fill: none; stroke: #ed1c24; stroke-width: 0.25; stroke-miterlimit: 10; }
      .drill { fill: none; stroke: #0071bc; stroke-width: 0.2; stroke-miterlimit: 10; }
      .score { fill: none; stroke: #777777; stroke-width: 0.15; stroke-dasharray: 2 1; }
      .label { fill: #333333; font-family: Arial, Helvetica, sans-serif; font-size: 4px; }
      .tiny { fill: #333333; font-family: Arial, Helvetica, sans-serif; font-size: 3px; }
      .paper { fill: #ffffff; stroke: none; }
    </style>
  </defs>
  <text x="12" y="12" class="label" text-anchor="start">02 Linkage set</text>
  <text x="12" y="18" class="tiny" text-anchor="start">2/4/6/8-cell board-compatible linkage bars</text>
  <g transform="translate(10 30)">
  <path d="M 14 7 L 54.8 7 A 7 7 0 0 1 54.8 21 L 14 21 A 7 7 0 0 1 14 7 Z" class="cut linkage-outline" data-cells="2" data-length-mm="40.8" data-pitch-mm="20.4" data-hole-count="3"/>
  </g>
  <g transform="translate(10 30)">
  <circle cx="14" cy="14" r="2.5" class="drill linkage-hole bracket-hole" data-hole-role="linkage-bracket" data-hole-diameter-mm="5.0" data-hole-index="0"/>
  </g>
  <g transform="translate(10 30)">
  <circle cx="34.4" cy="14" r="2.5" class="drill linkage-hole bracket-hole" data-hole-role="linkage-bracket" data-hole-diameter-mm="5.0" data-hole-index="1"/>
  </g>
  <g transform="translate(10 30)">
  <circle cx="54.8" cy="14" r="2.5" class="drill linkage-hole bracket-hole" data-hole-role="linkage-bracket" data-hole-diameter-mm="5.0" data-hole-index="2"/>
  </g>
  <g transform="translate(10 68)">
  <path d="M 14 7 L 95.6 7 A 7 7 0 0 1 95.6 21 L 14 21 A 7 7 0 0 1 14 7 Z" class="cut linkage-outline" data-cells="4" data-length-mm="81.6" data-pitch-mm="20.4" data-hole-count="5"/>
  </g>
  <g transform="translate(10 68)">
  <circle cx="14" cy="14" r="2.5" class="drill linkage-hole bracket-hole" data-hole-role="linkage-bracket" data-hole-diameter-mm="5.0" data-hole-index="0"/>
  </g>
  <g transform="translate(10 68)">
  <circle cx="34.4" cy="14" r="2.5" class="drill linkage-hole bracket-hole" data-hole-role="linkage-bracket" data-hole-diameter-mm="5.0" data-hole-index="1"/>
  </g>
  <g transform="translate(10 68)">
  <circle cx="54.8" cy="14" r="2.5" class="drill linkage-hole bracket-hole" data-hole-role="linkage-bracket" data-hole-diameter-mm="5.0" data-hole-index="2"/>
  </g>
  <g transform="translate(10 68)">
  <circle cx="75.2" cy="14" r="2.5" class="drill linkage-hole bracket-hole" data-hole-role="linkage-bracket" data-hole-diameter-mm="5.0" data-hole-index="3"/>
  </g>
  <g transform="translate(10 68)">
  <circle cx="95.6" cy="14" r="2.5" class="drill linkage-hole bracket-hole" data-hole-role="linkage-bracket" data-hole-diameter-mm="5.0" data-hole-index="4"/>
  </g>
  <g transform="translate(10 106)">
  <path d="M 14 7 L 136.4 7 A 7 7 0 0 1 136.4 21 L 14 21 A 7 7 0 0 1 14 7 Z" class="cut linkage-outline" data-cells="6" data-length-mm="122.4" data-pitch-mm="20.4" data-hole-count="7"/>
  </g>
  <g transform="translate(10 106)">
  <circle cx="14" cy="14" r="2.5" class="drill linkage-hole bracket-hole" data-hole-role="linkage-bracket" data-hole-diameter-mm="5.0" data-hole-index="0"/>
  </g>
  <g transform="translate(10 106)">
  <circle cx="34.4" cy="14" r="2.5" class="drill linkage-hole bracket-hole" data-hole-role="linkage-bracket" data-hole-diameter-mm="5.0" data-hole-index="1"/>
  </g>
  <g transform="translate(10 106)">
  <circle cx="54.8" cy="14" r="2.5" class="drill linkage-hole bracket-hole" data-hole-role="linkage-bracket" data-hole-diameter-mm="5.0" data-hole-index="2"/>
  </g>
  <g transform="translate(10 106)">
  <circle cx="75.2" cy="14" r="2.5" class="drill linkage-hole bracket-hole" data-hole-role="linkage-bracket" data-hole-diameter-mm="5.0" data-hole-index="3"/>
  </g>
  <g transform="translate(10 106)">
  <circle cx="95.6" cy="14" r="2.5" class="drill linkage-hole bracket-hole" data-hole-role="linkage-bracket" data-hole-diameter-mm="5.0" data-hole-index="4"/>
  </g>
  <g transform="translate(10 106)">
  <circle cx="116" cy="14" r="2.5" class="drill linkage-hole bracket-hole" data-hole-role="linkage-bracket" data-hole-diameter-mm="5.0" data-hole-index="5"/>
  </g>
  <g transform="translate(10 106)">
  <circle cx="136.4" cy="14" r="2.5" class="drill linkage-hole bracket-hole" data-hole-role="linkage-bracket" data-hole-diameter-mm="5.0" data-hole-index="6"/>
  </g>
  <g transform="translate(10 144)">
  <path d="M 14 7 L 177.2 7 A 7 7 0 0 1 177.2 21 L 14 21 A 7 7 0 0 1 14 7 Z" class="cut linkage-outline" data-cells="8" data-length-mm="163.2" data-pitch-mm="20.4" data-hole-count="9"/>
  </g>
  <g transform="translate(10 144)">
  <circle cx="14" cy="14" r="2.5" class="drill linkage-hole bracket-hole" data-hole-role="linkage-bracket" data-hole-diameter-mm="5.0" data-hole-index="0"/>
  </g>
  <g transform="translate(10 144)">
  <circle cx="34.4" cy="14" r="2.5" class="drill linkage-hole bracket-hole" data-hole-role="linkage-bracket" data-hole-diameter-mm="5.0" data-hole-index="1"/>
  </g>
  <g transform="translate(10 144)">
  <circle cx="54.8" cy="14" r="2.5" class="drill linkage-hole bracket-hole" data-hole-role="linkage-bracket" data-hole-diameter-mm="5.0" data-hole-index="2"/>
  </g>
  <g transform="translate(10 144)">
  <circle cx="75.2" cy="14" r="2.5" class="drill linkage-hole bracket-hole" data-hole-role="linkage-bracket" data-hole-diameter-mm="5.0" data-hole-index="3"/>
  </g>
  <g transform="translate(10 144)">
  <circle cx="95.6" cy="14" r="2.5" class="drill linkage-hole bracket-hole" data-hole-role="linkage-bracket" data-hole-diameter-mm="5.0" data-hole-index="4"/>
  </g>
  <g transform="translate(10 144)">
  <circle cx="116" cy="14" r="2.5" class="drill linkage-hole bracket-hole" data-hole-role="linkage-bracket" data-hole-diameter-mm="5.0" data-hole-index="5"/>
  </g>
  <g transform="translate(10 144)">
  <circle cx="136.4" cy="14" r="2.5" class="drill linkage-hole bracket-hole" data-hole-role="linkage-bracket" data-hole-diameter-mm="5.0" data-hole-index="6"/>
  </g>
  <g transform="translate(10 144)">
  <circle cx="156.8" cy="14" r="2.5" class="drill linkage-hole bracket-hole" data-hole-role="linkage-bracket" data-hole-diameter-mm="5.0" data-hole-index="7"/>
  </g>
  <g transform="translate(10 144)">
  <circle cx="177.2" cy="14" r="2.5" class="drill linkage-hole bracket-hole" data-hole-role="linkage-bracket" data-hole-diameter-mm="5.0" data-hole-index="8"/>
  </g>
</svg>
