<?xml version="1.0" encoding="UTF-8"?>
<svg xmlns="http://www.w3.org/2000/svg" version="1.1"
     width="420mm" height="320mm"
     viewBox="0 0 420 320"
     data-profile-key="motionsmith-ms4n"
     data-grid-pitch-mm="20"
     data-hole-diameter-mm="6">
  <title>Automataii fabrication sheet 03-cam-set: Cam set</title>
  <desc>Workshop sheet containing: cams. Nominal holes are 6 mm.</desc>
  <defs>
    <style>
      .cut { fill: none; stroke: #ed1c24; stroke-width: 0.25; stroke-miterlimit: 10; }
      .drill { fill: none; stroke: #0071bc; stroke-width: 0.2; stroke-miterlimit: 10; }
      .score { fill: none; stroke: #777777; stroke-width: 0.15; stroke-dasharray: 2 1; }
      .label { fill: #333333; font-family: Arial, Helvetica, sans-serif; font-size: 4px; }
      .tiny { fill: #333333; font-family: Arial, Helvetica, sans-serif; font-size: 3px; }
      .paper { fill: #ffffff; stroke: none; }
    </style>
  </defs>
  <text x="12" y="12" class="label" text-anchor="start">03 Cam set</text>
  <text x="12" y="18" class="tiny" text-anchor="start">Circle, eccentric, oval, and pear cams</text>
  <g transform="translate(12 24)">
  <path d="M 48 8 L 49.745 8.038 L 51.486 8.152 L 53.221 8.342 L 54.946 8.608 L 56.658 8.948 L 58.353 9.363 L 60.028 9.851 L 61.681 10.412 L 63.307 11.045 L 64.905 11.748 L 66.47 12.52 L 68 13.359 L 69.492 14.264 L 70.943 15.234 L 72.35 16.266 L 73.712 17.358 L 75.024 18.509 L 76.284 19.716 L 77.491 20.976 L 78.642 22.288 L 79.734 23.65 L 80.766 25.057 L 81.736 26.508 L 82.641 28 L 83.48 29.53 L 84.252 31.095 L 84.955 32.693 L 85.588 34.319 L 86.149 35.972 L 86.637 37.647 L 87.052 39.342 L 87.392 41.054 L 87.658 42.779 L 87.848 44.514 L 87.962 46.255 L 88 48 L 87.962 49.745 L 87.848 51.486 L 87.658 53.221 L 87.392 54.946 L 87.052 56.658 L 86.637 58.353 L 86.149 60.028 L 85.588 61.681 L 84.955 63.307 L 84.252 64.905 L 83.48 66.47 L 82.641 68 L 81.736 69.492 L 80.766 70.943 L 79.734 72.35 L 78.642 73.712 L 77.491 75.024 L 76.284 76.284 L 75.024 77.491 L 73.712 78.642 L 72.35 79.734 L 70.943 80.766 L 69.492 81.736 L 68 82.641 L 66.47 83.48 L 64.905 84.252 L 63.307 84.955 L 61.681 85.588 L 60.028 86.149 L 58.353 86.637 L 56.658 87.052 L 54.946 87.392 L 53.221 87.658 L 51.486 87.848 L 49.745 87.962 L 48 88 L 46.255 87.962 L 44.514 87.848 L 42.779 87.658 L 41.054 87.392 L 39.342 87.052 L 37.647 86.637 L 35.972 86.149 L 34.319 85.588 L 32.693 84.955 L 31.095 84.252 L 29.53 83.48 L 28 82.641 L 26.508 81.736 L 25.057 80.766 L 23.65 79.734 L 22.288 78.642 L 20.976 77.491 L 19.716 76.284 L 18.509 75.024 L 17.358 73.712 L 16.266 72.35 L 15.234 70.943 L 14.264 69.492 L 13.359 68 L 12.52 66.47 L 11.748 64.905 L 11.045 63.307 L 10.412 61.681 L 9.851 60.028 L 9.363 58.353 L 8.948 56.658 L 8.608 54.946 L 8.342 53.221 L 8.152 51.486 L 8.038 49.745 L 8 48 L 8.038 46.255 L 8.152 44.514 L 8.342 42.779 L 8.608 41.054 L 8.948 39.342 L 9.363 37.647 L 9.851 35.972 L 10.412 34.319 L 11.045 32.693 L 11.748 31.095 L 12.52 29.53 L 13.359 28 L 14.264 26.508 L 15.234 25.057 L 16.266 23.65 L 17.358 22.288 L 18.509 20.976 L 19.716 19.716 L 20.976 18.509 L 22.288 17.358 L 23.65 16.266 L 25.057 15.234 L 26.508 14.264 L 28 13.359 L 29.53 12.52 L 31.095 11.748 L 32.693 11.045 L 34.319 10.412 L 35.972 9.851 L 37.647 9.363 L 39.342 8.948 L 41.054 8.608 L 42.779 8.342 L 44.514 8.152 L 46.255 8.038 Z" class="cut cam-outline" data-cam-key="circle" data-base-radius-mm="40" data-eccentricity-mm="0" data-cam-lobes="1" data-profile-harmonic="0" data-rise-deg="45" data-high-dwell-deg="270" data-return-deg="45" data-physical-cam-preset="circle" data-profile-source="automataii.domain.mechanisms.cam.profile.build_pear_cam_profile_from_params" data-profile-sample-count="144"/>
  </g>
  <g transform="translate(12 24)">
  <circle cx="48" cy="48" r="3" class="drill axle-hole" data-hole-role="axle" data-hole-diameter-mm="6"/>
  </g>
  <g transform="translate(12 24)">
  <line x1="48" y1="48" x2="88" y2="48" class="score cam-base-radius"/>
  </g>
  <g transform="translate(12 24)">
  <circle cx="48" cy="48" r="40" class="score cam-base-circle"/>
  </g>
  <g transform="translate(12 24)">
  <circle cx="48" cy="28" r="3" class="drill linkage-hole bracket-hole crank-hole handle-hole" data-hole-role="linkage-bracket-crank-handle" data-attachment-kinds="linkage bracket crank handle" data-hole-diameter-mm="6" data-hole-index="0" data-hole-x-offset-mm="0" data-hole-y-offset-mm="-20"/>
  </g>
  <g transform="translate(12 24)">
  <circle cx="28" cy="48" r="3" class="drill linkage-hole bracket-hole crank-hole handle-hole" data-hole-role="linkage-bracket-crank-handle" data-attachment-kinds="linkage bracket crank handle" data-hole-diameter-mm="6" data-hole-index="1" data-hole-x-offset-mm="-20" data-hole-y-offset-mm="0"/>
  </g>
  <g transform="translate(12 24)">
  <circle cx="68" cy="48" r="3" class="drill linkage-hole bracket-hole crank-hole handle-hole" data-hole-role="linkage-bracket-crank-handle" data-attachment-kinds="linkage bracket crank handle" data-hole-diameter-mm="6" data-hole-index="2" data-hole-x-offset-mm="20" data-hole-y-offset-mm="0"/>
  </g>
  <g transform="translate(12 24)">
  <circle cx="48" cy="68" r="3" class="drill linkage-hole bracket-hole crank-hole handle-hole" data-hole-role="linkage-bracket-crank-handle" data-attachment-kinds="linkage bracket crank handle" data-hole-diameter-mm="6" data-hole-index="3" data-hole-x-offset-mm="0" data-hole-y-offset-mm="20"/>
  </g>
  <g transform="translate(12 24)">
  <circle cx="28" cy="28" r="3" class="drill linkage-hole bracket-hole crank-hole handle-hole" data-hole-role="linkage-bracket-crank-handle" data-attachment-kinds="linkage bracket crank handle" data-hole-diameter-mm="6" data-hole-index="4" data-hole-x-offset-mm="-20" data-hole-y-offset-mm="-20"/>
  </g>
  <g transform="translate(12 24)">
  <circle cx="68" cy="28" r="3" class="drill linkage-hole bracket-hole crank-hole handle-hole" data-hole-role="linkage-bracket-crank-handle" data-attachment-kinds="linkage bracket crank handle" data-hole-diameter-mm="6" data-hole-index="5" data-hole-x-offset-mm="20" data-hole-y-offset-mm="-20"/>
  </g>
  <g transform="translate(12 24)">
  <circle cx="28" cy="68" r="3" class="drill linkage-hole bracket-hole crank-hole handle-hole" data-hole-role="linkage-bracket-crank-handle" data-attachment-kinds="linkage bracket crank handle" data-hole-diameter-mm="6" data-hole-index="6" data-hole-x-offset-mm="-20" data-hole-y-offset-mm="20"/>
  </g>
  <g transform="translate(12 24)">
  <circle cx="68" cy="68" r="3" class="drill linkage-hole bracket-hole crank-hole handle-hole" data-hole-role="linkage-bracket-crank-handle" data-attachment-kinds="linkage bracket crank handle" data-hole-diameter-mm="6" data-hole-index="7" data-hole-x-offset-mm="20" data-hole-y-offset-mm="20"/>
  </g>
  <g transform="translate(112 24)">
  <path d="M 63 8 L 65.398 8.067 L 67.789 8.266 L 70.162 8.598 L 72.511 9.06 L 74.827 9.651 L 77.103 10.368 L 79.33 11.208 L 81.502 12.167 L 83.611 13.242 L 85.65 14.427 L 87.614 15.718 L 89.495 17.109 L 91.289 18.595 L 92.991 20.169 L 94.595 21.825 L 96.098 23.556 L 97.495 25.355 L 98.784 27.216 L 99.963 29.13 L 101.028 31.091 L 101.979 33.091 L 102.814 35.122 L 103.533 37.178 L 104.136 39.25 L 104.624 41.332 L 104.998 43.416 L 105.258 45.496 L 105.409 47.565 L 105.451 49.615 L 105.387 51.642 L 105.221 53.64 L 104.957 55.602 L 104.599 57.523 L 104.15 59.4 L 103.616 61.227 L 103 63 L 102.308 64.716 L 101.545 66.372 L 100.717 67.965 L 99.827 69.494 L 98.882 70.955 L 97.887 72.348 L 96.847 73.672 L 95.767 74.926 L 94.652 76.111 L 93.507 77.226 L 92.337 78.272 L 91.146 79.25 L 89.938 80.162 L 88.718 81.008 L 87.49 81.792 L 86.256 82.514 L 85.02 83.177 L 83.784 83.784 L 82.552 84.337 L 81.325 84.839 L 80.106 85.293 L 78.895 85.701 L 77.695 86.066 L 76.505 86.391 L 75.326 86.679 L 74.159 86.931 L 73.004 87.152 L 71.86 87.342 L 70.726 87.505 L 69.603 87.642 L 68.488 87.755 L 67.381 87.845 L 66.28 87.913 L 65.184 87.962 L 64.091 87.99 L 63 88 L 61.909 87.99 L 60.816 87.962 L 59.72 87.913 L 58.619 87.845 L 57.512 87.755 L 56.397 87.642 L 55.274 87.505 L 54.14 87.342 L 52.996 87.152 L 51.841 86.931 L 50.674 86.679 L 49.495 86.391 L 48.305 86.066 L 47.105 85.701 L 45.894 85.293 L 44.675 84.839 L 43.448 84.337 L 42.216 83.784 L 40.98 83.177 L 39.744 82.514 L 38.51 81.792 L 37.282 81.008 L 36.062 80.162 L 34.854 79.25 L 33.663 78.272 L 32.493 77.226 L 31.348 76.111 L 30.233 74.926 L 29.153 73.672 L 28.113 72.348 L 27.118 70.955 L 26.173 69.494 L 25.283 67.965 L 24.455 66.372 L 23.692 64.716 L 23 63 L 22.384 61.227 L 21.85 59.4 L 21.401 57.523 L 21.043 55.602 L 20.779 53.64 L 20.613 51.642 L 20.549 49.615 L 20.591 47.565 L 20.742 45.496 L 21.002 43.416 L 21.376 41.332 L 21.864 39.25 L 22.467 37.178 L 23.186 35.122 L 24.021 33.091 L 24.972 31.091 L 26.037 29.13 L 27.216 27.216 L 28.505 25.355 L 29.902 23.556 L 31.405 21.825 L 33.009 20.169 L 34.711 18.595 L 36.505 17.109 L 38.386 15.718 L 40.35 14.427 L 42.389 13.242 L 44.498 12.167 L 46.67 11.208 L 48.897 10.368 L 51.173 9.651 L 53.489 9.06 L 55.838 8.598 L 58.211 8.266 L 60.602 8.067 Z" class="cut cam-outline" data-cam-key="eccentric" data-base-radius-mm="40" data-eccentricity-mm="15" data-cam-lobes="1" data-profile-harmonic="0" data-rise-deg="90" data-high-dwell-deg="60" data-return-deg="90" data-physical-cam-preset="eccentric" data-profile-source="automataii.domain.mechanisms.cam.profile.build_pear_cam_profile_from_params" data-profile-sample-count="144"/>
  </g>
  <g transform="translate(112 24)">
  <circle cx="63" cy="63" r="3" class="drill axle-hole" data-hole-role="axle" data-hole-diameter-mm="6"/>
  </g>
  <g transform="translate(112 24)">
  <line x1="63" y1="63" x2="103" y2="63" class="score cam-base-radius"/>
  </g>
  <g transform="translate(112 24)">
  <circle cx="63" cy="63" r="40" class="score cam-base-circle"/>
  </g>
  <g transform="translate(112 24)">
  <circle cx="63" cy="43" r="3" class="drill linkage-hole bracket-hole crank-hole handle-hole" data-hole-role="linkage-bracket-crank-handle" data-attachment-kinds="linkage bracket crank handle" data-hole-diameter-mm="6" data-hole-index="0" data-hole-x-offset-mm="0" data-hole-y-offset-mm="-20"/>
  </g>
  <g transform="translate(112 24)">
  <circle cx="43" cy="63" r="3" class="drill linkage-hole bracket-hole crank-hole handle-hole" data-hole-role="linkage-bracket-crank-handle" data-attachment-kinds="linkage bracket crank handle" data-hole-diameter-mm="6" data-hole-index="1" data-hole-x-offset-mm="-20" data-hole-y-offset-mm="0"/>
  </g>
  <g transform="translate(112 24)">
  <circle cx="83" cy="63" r="3" class="drill linkage-hole bracket-hole crank-hole handle-hole" data-hole-role="linkage-bracket-crank-handle" data-attachment-kinds="linkage bracket crank handle" data-hole-diameter-mm="6" data-hole-index="2" data-hole-x-offset-mm="20" data-hole-y-offset-mm="0"/>
  </g>
  <g transform="translate(112 24)">
  <circle cx="43" cy="43" r="3" class="drill linkage-hole bracket-hole crank-hole handle-hole" data-hole-role="linkage-bracket-crank-handle" data-attachment-kinds="linkage bracket crank handle" data-hole-diameter-mm="6" data-hole-index="3" data-hole-x-offset-mm="-20" data-hole-y-offset-mm="-20"/>
  </g>
  <g transform="translate(112 24)">
  <circle cx="83" cy="43" r="3" class="drill linkage-hole bracket-hole crank-hole handle-hole" data-hole-role="linkage-bracket-crank-handle" data-attachment-kinds="linkage bracket crank handle" data-hole-diameter-mm="6" data-hole-index="4" data-hole-x-offset-mm="20" data-hole-y-offset-mm="-20"/>
  </g>
  <g transform="translate(112 24)">
  <circle cx="63" cy="23" r="3" class="drill linkage-hole bracket-hole crank-hole handle-hole" data-hole-role="linkage-bracket-crank-handle" data-attachment-kinds="linkage bracket crank handle" data-hole-diameter-mm="6" data-hole-index="5" data-hole-x-offset-mm="0" data-hole-y-offset-mm="-40"/>
  </g>
  <g transform="translate(112 24)">
  <circle cx="43" cy="23" r="3" class="drill linkage-hole bracket-hole crank-hole handle-hole" data-hole-role="linkage-bracket-crank-handle" data-attachment-kinds="linkage bracket crank handle" data-hole-diameter-mm="6" data-hole-index="6" data-hole-x-offset-mm="-20" data-hole-y-offset-mm="-40"/>
  </g>
  <g transform="translate(112 24)">
  <circle cx="83" cy="23" r="3" class="drill linkage-hole bracket-hole crank-hole handle-hole" data-hole-role="linkage-bracket-crank-handle" data-attachment-kinds="linkage bracket crank handle" data-hole-diameter-mm="6" data-hole-index="7" data-hole-x-offset-mm="20" data-hole-y-offset-mm="-40"/>
  </g>
  <g transform="translate(12 116)">
  <path d="M 60.5 8 L 62.787 8.126 L 65.049 8.501 L 67.264 9.119 L 69.41 9.968 L 71.467 11.031 L 73.418 12.29 L 75.249 13.723 L 76.949 15.306 L 78.513 17.012 L 79.938 18.816 L 81.224 20.69 L 82.375 22.611 L 83.399 24.555 L 84.306 26.501 L 85.108 28.43 L 85.818 30.328 L 86.449 32.182 L 87.017 33.983 L 87.533 35.729 L 88.012 37.415 L 88.463 39.043 L 88.896 40.617 L 89.316 42.142 L 89.728 43.625 L 90.134 45.073 L 90.533 46.495 L 90.922 47.899 L 91.297 49.291 L 91.652 50.678 L 91.979 52.065 L 92.272 53.456 L 92.524 54.853 L 92.728 56.257 L 92.877 57.667 L 92.969 59.082 L 93 60.5 L 92.969 61.918 L 92.877 63.333 L 92.728 64.743 L 92.524 66.147 L 92.272 67.544 L 91.979 68.935 L 91.652 70.322 L 91.297 71.709 L 90.922 73.101 L 90.533 74.505 L 90.134 75.927 L 89.728 77.375 L 89.316 78.858 L 88.896 80.383 L 88.463 81.957 L 88.012 83.585 L 87.533 85.271 L 87.017 87.017 L 86.449 88.818 L 85.818 90.672 L 85.108 92.57 L 84.306 94.499 L 83.399 96.445 L 82.375 98.389 L 81.224 100.31 L 79.938 102.184 L 78.513 103.988 L 76.949 105.694 L 75.249 107.277 L 73.418 108.71 L 71.467 109.969 L 69.41 111.032 L 67.264 111.881 L 65.049 112.499 L 62.787 112.874 L 60.5 113 L 58.213 112.874 L 55.951 112.499 L 53.736 111.881 L 51.59 111.032 L 49.533 109.969 L 47.582 108.71 L 45.751 107.277 L 44.051 105.694 L 42.487 103.988 L 41.062 102.184 L 39.776 100.31 L 38.625 98.389 L 37.601 96.445 L 36.694 94.499 L 35.892 92.57 L 35.182 90.672 L 34.551 88.818 L 33.983 87.017 L 33.467 85.271 L 32.988 83.585 L 32.537 81.957 L 32.104 80.383 L 31.684 78.858 L 31.272 77.375 L 30.866 75.927 L 30.467 74.505 L 30.078 73.101 L 29.703 71.709 L 29.348 70.322 L 29.021 68.935 L 28.728 67.544 L 28.476 66.147 L 28.272 64.743 L 28.123 63.333 L 28.031 61.918 L 28 60.5 L 28.031 59.082 L 28.123 57.667 L 28.272 56.257 L 28.476 54.853 L 28.728 53.456 L 29.021 52.065 L 29.348 50.678 L 29.703 49.291 L 30.078 47.899 L 30.467 46.495 L 30.866 45.073 L 31.272 43.625 L 31.684 42.142 L 32.104 40.617 L 32.537 39.043 L 32.988 37.415 L 33.467 35.729 L 33.983 33.983 L 34.551 32.182 L 35.182 30.328 L 35.892 28.43 L 36.694 26.501 L 37.601 24.555 L 38.625 22.611 L 39.776 20.69 L 41.062 18.816 L 42.487 17.012 L 44.051 15.306 L 45.751 13.723 L 47.582 12.29 L 49.533 11.031 L 51.59 9.968 L 53.736 9.119 L 55.951 8.501 L 58.213 8.126 Z" class="cut cam-outline" data-cam-key="oval" data-base-radius-mm="40" data-eccentricity-mm="10" data-cam-lobes="2" data-profile-harmonic="0.25" data-rise-deg="120" data-high-dwell-deg="30" data-return-deg="120" data-physical-cam-preset="oval" data-profile-source="automataii.domain.mechanisms.cam.profile.build_pear_cam_profile_from_params" data-profile-sample-count="144"/>
  </g>
  <g transform="translate(12 116)">
  <circle cx="60.5" cy="60.5" r="3" class="drill axle-hole" data-hole-role="axle" data-hole-diameter-mm="6"/>
  </g>
  <g transform="translate(12 116)">
  <line x1="60.5" y1="60.5" x2="100.5" y2="60.5" class="score cam-base-radius"/>
  </g>
  <g transform="translate(12 116)">
  <circle cx="60.5" cy="60.5" r="40" class="score cam-base-circle"/>
  </g>
  <g transform="translate(12 116)">
  <circle cx="60.5" cy="40.5" r="3" class="drill linkage-hole bracket-hole crank-hole handle-hole" data-hole-role="linkage-bracket-crank-handle" data-attachment-kinds="linkage bracket crank handle" data-hole-diameter-mm="6" data-hole-index="0" data-hole-x-offset-mm="0" data-hole-y-offset-mm="-20"/>
  </g>
  <g transform="translate(12 116)">
  <circle cx="40.5" cy="60.5" r="3" class="drill linkage-hole bracket-hole crank-hole handle-hole" data-hole-role="linkage-bracket-crank-handle" data-attachment-kinds="linkage bracket crank handle" data-hole-diameter-mm="6" data-hole-index="1" data-hole-x-offset-mm="-20" data-hole-y-offset-mm="0"/>
  </g>
  <g transform="translate(12 116)">
  <circle cx="80.5" cy="60.5" r="3" class="drill linkage-hole bracket-hole crank-hole handle-hole" data-hole-role="linkage-bracket-crank-handle" data-attachment-kinds="linkage bracket crank handle" data-hole-diameter-mm="6" data-hole-index="2" data-hole-x-offset-mm="20" data-hole-y-offset-mm="0"/>
  </g>
  <g transform="translate(12 116)">
  <circle cx="60.5" cy="80.5" r="3" class="drill linkage-hole bracket-hole crank-hole handle-hole" data-hole-role="linkage-bracket-crank-handle" data-attachment-kinds="linkage bracket crank handle" data-hole-diameter-mm="6" data-hole-index="3" data-hole-x-offset-mm="0" data-hole-y-offset-mm="20"/>
  </g>
  <g transform="translate(12 116)">
  <circle cx="40.5" cy="40.5" r="3" class="drill linkage-hole bracket-hole crank-hole handle-hole" data-hole-role="linkage-bracket-crank-handle" data-attachment-kinds="linkage bracket crank handle" data-hole-diameter-mm="6" data-hole-index="4" data-hole-x-offset-mm="-20" data-hole-y-offset-mm="-20"/>
  </g>
  <g transform="translate(12 116)">
  <circle cx="80.5" cy="40.5" r="3" class="drill linkage-hole bracket-hole crank-hole handle-hole" data-hole-role="linkage-bracket-crank-handle" data-attachment-kinds="linkage bracket crank handle" data-hole-diameter-mm="6" data-hole-index="5" data-hole-x-offset-mm="20" data-hole-y-offset-mm="-20"/>
  </g>
  <g transform="translate(12 116)">
  <circle cx="40.5" cy="80.5" r="3" class="drill linkage-hole bracket-hole crank-hole handle-hole" data-hole-role="linkage-bracket-crank-handle" data-attachment-kinds="linkage bracket crank handle" data-hole-diameter-mm="6" data-hole-index="6" data-hole-x-offset-mm="-20" data-hole-y-offset-mm="20"/>
  </g>
  <g transform="translate(12 116)">
  <circle cx="80.5" cy="80.5" r="3" class="drill linkage-hole bracket-hole crank-hole handle-hole" data-hole-role="linkage-bracket-crank-handle" data-attachment-kinds="linkage bracket crank handle" data-hole-diameter-mm="6" data-hole-index="7" data-hole-x-offset-mm="20" data-hole-y-offset-mm="20"/>
  </g>
  <g transform="translate(12 116)">
  <circle cx="60.5" cy="20.5" r="3" class="drill linkage-hole bracket-hole crank-hole handle-hole" data-hole-role="linkage-bracket-crank-handle" data-attachment-kinds="linkage bracket crank handle" data-hole-diameter-mm="6" data-hole-index="8" data-hole-x-offset-mm="0" data-hole-y-offset-mm="-40"/>
  </g>
  <g transform="translate(12 116)">
  <circle cx="60.5" cy="100.5" r="3" class="drill linkage-hole bracket-hole crank-hole handle-hole" data-hole-role="linkage-bracket-crank-handle" data-attachment-kinds="linkage bracket crank handle" data-hole-diameter-mm="6" data-hole-index="9" data-hole-x-offset-mm="0" data-hole-y-offset-mm="40"/>
  </g>
  <g transform="translate(112 116)">
  <path d="M 78 8 L 81.051 8.124 L 84.081 8.494 L 87.07 9.106 L 89.998 9.957 L 92.845 11.037 L 95.594 12.338 L 98.227 13.847 L 100.729 15.553 L 103.084 17.441 L 105.282 19.494 L 107.31 21.696 L 109.16 24.029 L 110.826 26.474 L 112.302 29.012 L 113.585 31.624 L 114.676 34.292 L 115.574 36.995 L 116.284 39.716 L 116.81 42.437 L 117.16 45.141 L 117.34 47.813 L 117.361 50.439 L 117.234 53.005 L 116.971 55.5 L 116.584 57.914 L 116.087 60.24 L 115.493 62.47 L 114.817 64.6 L 114.072 66.627 L 113.272 68.549 L 112.43 70.367 L 111.558 72.083 L 110.669 73.699 L 109.774 75.22 L 108.881 76.652 L 108 78 L 107.138 79.272 L 106.301 80.476 L 105.493 81.62 L 104.718 82.711 L 103.977 83.759 L 103.272 84.772 L 102.601 85.757 L 101.961 86.721 L 101.351 87.672 L 100.766 88.616 L 100.201 89.557 L 99.651 90.5 L 99.108 91.447 L 98.567 92.402 L 98.022 93.363 L 97.463 94.332 L 96.887 95.306 L 96.284 96.284 L 95.65 97.262 L 94.98 98.236 L 94.267 99.199 L 93.508 100.148 L 92.7 101.074 L 91.84 101.971 L 90.927 102.832 L 89.961 103.65 L 88.942 104.417 L 87.873 105.126 L 86.756 105.77 L 85.594 106.342 L 84.393 106.837 L 83.157 107.25 L 81.894 107.575 L 80.608 107.81 L 79.308 107.952 L 78 108 L 76.692 107.952 L 75.392 107.81 L 74.106 107.575 L 72.843 107.25 L 71.607 106.837 L 70.406 106.342 L 69.244 105.77 L 68.127 105.126 L 67.058 104.417 L 66.039 103.65 L 65.073 102.832 L 64.16 101.971 L 63.3 101.074 L 62.492 100.148 L 61.733 99.199 L 61.02 98.236 L 60.35 97.262 L 59.716 96.284 L 59.113 95.306 L 58.537 94.332 L 57.978 93.363 L 57.433 92.402 L 56.892 91.447 L 56.349 90.5 L 55.799 89.557 L 55.234 88.616 L 54.649 87.672 L 54.039 86.721 L 53.399 85.757 L 52.728 84.772 L 52.023 83.759 L 51.282 82.711 L 50.507 81.62 L 49.699 80.476 L 48.862 79.272 L 48 78 L 47.119 76.652 L 46.226 75.22 L 45.331 73.699 L 44.442 72.083 L 43.57 70.367 L 42.728 68.549 L 41.928 66.627 L 41.183 64.6 L 40.507 62.47 L 39.913 60.24 L 39.416 57.914 L 39.029 55.5 L 38.766 53.005 L 38.639 50.439 L 38.66 47.813 L 38.84 45.141 L 39.19 42.437 L 39.716 39.716 L 40.426 36.995 L 41.324 34.292 L 42.415 31.624 L 43.698 29.012 L 45.174 26.474 L 46.84 24.029 L 48.69 21.696 L 50.718 19.494 L 52.916 17.441 L 55.271 15.553 L 57.773 13.847 L 60.406 12.338 L 63.155 11.037 L 66.002 9.957 L 68.93 9.106 L 71.919 8.494 L 74.949 8.124 Z" class="cut cam-outline" data-cam-key="pear" data-base-radius-mm="40" data-eccentricity-mm="20" data-cam-lobes="1" data-profile-harmonic="0.5" data-rise-deg="150" data-high-dwell-deg="45" data-return-deg="75" data-physical-cam-preset="pear" data-profile-source="automataii.domain.mechanisms.cam.profile.build_pear_cam_profile_from_params" data-profile-sample-count="144"/>
  </g>
  <g transform="translate(112 116)">
  <circle cx="78" cy="78" r="3" class="drill axle-hole" data-hole-role="axle" data-hole-diameter-mm="6"/>
  </g>
  <g transform="translate(112 116)">
  <line x1="78" y1="78" x2="118" y2="78" class="score cam-base-radius"/>
  </g>
  <g transform="translate(112 116)">
  <circle cx="78" cy="78" r="40" class="score cam-base-circle"/>
  </g>
  <g transform="translate(112 116)">
  <circle cx="78" cy="58" r="3" class="drill linkage-hole bracket-hole crank-hole handle-hole" data-hole-role="linkage-bracket-crank-handle" data-attachment-kinds="linkage bracket crank handle" data-hole-diameter-mm="6" data-hole-index="0" data-hole-x-offset-mm="0" data-hole-y-offset-mm="-20"/>
  </g>
  <g transform="translate(112 116)">
  <circle cx="58" cy="78" r="3" class="drill linkage-hole bracket-hole crank-hole handle-hole" data-hole-role="linkage-bracket-crank-handle" data-attachment-kinds="linkage bracket crank handle" data-hole-diameter-mm="6" data-hole-index="1" data-hole-x-offset-mm="-20" data-hole-y-offset-mm="0"/>
  </g>
  <g transform="translate(112 116)">
  <circle cx="98" cy="78" r="3" class="drill linkage-hole bracket-hole crank-hole handle-hole" data-hole-role="linkage-bracket-crank-handle" data-attachment-kinds="linkage bracket crank handle" data-hole-diameter-mm="6" data-hole-index="2" data-hole-x-offset-mm="20" data-hole-y-offset-mm="0"/>
  </g>
  <g transform="translate(112 116)">
  <circle cx="78" cy="98" r="3" class="drill linkage-hole bracket-hole crank-hole handle-hole" data-hole-role="linkage-bracket-crank-handle" data-attachment-kinds="linkage bracket crank handle" data-hole-diameter-mm="6" data-hole-index="3" data-hole-x-offset-mm="0" data-hole-y-offset-mm="20"/>
  </g>
  <g transform="translate(112 116)">
  <circle cx="58" cy="58" r="3" class="drill linkage-hole bracket-hole crank-hole handle-hole" data-hole-role="linkage-bracket-crank-handle" data-attachment-kinds="linkage bracket crank handle" data-hole-diameter-mm="6" data-hole-index="4" data-hole-x-offset-mm="-20" data-hole-y-offset-mm="-20"/>
  </g>
  <g transform="translate(112 116)">
  <circle cx="98" cy="58" r="3" class="drill linkage-hole bracket-hole crank-hole handle-hole" data-hole-role="linkage-bracket-crank-handle" data-attachment-kinds="linkage bracket crank handle" data-hole-diameter-mm="6" data-hole-index="5" data-hole-x-offset-mm="20" data-hole-y-offset-mm="-20"/>
  </g>
  <g transform="translate(112 116)">
  <circle cx="78" cy="38" r="3" class="drill linkage-hole bracket-hole crank-hole handle-hole" data-hole-role="linkage-bracket-crank-handle" data-attachment-kinds="linkage bracket crank handle" data-hole-diameter-mm="6" data-hole-index="6" data-hole-x-offset-mm="0" data-hole-y-offset-mm="-40"/>
  </g>
  <g transform="translate(112 116)">
  <circle cx="58" cy="38" r="3" class="drill linkage-hole bracket-hole crank-hole handle-hole" data-hole-role="linkage-bracket-crank-handle" data-attachment-kinds="linkage bracket crank handle" data-hole-diameter-mm="6" data-hole-index="7" data-hole-x-offset-mm="-20" data-hole-y-offset-mm="-40"/>
  </g>
  <g transform="translate(112 116)">
  <circle cx="98" cy="38" r="3" class="drill linkage-hole bracket-hole crank-hole handle-hole" data-hole-role="linkage-bracket-crank-handle" data-attachment-kinds="linkage bracket crank handle" data-hole-diameter-mm="6" data-hole-index="8" data-hole-x-offset-mm="20" data-hole-y-offset-mm="-40"/>
  </g>
  <g transform="translate(112 116)">
  <circle cx="78" cy="18" r="3" class="drill linkage-hole bracket-hole crank-hole handle-hole" data-hole-role="linkage-bracket-crank-handle" data-attachment-kinds="linkage bracket crank handle" data-hole-diameter-mm="6" data-hole-index="9" data-hole-x-offset-mm="0" data-hole-y-offset-mm="-60"/>
  </g>
</svg>
