<?xml version="1.0" encoding="UTF-8"?>
<svg xmlns="http://www.w3.org/2000/svg" version="1.1"
     width="420mm" height="320mm"
     viewBox="0 0 420 320"
     data-profile-key="motionsmith-ms4n"
     data-grid-pitch-mm="20"
     data-hole-diameter-mm="6">
  <title>Automataii fabrication sheet 03-cam-set: Cam set</title>
  <desc>Workshop sheet containing: cams. Nominal holes are 6 mm.</desc>
  <defs>
    <style>
      .cut { fill: none; stroke: #ed1c24; stroke-width: 0.25; stroke-miterlimit: 10; }
      .drill { fill: none; stroke: #0071bc; stroke-width: 0.2; stroke-miterlimit: 10; }
      .score { fill: none; stroke: #777777; stroke-width: 0.15; stroke-dasharray: 2 1; }
      .label { fill: #333333; font-family: Arial, Helvetica, sans-serif; font-size: 4px; }
      .tiny { fill: #333333; font-family: Arial, Helvetica, sans-serif; font-size: 3px; }
      .paper { fill: #ffffff; stroke: none; }
    </style>
  </defs>
  <text x="12" y="12" class="label" text-anchor="start">03 Cam set</text>
  <text x="12" y="18" class="tiny" text-anchor="start">Circle, eccentric, oval, and pear cams</text>
  <g transform="translate(12 24)">
  <path d="M 88 48 L 87.962 49.745 L 87.848 51.486 L 87.658 53.221 L 87.392 54.946 L 87.052 56.658 L 86.637 58.353 L 86.149 60.028 L 85.588 61.681 L 84.955 63.307 L 84.252 64.905 L 83.48 66.47 L 82.641 68 L 81.736 69.492 L 80.766 70.943 L 79.734 72.35 L 78.642 73.712 L 77.491 75.024 L 76.284 76.284 L 75.024 77.491 L 73.712 78.642 L 72.35 79.734 L 70.943 80.766 L 69.492 81.736 L 68 82.641 L 66.47 83.48 L 64.905 84.252 L 63.307 84.955 L 61.681 85.588 L 60.028 86.149 L 58.353 86.637 L 56.658 87.052 L 54.946 87.392 L 53.221 87.658 L 51.486 87.848 L 49.745 87.962 L 48 88 L 46.255 87.962 L 44.514 87.848 L 42.779 87.658 L 41.054 87.392 L 39.342 87.052 L 37.647 86.637 L 35.972 86.149 L 34.319 85.588 L 32.693 84.955 L 31.095 84.252 L 29.53 83.48 L 28 82.641 L 26.508 81.736 L 25.057 80.766 L 23.65 79.734 L 22.288 78.642 L 20.976 77.491 L 19.716 76.284 L 18.509 75.024 L 17.358 73.712 L 16.266 72.35 L 15.234 70.943 L 14.264 69.492 L 13.359 68 L 12.52 66.47 L 11.748 64.905 L 11.045 63.307 L 10.412 61.681 L 9.851 60.028 L 9.363 58.353 L 8.948 56.658 L 8.608 54.946 L 8.342 53.221 L 8.152 51.486 L 8.038 49.745 L 8 48 L 8.038 46.255 L 8.152 44.514 L 8.342 42.779 L 8.608 41.054 L 8.948 39.342 L 9.363 37.647 L 9.851 35.972 L 10.412 34.319 L 11.045 32.693 L 11.748 31.095 L 12.52 29.53 L 13.359 28 L 14.264 26.508 L 15.234 25.057 L 16.266 23.65 L 17.358 22.288 L 18.509 20.976 L 19.716 19.716 L 20.976 18.509 L 22.288 17.358 L 23.65 16.266 L 25.057 15.234 L 26.508 14.264 L 28 13.359 L 29.53 12.52 L 31.095 11.748 L 32.693 11.045 L 34.319 10.412 L 35.972 9.851 L 37.647 9.363 L 39.342 8.948 L 41.054 8.608 L 42.779 8.342 L 44.514 8.152 L 46.255 8.038 L 48 8 L 49.745 8.038 L 51.486 8.152 L 53.221 8.342 L 54.946 8.608 L 56.658 8.948 L 58.353 9.363 L 60.028 9.851 L 61.681 10.412 L 63.307 11.045 L 64.905 11.748 L 66.47 12.52 L 68 13.359 L 69.492 14.264 L 70.943 15.234 L 72.35 16.266 L 73.712 17.358 L 75.024 18.509 L 76.284 19.716 L 77.491 20.976 L 78.642 22.288 L 79.734 23.65 L 80.766 25.057 L 81.736 26.508 L 82.641 28 L 83.48 29.53 L 84.252 31.095 L 84.955 32.693 L 85.588 34.319 L 86.149 35.972 L 86.637 37.647 L 87.052 39.342 L 87.392 41.054 L 87.658 42.779 L 87.848 44.514 L 87.962 46.255 Z" class="cut cam-outline" data-cam-key="circle" data-base-radius-mm="40" data-eccentricity-mm="0"/>
  </g>
  <g transform="translate(12 24)">
  <circle cx="48" cy="48" r="3" class="drill axle-hole" data-hole-role="axle" data-hole-diameter-mm="6"/>
  </g>
  <g transform="translate(12 24)">
  <line x1="48" y1="48" x2="88" y2="48" class="score cam-base-radius"/>
  </g>
  <g transform="translate(12 24)">
  <circle cx="48" cy="48" r="40" class="score cam-base-circle"/>
  </g>
  <g transform="translate(12 24)">
  <circle cx="48" cy="28" r="3" class="drill linkage-hole bracket-hole crank-hole handle-hole" data-hole-role="linkage-bracket-crank-handle" data-attachment-kinds="linkage bracket crank handle" data-hole-diameter-mm="6" data-hole-index="0" data-hole-x-offset-mm="0" data-hole-y-offset-mm="-20"/>
  </g>
  <g transform="translate(12 24)">
  <circle cx="28" cy="48" r="3" class="drill linkage-hole bracket-hole crank-hole handle-hole" data-hole-role="linkage-bracket-crank-handle" data-attachment-kinds="linkage bracket crank handle" data-hole-diameter-mm="6" data-hole-index="1" data-hole-x-offset-mm="-20" data-hole-y-offset-mm="0"/>
  </g>
  <g transform="translate(12 24)">
  <circle cx="68" cy="48" r="3" class="drill linkage-hole bracket-hole crank-hole handle-hole" data-hole-role="linkage-bracket-crank-handle" data-attachment-kinds="linkage bracket crank handle" data-hole-diameter-mm="6" data-hole-index="2" data-hole-x-offset-mm="20" data-hole-y-offset-mm="0"/>
  </g>
  <g transform="translate(12 24)">
  <circle cx="48" cy="68" r="3" class="drill linkage-hole bracket-hole crank-hole handle-hole" data-hole-role="linkage-bracket-crank-handle" data-attachment-kinds="linkage bracket crank handle" data-hole-diameter-mm="6" data-hole-index="3" data-hole-x-offset-mm="0" data-hole-y-offset-mm="20"/>
  </g>
  <g transform="translate(12 24)">
  <circle cx="28" cy="28" r="3" class="drill linkage-hole bracket-hole crank-hole handle-hole" data-hole-role="linkage-bracket-crank-handle" data-attachment-kinds="linkage bracket crank handle" data-hole-diameter-mm="6" data-hole-index="4" data-hole-x-offset-mm="-20" data-hole-y-offset-mm="-20"/>
  </g>
  <g transform="translate(12 24)">
  <circle cx="68" cy="28" r="3" class="drill linkage-hole bracket-hole crank-hole handle-hole" data-hole-role="linkage-bracket-crank-handle" data-attachment-kinds="linkage bracket crank handle" data-hole-diameter-mm="6" data-hole-index="5" data-hole-x-offset-mm="20" data-hole-y-offset-mm="-20"/>
  </g>
  <g transform="translate(12 24)">
  <circle cx="28" cy="68" r="3" class="drill linkage-hole bracket-hole crank-hole handle-hole" data-hole-role="linkage-bracket-crank-handle" data-attachment-kinds="linkage bracket crank handle" data-hole-diameter-mm="6" data-hole-index="6" data-hole-x-offset-mm="-20" data-hole-y-offset-mm="20"/>
  </g>
  <g transform="translate(12 24)">
  <circle cx="68" cy="68" r="3" class="drill linkage-hole bracket-hole crank-hole handle-hole" data-hole-role="linkage-bracket-crank-handle" data-attachment-kinds="linkage bracket crank handle" data-hole-diameter-mm="6" data-hole-index="7" data-hole-x-offset-mm="20" data-hole-y-offset-mm="20"/>
  </g>
  <g transform="translate(112 24)">
  <path d="M 118 63 L 117.941 65.399 L 117.762 67.791 L 117.466 70.171 L 117.052 72.531 L 116.523 74.866 L 115.879 77.169 L 115.123 79.434 L 114.258 81.656 L 113.286 83.829 L 112.21 85.947 L 111.034 88.005 L 109.761 89.998 L 108.396 91.92 L 106.942 93.769 L 105.405 95.538 L 103.788 97.225 L 102.098 98.826 L 100.338 100.338 L 98.514 101.756 L 96.631 103.08 L 94.696 104.307 L 92.712 105.434 L 90.687 106.46 L 88.625 107.384 L 86.532 108.205 L 84.414 108.922 L 82.276 109.536 L 80.123 110.046 L 77.962 110.452 L 75.796 110.756 L 73.632 110.959 L 71.474 111.061 L 69.328 111.064 L 67.197 110.97 L 65.086 110.782 L 63 110.5 L 60.942 110.128 L 58.917 109.668 L 56.928 109.123 L 54.978 108.496 L 53.07 107.789 L 51.209 107.006 L 49.395 106.151 L 47.631 105.225 L 45.921 104.233 L 44.265 103.177 L 42.666 102.061 L 41.125 100.889 L 39.643 99.662 L 38.223 98.386 L 36.863 97.062 L 35.566 95.694 L 34.333 94.285 L 33.162 92.838 L 32.056 91.355 L 31.014 89.839 L 30.036 88.294 L 29.123 86.721 L 28.274 85.123 L 27.489 83.502 L 26.768 81.861 L 26.111 80.202 L 25.517 78.526 L 24.987 76.836 L 24.52 75.133 L 24.116 73.419 L 23.775 71.696 L 23.495 69.966 L 23.279 68.229 L 23.124 66.489 L 23.031 64.745 L 23 63 L 23.031 61.255 L 23.124 59.511 L 23.279 57.771 L 23.495 56.034 L 23.775 54.304 L 24.116 52.581 L 24.52 50.867 L 24.987 49.164 L 25.517 47.474 L 26.111 45.798 L 26.768 44.139 L 27.489 42.498 L 28.274 40.877 L 29.123 39.279 L 30.036 37.706 L 31.014 36.161 L 32.056 34.645 L 33.162 33.162 L 34.333 31.715 L 35.566 30.306 L 36.863 28.938 L 38.223 27.614 L 39.643 26.338 L 41.125 25.111 L 42.666 23.939 L 44.265 22.823 L 45.921 21.767 L 47.631 20.775 L 49.395 19.849 L 51.209 18.994 L 53.07 18.211 L 54.978 17.504 L 56.928 16.877 L 58.917 16.332 L 60.942 15.872 L 63 15.5 L 65.086 15.218 L 67.197 15.03 L 69.328 14.936 L 71.474 14.939 L 73.632 15.041 L 75.796 15.244 L 77.962 15.548 L 80.123 15.954 L 82.276 16.464 L 84.414 17.078 L 86.532 17.795 L 88.625 18.616 L 90.687 19.54 L 92.712 20.566 L 94.696 21.693 L 96.631 22.92 L 98.514 24.244 L 100.338 25.662 L 102.098 27.174 L 103.788 28.775 L 105.405 30.462 L 106.942 32.231 L 108.396 34.08 L 109.761 36.002 L 111.034 37.995 L 112.21 40.053 L 113.286 42.171 L 114.258 44.344 L 115.123 46.566 L 115.879 48.831 L 116.523 51.134 L 117.052 53.469 L 117.466 55.829 L 117.762 58.209 L 117.941 60.601 Z" class="cut cam-outline" data-cam-key="eccentric" data-base-radius-mm="40" data-eccentricity-mm="15"/>
  </g>
  <g transform="translate(112 24)">
  <circle cx="63" cy="63" r="3" class="drill axle-hole" data-hole-role="axle" data-hole-diameter-mm="6"/>
  </g>
  <g transform="translate(112 24)">
  <line x1="63" y1="63" x2="103" y2="63" class="score cam-base-radius"/>
  </g>
  <g transform="translate(112 24)">
  <circle cx="63" cy="63" r="40" class="score cam-base-circle"/>
  </g>
  <g transform="translate(112 24)">
  <circle cx="63" cy="43" r="3" class="drill linkage-hole bracket-hole crank-hole handle-hole" data-hole-role="linkage-bracket-crank-handle" data-attachment-kinds="linkage bracket crank handle" data-hole-diameter-mm="6" data-hole-index="0" data-hole-x-offset-mm="0" data-hole-y-offset-mm="-20"/>
  </g>
  <g transform="translate(112 24)">
  <circle cx="43" cy="63" r="3" class="drill linkage-hole bracket-hole crank-hole handle-hole" data-hole-role="linkage-bracket-crank-handle" data-attachment-kinds="linkage bracket crank handle" data-hole-diameter-mm="6" data-hole-index="1" data-hole-x-offset-mm="-20" data-hole-y-offset-mm="0"/>
  </g>
  <g transform="translate(112 24)">
  <circle cx="83" cy="63" r="3" class="drill linkage-hole bracket-hole crank-hole handle-hole" data-hole-role="linkage-bracket-crank-handle" data-attachment-kinds="linkage bracket crank handle" data-hole-diameter-mm="6" data-hole-index="2" data-hole-x-offset-mm="20" data-hole-y-offset-mm="0"/>
  </g>
  <g transform="translate(112 24)">
  <circle cx="63" cy="83" r="3" class="drill linkage-hole bracket-hole crank-hole handle-hole" data-hole-role="linkage-bracket-crank-handle" data-attachment-kinds="linkage bracket crank handle" data-hole-diameter-mm="6" data-hole-index="3" data-hole-x-offset-mm="0" data-hole-y-offset-mm="20"/>
  </g>
  <g transform="translate(112 24)">
  <circle cx="43" cy="43" r="3" class="drill linkage-hole bracket-hole crank-hole handle-hole" data-hole-role="linkage-bracket-crank-handle" data-attachment-kinds="linkage bracket crank handle" data-hole-diameter-mm="6" data-hole-index="4" data-hole-x-offset-mm="-20" data-hole-y-offset-mm="-20"/>
  </g>
  <g transform="translate(112 24)">
  <circle cx="83" cy="43" r="3" class="drill linkage-hole bracket-hole crank-hole handle-hole" data-hole-role="linkage-bracket-crank-handle" data-attachment-kinds="linkage bracket crank handle" data-hole-diameter-mm="6" data-hole-index="5" data-hole-x-offset-mm="20" data-hole-y-offset-mm="-20"/>
  </g>
  <g transform="translate(112 24)">
  <circle cx="43" cy="83" r="3" class="drill linkage-hole bracket-hole crank-hole handle-hole" data-hole-role="linkage-bracket-crank-handle" data-attachment-kinds="linkage bracket crank handle" data-hole-diameter-mm="6" data-hole-index="6" data-hole-x-offset-mm="-20" data-hole-y-offset-mm="20"/>
  </g>
  <g transform="translate(112 24)">
  <circle cx="83" cy="83" r="3" class="drill linkage-hole bracket-hole crank-hole handle-hole" data-hole-role="linkage-bracket-crank-handle" data-attachment-kinds="linkage bracket crank handle" data-hole-diameter-mm="6" data-hole-index="7" data-hole-x-offset-mm="20" data-hole-y-offset-mm="20"/>
  </g>
  <g transform="translate(112 24)">
  <circle cx="63" cy="23" r="3" class="drill linkage-hole bracket-hole crank-hole handle-hole" data-hole-role="linkage-bracket-crank-handle" data-attachment-kinds="linkage bracket crank handle" data-hole-diameter-mm="6" data-hole-index="8" data-hole-x-offset-mm="0" data-hole-y-offset-mm="-40"/>
  </g>
  <g transform="translate(112 24)">
  <circle cx="103" cy="63" r="3" class="drill linkage-hole bracket-hole crank-hole handle-hole" data-hole-role="linkage-bracket-crank-handle" data-attachment-kinds="linkage bracket crank handle" data-hole-diameter-mm="6" data-hole-index="9" data-hole-x-offset-mm="40" data-hole-y-offset-mm="0"/>
  </g>
  <g transform="translate(112 24)">
  <circle cx="63" cy="103" r="3" class="drill linkage-hole bracket-hole crank-hole handle-hole" data-hole-role="linkage-bracket-crank-handle" data-attachment-kinds="linkage bracket crank handle" data-hole-diameter-mm="6" data-hole-index="10" data-hole-x-offset-mm="0" data-hole-y-offset-mm="40"/>
  </g>
  <g transform="translate(112 24)">
  <circle cx="103" cy="43" r="3" class="drill linkage-hole bracket-hole crank-hole handle-hole" data-hole-role="linkage-bracket-crank-handle" data-attachment-kinds="linkage bracket crank handle" data-hole-diameter-mm="6" data-hole-index="11" data-hole-x-offset-mm="40" data-hole-y-offset-mm="-20"/>
  </g>
  <g transform="translate(112 24)">
  <circle cx="103" cy="83" r="3" class="drill linkage-hole bracket-hole crank-hole handle-hole" data-hole-role="linkage-bracket-crank-handle" data-attachment-kinds="linkage bracket crank handle" data-hole-diameter-mm="6" data-hole-index="12" data-hole-x-offset-mm="40" data-hole-y-offset-mm="20"/>
  </g>
  <g transform="translate(12 116)">
  <path d="M 107.4 57.7 L 107.323 59.867 L 107.092 62.021 L 106.71 64.152 L 106.18 66.248 L 105.505 68.298 L 104.692 70.292 L 103.748 72.219 L 102.678 74.071 L 101.493 75.84 L 100.2 77.518 L 98.811 79.101 L 97.334 80.583 L 95.78 81.96 L 94.161 83.23 L 92.486 84.392 L 90.767 85.446 L 89.013 86.393 L 87.234 87.234 L 85.441 87.974 L 83.641 88.615 L 81.843 89.163 L 80.053 89.623 L 78.279 90.002 L 76.525 90.306 L 74.796 90.541 L 73.095 90.715 L 71.425 90.835 L 69.787 90.908 L 68.181 90.941 L 66.606 90.939 L 65.062 90.909 L 63.546 90.857 L 62.056 90.786 L 60.587 90.701 L 59.137 90.605 L 57.7 90.5 L 56.273 90.387 L 54.851 90.267 L 53.429 90.139 L 52.004 90.002 L 50.572 89.853 L 49.129 89.689 L 47.671 89.507 L 46.198 89.301 L 44.707 89.068 L 43.198 88.8 L 41.67 88.493 L 40.125 88.141 L 38.565 87.736 L 36.992 87.274 L 35.41 86.748 L 33.825 86.153 L 32.241 85.483 L 30.666 84.734 L 29.105 83.902 L 27.568 82.984 L 26.061 81.977 L 24.594 80.881 L 23.176 79.694 L 21.816 78.417 L 20.523 77.053 L 19.307 75.603 L 18.175 74.072 L 17.137 72.464 L 16.2 70.785 L 15.373 69.042 L 14.66 67.242 L 14.069 65.393 L 13.604 63.505 L 13.27 61.587 L 13.068 59.649 L 13 57.7 L 13.068 55.751 L 13.27 53.813 L 13.604 51.895 L 14.069 50.007 L 14.66 48.158 L 15.373 46.358 L 16.2 44.615 L 17.137 42.936 L 18.175 41.328 L 19.307 39.797 L 20.523 38.347 L 21.816 36.983 L 23.176 35.706 L 24.594 34.519 L 26.061 33.423 L 27.568 32.416 L 29.105 31.498 L 30.666 30.666 L 32.241 29.917 L 33.825 29.247 L 35.41 28.652 L 36.992 28.126 L 38.565 27.664 L 40.125 27.259 L 41.67 26.907 L 43.198 26.6 L 44.707 26.332 L 46.198 26.099 L 47.671 25.893 L 49.129 25.711 L 50.572 25.547 L 52.004 25.398 L 53.429 25.261 L 54.851 25.133 L 56.273 25.013 L 57.7 24.9 L 59.137 24.795 L 60.587 24.699 L 62.056 24.614 L 63.546 24.543 L 65.062 24.491 L 66.606 24.461 L 68.181 24.459 L 69.787 24.492 L 71.425 24.565 L 73.095 24.685 L 74.796 24.859 L 76.525 25.094 L 78.279 25.398 L 80.053 25.777 L 81.843 26.237 L 83.641 26.785 L 85.441 27.426 L 87.234 28.166 L 89.013 29.007 L 90.767 29.954 L 92.486 31.008 L 94.161 32.17 L 95.78 33.44 L 97.334 34.817 L 98.811 36.299 L 100.2 37.882 L 101.493 39.56 L 102.678 41.329 L 103.748 43.181 L 104.692 45.108 L 105.505 47.102 L 106.18 49.152 L 106.71 51.248 L 107.092 53.379 L 107.323 55.533 Z" class="cut cam-outline" data-cam-key="oval" data-base-radius-mm="40" data-eccentricity-mm="10"/>
  </g>
  <g transform="translate(12 116)">
  <circle cx="57.7" cy="57.7" r="3" class="drill axle-hole" data-hole-role="axle" data-hole-diameter-mm="6"/>
  </g>
  <g transform="translate(12 116)">
  <line x1="57.7" y1="57.7" x2="97.7" y2="57.7" class="score cam-base-radius"/>
  </g>
  <g transform="translate(12 116)">
  <circle cx="57.7" cy="57.7" r="40" class="score cam-base-circle"/>
  </g>
  <g transform="translate(12 116)">
  <circle cx="57.7" cy="37.7" r="3" class="drill linkage-hole bracket-hole crank-hole handle-hole" data-hole-role="linkage-bracket-crank-handle" data-attachment-kinds="linkage bracket crank handle" data-hole-diameter-mm="6" data-hole-index="0" data-hole-x-offset-mm="0" data-hole-y-offset-mm="-20"/>
  </g>
  <g transform="translate(12 116)">
  <circle cx="37.7" cy="57.7" r="3" class="drill linkage-hole bracket-hole crank-hole handle-hole" data-hole-role="linkage-bracket-crank-handle" data-attachment-kinds="linkage bracket crank handle" data-hole-diameter-mm="6" data-hole-index="1" data-hole-x-offset-mm="-20" data-hole-y-offset-mm="0"/>
  </g>
  <g transform="translate(12 116)">
  <circle cx="77.7" cy="57.7" r="3" class="drill linkage-hole bracket-hole crank-hole handle-hole" data-hole-role="linkage-bracket-crank-handle" data-attachment-kinds="linkage bracket crank handle" data-hole-diameter-mm="6" data-hole-index="2" data-hole-x-offset-mm="20" data-hole-y-offset-mm="0"/>
  </g>
  <g transform="translate(12 116)">
  <circle cx="57.7" cy="77.7" r="3" class="drill linkage-hole bracket-hole crank-hole handle-hole" data-hole-role="linkage-bracket-crank-handle" data-attachment-kinds="linkage bracket crank handle" data-hole-diameter-mm="6" data-hole-index="3" data-hole-x-offset-mm="0" data-hole-y-offset-mm="20"/>
  </g>
  <g transform="translate(12 116)">
  <circle cx="37.7" cy="37.7" r="3" class="drill linkage-hole bracket-hole crank-hole handle-hole" data-hole-role="linkage-bracket-crank-handle" data-attachment-kinds="linkage bracket crank handle" data-hole-diameter-mm="6" data-hole-index="4" data-hole-x-offset-mm="-20" data-hole-y-offset-mm="-20"/>
  </g>
  <g transform="translate(12 116)">
  <circle cx="77.7" cy="37.7" r="3" class="drill linkage-hole bracket-hole crank-hole handle-hole" data-hole-role="linkage-bracket-crank-handle" data-attachment-kinds="linkage bracket crank handle" data-hole-diameter-mm="6" data-hole-index="5" data-hole-x-offset-mm="20" data-hole-y-offset-mm="-20"/>
  </g>
  <g transform="translate(12 116)">
  <circle cx="37.7" cy="77.7" r="3" class="drill linkage-hole bracket-hole crank-hole handle-hole" data-hole-role="linkage-bracket-crank-handle" data-attachment-kinds="linkage bracket crank handle" data-hole-diameter-mm="6" data-hole-index="6" data-hole-x-offset-mm="-20" data-hole-y-offset-mm="20"/>
  </g>
  <g transform="translate(12 116)">
  <circle cx="77.7" cy="77.7" r="3" class="drill linkage-hole bracket-hole crank-hole handle-hole" data-hole-role="linkage-bracket-crank-handle" data-attachment-kinds="linkage bracket crank handle" data-hole-diameter-mm="6" data-hole-index="7" data-hole-x-offset-mm="20" data-hole-y-offset-mm="20"/>
  </g>
  <g transform="translate(12 116)">
  <circle cx="97.7" cy="57.7" r="3" class="drill linkage-hole bracket-hole crank-hole handle-hole" data-hole-role="linkage-bracket-crank-handle" data-attachment-kinds="linkage bracket crank handle" data-hole-diameter-mm="6" data-hole-index="8" data-hole-x-offset-mm="40" data-hole-y-offset-mm="0"/>
  </g>
  <g transform="translate(112 116)">
  <path d="M 103.743 57.973 L 103.86 59.977 L 103.902 61.991 L 103.865 64.015 L 103.748 66.045 L 103.551 68.077 L 103.271 70.111 L 102.906 72.14 L 102.454 74.163 L 101.915 76.174 L 101.286 78.17 L 100.566 80.145 L 99.753 82.095 L 98.848 84.013 L 97.849 85.895 L 96.757 87.733 L 95.572 89.522 L 94.294 91.255 L 92.925 92.925 L 91.468 94.526 L 89.924 96.05 L 88.297 97.491 L 86.59 98.843 L 84.81 100.098 L 82.96 101.251 L 81.046 102.296 L 79.075 103.227 L 77.054 104.039 L 74.991 104.729 L 72.893 105.292 L 70.768 105.726 L 68.627 106.028 L 66.476 106.196 L 64.326 106.231 L 62.186 106.132 L 60.066 105.901 L 57.973 105.539 L 55.918 105.05 L 53.908 104.436 L 51.953 103.703 L 50.059 102.855 L 48.235 101.899 L 46.487 100.841 L 44.82 99.689 L 43.241 98.449 L 41.753 97.131 L 40.361 95.743 L 39.066 94.293 L 37.871 92.79 L 36.777 91.244 L 35.784 89.663 L 34.891 88.055 L 34.096 86.429 L 33.397 84.794 L 32.791 83.156 L 32.273 81.523 L 31.84 79.901 L 31.487 78.297 L 31.208 76.715 L 30.996 75.159 L 30.847 73.634 L 30.754 72.143 L 30.71 70.686 L 30.709 69.266 L 30.745 67.883 L 30.813 66.537 L 30.906 65.226 L 31.019 63.949 L 31.148 62.703 L 31.287 61.486 L 31.435 60.295 L 31.588 59.125 L 31.743 57.973 L 31.898 56.835 L 32.054 55.706 L 32.21 54.581 L 32.367 53.458 L 32.526 52.332 L 32.689 51.198 L 32.858 50.054 L 33.038 48.897 L 33.231 47.724 L 33.442 46.534 L 33.675 45.324 L 33.935 44.095 L 34.228 42.846 L 34.559 41.578 L 34.932 40.293 L 35.352 38.992 L 35.826 37.679 L 36.357 36.357 L 36.949 35.03 L 37.608 33.702 L 38.335 32.38 L 39.135 31.069 L 40.009 29.775 L 40.96 28.505 L 41.987 27.265 L 43.093 26.062 L 44.275 24.903 L 45.533 23.795 L 46.866 22.745 L 48.27 21.76 L 49.742 20.845 L 51.279 20.008 L 52.876 19.254 L 54.527 18.588 L 56.229 18.015 L 57.973 17.539 L 59.755 17.164 L 61.567 16.892 L 63.403 16.726 L 65.256 16.667 L 67.119 16.717 L 68.985 16.875 L 70.847 17.141 L 72.699 17.515 L 74.533 17.995 L 76.343 18.578 L 78.125 19.262 L 79.871 20.044 L 81.578 20.921 L 83.239 21.889 L 84.852 22.944 L 86.412 24.081 L 87.915 25.297 L 89.359 26.587 L 90.741 27.947 L 92.06 29.371 L 93.313 30.856 L 94.498 32.398 L 95.616 33.992 L 96.665 35.634 L 97.644 37.322 L 98.554 39.05 L 99.393 40.816 L 100.162 42.618 L 100.86 44.451 L 101.488 46.313 L 102.044 48.203 L 102.529 50.117 L 102.942 52.053 L 103.282 54.009 L 103.55 55.983 Z" class="cut cam-outline" data-cam-key="pear" data-base-radius-mm="40" data-eccentricity-mm="20"/>
  </g>
  <g transform="translate(112 116)">
  <circle cx="57.973" cy="57.973" r="3" class="drill axle-hole" data-hole-role="axle" data-hole-diameter-mm="6"/>
  </g>
  <g transform="translate(112 116)">
  <line x1="57.973" y1="57.973" x2="97.973" y2="57.973" class="score cam-base-radius"/>
  </g>
  <g transform="translate(112 116)">
  <circle cx="57.973" cy="57.973" r="40" class="score cam-base-circle"/>
  </g>
  <g transform="translate(112 116)">
  <circle cx="57.973" cy="37.973" r="3" class="drill linkage-hole bracket-hole crank-hole handle-hole" data-hole-role="linkage-bracket-crank-handle" data-attachment-kinds="linkage bracket crank handle" data-hole-diameter-mm="6" data-hole-index="0" data-hole-x-offset-mm="0" data-hole-y-offset-mm="-20"/>
  </g>
  <g transform="translate(112 116)">
  <circle cx="77.973" cy="57.973" r="3" class="drill linkage-hole bracket-hole crank-hole handle-hole" data-hole-role="linkage-bracket-crank-handle" data-attachment-kinds="linkage bracket crank handle" data-hole-diameter-mm="6" data-hole-index="1" data-hole-x-offset-mm="20" data-hole-y-offset-mm="0"/>
  </g>
  <g transform="translate(112 116)">
  <circle cx="57.973" cy="77.973" r="3" class="drill linkage-hole bracket-hole crank-hole handle-hole" data-hole-role="linkage-bracket-crank-handle" data-attachment-kinds="linkage bracket crank handle" data-hole-diameter-mm="6" data-hole-index="2" data-hole-x-offset-mm="0" data-hole-y-offset-mm="20"/>
  </g>
  <g transform="translate(112 116)">
  <circle cx="77.973" cy="37.973" r="3" class="drill linkage-hole bracket-hole crank-hole handle-hole" data-hole-role="linkage-bracket-crank-handle" data-attachment-kinds="linkage bracket crank handle" data-hole-diameter-mm="6" data-hole-index="3" data-hole-x-offset-mm="20" data-hole-y-offset-mm="-20"/>
  </g>
  <g transform="translate(112 116)">
  <circle cx="37.973" cy="77.973" r="3" class="drill linkage-hole bracket-hole crank-hole handle-hole" data-hole-role="linkage-bracket-crank-handle" data-attachment-kinds="linkage bracket crank handle" data-hole-diameter-mm="6" data-hole-index="4" data-hole-x-offset-mm="-20" data-hole-y-offset-mm="20"/>
  </g>
  <g transform="translate(112 116)">
  <circle cx="77.973" cy="77.973" r="3" class="drill linkage-hole bracket-hole crank-hole handle-hole" data-hole-role="linkage-bracket-crank-handle" data-attachment-kinds="linkage bracket crank handle" data-hole-diameter-mm="6" data-hole-index="5" data-hole-x-offset-mm="20" data-hole-y-offset-mm="20"/>
  </g>
  <g transform="translate(112 116)">
  <circle cx="57.973" cy="97.973" r="3" class="drill linkage-hole bracket-hole crank-hole handle-hole" data-hole-role="linkage-bracket-crank-handle" data-attachment-kinds="linkage bracket crank handle" data-hole-diameter-mm="6" data-hole-index="6" data-hole-x-offset-mm="0" data-hole-y-offset-mm="40"/>
  </g>
</svg>
