<?xml version="1.0" encoding="UTF-8"?>
<svg xmlns="http://www.w3.org/2000/svg" version="1.1"
     width="420mm" height="320mm"
     viewBox="0 0 420 320"
     data-profile-key="motionsmith-ms4n"
     data-grid-pitch-mm="20.4"
     data-hole-diameter-mm="5.0">
  <title>Automataii fabrication sheet 03-cam-set: Cam set</title>
  <desc>Workshop sheet containing: cams. Nominal holes are 5 mm.</desc>
  <defs>
    <style>
      .cut { fill: none; stroke: #ed1c24; stroke-width: 0.25; stroke-miterlimit: 10; }
      .drill { fill: none; stroke: #0071bc; stroke-width: 0.2; stroke-miterlimit: 10; }
      .score { fill: none; stroke: #777777; stroke-width: 0.15; stroke-dasharray: 2 1; }
      .label { fill: #333333; font-family: Arial, Helvetica, sans-serif; font-size: 4px; }
      .tiny { fill: #333333; font-family: Arial, Helvetica, sans-serif; font-size: 3px; }
      .paper { fill: #ffffff; stroke: none; }
    </style>
  </defs>
  <text x="12" y="12" class="label" text-anchor="start">03 Cam set</text>
  <text x="12" y="18" class="tiny" text-anchor="start">Circle, eccentric, oval, and pear cams</text>
  <g transform="translate(12 24)">
  <path d="M 89.6 48.8 L 89.561 50.58 L 89.445 52.356 L 89.251 54.125 L 88.98 55.885 L 88.633 57.631 L 88.21 59.36 L 87.712 61.069 L 87.139 62.754 L 86.494 64.413 L 85.777 66.043 L 84.99 67.639 L 84.134 69.2 L 83.21 70.722 L 82.221 72.202 L 81.169 73.637 L 80.055 75.026 L 78.881 76.364 L 77.65 77.65 L 76.364 78.881 L 75.026 80.055 L 73.637 81.169 L 72.202 82.221 L 70.722 83.21 L 69.2 84.134 L 67.639 84.99 L 66.043 85.777 L 64.413 86.494 L 62.754 87.139 L 61.069 87.712 L 59.36 88.21 L 57.631 88.633 L 55.885 88.98 L 54.125 89.251 L 52.356 89.445 L 50.58 89.561 L 48.8 89.6 L 47.02 89.561 L 45.244 89.445 L 43.475 89.251 L 41.715 88.98 L 39.969 88.633 L 38.24 88.21 L 36.531 87.712 L 34.846 87.139 L 33.187 86.494 L 31.557 85.777 L 29.961 84.99 L 28.4 84.134 L 26.878 83.21 L 25.398 82.221 L 23.963 81.169 L 22.574 80.055 L 21.236 78.881 L 19.95 77.65 L 18.719 76.364 L 17.545 75.026 L 16.431 73.637 L 15.379 72.202 L 14.39 70.722 L 13.466 69.2 L 12.61 67.639 L 11.823 66.043 L 11.106 64.413 L 10.461 62.754 L 9.888 61.069 L 9.39 59.36 L 8.967 57.631 L 8.62 55.885 L 8.349 54.125 L 8.155 52.356 L 8.039 50.58 L 8 48.8 L 8.039 47.02 L 8.155 45.244 L 8.349 43.475 L 8.62 41.715 L 8.967 39.969 L 9.39 38.24 L 9.888 36.531 L 10.461 34.846 L 11.106 33.187 L 11.823 31.557 L 12.61 29.961 L 13.466 28.4 L 14.39 26.878 L 15.379 25.398 L 16.431 23.963 L 17.545 22.574 L 18.719 21.236 L 19.95 19.95 L 21.236 18.719 L 22.574 17.545 L 23.963 16.431 L 25.398 15.379 L 26.878 14.39 L 28.4 13.466 L 29.961 12.61 L 31.557 11.823 L 33.187 11.106 L 34.846 10.461 L 36.531 9.888 L 38.24 9.39 L 39.969 8.967 L 41.715 8.62 L 43.475 8.349 L 45.244 8.155 L 47.02 8.039 L 48.8 8 L 50.58 8.039 L 52.356 8.155 L 54.125 8.349 L 55.885 8.62 L 57.631 8.967 L 59.36 9.39 L 61.069 9.888 L 62.754 10.461 L 64.413 11.106 L 66.043 11.823 L 67.639 12.61 L 69.2 13.466 L 70.722 14.39 L 72.202 15.379 L 73.637 16.431 L 75.026 17.545 L 76.364 18.719 L 77.65 19.95 L 78.881 21.236 L 80.055 22.574 L 81.169 23.963 L 82.221 25.398 L 83.21 26.878 L 84.134 28.4 L 84.99 29.961 L 85.777 31.557 L 86.494 33.187 L 87.139 34.846 L 87.712 36.531 L 88.21 38.24 L 88.633 39.969 L 88.98 41.715 L 89.251 43.475 L 89.445 45.244 L 89.561 47.02 Z" class="cut cam-outline" data-cam-key="circle" data-base-radius-mm="40.8" data-eccentricity-mm="0"/>
  </g>
  <g transform="translate(12 24)">
  <circle cx="48.8" cy="48.8" r="2.5" class="drill axle-hole" data-hole-role="axle" data-hole-diameter-mm="5.0"/>
  </g>
  <g transform="translate(12 24)">
  <line x1="48.8" y1="48.8" x2="89.6" y2="48.8" class="score cam-base-radius"/>
  </g>
  <g transform="translate(12 24)">
  <circle cx="48.8" cy="48.8" r="40.8" class="score cam-base-circle"/>
  </g>
  <g transform="translate(112 24)">
  <path d="M 120.2 64.1 L 120.139 66.547 L 119.958 68.987 L 119.655 71.414 L 119.233 73.821 L 118.693 76.203 L 118.037 78.552 L 117.266 80.863 L 116.383 83.13 L 115.392 85.346 L 114.294 87.506 L 113.095 89.605 L 111.796 91.638 L 110.404 93.599 L 108.921 95.484 L 107.353 97.289 L 105.704 99.01 L 103.979 100.643 L 102.184 102.184 L 100.324 103.632 L 98.404 104.982 L 96.43 106.233 L 94.407 107.382 L 92.341 108.429 L 90.237 109.371 L 88.103 110.209 L 85.942 110.941 L 83.761 111.567 L 81.566 112.087 L 79.361 112.502 L 77.152 112.812 L 74.945 113.018 L 72.744 113.122 L 70.554 113.125 L 68.381 113.03 L 66.228 112.837 L 64.1 112.55 L 62.001 112.171 L 59.935 111.701 L 57.906 111.146 L 55.917 110.506 L 53.972 109.785 L 52.073 108.987 L 50.223 108.114 L 48.424 107.169 L 46.679 106.157 L 44.99 105.08 L 43.359 103.942 L 41.788 102.746 L 40.276 101.496 L 38.827 100.194 L 37.441 98.843 L 36.118 97.448 L 34.859 96.011 L 33.666 94.534 L 32.537 93.022 L 31.474 91.476 L 30.477 89.9 L 29.545 88.295 L 28.679 86.666 L 27.879 85.012 L 27.143 83.338 L 26.473 81.646 L 25.868 79.936 L 25.327 78.212 L 24.851 76.475 L 24.438 74.727 L 24.09 72.97 L 23.805 71.205 L 23.584 69.434 L 23.426 67.658 L 23.332 65.88 L 23.3 64.1 L 23.332 62.32 L 23.426 60.542 L 23.584 58.766 L 23.805 56.995 L 24.09 55.23 L 24.438 53.473 L 24.851 51.725 L 25.327 49.988 L 25.868 48.264 L 26.473 46.554 L 27.143 44.862 L 27.879 43.188 L 28.679 41.534 L 29.545 39.905 L 30.477 38.3 L 31.474 36.724 L 32.537 35.178 L 33.666 33.666 L 34.859 32.189 L 36.118 30.752 L 37.441 29.357 L 38.827 28.006 L 40.276 26.704 L 41.787 25.454 L 43.359 24.258 L 44.99 23.12 L 46.679 22.043 L 48.424 21.031 L 50.223 20.086 L 52.073 19.213 L 53.972 18.415 L 55.917 17.694 L 57.906 17.054 L 59.935 16.499 L 62.001 16.029 L 64.1 15.65 L 66.228 15.363 L 68.381 15.17 L 70.554 15.075 L 72.744 15.078 L 74.945 15.182 L 77.152 15.388 L 79.361 15.698 L 81.566 16.113 L 83.761 16.633 L 85.942 17.259 L 88.103 17.991 L 90.237 18.829 L 92.341 19.771 L 94.407 20.818 L 96.43 21.967 L 98.404 23.218 L 100.324 24.568 L 102.184 26.016 L 103.979 27.557 L 105.704 29.19 L 107.353 30.911 L 108.921 32.716 L 110.404 34.601 L 111.796 36.562 L 113.095 38.595 L 114.294 40.694 L 115.392 42.854 L 116.383 45.07 L 117.266 47.337 L 118.037 49.648 L 118.693 51.997 L 119.233 54.379 L 119.655 56.786 L 119.958 59.213 L 120.139 61.653 Z" class="cut cam-outline" data-cam-key="eccentric" data-base-radius-mm="40.8" data-eccentricity-mm="15.3"/>
  </g>
  <g transform="translate(112 24)">
  <circle cx="64.1" cy="64.1" r="2.5" class="drill axle-hole" data-hole-role="axle" data-hole-diameter-mm="5.0"/>
  </g>
  <g transform="translate(112 24)">
  <line x1="64.1" y1="64.1" x2="104.9" y2="64.1" class="score cam-base-radius"/>
  </g>
  <g transform="translate(112 24)">
  <circle cx="64.1" cy="64.1" r="40.8" class="score cam-base-circle"/>
  </g>
  <g transform="translate(12 116)">
  <path d="M 109.388 58.694 L 109.309 60.904 L 109.074 63.102 L 108.685 65.275 L 108.144 67.413 L 107.456 69.504 L 106.626 71.537 L 105.662 73.503 L 104.572 75.392 L 103.363 77.196 L 102.044 78.909 L 100.627 80.523 L 99.12 82.034 L 97.536 83.439 L 95.884 84.735 L 94.176 85.92 L 92.422 86.995 L 90.633 87.961 L 88.819 88.819 L 86.99 89.573 L 85.154 90.227 L 83.319 90.786 L 81.494 91.256 L 79.684 91.642 L 77.895 91.952 L 76.132 92.192 L 74.397 92.37 L 72.694 92.492 L 71.023 92.566 L 69.384 92.6 L 67.779 92.598 L 66.204 92.568 L 64.657 92.514 L 63.137 92.442 L 61.639 92.355 L 60.159 92.257 L 58.694 92.15 L 57.238 92.035 L 55.788 91.912 L 54.338 91.782 L 52.884 91.642 L 51.423 91.49 L 49.951 91.323 L 48.465 91.137 L 46.962 90.927 L 45.441 90.689 L 43.902 90.416 L 42.343 90.103 L 40.767 89.744 L 39.176 89.331 L 37.572 88.86 L 35.959 88.323 L 34.342 87.716 L 32.726 87.033 L 31.119 86.269 L 29.527 85.42 L 27.959 84.484 L 26.422 83.457 L 24.926 82.339 L 23.48 81.128 L 22.093 79.826 L 20.774 78.434 L 19.533 76.955 L 18.379 75.393 L 17.32 73.753 L 16.364 72.04 L 15.52 70.262 L 14.794 68.427 L 14.191 66.541 L 13.717 64.615 L 13.375 62.659 L 13.169 60.682 L 13.1 58.694 L 13.169 56.706 L 13.375 54.729 L 13.717 52.773 L 14.191 50.847 L 14.794 48.961 L 15.52 47.126 L 16.364 45.348 L 17.32 43.635 L 18.379 41.995 L 19.533 40.433 L 20.774 38.954 L 22.093 37.562 L 23.48 36.26 L 24.926 35.049 L 26.422 33.931 L 27.959 32.904 L 29.527 31.968 L 31.119 31.119 L 32.726 30.355 L 34.342 29.672 L 35.959 29.065 L 37.572 28.528 L 39.176 28.057 L 40.767 27.644 L 42.343 27.285 L 43.902 26.972 L 45.441 26.699 L 46.962 26.461 L 48.465 26.251 L 49.951 26.065 L 51.423 25.898 L 52.884 25.746 L 54.338 25.606 L 55.788 25.476 L 57.238 25.353 L 58.694 25.238 L 60.159 25.131 L 61.639 25.033 L 63.137 24.946 L 64.657 24.874 L 66.204 24.82 L 67.779 24.79 L 69.384 24.788 L 71.023 24.822 L 72.694 24.896 L 74.397 25.018 L 76.132 25.196 L 77.895 25.436 L 79.684 25.746 L 81.494 26.132 L 83.319 26.602 L 85.154 27.161 L 86.99 27.815 L 88.819 28.569 L 90.633 29.427 L 92.422 30.393 L 94.176 31.468 L 95.884 32.653 L 97.536 33.949 L 99.12 35.354 L 100.627 36.865 L 102.044 38.479 L 103.363 40.192 L 104.572 41.996 L 105.662 43.885 L 106.626 45.851 L 107.456 47.884 L 108.144 49.975 L 108.685 52.113 L 109.074 54.286 L 109.309 56.484 Z" class="cut cam-outline" data-cam-key="oval" data-base-radius-mm="40.8" data-eccentricity-mm="10.2"/>
  </g>
  <g transform="translate(12 116)">
  <circle cx="58.694" cy="58.694" r="2.5" class="drill axle-hole" data-hole-role="axle" data-hole-diameter-mm="5.0"/>
  </g>
  <g transform="translate(12 116)">
  <line x1="58.694" y1="58.694" x2="99.494" y2="58.694" class="score cam-base-radius"/>
  </g>
  <g transform="translate(12 116)">
  <circle cx="58.694" cy="58.694" r="40.8" class="score cam-base-circle"/>
  </g>
  <g transform="translate(112 116)">
  <path d="M 105.657 58.973 L 105.778 61.016 L 105.82 63.071 L 105.782 65.135 L 105.663 67.205 L 105.462 69.279 L 105.176 71.353 L 104.804 73.423 L 104.343 75.486 L 103.793 77.538 L 103.151 79.573 L 102.417 81.588 L 101.588 83.577 L 100.665 85.534 L 99.646 87.453 L 98.532 89.328 L 97.323 91.153 L 96.02 92.92 L 94.624 94.624 L 93.137 96.256 L 91.562 97.811 L 89.903 99.281 L 88.162 100.66 L 86.346 101.94 L 84.459 103.116 L 82.507 104.182 L 80.497 105.131 L 78.435 105.96 L 76.331 106.664 L 74.191 107.238 L 72.024 107.68 L 69.839 107.988 L 67.646 108.16 L 65.453 108.196 L 63.27 108.095 L 61.107 107.859 L 58.973 107.49 L 56.876 106.991 L 54.826 106.365 L 52.832 105.617 L 50.9 104.752 L 49.04 103.777 L 47.256 102.698 L 45.557 101.522 L 43.946 100.258 L 42.428 98.914 L 41.008 97.498 L 39.687 96.019 L 38.469 94.486 L 37.353 92.909 L 36.34 91.296 L 35.428 89.656 L 34.618 87.998 L 33.905 86.329 L 33.286 84.659 L 32.759 82.993 L 32.317 81.339 L 31.957 79.703 L 31.672 78.089 L 31.456 76.502 L 31.304 74.947 L 31.209 73.426 L 31.164 71.94 L 31.163 70.492 L 31.2 69.081 L 31.269 67.707 L 31.364 66.37 L 31.479 65.068 L 31.61 63.797 L 31.753 62.556 L 31.904 61.341 L 32.059 60.148 L 32.217 58.973 L 32.376 57.811 L 32.536 56.66 L 32.695 55.513 L 32.855 54.367 L 33.016 53.218 L 33.182 52.062 L 33.355 50.895 L 33.538 49.715 L 33.735 48.519 L 33.95 47.305 L 34.188 46.071 L 34.454 44.817 L 34.753 43.543 L 35.09 42.25 L 35.47 40.939 L 35.899 39.612 L 36.382 38.272 L 36.924 36.924 L 37.528 35.57 L 38.2 34.217 L 38.942 32.868 L 39.758 31.531 L 40.649 30.211 L 41.619 28.915 L 42.667 27.65 L 43.794 26.423 L 45 25.241 L 46.284 24.111 L 47.643 23.04 L 49.075 22.035 L 50.577 21.102 L 52.144 20.249 L 53.773 19.479 L 55.458 18.8 L 57.193 18.216 L 58.973 17.73 L 60.79 17.347 L 62.639 17.07 L 64.511 16.9 L 66.402 16.84 L 68.302 16.891 L 70.205 17.052 L 72.104 17.324 L 73.993 17.705 L 75.863 18.195 L 77.71 18.789 L 79.527 19.487 L 81.309 20.285 L 83.049 21.18 L 84.744 22.167 L 86.389 23.243 L 87.98 24.403 L 89.513 25.643 L 90.986 26.959 L 92.396 28.345 L 93.741 29.798 L 95.019 31.313 L 96.228 32.886 L 97.368 34.512 L 98.438 36.187 L 99.437 37.908 L 100.365 39.671 L 101.221 41.473 L 102.005 43.31 L 102.717 45.18 L 103.357 47.08 L 103.925 49.007 L 104.419 50.959 L 104.841 52.934 L 105.188 54.929 L 105.461 56.943 Z" class="cut cam-outline" data-cam-key="pear" data-base-radius-mm="40.8" data-eccentricity-mm="20.4"/>
  </g>
  <g transform="translate(112 116)">
  <circle cx="58.973" cy="58.973" r="2.5" class="drill axle-hole" data-hole-role="axle" data-hole-diameter-mm="5.0"/>
  </g>
  <g transform="translate(112 116)">
  <line x1="58.973" y1="58.973" x2="99.773" y2="58.973" class="score cam-base-radius"/>
  </g>
  <g transform="translate(112 116)">
  <circle cx="58.973" cy="58.973" r="40.8" class="score cam-base-circle"/>
  </g>
</svg>
