<?xml version="1.0" encoding="UTF-8"?>
<svg xmlns="http://www.w3.org/2000/svg" version="1.1"
     width="420mm" height="320mm"
     viewBox="0 0 420 320"
     data-profile-key="motionsmith-ms4n"
     data-grid-pitch-mm="20"
     data-hole-diameter-mm="6">
  <title>Automataii fabrication sheet 04-prototype-set-a: Prototype set A</title>
  <desc>Workshop sheet containing: gears, linkages, cams, brackets. Nominal holes are 6 mm.</desc>
  <defs>
    <style>
      .cut { fill: none; stroke: #ed1c24; stroke-width: 0.25; stroke-miterlimit: 10; }
      .drill { fill: none; stroke: #0071bc; stroke-width: 0.2; stroke-miterlimit: 10; }
      .score { fill: none; stroke: #777777; stroke-width: 0.15; stroke-dasharray: 2 1; }
      .label { fill: #333333; font-family: Arial, Helvetica, sans-serif; font-size: 4px; }
      .tiny { fill: #333333; font-family: Arial, Helvetica, sans-serif; font-size: 3px; }
      .paper { fill: #ffffff; stroke: none; }
    </style>
  </defs>
  <text x="12" y="12" class="label" text-anchor="start">04 Prototype set A</text>
  <text x="12" y="18" class="tiny" text-anchor="start">Starter mix: two gears, two linkages, two cams, brackets</text>
  <g transform="translate(10 28)">
  <path d="M 55.9 34.4 L 60.574 37.846 L 59.9 41.233 L 54.263 42.628 L 53.02 45.15 L 55.345 50.471 L 53.068 53.068 L 47.488 51.457 L 45.15 53.02 L 44.503 58.79 L 41.233 59.9 L 37.206 55.716 L 34.4 55.9 L 30.954 60.574 L 27.567 59.9 L 26.172 54.263 L 23.65 53.02 L 18.329 55.345 L 15.732 53.068 L 17.343 47.488 L 15.78 45.15 L 10.01 44.503 L 8.9 41.233 L 13.084 37.206 L 12.9 34.4 L 8.226 30.954 L 8.9 27.567 L 14.537 26.172 L 15.78 23.65 L 13.455 18.329 L 15.732 15.732 L 21.312 17.343 L 23.65 15.78 L 24.297 10.01 L 27.567 8.9 L 31.594 13.084 L 34.4 12.9 L 37.846 8.226 L 41.233 8.9 L 42.628 14.537 L 45.15 15.78 L 50.471 13.455 L 53.068 15.732 L 51.457 21.312 L 53.02 23.65 L 58.79 24.297 L 59.9 27.567 L 55.716 31.594 Z" class="cut gear-outline" data-teeth="12" data-pitch-radius-mm="24" data-root-radius-mm="21.5" data-outer-radius-mm="26.4" data-attachment-hole-pattern="radial"/>
  </g>
  <g transform="translate(10 28)">
  <circle cx="34.4" cy="34.4" r="3" class="drill axle-hole" data-hole-role="axle" data-hole-diameter-mm="6"/>
  </g>
  <g transform="translate(10 28)">
  <circle cx="34.4" cy="34.4" r="24" class="score pitch-circle"/>
  </g>
  <g transform="translate(10 28)">
  <circle cx="48.9" cy="34.4" r="3" class="drill linkage-hole bracket-hole crank-hole handle-hole" data-hole-role="linkage-bracket-crank-handle" data-attachment-kinds="linkage bracket crank handle" data-hole-diameter-mm="6" data-hole-index="0" data-hole-x-offset-mm="14.5" data-hole-y-offset-mm="0" data-hole-radius-mm="14.5"/>
  </g>
  <g transform="translate(10 28)">
  <circle cx="34.4" cy="48.9" r="3" class="drill linkage-hole bracket-hole crank-hole handle-hole" data-hole-role="linkage-bracket-crank-handle" data-attachment-kinds="linkage bracket crank handle" data-hole-diameter-mm="6" data-hole-index="1" data-hole-x-offset-mm="0" data-hole-y-offset-mm="14.5" data-hole-radius-mm="14.5"/>
  </g>
  <g transform="translate(10 28)">
  <circle cx="19.9" cy="34.4" r="3" class="drill linkage-hole bracket-hole crank-hole handle-hole" data-hole-role="linkage-bracket-crank-handle" data-attachment-kinds="linkage bracket crank handle" data-hole-diameter-mm="6" data-hole-index="2" data-hole-x-offset-mm="-14.5" data-hole-y-offset-mm="0" data-hole-radius-mm="14.5"/>
  </g>
  <g transform="translate(10 28)">
  <circle cx="34.4" cy="19.9" r="3" class="drill linkage-hole bracket-hole crank-hole handle-hole" data-hole-role="linkage-bracket-crank-handle" data-attachment-kinds="linkage bracket crank handle" data-hole-diameter-mm="6" data-hole-index="3" data-hole-x-offset-mm="-0" data-hole-y-offset-mm="-14.5" data-hole-radius-mm="14.5"/>
  </g>
  <g transform="translate(112 28)">
  <path d="M 71.9 42.4 L 76.634 45.772 L 76.139 49.111 L 70.63 50.963 L 69.654 53.689 L 72.738 58.616 L 71.003 61.512 L 65.204 61.115 L 63.26 63.26 L 64.223 68.992 L 61.512 71.003 L 56.306 68.417 L 53.689 69.654 L 52.386 75.319 L 49.111 76.139 L 45.292 71.758 L 42.4 71.9 L 39.028 76.634 L 35.689 76.139 L 33.837 70.63 L 31.111 69.654 L 26.184 72.738 L 23.288 71.003 L 23.685 65.204 L 21.54 63.26 L 15.808 64.223 L 13.797 61.512 L 16.383 56.306 L 15.146 53.689 L 9.481 52.386 L 8.661 49.111 L 13.042 45.292 L 12.9 42.4 L 8.166 39.028 L 8.661 35.689 L 14.17 33.837 L 15.146 31.111 L 12.062 26.184 L 13.797 23.288 L 19.596 23.685 L 21.54 21.54 L 20.577 15.808 L 23.288 13.797 L 28.494 16.383 L 31.111 15.146 L 32.414 9.481 L 35.689 8.661 L 39.508 13.042 L 42.4 12.9 L 45.772 8.166 L 49.111 8.661 L 50.963 14.17 L 53.689 15.146 L 58.616 12.062 L 61.512 13.797 L 61.115 19.596 L 63.26 21.54 L 68.992 20.577 L 71.003 23.288 L 68.417 28.494 L 69.654 31.111 L 75.319 32.414 L 76.139 35.689 L 71.758 39.508 Z" class="cut gear-outline" data-teeth="16" data-pitch-radius-mm="32" data-root-radius-mm="29.5" data-outer-radius-mm="34.4" data-attachment-hole-pattern="grid"/>
  </g>
  <g transform="translate(112 28)">
  <circle cx="42.4" cy="42.4" r="3" class="drill axle-hole" data-hole-role="axle" data-hole-diameter-mm="6"/>
  </g>
  <g transform="translate(112 28)">
  <circle cx="42.4" cy="42.4" r="32" class="score pitch-circle"/>
  </g>
  <g transform="translate(112 28)">
  <circle cx="42.4" cy="22.4" r="3" class="drill linkage-hole bracket-hole crank-hole handle-hole" data-hole-role="linkage-bracket-crank-handle" data-attachment-kinds="linkage bracket crank handle" data-hole-diameter-mm="6" data-hole-index="0" data-hole-x-offset-mm="0" data-hole-y-offset-mm="-20" data-hole-radius-mm="20"/>
  </g>
  <g transform="translate(112 28)">
  <circle cx="22.4" cy="42.4" r="3" class="drill linkage-hole bracket-hole crank-hole handle-hole" data-hole-role="linkage-bracket-crank-handle" data-attachment-kinds="linkage bracket crank handle" data-hole-diameter-mm="6" data-hole-index="1" data-hole-x-offset-mm="-20" data-hole-y-offset-mm="0" data-hole-radius-mm="20"/>
  </g>
  <g transform="translate(112 28)">
  <circle cx="62.4" cy="42.4" r="3" class="drill linkage-hole bracket-hole crank-hole handle-hole" data-hole-role="linkage-bracket-crank-handle" data-attachment-kinds="linkage bracket crank handle" data-hole-diameter-mm="6" data-hole-index="2" data-hole-x-offset-mm="20" data-hole-y-offset-mm="0" data-hole-radius-mm="20"/>
  </g>
  <g transform="translate(112 28)">
  <circle cx="42.4" cy="62.4" r="3" class="drill linkage-hole bracket-hole crank-hole handle-hole" data-hole-role="linkage-bracket-crank-handle" data-attachment-kinds="linkage bracket crank handle" data-hole-diameter-mm="6" data-hole-index="3" data-hole-x-offset-mm="0" data-hole-y-offset-mm="20" data-hole-radius-mm="20"/>
  </g>
  <g transform="translate(10 128)">
  <path d="M 14 7 L 54 7 A 7 7 0 0 1 54 21 L 14 21 A 7 7 0 0 1 14 7 Z" class="cut linkage-outline" data-cells="2" data-length-mm="40" data-pitch-mm="20" data-hole-count="3"/>
  </g>
  <g transform="translate(10 128)">
  <circle cx="14" cy="14" r="3" class="drill linkage-hole bracket-hole" data-hole-role="linkage-bracket" data-hole-diameter-mm="6" data-hole-index="0"/>
  </g>
  <g transform="translate(10 128)">
  <circle cx="34" cy="14" r="3" class="drill linkage-hole bracket-hole" data-hole-role="linkage-bracket" data-hole-diameter-mm="6" data-hole-index="1"/>
  </g>
  <g transform="translate(10 128)">
  <circle cx="54" cy="14" r="3" class="drill linkage-hole bracket-hole" data-hole-role="linkage-bracket" data-hole-diameter-mm="6" data-hole-index="2"/>
  </g>
  <g transform="translate(10 162)">
  <path d="M 14 7 L 94 7 A 7 7 0 0 1 94 21 L 14 21 A 7 7 0 0 1 14 7 Z" class="cut linkage-outline" data-cells="4" data-length-mm="80" data-pitch-mm="20" data-hole-count="5"/>
  </g>
  <g transform="translate(10 162)">
  <circle cx="14" cy="14" r="3" class="drill linkage-hole bracket-hole" data-hole-role="linkage-bracket" data-hole-diameter-mm="6" data-hole-index="0"/>
  </g>
  <g transform="translate(10 162)">
  <circle cx="34" cy="14" r="3" class="drill linkage-hole bracket-hole" data-hole-role="linkage-bracket" data-hole-diameter-mm="6" data-hole-index="1"/>
  </g>
  <g transform="translate(10 162)">
  <circle cx="54" cy="14" r="3" class="drill linkage-hole bracket-hole" data-hole-role="linkage-bracket" data-hole-diameter-mm="6" data-hole-index="2"/>
  </g>
  <g transform="translate(10 162)">
  <circle cx="74" cy="14" r="3" class="drill linkage-hole bracket-hole" data-hole-role="linkage-bracket" data-hole-diameter-mm="6" data-hole-index="3"/>
  </g>
  <g transform="translate(10 162)">
  <circle cx="94" cy="14" r="3" class="drill linkage-hole bracket-hole" data-hole-role="linkage-bracket" data-hole-diameter-mm="6" data-hole-index="4"/>
  </g>
  <g transform="translate(190 28)">
  <path d="M 48 8 L 49.745 8.038 L 51.486 8.152 L 53.221 8.342 L 54.946 8.608 L 56.658 8.948 L 58.353 9.363 L 60.028 9.851 L 61.681 10.412 L 63.307 11.045 L 64.905 11.748 L 66.47 12.52 L 68 13.359 L 69.492 14.264 L 70.943 15.234 L 72.35 16.266 L 73.712 17.358 L 75.024 18.509 L 76.284 19.716 L 77.491 20.976 L 78.642 22.288 L 79.734 23.65 L 80.766 25.057 L 81.736 26.508 L 82.641 28 L 83.48 29.53 L 84.252 31.095 L 84.955 32.693 L 85.588 34.319 L 86.149 35.972 L 86.637 37.647 L 87.052 39.342 L 87.392 41.054 L 87.658 42.779 L 87.848 44.514 L 87.962 46.255 L 88 48 L 87.962 49.745 L 87.848 51.486 L 87.658 53.221 L 87.392 54.946 L 87.052 56.658 L 86.637 58.353 L 86.149 60.028 L 85.588 61.681 L 84.955 63.307 L 84.252 64.905 L 83.48 66.47 L 82.641 68 L 81.736 69.492 L 80.766 70.943 L 79.734 72.35 L 78.642 73.712 L 77.491 75.024 L 76.284 76.284 L 75.024 77.491 L 73.712 78.642 L 72.35 79.734 L 70.943 80.766 L 69.492 81.736 L 68 82.641 L 66.47 83.48 L 64.905 84.252 L 63.307 84.955 L 61.681 85.588 L 60.028 86.149 L 58.353 86.637 L 56.658 87.052 L 54.946 87.392 L 53.221 87.658 L 51.486 87.848 L 49.745 87.962 L 48 88 L 46.255 87.962 L 44.514 87.848 L 42.779 87.658 L 41.054 87.392 L 39.342 87.052 L 37.647 86.637 L 35.972 86.149 L 34.319 85.588 L 32.693 84.955 L 31.095 84.252 L 29.53 83.48 L 28 82.641 L 26.508 81.736 L 25.057 80.766 L 23.65 79.734 L 22.288 78.642 L 20.976 77.491 L 19.716 76.284 L 18.509 75.024 L 17.358 73.712 L 16.266 72.35 L 15.234 70.943 L 14.264 69.492 L 13.359 68 L 12.52 66.47 L 11.748 64.905 L 11.045 63.307 L 10.412 61.681 L 9.851 60.028 L 9.363 58.353 L 8.948 56.658 L 8.608 54.946 L 8.342 53.221 L 8.152 51.486 L 8.038 49.745 L 8 48 L 8.038 46.255 L 8.152 44.514 L 8.342 42.779 L 8.608 41.054 L 8.948 39.342 L 9.363 37.647 L 9.851 35.972 L 10.412 34.319 L 11.045 32.693 L 11.748 31.095 L 12.52 29.53 L 13.359 28 L 14.264 26.508 L 15.234 25.057 L 16.266 23.65 L 17.358 22.288 L 18.509 20.976 L 19.716 19.716 L 20.976 18.509 L 22.288 17.358 L 23.65 16.266 L 25.057 15.234 L 26.508 14.264 L 28 13.359 L 29.53 12.52 L 31.095 11.748 L 32.693 11.045 L 34.319 10.412 L 35.972 9.851 L 37.647 9.363 L 39.342 8.948 L 41.054 8.608 L 42.779 8.342 L 44.514 8.152 L 46.255 8.038 Z" class="cut cam-outline" data-cam-key="circle" data-base-radius-mm="40" data-eccentricity-mm="0" data-cam-lobes="1" data-profile-harmonic="0" data-rise-deg="45" data-high-dwell-deg="270" data-return-deg="45" data-physical-cam-preset="circle" data-profile-source="automataii.domain.mechanisms.cam.profile.build_pear_cam_profile_from_params" data-profile-sample-count="144"/>
  </g>
  <g transform="translate(190 28)">
  <circle cx="48" cy="48" r="3" class="drill axle-hole" data-hole-role="axle" data-hole-diameter-mm="6"/>
  </g>
  <g transform="translate(190 28)">
  <line x1="48" y1="48" x2="88" y2="48" class="score cam-base-radius"/>
  </g>
  <g transform="translate(190 28)">
  <circle cx="48" cy="48" r="40" class="score cam-base-circle"/>
  </g>
  <g transform="translate(190 28)">
  <circle cx="48" cy="28" r="3" class="drill linkage-hole bracket-hole crank-hole handle-hole" data-hole-role="linkage-bracket-crank-handle" data-attachment-kinds="linkage bracket crank handle" data-hole-diameter-mm="6" data-hole-index="0" data-hole-x-offset-mm="0" data-hole-y-offset-mm="-20"/>
  </g>
  <g transform="translate(190 28)">
  <circle cx="28" cy="48" r="3" class="drill linkage-hole bracket-hole crank-hole handle-hole" data-hole-role="linkage-bracket-crank-handle" data-attachment-kinds="linkage bracket crank handle" data-hole-diameter-mm="6" data-hole-index="1" data-hole-x-offset-mm="-20" data-hole-y-offset-mm="0"/>
  </g>
  <g transform="translate(190 28)">
  <circle cx="68" cy="48" r="3" class="drill linkage-hole bracket-hole crank-hole handle-hole" data-hole-role="linkage-bracket-crank-handle" data-attachment-kinds="linkage bracket crank handle" data-hole-diameter-mm="6" data-hole-index="2" data-hole-x-offset-mm="20" data-hole-y-offset-mm="0"/>
  </g>
  <g transform="translate(190 28)">
  <circle cx="48" cy="68" r="3" class="drill linkage-hole bracket-hole crank-hole handle-hole" data-hole-role="linkage-bracket-crank-handle" data-attachment-kinds="linkage bracket crank handle" data-hole-diameter-mm="6" data-hole-index="3" data-hole-x-offset-mm="0" data-hole-y-offset-mm="20"/>
  </g>
  <g transform="translate(190 28)">
  <circle cx="28" cy="28" r="3" class="drill linkage-hole bracket-hole crank-hole handle-hole" data-hole-role="linkage-bracket-crank-handle" data-attachment-kinds="linkage bracket crank handle" data-hole-diameter-mm="6" data-hole-index="4" data-hole-x-offset-mm="-20" data-hole-y-offset-mm="-20"/>
  </g>
  <g transform="translate(190 28)">
  <circle cx="68" cy="28" r="3" class="drill linkage-hole bracket-hole crank-hole handle-hole" data-hole-role="linkage-bracket-crank-handle" data-attachment-kinds="linkage bracket crank handle" data-hole-diameter-mm="6" data-hole-index="5" data-hole-x-offset-mm="20" data-hole-y-offset-mm="-20"/>
  </g>
  <g transform="translate(190 28)">
  <circle cx="28" cy="68" r="3" class="drill linkage-hole bracket-hole crank-hole handle-hole" data-hole-role="linkage-bracket-crank-handle" data-attachment-kinds="linkage bracket crank handle" data-hole-diameter-mm="6" data-hole-index="6" data-hole-x-offset-mm="-20" data-hole-y-offset-mm="20"/>
  </g>
  <g transform="translate(190 28)">
  <circle cx="68" cy="68" r="3" class="drill linkage-hole bracket-hole crank-hole handle-hole" data-hole-role="linkage-bracket-crank-handle" data-attachment-kinds="linkage bracket crank handle" data-hole-diameter-mm="6" data-hole-index="7" data-hole-x-offset-mm="20" data-hole-y-offset-mm="20"/>
  </g>
  <g transform="translate(190 112)">
  <path d="M 63 8 L 65.398 8.067 L 67.789 8.266 L 70.162 8.598 L 72.511 9.06 L 74.827 9.651 L 77.103 10.368 L 79.33 11.208 L 81.502 12.167 L 83.611 13.242 L 85.65 14.427 L 87.614 15.718 L 89.495 17.109 L 91.289 18.595 L 92.991 20.169 L 94.595 21.825 L 96.098 23.556 L 97.495 25.355 L 98.784 27.216 L 99.963 29.13 L 101.028 31.091 L 101.979 33.091 L 102.814 35.122 L 103.533 37.178 L 104.136 39.25 L 104.624 41.332 L 104.998 43.416 L 105.258 45.496 L 105.409 47.565 L 105.451 49.615 L 105.387 51.642 L 105.221 53.64 L 104.957 55.602 L 104.599 57.523 L 104.15 59.4 L 103.616 61.227 L 103 63 L 102.308 64.716 L 101.545 66.372 L 100.717 67.965 L 99.827 69.494 L 98.882 70.955 L 97.887 72.348 L 96.847 73.672 L 95.767 74.926 L 94.652 76.111 L 93.507 77.226 L 92.337 78.272 L 91.146 79.25 L 89.938 80.162 L 88.718 81.008 L 87.49 81.792 L 86.256 82.514 L 85.02 83.177 L 83.784 83.784 L 82.552 84.337 L 81.325 84.839 L 80.106 85.293 L 78.895 85.701 L 77.695 86.066 L 76.505 86.391 L 75.326 86.679 L 74.159 86.931 L 73.004 87.152 L 71.86 87.342 L 70.726 87.505 L 69.603 87.642 L 68.488 87.755 L 67.381 87.845 L 66.28 87.913 L 65.184 87.962 L 64.091 87.99 L 63 88 L 61.909 87.99 L 60.816 87.962 L 59.72 87.913 L 58.619 87.845 L 57.512 87.755 L 56.397 87.642 L 55.274 87.505 L 54.14 87.342 L 52.996 87.152 L 51.841 86.931 L 50.674 86.679 L 49.495 86.391 L 48.305 86.066 L 47.105 85.701 L 45.894 85.293 L 44.675 84.839 L 43.448 84.337 L 42.216 83.784 L 40.98 83.177 L 39.744 82.514 L 38.51 81.792 L 37.282 81.008 L 36.062 80.162 L 34.854 79.25 L 33.663 78.272 L 32.493 77.226 L 31.348 76.111 L 30.233 74.926 L 29.153 73.672 L 28.113 72.348 L 27.118 70.955 L 26.173 69.494 L 25.283 67.965 L 24.455 66.372 L 23.692 64.716 L 23 63 L 22.384 61.227 L 21.85 59.4 L 21.401 57.523 L 21.043 55.602 L 20.779 53.64 L 20.613 51.642 L 20.549 49.615 L 20.591 47.565 L 20.742 45.496 L 21.002 43.416 L 21.376 41.332 L 21.864 39.25 L 22.467 37.178 L 23.186 35.122 L 24.021 33.091 L 24.972 31.091 L 26.037 29.13 L 27.216 27.216 L 28.505 25.355 L 29.902 23.556 L 31.405 21.825 L 33.009 20.169 L 34.711 18.595 L 36.505 17.109 L 38.386 15.718 L 40.35 14.427 L 42.389 13.242 L 44.498 12.167 L 46.67 11.208 L 48.897 10.368 L 51.173 9.651 L 53.489 9.06 L 55.838 8.598 L 58.211 8.266 L 60.602 8.067 Z" class="cut cam-outline" data-cam-key="eccentric" data-base-radius-mm="40" data-eccentricity-mm="15" data-cam-lobes="1" data-profile-harmonic="0" data-rise-deg="90" data-high-dwell-deg="60" data-return-deg="90" data-physical-cam-preset="eccentric" data-profile-source="automataii.domain.mechanisms.cam.profile.build_pear_cam_profile_from_params" data-profile-sample-count="144"/>
  </g>
  <g transform="translate(190 112)">
  <circle cx="63" cy="63" r="3" class="drill axle-hole" data-hole-role="axle" data-hole-diameter-mm="6"/>
  </g>
  <g transform="translate(190 112)">
  <line x1="63" y1="63" x2="103" y2="63" class="score cam-base-radius"/>
  </g>
  <g transform="translate(190 112)">
  <circle cx="63" cy="63" r="40" class="score cam-base-circle"/>
  </g>
  <g transform="translate(190 112)">
  <circle cx="63" cy="43" r="3" class="drill linkage-hole bracket-hole crank-hole handle-hole" data-hole-role="linkage-bracket-crank-handle" data-attachment-kinds="linkage bracket crank handle" data-hole-diameter-mm="6" data-hole-index="0" data-hole-x-offset-mm="0" data-hole-y-offset-mm="-20"/>
  </g>
  <g transform="translate(190 112)">
  <circle cx="43" cy="63" r="3" class="drill linkage-hole bracket-hole crank-hole handle-hole" data-hole-role="linkage-bracket-crank-handle" data-attachment-kinds="linkage bracket crank handle" data-hole-diameter-mm="6" data-hole-index="1" data-hole-x-offset-mm="-20" data-hole-y-offset-mm="0"/>
  </g>
  <g transform="translate(190 112)">
  <circle cx="83" cy="63" r="3" class="drill linkage-hole bracket-hole crank-hole handle-hole" data-hole-role="linkage-bracket-crank-handle" data-attachment-kinds="linkage bracket crank handle" data-hole-diameter-mm="6" data-hole-index="2" data-hole-x-offset-mm="20" data-hole-y-offset-mm="0"/>
  </g>
  <g transform="translate(190 112)">
  <circle cx="43" cy="43" r="3" class="drill linkage-hole bracket-hole crank-hole handle-hole" data-hole-role="linkage-bracket-crank-handle" data-attachment-kinds="linkage bracket crank handle" data-hole-diameter-mm="6" data-hole-index="3" data-hole-x-offset-mm="-20" data-hole-y-offset-mm="-20"/>
  </g>
  <g transform="translate(190 112)">
  <circle cx="83" cy="43" r="3" class="drill linkage-hole bracket-hole crank-hole handle-hole" data-hole-role="linkage-bracket-crank-handle" data-attachment-kinds="linkage bracket crank handle" data-hole-diameter-mm="6" data-hole-index="4" data-hole-x-offset-mm="20" data-hole-y-offset-mm="-20"/>
  </g>
  <g transform="translate(190 112)">
  <circle cx="63" cy="23" r="3" class="drill linkage-hole bracket-hole crank-hole handle-hole" data-hole-role="linkage-bracket-crank-handle" data-attachment-kinds="linkage bracket crank handle" data-hole-diameter-mm="6" data-hole-index="5" data-hole-x-offset-mm="0" data-hole-y-offset-mm="-40"/>
  </g>
  <g transform="translate(190 112)">
  <circle cx="43" cy="23" r="3" class="drill linkage-hole bracket-hole crank-hole handle-hole" data-hole-role="linkage-bracket-crank-handle" data-attachment-kinds="linkage bracket crank handle" data-hole-diameter-mm="6" data-hole-index="6" data-hole-x-offset-mm="-20" data-hole-y-offset-mm="-40"/>
  </g>
  <g transform="translate(190 112)">
  <circle cx="83" cy="23" r="3" class="drill linkage-hole bracket-hole crank-hole handle-hole" data-hole-role="linkage-bracket-crank-handle" data-attachment-kinds="linkage bracket crank handle" data-hole-diameter-mm="6" data-hole-index="7" data-hole-x-offset-mm="20" data-hole-y-offset-mm="-40"/>
  </g>
  <g transform="translate(10 204)">
  <path d="M 10 3 L 30 3 A 7 7 0 0 1 30 17 L 10 17 A 7 7 0 0 1 10 3 Z" class="cut bracket-outline" data-bracket-key="2-hole-straight" data-pitch-mm="20" data-hole-count="2"/>
  </g>
  <g transform="translate(10 204)">
  <circle cx="10" cy="10" r="3" class="drill bracket-hole linkage-hole" data-hole-role="bracket" data-hole-diameter-mm="6" data-hole-index="0" data-hole-x-mm="10" data-hole-y-mm="10"/>
  </g>
  <g transform="translate(10 204)">
  <circle cx="30" cy="10" r="3" class="drill bracket-hole linkage-hole" data-hole-role="bracket" data-hole-diameter-mm="6" data-hole-index="1" data-hole-x-mm="30" data-hole-y-mm="10"/>
  </g>
  <g transform="translate(80 204)">
  <path d="M 10 3 L 50 3 A 7 7 0 0 1 50 17 L 10 17 A 7 7 0 0 1 10 3 Z" class="cut bracket-outline" data-bracket-key="3-hole-straight" data-pitch-mm="20" data-hole-count="3"/>
  </g>
  <g transform="translate(80 204)">
  <circle cx="10" cy="10" r="3" class="drill bracket-hole linkage-hole" data-hole-role="bracket" data-hole-diameter-mm="6" data-hole-index="0" data-hole-x-mm="10" data-hole-y-mm="10"/>
  </g>
  <g transform="translate(80 204)">
  <circle cx="30" cy="10" r="3" class="drill bracket-hole linkage-hole" data-hole-role="bracket" data-hole-diameter-mm="6" data-hole-index="1" data-hole-x-mm="30" data-hole-y-mm="10"/>
  </g>
  <g transform="translate(80 204)">
  <circle cx="50" cy="10" r="3" class="drill bracket-hole linkage-hole" data-hole-role="bracket" data-hole-diameter-mm="6" data-hole-index="2" data-hole-x-mm="50" data-hole-y-mm="10"/>
  </g>
</svg>
