<?xml version="1.0" encoding="UTF-8"?>
<svg xmlns="http://www.w3.org/2000/svg" version="1.1"
     width="279.4mm" height="215.9mm"
     viewBox="0 0 279.4 215.9"
     data-profile-key="motionsmith-ms4n"
     data-grid-pitch-mm="20"
     data-hole-diameter-mm="4">
  <title>Automataii fabrication sheet 04-prototype-set-a: Prototype set A</title>
  <desc>Workshop sheet containing: gears, linkages, cams, brackets. Nominal holes are 4 mm.</desc>
  <defs>
    <style>
      .cut { fill: none; stroke: #ed1c24; stroke-width: 0.25; stroke-miterlimit: 10; }
      .drill { fill: none; stroke: #0071bc; stroke-width: 0.2; stroke-miterlimit: 10; }
      .score { fill: none; stroke: #777777; stroke-width: 0.15; stroke-dasharray: 2 1; }
      .label { fill: #333333; font-family: Arial, Helvetica, sans-serif; font-size: 4px; }
      .tiny { fill: #333333; font-family: Arial, Helvetica, sans-serif; font-size: 3px; }
      .small { fill: #333333; font-family: Arial, Helvetica, sans-serif; font-size: 3.6px; }
      .step-title { fill: #111827; font-family: Arial, Helvetica, sans-serif; font-size: 5px; font-weight: bold; }
      .part-card-label { fill: #111827; font-family: Arial, Helvetica, sans-serif; font-size: 3.5px; font-weight: bold; }
      .coord-label { fill: #111827; font-family: Arial, Helvetica, sans-serif; font-size: 6px; font-weight: bold; }
      .paper { fill: #ffffff; stroke: none; }
    </style>
  </defs>
  <text x="12" y="12" class="label" text-anchor="start">04 Prototype set A</text>
  <text x="12" y="18" class="tiny" text-anchor="start">Starter mix: two gears, two linkages, two cams, brackets</text>
  <g transform="translate(14 26)">
  <path d="M 29.5 19.5 L 30.779 21.744 L 30.125 23.901 L 27.815 25.056 L 26.571 26.571 L 25.889 29.062 L 23.901 30.125 L 21.451 29.308 L 19.5 29.5 L 17.256 30.779 L 15.099 30.125 L 13.944 27.815 L 12.429 26.571 L 9.938 25.889 L 8.875 23.901 L 9.692 21.451 L 9.5 19.5 L 8.221 17.256 L 8.875 15.099 L 11.185 13.944 L 12.429 12.429 L 13.111 9.938 L 15.099 8.875 L 17.549 9.692 L 19.5 9.5 L 21.744 8.221 L 23.901 8.875 L 25.056 11.185 L 26.571 12.429 L 29.062 13.111 L 30.125 15.099 L 29.308 17.549 Z" class="cut gear-outline" data-teeth="8" data-pitch-radius-mm="10" data-root-radius-mm="10" data-outer-radius-mm="11.5" data-attachment-hole-pattern="none"/>
  </g>
  <g transform="translate(14 26)">
  <circle cx="19.5" cy="19.5" r="2" class="drill axle-hole" data-hole-role="axle" data-hole-diameter-mm="4"/>
  </g>
  <g transform="translate(14 26)">
  <circle cx="19.5" cy="19.5" r="10" class="score pitch-circle"/>
  </g>
  <g transform="translate(104 26)">
  <path d="M 67.938 39.5 L 70.933 41.56 L 70.731 43.612 L 67.391 45.048 L 66.969 46.86 L 69.328 49.625 L 68.602 51.555 L 65.005 52.078 L 64.128 53.719 L 65.691 57 L 64.491 58.676 L 60.88 58.25 L 59.608 59.608 L 60.269 63.183 L 58.676 64.491 L 55.299 63.145 L 53.719 64.128 L 53.432 67.751 L 51.555 68.602 L 48.641 66.428 L 46.86 66.969 L 45.645 70.395 L 43.612 70.731 L 41.36 67.877 L 39.5 67.938 L 37.44 70.933 L 35.388 70.731 L 33.952 67.391 L 32.14 66.969 L 29.375 69.328 L 27.445 68.602 L 26.922 65.005 L 25.281 64.128 L 22 65.691 L 20.324 64.491 L 20.75 60.88 L 19.392 59.608 L 15.817 60.269 L 14.509 58.676 L 15.855 55.299 L 14.872 53.719 L 11.249 53.432 L 10.398 51.555 L 12.572 48.641 L 12.031 46.86 L 8.605 45.645 L 8.269 43.612 L 11.123 41.36 L 11.062 39.5 L 8.067 37.44 L 8.269 35.388 L 11.609 33.952 L 12.031 32.14 L 9.672 29.375 L 10.398 27.445 L 13.995 26.922 L 14.872 25.281 L 13.309 22 L 14.509 20.324 L 18.12 20.75 L 19.392 19.392 L 18.731 15.817 L 20.324 14.509 L 23.701 15.855 L 25.281 14.872 L 25.568 11.249 L 27.445 10.398 L 30.359 12.572 L 32.14 12.031 L 33.355 8.605 L 35.388 8.269 L 37.64 11.123 L 39.5 11.062 L 41.56 8.067 L 43.612 8.269 L 45.048 11.609 L 46.86 12.031 L 49.625 9.672 L 51.555 10.398 L 52.078 13.995 L 53.719 14.872 L 57 13.309 L 58.676 14.509 L 58.25 18.12 L 59.608 19.392 L 63.183 18.731 L 64.491 20.324 L 63.145 23.701 L 64.128 25.281 L 67.751 25.568 L 68.602 27.445 L 66.428 30.359 L 66.969 32.14 L 70.395 33.355 L 70.731 35.388 L 67.877 37.64 Z" class="cut gear-outline" data-teeth="24" data-pitch-radius-mm="30" data-root-radius-mm="28.438" data-outer-radius-mm="31.5" data-attachment-hole-pattern="grid"/>
  </g>
  <g transform="translate(104 26)">
  <circle cx="39.5" cy="39.5" r="2" class="drill axle-hole" data-hole-role="axle" data-hole-diameter-mm="4"/>
  </g>
  <g transform="translate(104 26)">
  <circle cx="39.5" cy="39.5" r="30" class="score pitch-circle"/>
  </g>
  <g transform="translate(104 26)">
  <circle cx="39.5" cy="19.5" r="2" class="drill linkage-hole bracket-hole crank-hole handle-hole" data-hole-role="linkage-bracket-crank-handle" data-attachment-kinds="linkage bracket crank handle" data-hole-diameter-mm="4" data-hole-index="0" data-hole-x-offset-mm="0" data-hole-y-offset-mm="-20" data-hole-radius-mm="20"/>
  </g>
  <g transform="translate(104 26)">
  <circle cx="19.5" cy="39.5" r="2" class="drill linkage-hole bracket-hole crank-hole handle-hole" data-hole-role="linkage-bracket-crank-handle" data-attachment-kinds="linkage bracket crank handle" data-hole-diameter-mm="4" data-hole-index="1" data-hole-x-offset-mm="-20" data-hole-y-offset-mm="0" data-hole-radius-mm="20"/>
  </g>
  <g transform="translate(104 26)">
  <circle cx="59.5" cy="39.5" r="2" class="drill linkage-hole bracket-hole crank-hole handle-hole" data-hole-role="linkage-bracket-crank-handle" data-attachment-kinds="linkage bracket crank handle" data-hole-diameter-mm="4" data-hole-index="2" data-hole-x-offset-mm="20" data-hole-y-offset-mm="0" data-hole-radius-mm="20"/>
  </g>
  <g transform="translate(104 26)">
  <circle cx="39.5" cy="59.5" r="2" class="drill linkage-hole bracket-hole crank-hole handle-hole" data-hole-role="linkage-bracket-crank-handle" data-attachment-kinds="linkage bracket crank handle" data-hole-diameter-mm="4" data-hole-index="3" data-hole-x-offset-mm="0" data-hole-y-offset-mm="20" data-hole-radius-mm="20"/>
  </g>
  <g transform="translate(14 118)">
  <path d="M 14 7 L 54 7 A 7 7 0 0 1 54 21 L 14 21 A 7 7 0 0 1 14 7 Z" class="cut linkage-outline" data-cells="2" data-length-mm="40" data-pitch-mm="20" data-hole-count="3"/>
  </g>
  <g transform="translate(14 118)">
  <circle cx="14" cy="14" r="2" class="drill linkage-hole bracket-hole" data-hole-role="linkage-bracket" data-hole-diameter-mm="4" data-hole-index="0"/>
  </g>
  <g transform="translate(14 118)">
  <circle cx="34" cy="14" r="2" class="drill linkage-hole bracket-hole" data-hole-role="linkage-bracket" data-hole-diameter-mm="4" data-hole-index="1"/>
  </g>
  <g transform="translate(14 118)">
  <circle cx="54" cy="14" r="2" class="drill linkage-hole bracket-hole" data-hole-role="linkage-bracket" data-hole-diameter-mm="4" data-hole-index="2"/>
  </g>
  <g transform="translate(14 150)">
  <path d="M 14 7 L 94 7 A 7 7 0 0 1 94 21 L 14 21 A 7 7 0 0 1 14 7 Z" class="cut linkage-outline" data-cells="4" data-length-mm="80" data-pitch-mm="20" data-hole-count="5"/>
  </g>
  <g transform="translate(14 150)">
  <circle cx="14" cy="14" r="2" class="drill linkage-hole bracket-hole" data-hole-role="linkage-bracket" data-hole-diameter-mm="4" data-hole-index="0"/>
  </g>
  <g transform="translate(14 150)">
  <circle cx="34" cy="14" r="2" class="drill linkage-hole bracket-hole" data-hole-role="linkage-bracket" data-hole-diameter-mm="4" data-hole-index="1"/>
  </g>
  <g transform="translate(14 150)">
  <circle cx="54" cy="14" r="2" class="drill linkage-hole bracket-hole" data-hole-role="linkage-bracket" data-hole-diameter-mm="4" data-hole-index="2"/>
  </g>
  <g transform="translate(14 150)">
  <circle cx="74" cy="14" r="2" class="drill linkage-hole bracket-hole" data-hole-role="linkage-bracket" data-hole-diameter-mm="4" data-hole-index="3"/>
  </g>
  <g transform="translate(14 150)">
  <circle cx="94" cy="14" r="2" class="drill linkage-hole bracket-hole" data-hole-role="linkage-bracket" data-hole-diameter-mm="4" data-hole-index="4"/>
  </g>
  <g transform="translate(190 26)">
  <path d="M 23 8 L 23.654 8.014 L 24.307 8.057 L 24.958 8.128 L 25.605 8.228 L 26.247 8.356 L 26.882 8.511 L 27.511 8.694 L 28.13 8.905 L 28.74 9.142 L 29.339 9.405 L 29.926 9.695 L 30.5 10.01 L 31.059 10.349 L 31.604 10.713 L 32.131 11.1 L 32.642 11.509 L 33.134 11.941 L 33.607 12.393 L 34.059 12.866 L 34.491 13.358 L 34.9 13.869 L 35.287 14.396 L 35.651 14.941 L 35.99 15.5 L 36.305 16.074 L 36.595 16.661 L 36.858 17.26 L 37.095 17.87 L 37.306 18.489 L 37.489 19.118 L 37.644 19.753 L 37.772 20.395 L 37.872 21.042 L 37.943 21.693 L 37.986 22.346 L 38 23 L 37.986 23.654 L 37.943 24.307 L 37.872 24.958 L 37.772 25.605 L 37.644 26.247 L 37.489 26.882 L 37.306 27.511 L 37.095 28.13 L 36.858 28.74 L 36.595 29.339 L 36.305 29.926 L 35.99 30.5 L 35.651 31.059 L 35.287 31.604 L 34.9 32.131 L 34.491 32.642 L 34.059 33.134 L 33.607 33.607 L 33.134 34.059 L 32.642 34.491 L 32.131 34.9 L 31.604 35.287 L 31.059 35.651 L 30.5 35.99 L 29.926 36.305 L 29.339 36.595 L 28.74 36.858 L 28.13 37.095 L 27.511 37.306 L 26.882 37.489 L 26.247 37.644 L 25.605 37.772 L 24.958 37.872 L 24.307 37.943 L 23.654 37.986 L 23 38 L 22.346 37.986 L 21.693 37.943 L 21.042 37.872 L 20.395 37.772 L 19.753 37.644 L 19.118 37.489 L 18.489 37.306 L 17.87 37.095 L 17.26 36.858 L 16.661 36.595 L 16.074 36.305 L 15.5 35.99 L 14.941 35.651 L 14.396 35.287 L 13.869 34.9 L 13.358 34.491 L 12.866 34.059 L 12.393 33.607 L 11.941 33.134 L 11.509 32.642 L 11.1 32.131 L 10.713 31.604 L 10.349 31.059 L 10.01 30.5 L 9.695 29.926 L 9.405 29.339 L 9.142 28.74 L 8.905 28.13 L 8.694 27.511 L 8.511 26.882 L 8.356 26.247 L 8.228 25.605 L 8.128 24.958 L 8.057 24.307 L 8.014 23.654 L 8 23 L 8.014 22.346 L 8.057 21.693 L 8.128 21.042 L 8.228 20.395 L 8.356 19.753 L 8.511 19.118 L 8.694 18.489 L 8.905 17.87 L 9.142 17.26 L 9.405 16.661 L 9.695 16.074 L 10.01 15.5 L 10.349 14.941 L 10.713 14.396 L 11.1 13.869 L 11.509 13.358 L 11.941 12.866 L 12.393 12.393 L 12.866 11.941 L 13.358 11.509 L 13.869 11.1 L 14.396 10.713 L 14.941 10.349 L 15.5 10.01 L 16.074 9.695 L 16.661 9.405 L 17.26 9.142 L 17.87 8.905 L 18.489 8.694 L 19.118 8.511 L 19.753 8.356 L 20.395 8.228 L 21.042 8.128 L 21.693 8.057 L 22.346 8.014 Z" class="cut cam-outline" data-cam-key="circle" data-base-radius-mm="15" data-eccentricity-mm="0" data-cam-lobes="1" data-profile-harmonic="0" data-rise-deg="45" data-high-dwell-deg="270" data-return-deg="45" data-physical-cam-preset="circle" data-profile-source="automataii.domain.mechanisms.cam.profile.build_pear_cam_profile_from_params" data-profile-sample-count="144"/>
  </g>
  <g transform="translate(190 26)">
  <circle cx="23" cy="23" r="2" class="drill axle-hole" data-hole-role="axle" data-hole-diameter-mm="4"/>
  </g>
  <g transform="translate(190 26)">
  <line x1="23" y1="23" x2="38" y2="23" class="score cam-base-radius"/>
  </g>
  <g transform="translate(190 26)">
  <circle cx="23" cy="23" r="15" class="score cam-base-circle"/>
  </g>
  <g transform="translate(190 26)">
  <circle cx="35" cy="23" r="2" class="drill linkage-hole bracket-hole crank-hole handle-hole" data-hole-role="linkage-bracket-crank-handle" data-attachment-kinds="linkage bracket crank handle" data-hole-diameter-mm="4" data-hole-index="0" data-hole-x-offset-mm="12" data-hole-y-offset-mm="0"/>
  </g>
  <g transform="translate(190 26)">
  <circle cx="23" cy="35" r="2" class="drill linkage-hole bracket-hole crank-hole handle-hole" data-hole-role="linkage-bracket-crank-handle" data-attachment-kinds="linkage bracket crank handle" data-hole-diameter-mm="4" data-hole-index="1" data-hole-x-offset-mm="0" data-hole-y-offset-mm="12"/>
  </g>
  <g transform="translate(190 26)">
  <circle cx="11" cy="23" r="2" class="drill linkage-hole bracket-hole crank-hole handle-hole" data-hole-role="linkage-bracket-crank-handle" data-attachment-kinds="linkage bracket crank handle" data-hole-diameter-mm="4" data-hole-index="2" data-hole-x-offset-mm="-12" data-hole-y-offset-mm="0"/>
  </g>
  <g transform="translate(190 26)">
  <circle cx="23" cy="11" r="2" class="drill linkage-hole bracket-hole crank-hole handle-hole" data-hole-role="linkage-bracket-crank-handle" data-attachment-kinds="linkage bracket crank handle" data-hole-diameter-mm="4" data-hole-index="3" data-hole-x-offset-mm="-0" data-hole-y-offset-mm="-12"/>
  </g>
  <g transform="translate(190 108)">
  <path d="M 28 8 L 28.872 8.024 L 29.741 8.095 L 30.605 8.214 L 31.46 8.379 L 32.303 8.59 L 33.132 8.846 L 33.945 9.146 L 34.737 9.489 L 35.508 9.874 L 36.254 10.298 L 36.974 10.761 L 37.665 11.26 L 38.325 11.793 L 38.953 12.358 L 39.546 12.953 L 40.104 13.575 L 40.624 14.223 L 41.107 14.893 L 41.55 15.584 L 41.953 16.292 L 42.315 17.016 L 42.637 17.751 L 42.917 18.497 L 43.155 19.25 L 43.353 20.008 L 43.51 20.768 L 43.626 21.528 L 43.702 22.285 L 43.74 23.037 L 43.739 23.783 L 43.701 24.519 L 43.627 25.245 L 43.519 25.957 L 43.377 26.655 L 43.204 27.336 L 43 28 L 42.768 28.645 L 42.509 29.269 L 42.225 29.873 L 41.917 30.454 L 41.588 31.012 L 41.239 31.547 L 40.872 32.058 L 40.488 32.545 L 40.09 33.008 L 39.68 33.446 L 39.257 33.86 L 38.825 34.25 L 38.385 34.616 L 37.938 34.959 L 37.485 35.278 L 37.029 35.576 L 36.569 35.852 L 36.107 36.107 L 35.643 36.341 L 35.18 36.557 L 34.717 36.753 L 34.254 36.932 L 33.794 37.094 L 33.335 37.24 L 32.878 37.371 L 32.424 37.488 L 31.972 37.59 L 31.523 37.68 L 31.077 37.758 L 30.632 37.824 L 30.19 37.879 L 29.75 37.923 L 29.311 37.957 L 28.873 37.981 L 28.436 37.995 L 28 38 L 27.564 37.995 L 27.127 37.981 L 26.689 37.957 L 26.25 37.923 L 25.81 37.879 L 25.368 37.824 L 24.923 37.758 L 24.477 37.68 L 24.028 37.59 L 23.576 37.488 L 23.122 37.371 L 22.665 37.24 L 22.206 37.094 L 21.746 36.932 L 21.283 36.753 L 20.82 36.557 L 20.357 36.341 L 19.893 36.107 L 19.431 35.852 L 18.971 35.576 L 18.515 35.278 L 18.062 34.959 L 17.615 34.616 L 17.175 34.25 L 16.743 33.86 L 16.32 33.446 L 15.91 33.008 L 15.512 32.545 L 15.128 32.058 L 14.761 31.547 L 14.412 31.012 L 14.083 30.454 L 13.775 29.873 L 13.491 29.269 L 13.232 28.645 L 13 28 L 12.796 27.336 L 12.623 26.655 L 12.481 25.957 L 12.373 25.245 L 12.299 24.519 L 12.261 23.783 L 12.26 23.037 L 12.298 22.285 L 12.374 21.528 L 12.49 20.768 L 12.647 20.008 L 12.845 19.25 L 13.083 18.497 L 13.363 17.751 L 13.685 17.016 L 14.047 16.292 L 14.45 15.584 L 14.893 14.893 L 15.376 14.223 L 15.896 13.575 L 16.454 12.953 L 17.047 12.358 L 17.675 11.793 L 18.335 11.26 L 19.026 10.761 L 19.746 10.298 L 20.492 9.874 L 21.263 9.489 L 22.055 9.146 L 22.868 8.846 L 23.697 8.59 L 24.54 8.379 L 25.395 8.214 L 26.259 8.095 L 27.128 8.024 Z" class="cut cam-outline" data-cam-key="eccentric" data-base-radius-mm="15" data-eccentricity-mm="5" data-cam-lobes="1" data-profile-harmonic="0" data-rise-deg="90" data-high-dwell-deg="60" data-return-deg="90" data-physical-cam-preset="eccentric" data-profile-source="automataii.domain.mechanisms.cam.profile.build_pear_cam_profile_from_params" data-profile-sample-count="144"/>
  </g>
  <g transform="translate(190 108)">
  <circle cx="28" cy="28" r="2" class="drill axle-hole" data-hole-role="axle" data-hole-diameter-mm="4"/>
  </g>
  <g transform="translate(190 108)">
  <line x1="28" y1="28" x2="43" y2="28" class="score cam-base-radius"/>
  </g>
  <g transform="translate(190 108)">
  <circle cx="28" cy="28" r="15" class="score cam-base-circle"/>
  </g>
  <g transform="translate(190 108)">
  <circle cx="40" cy="28" r="2" class="drill linkage-hole bracket-hole crank-hole handle-hole" data-hole-role="linkage-bracket-crank-handle" data-attachment-kinds="linkage bracket crank handle" data-hole-diameter-mm="4" data-hole-index="0" data-hole-x-offset-mm="12" data-hole-y-offset-mm="0"/>
  </g>
  <g transform="translate(190 108)">
  <circle cx="16.913" cy="23.408" r="2" class="drill linkage-hole bracket-hole crank-hole handle-hole" data-hole-role="linkage-bracket-crank-handle" data-attachment-kinds="linkage bracket crank handle" data-hole-diameter-mm="4" data-hole-index="1" data-hole-x-offset-mm="-11.087" data-hole-y-offset-mm="-4.592"/>
  </g>
  <g transform="translate(190 108)">
  <circle cx="28" cy="16" r="2" class="drill linkage-hole bracket-hole crank-hole handle-hole" data-hole-role="linkage-bracket-crank-handle" data-attachment-kinds="linkage bracket crank handle" data-hole-diameter-mm="4" data-hole-index="2" data-hole-x-offset-mm="-0" data-hole-y-offset-mm="-12"/>
  </g>
  <g transform="translate(190 108)">
  <circle cx="36.485" cy="19.515" r="2" class="drill linkage-hole bracket-hole crank-hole handle-hole" data-hole-role="linkage-bracket-crank-handle" data-attachment-kinds="linkage bracket crank handle" data-hole-diameter-mm="4" data-hole-index="3" data-hole-x-offset-mm="8.485" data-hole-y-offset-mm="-8.485"/>
  </g>
  <g transform="translate(14 180)">
  <path d="M 10 3 L 30 3 A 7 7 0 0 1 30 17 L 10 17 A 7 7 0 0 1 10 3 Z" class="cut bracket-outline" data-bracket-key="2-hole-straight" data-pitch-mm="20" data-hole-count="2"/>
  </g>
  <g transform="translate(14 180)">
  <circle cx="10" cy="10" r="2" class="drill bracket-hole linkage-hole" data-hole-role="bracket" data-hole-diameter-mm="4" data-hole-index="0" data-hole-x-mm="10" data-hole-y-mm="10"/>
  </g>
  <g transform="translate(14 180)">
  <circle cx="30" cy="10" r="2" class="drill bracket-hole linkage-hole" data-hole-role="bracket" data-hole-diameter-mm="4" data-hole-index="1" data-hole-x-mm="30" data-hole-y-mm="10"/>
  </g>
  <g transform="translate(84 180)">
  <path d="M 10 3 L 50 3 A 7 7 0 0 1 50 17 L 10 17 A 7 7 0 0 1 10 3 Z" class="cut bracket-outline" data-bracket-key="3-hole-straight" data-pitch-mm="20" data-hole-count="3"/>
  </g>
  <g transform="translate(84 180)">
  <circle cx="10" cy="10" r="2" class="drill bracket-hole linkage-hole" data-hole-role="bracket" data-hole-diameter-mm="4" data-hole-index="0" data-hole-x-mm="10" data-hole-y-mm="10"/>
  </g>
  <g transform="translate(84 180)">
  <circle cx="30" cy="10" r="2" class="drill bracket-hole linkage-hole" data-hole-role="bracket" data-hole-diameter-mm="4" data-hole-index="1" data-hole-x-mm="30" data-hole-y-mm="10"/>
  </g>
  <g transform="translate(84 180)">
  <circle cx="50" cy="10" r="2" class="drill bracket-hole linkage-hole" data-hole-role="bracket" data-hole-diameter-mm="4" data-hole-index="2" data-hole-x-mm="50" data-hole-y-mm="10"/>
  </g>
</svg>
