<?xml version="1.0" encoding="UTF-8"?>
<svg xmlns="http://www.w3.org/2000/svg" version="1.1"
     width="420mm" height="320mm"
     viewBox="0 0 420 320"
     data-profile-key="motionsmith-ms4n"
     data-grid-pitch-mm="20.4"
     data-hole-diameter-mm="5.0">
  <title>Automataii fabrication sheet 04-prototype-set-a: Prototype set A</title>
  <desc>Workshop sheet containing: gears, linkages, cams. Nominal holes are 5 mm.</desc>
  <defs>
    <style>
      .cut { fill: none; stroke: #ed1c24; stroke-width: 0.25; stroke-miterlimit: 10; }
      .drill { fill: none; stroke: #0071bc; stroke-width: 0.2; stroke-miterlimit: 10; }
      .score { fill: none; stroke: #777777; stroke-width: 0.15; stroke-dasharray: 2 1; }
      .label { fill: #333333; font-family: Arial, Helvetica, sans-serif; font-size: 4px; }
      .tiny { fill: #333333; font-family: Arial, Helvetica, sans-serif; font-size: 3px; }
      .paper { fill: #ffffff; stroke: none; }
    </style>
  </defs>
  <text x="12" y="12" class="label" text-anchor="start">04 Prototype set A</text>
  <text x="12" y="18" class="tiny" text-anchor="start">Starter mix: two gears, two linkages, two cams</text>
  <g transform="translate(10 28)">
  <path d="M 103.85 59.6 L 110.952 64.658 L 110.209 69.667 L 101.945 72.445 L 100.482 76.534 L 105.107 83.924 L 102.504 88.267 L 93.806 87.672 L 90.889 90.889 L 92.335 99.487 L 88.267 102.504 L 80.459 98.625 L 76.534 100.482 L 74.579 108.978 L 69.667 110.209 L 63.937 103.637 L 59.6 103.85 L 54.542 110.952 L 49.533 110.209 L 46.755 101.945 L 42.666 100.482 L 35.276 105.107 L 30.933 102.504 L 31.528 93.806 L 28.311 90.889 L 19.713 92.335 L 16.696 88.267 L 20.575 80.459 L 18.718 76.534 L 10.222 74.579 L 8.991 69.667 L 15.563 63.937 L 15.35 59.6 L 8.248 54.542 L 8.991 49.533 L 17.255 46.755 L 18.718 42.666 L 14.093 35.276 L 16.696 30.933 L 25.394 31.528 L 28.311 28.311 L 26.865 19.713 L 30.933 16.696 L 38.741 20.575 L 42.666 18.718 L 44.621 10.222 L 49.533 8.991 L 55.263 15.563 L 59.6 15.35 L 64.658 8.248 L 69.667 8.991 L 72.445 17.255 L 76.534 18.718 L 83.924 14.093 L 88.267 16.696 L 87.672 25.394 L 90.889 28.311 L 99.487 26.865 L 102.504 30.933 L 98.625 38.741 L 100.482 42.666 L 108.978 44.621 L 110.209 49.533 L 103.637 55.263 Z" class="cut gear-outline" data-teeth="16" data-pitch-radius-mm="48" data-root-radius-mm="44.25" data-outer-radius-mm="51.6"/>
  </g>
  <g transform="translate(10 28)">
  <circle cx="59.6" cy="59.6" r="2.5" class="drill axle-hole" data-hole-role="axle" data-hole-diameter-mm="5.0"/>
  </g>
  <g transform="translate(10 28)">
  <circle cx="59.6" cy="59.6" r="48" class="score pitch-circle"/>
  </g>
  <g transform="translate(10 28)">
  <circle cx="80" cy="59.6" r="2.5" class="drill linkage-hole bracket-hole" data-hole-role="linkage-bracket" data-hole-diameter-mm="5.0" data-hole-ring="0" data-hole-index="0" data-hole-radius-mm="20.4"/>
  </g>
  <g transform="translate(10 28)">
  <circle cx="59.6" cy="80" r="2.5" class="drill linkage-hole bracket-hole" data-hole-role="linkage-bracket" data-hole-diameter-mm="5.0" data-hole-ring="0" data-hole-index="1" data-hole-radius-mm="20.4"/>
  </g>
  <g transform="translate(10 28)">
  <circle cx="39.2" cy="59.6" r="2.5" class="drill linkage-hole bracket-hole" data-hole-role="linkage-bracket" data-hole-diameter-mm="5.0" data-hole-ring="0" data-hole-index="2" data-hole-radius-mm="20.4"/>
  </g>
  <g transform="translate(10 28)">
  <circle cx="59.6" cy="39.2" r="2.5" class="drill linkage-hole bracket-hole" data-hole-role="linkage-bracket" data-hole-diameter-mm="5.0" data-hole-ring="0" data-hole-index="3" data-hole-radius-mm="20.4"/>
  </g>
  <g transform="translate(112 28)">
  <path d="M 127.85 71.6 L 135.004 76.59 L 134.417 81.549 L 126.296 84.731 L 125.097 88.982 L 130.359 95.939 L 128.268 100.474 L 119.561 100.991 L 117.107 104.663 L 119.962 112.905 L 116.572 116.572 L 108.131 114.373 L 104.663 117.107 L 104.831 125.828 L 100.474 128.268 L 93.126 123.568 L 88.982 125.097 L 86.447 133.443 L 81.549 134.417 L 76.013 127.677 L 71.6 127.85 L 66.61 135.004 L 61.651 134.417 L 58.469 126.296 L 54.218 125.097 L 47.261 130.359 L 42.726 128.268 L 42.209 119.561 L 38.537 117.107 L 30.295 119.962 L 26.628 116.572 L 28.827 108.131 L 26.093 104.663 L 17.372 104.831 L 14.932 100.474 L 19.632 93.126 L 18.103 88.982 L 9.757 86.447 L 8.783 81.549 L 15.523 76.013 L 15.35 71.6 L 8.196 66.61 L 8.783 61.651 L 16.904 58.469 L 18.103 54.218 L 12.841 47.261 L 14.932 42.726 L 23.639 42.209 L 26.093 38.537 L 23.238 30.295 L 26.628 26.628 L 35.069 28.827 L 38.537 26.093 L 38.369 17.372 L 42.726 14.932 L 50.074 19.632 L 54.218 18.103 L 56.753 9.757 L 61.651 8.783 L 67.187 15.523 L 71.6 15.35 L 76.59 8.196 L 81.549 8.783 L 84.731 16.904 L 88.982 18.103 L 95.939 12.841 L 100.474 14.932 L 100.991 23.639 L 104.663 26.093 L 112.905 23.238 L 116.572 26.628 L 114.373 35.069 L 117.107 38.537 L 125.828 38.369 L 128.268 42.726 L 123.568 50.074 L 125.097 54.218 L 133.443 56.753 L 134.417 61.651 L 127.677 67.187 Z" class="cut gear-outline" data-teeth="20" data-pitch-radius-mm="60" data-root-radius-mm="56.25" data-outer-radius-mm="63.6"/>
  </g>
  <g transform="translate(112 28)">
  <circle cx="71.6" cy="71.6" r="2.5" class="drill axle-hole" data-hole-role="axle" data-hole-diameter-mm="5.0"/>
  </g>
  <g transform="translate(112 28)">
  <circle cx="71.6" cy="71.6" r="60" class="score pitch-circle"/>
  </g>
  <g transform="translate(112 28)">
  <circle cx="92" cy="71.6" r="2.5" class="drill linkage-hole bracket-hole" data-hole-role="linkage-bracket" data-hole-diameter-mm="5.0" data-hole-ring="0" data-hole-index="0" data-hole-radius-mm="20.4"/>
  </g>
  <g transform="translate(112 28)">
  <circle cx="71.6" cy="92" r="2.5" class="drill linkage-hole bracket-hole" data-hole-role="linkage-bracket" data-hole-diameter-mm="5.0" data-hole-ring="0" data-hole-index="1" data-hole-radius-mm="20.4"/>
  </g>
  <g transform="translate(112 28)">
  <circle cx="51.2" cy="71.6" r="2.5" class="drill linkage-hole bracket-hole" data-hole-role="linkage-bracket" data-hole-diameter-mm="5.0" data-hole-ring="0" data-hole-index="2" data-hole-radius-mm="20.4"/>
  </g>
  <g transform="translate(112 28)">
  <circle cx="71.6" cy="51.2" r="2.5" class="drill linkage-hole bracket-hole" data-hole-role="linkage-bracket" data-hole-diameter-mm="5.0" data-hole-ring="0" data-hole-index="3" data-hole-radius-mm="20.4"/>
  </g>
  <g transform="translate(112 28)">
  <circle cx="112.4" cy="71.6" r="2.5" class="drill linkage-hole bracket-hole" data-hole-role="linkage-bracket" data-hole-diameter-mm="5.0" data-hole-ring="1" data-hole-index="4" data-hole-radius-mm="40.8"/>
  </g>
  <g transform="translate(112 28)">
  <circle cx="100.45" cy="100.45" r="2.5" class="drill linkage-hole bracket-hole" data-hole-role="linkage-bracket" data-hole-diameter-mm="5.0" data-hole-ring="1" data-hole-index="5" data-hole-radius-mm="40.8"/>
  </g>
  <g transform="translate(112 28)">
  <circle cx="71.6" cy="112.4" r="2.5" class="drill linkage-hole bracket-hole" data-hole-role="linkage-bracket" data-hole-diameter-mm="5.0" data-hole-ring="1" data-hole-index="6" data-hole-radius-mm="40.8"/>
  </g>
  <g transform="translate(112 28)">
  <circle cx="42.75" cy="100.45" r="2.5" class="drill linkage-hole bracket-hole" data-hole-role="linkage-bracket" data-hole-diameter-mm="5.0" data-hole-ring="1" data-hole-index="7" data-hole-radius-mm="40.8"/>
  </g>
  <g transform="translate(112 28)">
  <circle cx="30.8" cy="71.6" r="2.5" class="drill linkage-hole bracket-hole" data-hole-role="linkage-bracket" data-hole-diameter-mm="5.0" data-hole-ring="1" data-hole-index="8" data-hole-radius-mm="40.8"/>
  </g>
  <g transform="translate(112 28)">
  <circle cx="42.75" cy="42.75" r="2.5" class="drill linkage-hole bracket-hole" data-hole-role="linkage-bracket" data-hole-diameter-mm="5.0" data-hole-ring="1" data-hole-index="9" data-hole-radius-mm="40.8"/>
  </g>
  <g transform="translate(112 28)">
  <circle cx="71.6" cy="30.8" r="2.5" class="drill linkage-hole bracket-hole" data-hole-role="linkage-bracket" data-hole-diameter-mm="5.0" data-hole-ring="1" data-hole-index="10" data-hole-radius-mm="40.8"/>
  </g>
  <g transform="translate(112 28)">
  <circle cx="100.45" cy="42.75" r="2.5" class="drill linkage-hole bracket-hole" data-hole-role="linkage-bracket" data-hole-diameter-mm="5.0" data-hole-ring="1" data-hole-index="11" data-hole-radius-mm="40.8"/>
  </g>
  <g transform="translate(10 128)">
  <path d="M 14 7 L 54.8 7 A 7 7 0 0 1 54.8 21 L 14 21 A 7 7 0 0 1 14 7 Z" class="cut linkage-outline" data-cells="2" data-length-mm="40.8" data-pitch-mm="20.4" data-hole-count="3"/>
  </g>
  <g transform="translate(10 128)">
  <circle cx="14" cy="14" r="2.5" class="drill linkage-hole bracket-hole" data-hole-role="linkage-bracket" data-hole-diameter-mm="5.0" data-hole-index="0"/>
  </g>
  <g transform="translate(10 128)">
  <circle cx="34.4" cy="14" r="2.5" class="drill linkage-hole bracket-hole" data-hole-role="linkage-bracket" data-hole-diameter-mm="5.0" data-hole-index="1"/>
  </g>
  <g transform="translate(10 128)">
  <circle cx="54.8" cy="14" r="2.5" class="drill linkage-hole bracket-hole" data-hole-role="linkage-bracket" data-hole-diameter-mm="5.0" data-hole-index="2"/>
  </g>
  <g transform="translate(10 162)">
  <path d="M 14 7 L 95.6 7 A 7 7 0 0 1 95.6 21 L 14 21 A 7 7 0 0 1 14 7 Z" class="cut linkage-outline" data-cells="4" data-length-mm="81.6" data-pitch-mm="20.4" data-hole-count="5"/>
  </g>
  <g transform="translate(10 162)">
  <circle cx="14" cy="14" r="2.5" class="drill linkage-hole bracket-hole" data-hole-role="linkage-bracket" data-hole-diameter-mm="5.0" data-hole-index="0"/>
  </g>
  <g transform="translate(10 162)">
  <circle cx="34.4" cy="14" r="2.5" class="drill linkage-hole bracket-hole" data-hole-role="linkage-bracket" data-hole-diameter-mm="5.0" data-hole-index="1"/>
  </g>
  <g transform="translate(10 162)">
  <circle cx="54.8" cy="14" r="2.5" class="drill linkage-hole bracket-hole" data-hole-role="linkage-bracket" data-hole-diameter-mm="5.0" data-hole-index="2"/>
  </g>
  <g transform="translate(10 162)">
  <circle cx="75.2" cy="14" r="2.5" class="drill linkage-hole bracket-hole" data-hole-role="linkage-bracket" data-hole-diameter-mm="5.0" data-hole-index="3"/>
  </g>
  <g transform="translate(10 162)">
  <circle cx="95.6" cy="14" r="2.5" class="drill linkage-hole bracket-hole" data-hole-role="linkage-bracket" data-hole-diameter-mm="5.0" data-hole-index="4"/>
  </g>
  <g transform="translate(190 28)">
  <path d="M 89.6 48.8 L 89.561 50.58 L 89.445 52.356 L 89.251 54.125 L 88.98 55.885 L 88.633 57.631 L 88.21 59.36 L 87.712 61.069 L 87.139 62.754 L 86.494 64.413 L 85.777 66.043 L 84.99 67.639 L 84.134 69.2 L 83.21 70.722 L 82.221 72.202 L 81.169 73.637 L 80.055 75.026 L 78.881 76.364 L 77.65 77.65 L 76.364 78.881 L 75.026 80.055 L 73.637 81.169 L 72.202 82.221 L 70.722 83.21 L 69.2 84.134 L 67.639 84.99 L 66.043 85.777 L 64.413 86.494 L 62.754 87.139 L 61.069 87.712 L 59.36 88.21 L 57.631 88.633 L 55.885 88.98 L 54.125 89.251 L 52.356 89.445 L 50.58 89.561 L 48.8 89.6 L 47.02 89.561 L 45.244 89.445 L 43.475 89.251 L 41.715 88.98 L 39.969 88.633 L 38.24 88.21 L 36.531 87.712 L 34.846 87.139 L 33.187 86.494 L 31.557 85.777 L 29.961 84.99 L 28.4 84.134 L 26.878 83.21 L 25.398 82.221 L 23.963 81.169 L 22.574 80.055 L 21.236 78.881 L 19.95 77.65 L 18.719 76.364 L 17.545 75.026 L 16.431 73.637 L 15.379 72.202 L 14.39 70.722 L 13.466 69.2 L 12.61 67.639 L 11.823 66.043 L 11.106 64.413 L 10.461 62.754 L 9.888 61.069 L 9.39 59.36 L 8.967 57.631 L 8.62 55.885 L 8.349 54.125 L 8.155 52.356 L 8.039 50.58 L 8 48.8 L 8.039 47.02 L 8.155 45.244 L 8.349 43.475 L 8.62 41.715 L 8.967 39.969 L 9.39 38.24 L 9.888 36.531 L 10.461 34.846 L 11.106 33.187 L 11.823 31.557 L 12.61 29.961 L 13.466 28.4 L 14.39 26.878 L 15.379 25.398 L 16.431 23.963 L 17.545 22.574 L 18.719 21.236 L 19.95 19.95 L 21.236 18.719 L 22.574 17.545 L 23.963 16.431 L 25.398 15.379 L 26.878 14.39 L 28.4 13.466 L 29.961 12.61 L 31.557 11.823 L 33.187 11.106 L 34.846 10.461 L 36.531 9.888 L 38.24 9.39 L 39.969 8.967 L 41.715 8.62 L 43.475 8.349 L 45.244 8.155 L 47.02 8.039 L 48.8 8 L 50.58 8.039 L 52.356 8.155 L 54.125 8.349 L 55.885 8.62 L 57.631 8.967 L 59.36 9.39 L 61.069 9.888 L 62.754 10.461 L 64.413 11.106 L 66.043 11.823 L 67.639 12.61 L 69.2 13.466 L 70.722 14.39 L 72.202 15.379 L 73.637 16.431 L 75.026 17.545 L 76.364 18.719 L 77.65 19.95 L 78.881 21.236 L 80.055 22.574 L 81.169 23.963 L 82.221 25.398 L 83.21 26.878 L 84.134 28.4 L 84.99 29.961 L 85.777 31.557 L 86.494 33.187 L 87.139 34.846 L 87.712 36.531 L 88.21 38.24 L 88.633 39.969 L 88.98 41.715 L 89.251 43.475 L 89.445 45.244 L 89.561 47.02 Z" class="cut cam-outline" data-cam-key="circle" data-base-radius-mm="40.8" data-eccentricity-mm="0"/>
  </g>
  <g transform="translate(190 28)">
  <circle cx="48.8" cy="48.8" r="2.5" class="drill axle-hole" data-hole-role="axle" data-hole-diameter-mm="5.0"/>
  </g>
  <g transform="translate(190 28)">
  <line x1="48.8" y1="48.8" x2="89.6" y2="48.8" class="score cam-base-radius"/>
  </g>
  <g transform="translate(190 28)">
  <circle cx="48.8" cy="48.8" r="40.8" class="score cam-base-circle"/>
  </g>
  <g transform="translate(190 112)">
  <path d="M 120.2 64.1 L 120.139 66.547 L 119.958 68.987 L 119.655 71.414 L 119.233 73.821 L 118.693 76.203 L 118.037 78.552 L 117.266 80.863 L 116.383 83.13 L 115.392 85.346 L 114.294 87.506 L 113.095 89.605 L 111.796 91.638 L 110.404 93.599 L 108.921 95.484 L 107.353 97.289 L 105.704 99.01 L 103.979 100.643 L 102.184 102.184 L 100.324 103.632 L 98.404 104.982 L 96.43 106.233 L 94.407 107.382 L 92.341 108.429 L 90.237 109.371 L 88.103 110.209 L 85.942 110.941 L 83.761 111.567 L 81.566 112.087 L 79.361 112.502 L 77.152 112.812 L 74.945 113.018 L 72.744 113.122 L 70.554 113.125 L 68.381 113.03 L 66.228 112.837 L 64.1 112.55 L 62.001 112.171 L 59.935 111.701 L 57.906 111.146 L 55.917 110.506 L 53.972 109.785 L 52.073 108.987 L 50.223 108.114 L 48.424 107.169 L 46.679 106.157 L 44.99 105.08 L 43.359 103.942 L 41.788 102.746 L 40.276 101.496 L 38.827 100.194 L 37.441 98.843 L 36.118 97.448 L 34.859 96.011 L 33.666 94.534 L 32.537 93.022 L 31.474 91.476 L 30.477 89.9 L 29.545 88.295 L 28.679 86.666 L 27.879 85.012 L 27.143 83.338 L 26.473 81.646 L 25.868 79.936 L 25.327 78.212 L 24.851 76.475 L 24.438 74.727 L 24.09 72.97 L 23.805 71.205 L 23.584 69.434 L 23.426 67.658 L 23.332 65.88 L 23.3 64.1 L 23.332 62.32 L 23.426 60.542 L 23.584 58.766 L 23.805 56.995 L 24.09 55.23 L 24.438 53.473 L 24.851 51.725 L 25.327 49.988 L 25.868 48.264 L 26.473 46.554 L 27.143 44.862 L 27.879 43.188 L 28.679 41.534 L 29.545 39.905 L 30.477 38.3 L 31.474 36.724 L 32.537 35.178 L 33.666 33.666 L 34.859 32.189 L 36.118 30.752 L 37.441 29.357 L 38.827 28.006 L 40.276 26.704 L 41.787 25.454 L 43.359 24.258 L 44.99 23.12 L 46.679 22.043 L 48.424 21.031 L 50.223 20.086 L 52.073 19.213 L 53.972 18.415 L 55.917 17.694 L 57.906 17.054 L 59.935 16.499 L 62.001 16.029 L 64.1 15.65 L 66.228 15.363 L 68.381 15.17 L 70.554 15.075 L 72.744 15.078 L 74.945 15.182 L 77.152 15.388 L 79.361 15.698 L 81.566 16.113 L 83.761 16.633 L 85.942 17.259 L 88.103 17.991 L 90.237 18.829 L 92.341 19.771 L 94.407 20.818 L 96.43 21.967 L 98.404 23.218 L 100.324 24.568 L 102.184 26.016 L 103.979 27.557 L 105.704 29.19 L 107.353 30.911 L 108.921 32.716 L 110.404 34.601 L 111.796 36.562 L 113.095 38.595 L 114.294 40.694 L 115.392 42.854 L 116.383 45.07 L 117.266 47.337 L 118.037 49.648 L 118.693 51.997 L 119.233 54.379 L 119.655 56.786 L 119.958 59.213 L 120.139 61.653 Z" class="cut cam-outline" data-cam-key="eccentric" data-base-radius-mm="40.8" data-eccentricity-mm="15.3"/>
  </g>
  <g transform="translate(190 112)">
  <circle cx="64.1" cy="64.1" r="2.5" class="drill axle-hole" data-hole-role="axle" data-hole-diameter-mm="5.0"/>
  </g>
  <g transform="translate(190 112)">
  <line x1="64.1" y1="64.1" x2="104.9" y2="64.1" class="score cam-base-radius"/>
  </g>
  <g transform="translate(190 112)">
  <circle cx="64.1" cy="64.1" r="40.8" class="score cam-base-circle"/>
  </g>
</svg>
