<?xml version="1.0" encoding="UTF-8"?>
<svg xmlns="http://www.w3.org/2000/svg" version="1.1"
     width="420mm" height="320mm"
     viewBox="0 0 420 320"
     data-profile-key="motionsmith-ms4n"
     data-grid-pitch-mm="20"
     data-hole-diameter-mm="6">
  <title>Automataii fabrication sheet 04-prototype-set-a: Prototype set A</title>
  <desc>Workshop sheet containing: gears, linkages, cams, brackets. Nominal holes are 6 mm.</desc>
  <defs>
    <style>
      .cut { fill: none; stroke: #ed1c24; stroke-width: 0.25; stroke-miterlimit: 10; }
      .drill { fill: none; stroke: #0071bc; stroke-width: 0.2; stroke-miterlimit: 10; }
      .score { fill: none; stroke: #777777; stroke-width: 0.15; stroke-dasharray: 2 1; }
      .label { fill: #333333; font-family: Arial, Helvetica, sans-serif; font-size: 4px; }
      .tiny { fill: #333333; font-family: Arial, Helvetica, sans-serif; font-size: 3px; }
      .paper { fill: #ffffff; stroke: none; }
    </style>
  </defs>
  <text x="12" y="12" class="label" text-anchor="start">04 Prototype set A</text>
  <text x="12" y="18" class="tiny" text-anchor="start">Starter mix: two gears, two linkages, two cams, brackets</text>
  <g transform="translate(10 28)">
  <path d="M 103.85 59.6 L 110.952 64.658 L 110.209 69.667 L 101.945 72.445 L 100.482 76.534 L 105.107 83.924 L 102.504 88.267 L 93.806 87.672 L 90.889 90.889 L 92.335 99.487 L 88.267 102.504 L 80.459 98.625 L 76.534 100.482 L 74.579 108.978 L 69.667 110.209 L 63.937 103.637 L 59.6 103.85 L 54.542 110.952 L 49.533 110.209 L 46.755 101.945 L 42.666 100.482 L 35.276 105.107 L 30.933 102.504 L 31.528 93.806 L 28.311 90.889 L 19.713 92.335 L 16.696 88.267 L 20.575 80.459 L 18.718 76.534 L 10.222 74.579 L 8.991 69.667 L 15.563 63.937 L 15.35 59.6 L 8.248 54.542 L 8.991 49.533 L 17.255 46.755 L 18.718 42.666 L 14.093 35.276 L 16.696 30.933 L 25.394 31.528 L 28.311 28.311 L 26.865 19.713 L 30.933 16.696 L 38.741 20.575 L 42.666 18.718 L 44.621 10.222 L 49.533 8.991 L 55.263 15.563 L 59.6 15.35 L 64.658 8.248 L 69.667 8.991 L 72.445 17.255 L 76.534 18.718 L 83.924 14.093 L 88.267 16.696 L 87.672 25.394 L 90.889 28.311 L 99.487 26.865 L 102.504 30.933 L 98.625 38.741 L 100.482 42.666 L 108.978 44.621 L 110.209 49.533 L 103.637 55.263 Z" class="cut gear-outline" data-teeth="16" data-pitch-radius-mm="48" data-root-radius-mm="44.25" data-outer-radius-mm="51.6"/>
  </g>
  <g transform="translate(10 28)">
  <circle cx="59.6" cy="59.6" r="3" class="drill axle-hole" data-hole-role="axle" data-hole-diameter-mm="6"/>
  </g>
  <g transform="translate(10 28)">
  <circle cx="59.6" cy="59.6" r="48" class="score pitch-circle"/>
  </g>
  <g transform="translate(10 28)">
  <circle cx="59.6" cy="39.6" r="3" class="drill linkage-hole bracket-hole crank-hole handle-hole" data-hole-role="linkage-bracket-crank-handle" data-attachment-kinds="linkage bracket crank handle" data-hole-diameter-mm="6" data-hole-index="0" data-hole-x-offset-mm="0" data-hole-y-offset-mm="-20" data-hole-radius-mm="20"/>
  </g>
  <g transform="translate(10 28)">
  <circle cx="39.6" cy="59.6" r="3" class="drill linkage-hole bracket-hole crank-hole handle-hole" data-hole-role="linkage-bracket-crank-handle" data-attachment-kinds="linkage bracket crank handle" data-hole-diameter-mm="6" data-hole-index="1" data-hole-x-offset-mm="-20" data-hole-y-offset-mm="0" data-hole-radius-mm="20"/>
  </g>
  <g transform="translate(10 28)">
  <circle cx="79.6" cy="59.6" r="3" class="drill linkage-hole bracket-hole crank-hole handle-hole" data-hole-role="linkage-bracket-crank-handle" data-attachment-kinds="linkage bracket crank handle" data-hole-diameter-mm="6" data-hole-index="2" data-hole-x-offset-mm="20" data-hole-y-offset-mm="0" data-hole-radius-mm="20"/>
  </g>
  <g transform="translate(10 28)">
  <circle cx="59.6" cy="79.6" r="3" class="drill linkage-hole bracket-hole crank-hole handle-hole" data-hole-role="linkage-bracket-crank-handle" data-attachment-kinds="linkage bracket crank handle" data-hole-diameter-mm="6" data-hole-index="3" data-hole-x-offset-mm="0" data-hole-y-offset-mm="20" data-hole-radius-mm="20"/>
  </g>
  <g transform="translate(10 28)">
  <circle cx="39.6" cy="39.6" r="3" class="drill linkage-hole bracket-hole crank-hole handle-hole" data-hole-role="linkage-bracket-crank-handle" data-attachment-kinds="linkage bracket crank handle" data-hole-diameter-mm="6" data-hole-index="4" data-hole-x-offset-mm="-20" data-hole-y-offset-mm="-20" data-hole-radius-mm="28.284"/>
  </g>
  <g transform="translate(10 28)">
  <circle cx="79.6" cy="39.6" r="3" class="drill linkage-hole bracket-hole crank-hole handle-hole" data-hole-role="linkage-bracket-crank-handle" data-attachment-kinds="linkage bracket crank handle" data-hole-diameter-mm="6" data-hole-index="5" data-hole-x-offset-mm="20" data-hole-y-offset-mm="-20" data-hole-radius-mm="28.284"/>
  </g>
  <g transform="translate(10 28)">
  <circle cx="39.6" cy="79.6" r="3" class="drill linkage-hole bracket-hole crank-hole handle-hole" data-hole-role="linkage-bracket-crank-handle" data-attachment-kinds="linkage bracket crank handle" data-hole-diameter-mm="6" data-hole-index="6" data-hole-x-offset-mm="-20" data-hole-y-offset-mm="20" data-hole-radius-mm="28.284"/>
  </g>
  <g transform="translate(10 28)">
  <circle cx="79.6" cy="79.6" r="3" class="drill linkage-hole bracket-hole crank-hole handle-hole" data-hole-role="linkage-bracket-crank-handle" data-attachment-kinds="linkage bracket crank handle" data-hole-diameter-mm="6" data-hole-index="7" data-hole-x-offset-mm="20" data-hole-y-offset-mm="20" data-hole-radius-mm="28.284"/>
  </g>
  <g transform="translate(112 28)">
  <path d="M 127.85 71.6 L 135.004 76.59 L 134.417 81.549 L 126.296 84.731 L 125.097 88.982 L 130.359 95.939 L 128.268 100.474 L 119.561 100.991 L 117.107 104.663 L 119.962 112.905 L 116.572 116.572 L 108.131 114.373 L 104.663 117.107 L 104.831 125.828 L 100.474 128.268 L 93.126 123.568 L 88.982 125.097 L 86.447 133.443 L 81.549 134.417 L 76.013 127.677 L 71.6 127.85 L 66.61 135.004 L 61.651 134.417 L 58.469 126.296 L 54.218 125.097 L 47.261 130.359 L 42.726 128.268 L 42.209 119.561 L 38.537 117.107 L 30.295 119.962 L 26.628 116.572 L 28.827 108.131 L 26.093 104.663 L 17.372 104.831 L 14.932 100.474 L 19.632 93.126 L 18.103 88.982 L 9.757 86.447 L 8.783 81.549 L 15.523 76.013 L 15.35 71.6 L 8.196 66.61 L 8.783 61.651 L 16.904 58.469 L 18.103 54.218 L 12.841 47.261 L 14.932 42.726 L 23.639 42.209 L 26.093 38.537 L 23.238 30.295 L 26.628 26.628 L 35.069 28.827 L 38.537 26.093 L 38.369 17.372 L 42.726 14.932 L 50.074 19.632 L 54.218 18.103 L 56.753 9.757 L 61.651 8.783 L 67.187 15.523 L 71.6 15.35 L 76.59 8.196 L 81.549 8.783 L 84.731 16.904 L 88.982 18.103 L 95.939 12.841 L 100.474 14.932 L 100.991 23.639 L 104.663 26.093 L 112.905 23.238 L 116.572 26.628 L 114.373 35.069 L 117.107 38.537 L 125.828 38.369 L 128.268 42.726 L 123.568 50.074 L 125.097 54.218 L 133.443 56.753 L 134.417 61.651 L 127.677 67.187 Z" class="cut gear-outline" data-teeth="20" data-pitch-radius-mm="60" data-root-radius-mm="56.25" data-outer-radius-mm="63.6"/>
  </g>
  <g transform="translate(112 28)">
  <circle cx="71.6" cy="71.6" r="3" class="drill axle-hole" data-hole-role="axle" data-hole-diameter-mm="6"/>
  </g>
  <g transform="translate(112 28)">
  <circle cx="71.6" cy="71.6" r="60" class="score pitch-circle"/>
  </g>
  <g transform="translate(112 28)">
  <circle cx="71.6" cy="51.6" r="3" class="drill linkage-hole bracket-hole crank-hole handle-hole" data-hole-role="linkage-bracket-crank-handle" data-attachment-kinds="linkage bracket crank handle" data-hole-diameter-mm="6" data-hole-index="0" data-hole-x-offset-mm="0" data-hole-y-offset-mm="-20" data-hole-radius-mm="20"/>
  </g>
  <g transform="translate(112 28)">
  <circle cx="51.6" cy="71.6" r="3" class="drill linkage-hole bracket-hole crank-hole handle-hole" data-hole-role="linkage-bracket-crank-handle" data-attachment-kinds="linkage bracket crank handle" data-hole-diameter-mm="6" data-hole-index="1" data-hole-x-offset-mm="-20" data-hole-y-offset-mm="0" data-hole-radius-mm="20"/>
  </g>
  <g transform="translate(112 28)">
  <circle cx="91.6" cy="71.6" r="3" class="drill linkage-hole bracket-hole crank-hole handle-hole" data-hole-role="linkage-bracket-crank-handle" data-attachment-kinds="linkage bracket crank handle" data-hole-diameter-mm="6" data-hole-index="2" data-hole-x-offset-mm="20" data-hole-y-offset-mm="0" data-hole-radius-mm="20"/>
  </g>
  <g transform="translate(112 28)">
  <circle cx="71.6" cy="91.6" r="3" class="drill linkage-hole bracket-hole crank-hole handle-hole" data-hole-role="linkage-bracket-crank-handle" data-attachment-kinds="linkage bracket crank handle" data-hole-diameter-mm="6" data-hole-index="3" data-hole-x-offset-mm="0" data-hole-y-offset-mm="20" data-hole-radius-mm="20"/>
  </g>
  <g transform="translate(112 28)">
  <circle cx="51.6" cy="51.6" r="3" class="drill linkage-hole bracket-hole crank-hole handle-hole" data-hole-role="linkage-bracket-crank-handle" data-attachment-kinds="linkage bracket crank handle" data-hole-diameter-mm="6" data-hole-index="4" data-hole-x-offset-mm="-20" data-hole-y-offset-mm="-20" data-hole-radius-mm="28.284"/>
  </g>
  <g transform="translate(112 28)">
  <circle cx="91.6" cy="51.6" r="3" class="drill linkage-hole bracket-hole crank-hole handle-hole" data-hole-role="linkage-bracket-crank-handle" data-attachment-kinds="linkage bracket crank handle" data-hole-diameter-mm="6" data-hole-index="5" data-hole-x-offset-mm="20" data-hole-y-offset-mm="-20" data-hole-radius-mm="28.284"/>
  </g>
  <g transform="translate(112 28)">
  <circle cx="51.6" cy="91.6" r="3" class="drill linkage-hole bracket-hole crank-hole handle-hole" data-hole-role="linkage-bracket-crank-handle" data-attachment-kinds="linkage bracket crank handle" data-hole-diameter-mm="6" data-hole-index="6" data-hole-x-offset-mm="-20" data-hole-y-offset-mm="20" data-hole-radius-mm="28.284"/>
  </g>
  <g transform="translate(112 28)">
  <circle cx="91.6" cy="91.6" r="3" class="drill linkage-hole bracket-hole crank-hole handle-hole" data-hole-role="linkage-bracket-crank-handle" data-attachment-kinds="linkage bracket crank handle" data-hole-diameter-mm="6" data-hole-index="7" data-hole-x-offset-mm="20" data-hole-y-offset-mm="20" data-hole-radius-mm="28.284"/>
  </g>
  <g transform="translate(112 28)">
  <circle cx="71.6" cy="31.6" r="3" class="drill linkage-hole bracket-hole crank-hole handle-hole" data-hole-role="linkage-bracket-crank-handle" data-attachment-kinds="linkage bracket crank handle" data-hole-diameter-mm="6" data-hole-index="8" data-hole-x-offset-mm="0" data-hole-y-offset-mm="-40" data-hole-radius-mm="40"/>
  </g>
  <g transform="translate(112 28)">
  <circle cx="31.6" cy="71.6" r="3" class="drill linkage-hole bracket-hole crank-hole handle-hole" data-hole-role="linkage-bracket-crank-handle" data-attachment-kinds="linkage bracket crank handle" data-hole-diameter-mm="6" data-hole-index="9" data-hole-x-offset-mm="-40" data-hole-y-offset-mm="0" data-hole-radius-mm="40"/>
  </g>
  <g transform="translate(112 28)">
  <circle cx="111.6" cy="71.6" r="3" class="drill linkage-hole bracket-hole crank-hole handle-hole" data-hole-role="linkage-bracket-crank-handle" data-attachment-kinds="linkage bracket crank handle" data-hole-diameter-mm="6" data-hole-index="10" data-hole-x-offset-mm="40" data-hole-y-offset-mm="0" data-hole-radius-mm="40"/>
  </g>
  <g transform="translate(112 28)">
  <circle cx="71.6" cy="111.6" r="3" class="drill linkage-hole bracket-hole crank-hole handle-hole" data-hole-role="linkage-bracket-crank-handle" data-attachment-kinds="linkage bracket crank handle" data-hole-diameter-mm="6" data-hole-index="11" data-hole-x-offset-mm="0" data-hole-y-offset-mm="40" data-hole-radius-mm="40"/>
  </g>
  <g transform="translate(112 28)">
  <circle cx="51.6" cy="31.6" r="3" class="drill linkage-hole bracket-hole crank-hole handle-hole" data-hole-role="linkage-bracket-crank-handle" data-attachment-kinds="linkage bracket crank handle" data-hole-diameter-mm="6" data-hole-index="12" data-hole-x-offset-mm="-20" data-hole-y-offset-mm="-40" data-hole-radius-mm="44.721"/>
  </g>
  <g transform="translate(112 28)">
  <circle cx="91.6" cy="31.6" r="3" class="drill linkage-hole bracket-hole crank-hole handle-hole" data-hole-role="linkage-bracket-crank-handle" data-attachment-kinds="linkage bracket crank handle" data-hole-diameter-mm="6" data-hole-index="13" data-hole-x-offset-mm="20" data-hole-y-offset-mm="-40" data-hole-radius-mm="44.721"/>
  </g>
  <g transform="translate(112 28)">
  <circle cx="31.6" cy="51.6" r="3" class="drill linkage-hole bracket-hole crank-hole handle-hole" data-hole-role="linkage-bracket-crank-handle" data-attachment-kinds="linkage bracket crank handle" data-hole-diameter-mm="6" data-hole-index="14" data-hole-x-offset-mm="-40" data-hole-y-offset-mm="-20" data-hole-radius-mm="44.721"/>
  </g>
  <g transform="translate(112 28)">
  <circle cx="111.6" cy="51.6" r="3" class="drill linkage-hole bracket-hole crank-hole handle-hole" data-hole-role="linkage-bracket-crank-handle" data-attachment-kinds="linkage bracket crank handle" data-hole-diameter-mm="6" data-hole-index="15" data-hole-x-offset-mm="40" data-hole-y-offset-mm="-20" data-hole-radius-mm="44.721"/>
  </g>
  <g transform="translate(112 28)">
  <circle cx="31.6" cy="91.6" r="3" class="drill linkage-hole bracket-hole crank-hole handle-hole" data-hole-role="linkage-bracket-crank-handle" data-attachment-kinds="linkage bracket crank handle" data-hole-diameter-mm="6" data-hole-index="16" data-hole-x-offset-mm="-40" data-hole-y-offset-mm="20" data-hole-radius-mm="44.721"/>
  </g>
  <g transform="translate(112 28)">
  <circle cx="111.6" cy="91.6" r="3" class="drill linkage-hole bracket-hole crank-hole handle-hole" data-hole-role="linkage-bracket-crank-handle" data-attachment-kinds="linkage bracket crank handle" data-hole-diameter-mm="6" data-hole-index="17" data-hole-x-offset-mm="40" data-hole-y-offset-mm="20" data-hole-radius-mm="44.721"/>
  </g>
  <g transform="translate(112 28)">
  <circle cx="51.6" cy="111.6" r="3" class="drill linkage-hole bracket-hole crank-hole handle-hole" data-hole-role="linkage-bracket-crank-handle" data-attachment-kinds="linkage bracket crank handle" data-hole-diameter-mm="6" data-hole-index="18" data-hole-x-offset-mm="-20" data-hole-y-offset-mm="40" data-hole-radius-mm="44.721"/>
  </g>
  <g transform="translate(112 28)">
  <circle cx="91.6" cy="111.6" r="3" class="drill linkage-hole bracket-hole crank-hole handle-hole" data-hole-role="linkage-bracket-crank-handle" data-attachment-kinds="linkage bracket crank handle" data-hole-diameter-mm="6" data-hole-index="19" data-hole-x-offset-mm="20" data-hole-y-offset-mm="40" data-hole-radius-mm="44.721"/>
  </g>
  <g transform="translate(10 128)">
  <path d="M 14 7 L 54 7 A 7 7 0 0 1 54 21 L 14 21 A 7 7 0 0 1 14 7 Z" class="cut linkage-outline" data-cells="2" data-length-mm="40" data-pitch-mm="20" data-hole-count="3"/>
  </g>
  <g transform="translate(10 128)">
  <circle cx="14" cy="14" r="3" class="drill linkage-hole bracket-hole" data-hole-role="linkage-bracket" data-hole-diameter-mm="6" data-hole-index="0"/>
  </g>
  <g transform="translate(10 128)">
  <circle cx="34" cy="14" r="3" class="drill linkage-hole bracket-hole" data-hole-role="linkage-bracket" data-hole-diameter-mm="6" data-hole-index="1"/>
  </g>
  <g transform="translate(10 128)">
  <circle cx="54" cy="14" r="3" class="drill linkage-hole bracket-hole" data-hole-role="linkage-bracket" data-hole-diameter-mm="6" data-hole-index="2"/>
  </g>
  <g transform="translate(10 162)">
  <path d="M 14 7 L 94 7 A 7 7 0 0 1 94 21 L 14 21 A 7 7 0 0 1 14 7 Z" class="cut linkage-outline" data-cells="4" data-length-mm="80" data-pitch-mm="20" data-hole-count="5"/>
  </g>
  <g transform="translate(10 162)">
  <circle cx="14" cy="14" r="3" class="drill linkage-hole bracket-hole" data-hole-role="linkage-bracket" data-hole-diameter-mm="6" data-hole-index="0"/>
  </g>
  <g transform="translate(10 162)">
  <circle cx="34" cy="14" r="3" class="drill linkage-hole bracket-hole" data-hole-role="linkage-bracket" data-hole-diameter-mm="6" data-hole-index="1"/>
  </g>
  <g transform="translate(10 162)">
  <circle cx="54" cy="14" r="3" class="drill linkage-hole bracket-hole" data-hole-role="linkage-bracket" data-hole-diameter-mm="6" data-hole-index="2"/>
  </g>
  <g transform="translate(10 162)">
  <circle cx="74" cy="14" r="3" class="drill linkage-hole bracket-hole" data-hole-role="linkage-bracket" data-hole-diameter-mm="6" data-hole-index="3"/>
  </g>
  <g transform="translate(10 162)">
  <circle cx="94" cy="14" r="3" class="drill linkage-hole bracket-hole" data-hole-role="linkage-bracket" data-hole-diameter-mm="6" data-hole-index="4"/>
  </g>
  <g transform="translate(190 28)">
  <path d="M 88 48 L 87.962 49.745 L 87.848 51.486 L 87.658 53.221 L 87.392 54.946 L 87.052 56.658 L 86.637 58.353 L 86.149 60.028 L 85.588 61.681 L 84.955 63.307 L 84.252 64.905 L 83.48 66.47 L 82.641 68 L 81.736 69.492 L 80.766 70.943 L 79.734 72.35 L 78.642 73.712 L 77.491 75.024 L 76.284 76.284 L 75.024 77.491 L 73.712 78.642 L 72.35 79.734 L 70.943 80.766 L 69.492 81.736 L 68 82.641 L 66.47 83.48 L 64.905 84.252 L 63.307 84.955 L 61.681 85.588 L 60.028 86.149 L 58.353 86.637 L 56.658 87.052 L 54.946 87.392 L 53.221 87.658 L 51.486 87.848 L 49.745 87.962 L 48 88 L 46.255 87.962 L 44.514 87.848 L 42.779 87.658 L 41.054 87.392 L 39.342 87.052 L 37.647 86.637 L 35.972 86.149 L 34.319 85.588 L 32.693 84.955 L 31.095 84.252 L 29.53 83.48 L 28 82.641 L 26.508 81.736 L 25.057 80.766 L 23.65 79.734 L 22.288 78.642 L 20.976 77.491 L 19.716 76.284 L 18.509 75.024 L 17.358 73.712 L 16.266 72.35 L 15.234 70.943 L 14.264 69.492 L 13.359 68 L 12.52 66.47 L 11.748 64.905 L 11.045 63.307 L 10.412 61.681 L 9.851 60.028 L 9.363 58.353 L 8.948 56.658 L 8.608 54.946 L 8.342 53.221 L 8.152 51.486 L 8.038 49.745 L 8 48 L 8.038 46.255 L 8.152 44.514 L 8.342 42.779 L 8.608 41.054 L 8.948 39.342 L 9.363 37.647 L 9.851 35.972 L 10.412 34.319 L 11.045 32.693 L 11.748 31.095 L 12.52 29.53 L 13.359 28 L 14.264 26.508 L 15.234 25.057 L 16.266 23.65 L 17.358 22.288 L 18.509 20.976 L 19.716 19.716 L 20.976 18.509 L 22.288 17.358 L 23.65 16.266 L 25.057 15.234 L 26.508 14.264 L 28 13.359 L 29.53 12.52 L 31.095 11.748 L 32.693 11.045 L 34.319 10.412 L 35.972 9.851 L 37.647 9.363 L 39.342 8.948 L 41.054 8.608 L 42.779 8.342 L 44.514 8.152 L 46.255 8.038 L 48 8 L 49.745 8.038 L 51.486 8.152 L 53.221 8.342 L 54.946 8.608 L 56.658 8.948 L 58.353 9.363 L 60.028 9.851 L 61.681 10.412 L 63.307 11.045 L 64.905 11.748 L 66.47 12.52 L 68 13.359 L 69.492 14.264 L 70.943 15.234 L 72.35 16.266 L 73.712 17.358 L 75.024 18.509 L 76.284 19.716 L 77.491 20.976 L 78.642 22.288 L 79.734 23.65 L 80.766 25.057 L 81.736 26.508 L 82.641 28 L 83.48 29.53 L 84.252 31.095 L 84.955 32.693 L 85.588 34.319 L 86.149 35.972 L 86.637 37.647 L 87.052 39.342 L 87.392 41.054 L 87.658 42.779 L 87.848 44.514 L 87.962 46.255 Z" class="cut cam-outline" data-cam-key="circle" data-base-radius-mm="40" data-eccentricity-mm="0"/>
  </g>
  <g transform="translate(190 28)">
  <circle cx="48" cy="48" r="3" class="drill axle-hole" data-hole-role="axle" data-hole-diameter-mm="6"/>
  </g>
  <g transform="translate(190 28)">
  <line x1="48" y1="48" x2="88" y2="48" class="score cam-base-radius"/>
  </g>
  <g transform="translate(190 28)">
  <circle cx="48" cy="48" r="40" class="score cam-base-circle"/>
  </g>
  <g transform="translate(190 28)">
  <circle cx="48" cy="28" r="3" class="drill linkage-hole bracket-hole crank-hole handle-hole" data-hole-role="linkage-bracket-crank-handle" data-attachment-kinds="linkage bracket crank handle" data-hole-diameter-mm="6" data-hole-index="0" data-hole-x-offset-mm="0" data-hole-y-offset-mm="-20"/>
  </g>
  <g transform="translate(190 28)">
  <circle cx="28" cy="48" r="3" class="drill linkage-hole bracket-hole crank-hole handle-hole" data-hole-role="linkage-bracket-crank-handle" data-attachment-kinds="linkage bracket crank handle" data-hole-diameter-mm="6" data-hole-index="1" data-hole-x-offset-mm="-20" data-hole-y-offset-mm="0"/>
  </g>
  <g transform="translate(190 28)">
  <circle cx="68" cy="48" r="3" class="drill linkage-hole bracket-hole crank-hole handle-hole" data-hole-role="linkage-bracket-crank-handle" data-attachment-kinds="linkage bracket crank handle" data-hole-diameter-mm="6" data-hole-index="2" data-hole-x-offset-mm="20" data-hole-y-offset-mm="0"/>
  </g>
  <g transform="translate(190 28)">
  <circle cx="48" cy="68" r="3" class="drill linkage-hole bracket-hole crank-hole handle-hole" data-hole-role="linkage-bracket-crank-handle" data-attachment-kinds="linkage bracket crank handle" data-hole-diameter-mm="6" data-hole-index="3" data-hole-x-offset-mm="0" data-hole-y-offset-mm="20"/>
  </g>
  <g transform="translate(190 28)">
  <circle cx="28" cy="28" r="3" class="drill linkage-hole bracket-hole crank-hole handle-hole" data-hole-role="linkage-bracket-crank-handle" data-attachment-kinds="linkage bracket crank handle" data-hole-diameter-mm="6" data-hole-index="4" data-hole-x-offset-mm="-20" data-hole-y-offset-mm="-20"/>
  </g>
  <g transform="translate(190 28)">
  <circle cx="68" cy="28" r="3" class="drill linkage-hole bracket-hole crank-hole handle-hole" data-hole-role="linkage-bracket-crank-handle" data-attachment-kinds="linkage bracket crank handle" data-hole-diameter-mm="6" data-hole-index="5" data-hole-x-offset-mm="20" data-hole-y-offset-mm="-20"/>
  </g>
  <g transform="translate(190 28)">
  <circle cx="28" cy="68" r="3" class="drill linkage-hole bracket-hole crank-hole handle-hole" data-hole-role="linkage-bracket-crank-handle" data-attachment-kinds="linkage bracket crank handle" data-hole-diameter-mm="6" data-hole-index="6" data-hole-x-offset-mm="-20" data-hole-y-offset-mm="20"/>
  </g>
  <g transform="translate(190 28)">
  <circle cx="68" cy="68" r="3" class="drill linkage-hole bracket-hole crank-hole handle-hole" data-hole-role="linkage-bracket-crank-handle" data-attachment-kinds="linkage bracket crank handle" data-hole-diameter-mm="6" data-hole-index="7" data-hole-x-offset-mm="20" data-hole-y-offset-mm="20"/>
  </g>
  <g transform="translate(190 112)">
  <path d="M 118 63 L 117.941 65.399 L 117.762 67.791 L 117.466 70.171 L 117.052 72.531 L 116.523 74.866 L 115.879 77.169 L 115.123 79.434 L 114.258 81.656 L 113.286 83.829 L 112.21 85.947 L 111.034 88.005 L 109.761 89.998 L 108.396 91.92 L 106.942 93.769 L 105.405 95.538 L 103.788 97.225 L 102.098 98.826 L 100.338 100.338 L 98.514 101.756 L 96.631 103.08 L 94.696 104.307 L 92.712 105.434 L 90.687 106.46 L 88.625 107.384 L 86.532 108.205 L 84.414 108.922 L 82.276 109.536 L 80.123 110.046 L 77.962 110.452 L 75.796 110.756 L 73.632 110.959 L 71.474 111.061 L 69.328 111.064 L 67.197 110.97 L 65.086 110.782 L 63 110.5 L 60.942 110.128 L 58.917 109.668 L 56.928 109.123 L 54.978 108.496 L 53.07 107.789 L 51.209 107.006 L 49.395 106.151 L 47.631 105.225 L 45.921 104.233 L 44.265 103.177 L 42.666 102.061 L 41.125 100.889 L 39.643 99.662 L 38.223 98.386 L 36.863 97.062 L 35.566 95.694 L 34.333 94.285 L 33.162 92.838 L 32.056 91.355 L 31.014 89.839 L 30.036 88.294 L 29.123 86.721 L 28.274 85.123 L 27.489 83.502 L 26.768 81.861 L 26.111 80.202 L 25.517 78.526 L 24.987 76.836 L 24.52 75.133 L 24.116 73.419 L 23.775 71.696 L 23.495 69.966 L 23.279 68.229 L 23.124 66.489 L 23.031 64.745 L 23 63 L 23.031 61.255 L 23.124 59.511 L 23.279 57.771 L 23.495 56.034 L 23.775 54.304 L 24.116 52.581 L 24.52 50.867 L 24.987 49.164 L 25.517 47.474 L 26.111 45.798 L 26.768 44.139 L 27.489 42.498 L 28.274 40.877 L 29.123 39.279 L 30.036 37.706 L 31.014 36.161 L 32.056 34.645 L 33.162 33.162 L 34.333 31.715 L 35.566 30.306 L 36.863 28.938 L 38.223 27.614 L 39.643 26.338 L 41.125 25.111 L 42.666 23.939 L 44.265 22.823 L 45.921 21.767 L 47.631 20.775 L 49.395 19.849 L 51.209 18.994 L 53.07 18.211 L 54.978 17.504 L 56.928 16.877 L 58.917 16.332 L 60.942 15.872 L 63 15.5 L 65.086 15.218 L 67.197 15.03 L 69.328 14.936 L 71.474 14.939 L 73.632 15.041 L 75.796 15.244 L 77.962 15.548 L 80.123 15.954 L 82.276 16.464 L 84.414 17.078 L 86.532 17.795 L 88.625 18.616 L 90.687 19.54 L 92.712 20.566 L 94.696 21.693 L 96.631 22.92 L 98.514 24.244 L 100.338 25.662 L 102.098 27.174 L 103.788 28.775 L 105.405 30.462 L 106.942 32.231 L 108.396 34.08 L 109.761 36.002 L 111.034 37.995 L 112.21 40.053 L 113.286 42.171 L 114.258 44.344 L 115.123 46.566 L 115.879 48.831 L 116.523 51.134 L 117.052 53.469 L 117.466 55.829 L 117.762 58.209 L 117.941 60.601 Z" class="cut cam-outline" data-cam-key="eccentric" data-base-radius-mm="40" data-eccentricity-mm="15"/>
  </g>
  <g transform="translate(190 112)">
  <circle cx="63" cy="63" r="3" class="drill axle-hole" data-hole-role="axle" data-hole-diameter-mm="6"/>
  </g>
  <g transform="translate(190 112)">
  <line x1="63" y1="63" x2="103" y2="63" class="score cam-base-radius"/>
  </g>
  <g transform="translate(190 112)">
  <circle cx="63" cy="63" r="40" class="score cam-base-circle"/>
  </g>
  <g transform="translate(190 112)">
  <circle cx="63" cy="43" r="3" class="drill linkage-hole bracket-hole crank-hole handle-hole" data-hole-role="linkage-bracket-crank-handle" data-attachment-kinds="linkage bracket crank handle" data-hole-diameter-mm="6" data-hole-index="0" data-hole-x-offset-mm="0" data-hole-y-offset-mm="-20"/>
  </g>
  <g transform="translate(190 112)">
  <circle cx="43" cy="63" r="3" class="drill linkage-hole bracket-hole crank-hole handle-hole" data-hole-role="linkage-bracket-crank-handle" data-attachment-kinds="linkage bracket crank handle" data-hole-diameter-mm="6" data-hole-index="1" data-hole-x-offset-mm="-20" data-hole-y-offset-mm="0"/>
  </g>
  <g transform="translate(190 112)">
  <circle cx="83" cy="63" r="3" class="drill linkage-hole bracket-hole crank-hole handle-hole" data-hole-role="linkage-bracket-crank-handle" data-attachment-kinds="linkage bracket crank handle" data-hole-diameter-mm="6" data-hole-index="2" data-hole-x-offset-mm="20" data-hole-y-offset-mm="0"/>
  </g>
  <g transform="translate(190 112)">
  <circle cx="63" cy="83" r="3" class="drill linkage-hole bracket-hole crank-hole handle-hole" data-hole-role="linkage-bracket-crank-handle" data-attachment-kinds="linkage bracket crank handle" data-hole-diameter-mm="6" data-hole-index="3" data-hole-x-offset-mm="0" data-hole-y-offset-mm="20"/>
  </g>
  <g transform="translate(190 112)">
  <circle cx="43" cy="43" r="3" class="drill linkage-hole bracket-hole crank-hole handle-hole" data-hole-role="linkage-bracket-crank-handle" data-attachment-kinds="linkage bracket crank handle" data-hole-diameter-mm="6" data-hole-index="4" data-hole-x-offset-mm="-20" data-hole-y-offset-mm="-20"/>
  </g>
  <g transform="translate(190 112)">
  <circle cx="83" cy="43" r="3" class="drill linkage-hole bracket-hole crank-hole handle-hole" data-hole-role="linkage-bracket-crank-handle" data-attachment-kinds="linkage bracket crank handle" data-hole-diameter-mm="6" data-hole-index="5" data-hole-x-offset-mm="20" data-hole-y-offset-mm="-20"/>
  </g>
  <g transform="translate(190 112)">
  <circle cx="43" cy="83" r="3" class="drill linkage-hole bracket-hole crank-hole handle-hole" data-hole-role="linkage-bracket-crank-handle" data-attachment-kinds="linkage bracket crank handle" data-hole-diameter-mm="6" data-hole-index="6" data-hole-x-offset-mm="-20" data-hole-y-offset-mm="20"/>
  </g>
  <g transform="translate(190 112)">
  <circle cx="83" cy="83" r="3" class="drill linkage-hole bracket-hole crank-hole handle-hole" data-hole-role="linkage-bracket-crank-handle" data-attachment-kinds="linkage bracket crank handle" data-hole-diameter-mm="6" data-hole-index="7" data-hole-x-offset-mm="20" data-hole-y-offset-mm="20"/>
  </g>
  <g transform="translate(190 112)">
  <circle cx="63" cy="23" r="3" class="drill linkage-hole bracket-hole crank-hole handle-hole" data-hole-role="linkage-bracket-crank-handle" data-attachment-kinds="linkage bracket crank handle" data-hole-diameter-mm="6" data-hole-index="8" data-hole-x-offset-mm="0" data-hole-y-offset-mm="-40"/>
  </g>
  <g transform="translate(190 112)">
  <circle cx="103" cy="63" r="3" class="drill linkage-hole bracket-hole crank-hole handle-hole" data-hole-role="linkage-bracket-crank-handle" data-attachment-kinds="linkage bracket crank handle" data-hole-diameter-mm="6" data-hole-index="9" data-hole-x-offset-mm="40" data-hole-y-offset-mm="0"/>
  </g>
  <g transform="translate(190 112)">
  <circle cx="63" cy="103" r="3" class="drill linkage-hole bracket-hole crank-hole handle-hole" data-hole-role="linkage-bracket-crank-handle" data-attachment-kinds="linkage bracket crank handle" data-hole-diameter-mm="6" data-hole-index="10" data-hole-x-offset-mm="0" data-hole-y-offset-mm="40"/>
  </g>
  <g transform="translate(190 112)">
  <circle cx="103" cy="43" r="3" class="drill linkage-hole bracket-hole crank-hole handle-hole" data-hole-role="linkage-bracket-crank-handle" data-attachment-kinds="linkage bracket crank handle" data-hole-diameter-mm="6" data-hole-index="11" data-hole-x-offset-mm="40" data-hole-y-offset-mm="-20"/>
  </g>
  <g transform="translate(190 112)">
  <circle cx="103" cy="83" r="3" class="drill linkage-hole bracket-hole crank-hole handle-hole" data-hole-role="linkage-bracket-crank-handle" data-attachment-kinds="linkage bracket crank handle" data-hole-diameter-mm="6" data-hole-index="12" data-hole-x-offset-mm="40" data-hole-y-offset-mm="20"/>
  </g>
  <g transform="translate(10 204)">
  <path d="M 10 3 L 30 3 A 7 7 0 0 1 30 17 L 10 17 A 7 7 0 0 1 10 3 Z" class="cut bracket-outline" data-bracket-key="2-hole-straight" data-pitch-mm="20" data-hole-count="2"/>
  </g>
  <g transform="translate(10 204)">
  <circle cx="10" cy="10" r="3" class="drill bracket-hole linkage-hole" data-hole-role="bracket" data-hole-diameter-mm="6" data-hole-index="0" data-hole-x-mm="10" data-hole-y-mm="10"/>
  </g>
  <g transform="translate(10 204)">
  <circle cx="30" cy="10" r="3" class="drill bracket-hole linkage-hole" data-hole-role="bracket" data-hole-diameter-mm="6" data-hole-index="1" data-hole-x-mm="30" data-hole-y-mm="10"/>
  </g>
  <g transform="translate(80 204)">
  <path d="M 10 3 L 50 3 A 7 7 0 0 1 50 17 L 10 17 A 7 7 0 0 1 10 3 Z" class="cut bracket-outline" data-bracket-key="3-hole-straight" data-pitch-mm="20" data-hole-count="3"/>
  </g>
  <g transform="translate(80 204)">
  <circle cx="10" cy="10" r="3" class="drill bracket-hole linkage-hole" data-hole-role="bracket" data-hole-diameter-mm="6" data-hole-index="0" data-hole-x-mm="10" data-hole-y-mm="10"/>
  </g>
  <g transform="translate(80 204)">
  <circle cx="30" cy="10" r="3" class="drill bracket-hole linkage-hole" data-hole-role="bracket" data-hole-diameter-mm="6" data-hole-index="1" data-hole-x-mm="30" data-hole-y-mm="10"/>
  </g>
  <g transform="translate(80 204)">
  <circle cx="50" cy="10" r="3" class="drill bracket-hole linkage-hole" data-hole-role="bracket" data-hole-diameter-mm="6" data-hole-index="2" data-hole-x-mm="50" data-hole-y-mm="10"/>
  </g>
</svg>
