<?xml version="1.0" encoding="UTF-8"?>
<svg xmlns="http://www.w3.org/2000/svg" version="1.1"
     width="420mm" height="320mm"
     viewBox="0 0 420 320"
     data-profile-key="motionsmith-ms4n"
     data-grid-pitch-mm="20"
     data-hole-diameter-mm="4">
  <title>Automataii fabrication sheet 05-prototype-set-b: Prototype set B</title>
  <desc>Workshop sheet containing: gears, linkages, cams, brackets. Nominal holes are 4 mm.</desc>
  <defs>
    <style>
      .cut { fill: none; stroke: #ed1c24; stroke-width: 0.25; stroke-miterlimit: 10; }
      .drill { fill: none; stroke: #0071bc; stroke-width: 0.2; stroke-miterlimit: 10; }
      .score { fill: none; stroke: #777777; stroke-width: 0.15; stroke-dasharray: 2 1; }
      .label { fill: #333333; font-family: Arial, Helvetica, sans-serif; font-size: 4px; }
      .tiny { fill: #333333; font-family: Arial, Helvetica, sans-serif; font-size: 3px; }
      .paper { fill: #ffffff; stroke: none; }
    </style>
  </defs>
  <text x="12" y="12" class="label" text-anchor="start">05 Prototype set B</text>
  <text x="12" y="18" class="tiny" text-anchor="start">Extended mix: larger gears, longer linkages, profile cams, brackets</text>
  <g transform="translate(10 24)">
  <path d="M 55.925 33.8 L 59.476 36.329 L 59.104 38.833 L 54.972 40.223 L 54.241 42.267 L 56.554 45.962 L 55.252 48.134 L 50.903 47.836 L 49.445 49.445 L 50.167 53.744 L 48.134 55.252 L 44.23 53.313 L 42.267 54.241 L 41.289 58.489 L 38.833 59.104 L 35.969 55.818 L 33.8 55.925 L 31.271 59.476 L 28.767 59.104 L 27.377 54.972 L 25.333 54.241 L 21.638 56.554 L 19.466 55.252 L 19.764 50.903 L 18.155 49.445 L 13.856 50.167 L 12.348 48.134 L 14.287 44.23 L 13.359 42.267 L 9.111 41.289 L 8.496 38.833 L 11.782 35.969 L 11.675 33.8 L 8.124 31.271 L 8.496 28.767 L 12.628 27.377 L 13.359 25.333 L 11.046 21.638 L 12.348 19.466 L 16.697 19.764 L 18.155 18.155 L 17.433 13.856 L 19.466 12.348 L 23.37 14.287 L 25.333 13.359 L 26.311 9.111 L 28.767 8.496 L 31.631 11.782 L 33.8 11.675 L 36.329 8.124 L 38.833 8.496 L 40.223 12.628 L 42.267 13.359 L 45.962 11.046 L 48.134 12.348 L 47.836 16.697 L 49.445 18.155 L 53.744 17.433 L 55.252 19.466 L 53.313 23.37 L 54.241 25.333 L 58.489 26.311 L 59.104 28.767 L 55.818 31.631 Z" class="cut gear-outline" data-teeth="16" data-pitch-radius-mm="24" data-root-radius-mm="22.125" data-outer-radius-mm="25.8" data-attachment-hole-pattern="radial"/>
  </g>
  <g transform="translate(10 24)">
  <circle cx="33.8" cy="33.8" r="2" class="drill axle-hole" data-hole-role="axle" data-hole-diameter-mm="4"/>
  </g>
  <g transform="translate(10 24)">
  <circle cx="33.8" cy="33.8" r="24" class="score pitch-circle"/>
  </g>
  <g transform="translate(10 24)">
  <circle cx="49.925" cy="33.8" r="2" class="drill linkage-hole bracket-hole crank-hole handle-hole" data-hole-role="linkage-bracket-crank-handle" data-attachment-kinds="linkage bracket crank handle" data-hole-diameter-mm="4" data-hole-index="0" data-hole-x-offset-mm="16.125" data-hole-y-offset-mm="0" data-hole-radius-mm="16.125"/>
  </g>
  <g transform="translate(10 24)">
  <circle cx="33.8" cy="49.925" r="2" class="drill linkage-hole bracket-hole crank-hole handle-hole" data-hole-role="linkage-bracket-crank-handle" data-attachment-kinds="linkage bracket crank handle" data-hole-diameter-mm="4" data-hole-index="1" data-hole-x-offset-mm="0" data-hole-y-offset-mm="16.125" data-hole-radius-mm="16.125"/>
  </g>
  <g transform="translate(10 24)">
  <circle cx="17.675" cy="33.8" r="2" class="drill linkage-hole bracket-hole crank-hole handle-hole" data-hole-role="linkage-bracket-crank-handle" data-attachment-kinds="linkage bracket crank handle" data-hole-diameter-mm="4" data-hole-index="2" data-hole-x-offset-mm="-16.125" data-hole-y-offset-mm="0" data-hole-radius-mm="16.125"/>
  </g>
  <g transform="translate(10 24)">
  <circle cx="33.8" cy="17.675" r="2" class="drill linkage-hole bracket-hole crank-hole handle-hole" data-hole-role="linkage-bracket-crank-handle" data-attachment-kinds="linkage bracket crank handle" data-hole-diameter-mm="4" data-hole-index="3" data-hole-x-offset-mm="-0" data-hole-y-offset-mm="-16.125" data-hole-radius-mm="16.125"/>
  </g>
  <g transform="translate(132 24)">
  <path d="M 61.925 36.8 L 65.49 39.31 L 65.162 41.801 L 61.069 43.303 L 60.41 45.393 L 62.902 48.971 L 61.742 51.2 L 57.381 51.211 L 56.047 52.95 L 57.165 57.165 L 55.312 58.862 L 51.211 57.381 L 49.362 58.559 L 48.971 62.902 L 46.65 63.863 L 43.303 61.069 L 41.163 61.543 L 39.31 65.49 L 36.8 65.6 L 34.61 61.829 L 32.437 61.543 L 29.346 64.619 L 26.95 63.863 L 26.182 59.571 L 24.238 58.559 L 20.281 60.392 L 18.288 58.862 L 19.034 54.566 L 17.553 52.95 L 13.208 53.319 L 11.858 51.2 L 14.029 47.418 L 13.19 45.393 L 8.981 44.254 L 8.438 41.801 L 11.771 38.99 L 11.675 36.8 L 8.11 34.29 L 8.438 31.799 L 12.531 30.297 L 13.19 28.207 L 10.698 24.629 L 11.858 22.4 L 16.219 22.389 L 17.553 20.65 L 16.435 16.435 L 18.288 14.738 L 22.389 16.219 L 24.237 15.041 L 24.629 10.698 L 26.95 9.737 L 30.297 12.531 L 32.437 12.057 L 34.29 8.11 L 36.8 8 L 38.99 11.771 L 41.163 12.057 L 44.254 8.981 L 46.65 9.737 L 47.418 14.029 L 49.362 15.041 L 53.319 13.208 L 55.312 14.738 L 54.566 19.034 L 56.047 20.65 L 60.392 20.281 L 61.742 22.4 L 59.571 26.182 L 60.41 28.207 L 64.619 29.346 L 65.162 31.799 L 61.829 34.61 Z" class="cut gear-outline" data-teeth="18" data-pitch-radius-mm="27" data-root-radius-mm="25.125" data-outer-radius-mm="28.8" data-attachment-hole-pattern="radial"/>
  </g>
  <g transform="translate(132 24)">
  <circle cx="36.8" cy="36.8" r="2" class="drill axle-hole" data-hole-role="axle" data-hole-diameter-mm="4"/>
  </g>
  <g transform="translate(132 24)">
  <circle cx="36.8" cy="36.8" r="27" class="score pitch-circle"/>
  </g>
  <g transform="translate(132 24)">
  <circle cx="55.925" cy="36.8" r="2" class="drill linkage-hole bracket-hole crank-hole handle-hole" data-hole-role="linkage-bracket-crank-handle" data-attachment-kinds="linkage bracket crank handle" data-hole-diameter-mm="4" data-hole-index="0" data-hole-x-offset-mm="19.125" data-hole-y-offset-mm="0" data-hole-radius-mm="19.125"/>
  </g>
  <g transform="translate(132 24)">
  <circle cx="36.8" cy="55.925" r="2" class="drill linkage-hole bracket-hole crank-hole handle-hole" data-hole-role="linkage-bracket-crank-handle" data-attachment-kinds="linkage bracket crank handle" data-hole-diameter-mm="4" data-hole-index="1" data-hole-x-offset-mm="0" data-hole-y-offset-mm="19.125" data-hole-radius-mm="19.125"/>
  </g>
  <g transform="translate(132 24)">
  <circle cx="17.675" cy="36.8" r="2" class="drill linkage-hole bracket-hole crank-hole handle-hole" data-hole-role="linkage-bracket-crank-handle" data-attachment-kinds="linkage bracket crank handle" data-hole-diameter-mm="4" data-hole-index="2" data-hole-x-offset-mm="-19.125" data-hole-y-offset-mm="0" data-hole-radius-mm="19.125"/>
  </g>
  <g transform="translate(132 24)">
  <circle cx="36.8" cy="17.675" r="2" class="drill linkage-hole bracket-hole crank-hole handle-hole" data-hole-role="linkage-bracket-crank-handle" data-attachment-kinds="linkage bracket crank handle" data-hole-diameter-mm="4" data-hole-index="3" data-hole-x-offset-mm="-0" data-hole-y-offset-mm="-19.125" data-hole-radius-mm="19.125"/>
  </g>
  <g transform="translate(10 150)">
  <path d="M 14 7 L 134 7 A 7 7 0 0 1 134 21 L 14 21 A 7 7 0 0 1 14 7 Z" class="cut linkage-outline" data-cells="6" data-length-mm="120" data-pitch-mm="20" data-hole-count="7"/>
  </g>
  <g transform="translate(10 150)">
  <circle cx="14" cy="14" r="2" class="drill linkage-hole bracket-hole" data-hole-role="linkage-bracket" data-hole-diameter-mm="4" data-hole-index="0"/>
  </g>
  <g transform="translate(10 150)">
  <circle cx="34" cy="14" r="2" class="drill linkage-hole bracket-hole" data-hole-role="linkage-bracket" data-hole-diameter-mm="4" data-hole-index="1"/>
  </g>
  <g transform="translate(10 150)">
  <circle cx="54" cy="14" r="2" class="drill linkage-hole bracket-hole" data-hole-role="linkage-bracket" data-hole-diameter-mm="4" data-hole-index="2"/>
  </g>
  <g transform="translate(10 150)">
  <circle cx="74" cy="14" r="2" class="drill linkage-hole bracket-hole" data-hole-role="linkage-bracket" data-hole-diameter-mm="4" data-hole-index="3"/>
  </g>
  <g transform="translate(10 150)">
  <circle cx="94" cy="14" r="2" class="drill linkage-hole bracket-hole" data-hole-role="linkage-bracket" data-hole-diameter-mm="4" data-hole-index="4"/>
  </g>
  <g transform="translate(10 150)">
  <circle cx="114" cy="14" r="2" class="drill linkage-hole bracket-hole" data-hole-role="linkage-bracket" data-hole-diameter-mm="4" data-hole-index="5"/>
  </g>
  <g transform="translate(10 150)">
  <circle cx="134" cy="14" r="2" class="drill linkage-hole bracket-hole" data-hole-role="linkage-bracket" data-hole-diameter-mm="4" data-hole-index="6"/>
  </g>
  <g transform="translate(10 178)">
  <path d="M 14 7 L 174 7 A 7 7 0 0 1 174 21 L 14 21 A 7 7 0 0 1 14 7 Z" class="cut linkage-outline" data-cells="8" data-length-mm="160" data-pitch-mm="20" data-hole-count="9"/>
  </g>
  <g transform="translate(10 178)">
  <circle cx="14" cy="14" r="2" class="drill linkage-hole bracket-hole" data-hole-role="linkage-bracket" data-hole-diameter-mm="4" data-hole-index="0"/>
  </g>
  <g transform="translate(10 178)">
  <circle cx="34" cy="14" r="2" class="drill linkage-hole bracket-hole" data-hole-role="linkage-bracket" data-hole-diameter-mm="4" data-hole-index="1"/>
  </g>
  <g transform="translate(10 178)">
  <circle cx="54" cy="14" r="2" class="drill linkage-hole bracket-hole" data-hole-role="linkage-bracket" data-hole-diameter-mm="4" data-hole-index="2"/>
  </g>
  <g transform="translate(10 178)">
  <circle cx="74" cy="14" r="2" class="drill linkage-hole bracket-hole" data-hole-role="linkage-bracket" data-hole-diameter-mm="4" data-hole-index="3"/>
  </g>
  <g transform="translate(10 178)">
  <circle cx="94" cy="14" r="2" class="drill linkage-hole bracket-hole" data-hole-role="linkage-bracket" data-hole-diameter-mm="4" data-hole-index="4"/>
  </g>
  <g transform="translate(10 178)">
  <circle cx="114" cy="14" r="2" class="drill linkage-hole bracket-hole" data-hole-role="linkage-bracket" data-hole-diameter-mm="4" data-hole-index="5"/>
  </g>
  <g transform="translate(10 178)">
  <circle cx="134" cy="14" r="2" class="drill linkage-hole bracket-hole" data-hole-role="linkage-bracket" data-hole-diameter-mm="4" data-hole-index="6"/>
  </g>
  <g transform="translate(10 178)">
  <circle cx="154" cy="14" r="2" class="drill linkage-hole bracket-hole" data-hole-role="linkage-bracket" data-hole-diameter-mm="4" data-hole-index="7"/>
  </g>
  <g transform="translate(10 178)">
  <circle cx="174" cy="14" r="2" class="drill linkage-hole bracket-hole" data-hole-role="linkage-bracket" data-hole-diameter-mm="4" data-hole-index="8"/>
  </g>
  <g transform="translate(218 112)">
  <path d="M 31.2 8 L 32.21 8.063 L 33.208 8.251 L 34.181 8.561 L 35.117 8.985 L 36.007 9.517 L 36.841 10.147 L 37.613 10.862 L 38.316 11.65 L 38.947 12.498 L 39.504 13.393 L 39.988 14.319 L 40.4 15.265 L 40.745 16.218 L 41.027 17.166 L 41.253 18.099 L 41.429 19.009 L 41.564 19.889 L 41.665 20.735 L 41.74 21.542 L 41.795 22.31 L 41.837 23.038 L 41.872 23.727 L 41.905 24.38 L 41.939 25 L 41.976 25.591 L 42.017 26.156 L 42.062 26.701 L 42.112 27.228 L 42.163 27.743 L 42.215 28.248 L 42.265 28.747 L 42.31 29.241 L 42.347 29.732 L 42.376 30.222 L 42.394 30.711 L 42.4 31.2 L 42.394 31.689 L 42.376 32.178 L 42.347 32.668 L 42.31 33.159 L 42.265 33.653 L 42.215 34.152 L 42.163 34.657 L 42.112 35.172 L 42.062 35.699 L 42.017 36.244 L 41.976 36.809 L 41.939 37.4 L 41.905 38.02 L 41.872 38.673 L 41.837 39.362 L 41.795 40.09 L 41.74 40.858 L 41.665 41.665 L 41.564 42.511 L 41.429 43.391 L 41.253 44.301 L 41.027 45.234 L 40.745 46.182 L 40.4 47.135 L 39.988 48.081 L 39.504 49.007 L 38.947 49.902 L 38.316 50.75 L 37.613 51.538 L 36.841 52.253 L 36.007 52.883 L 35.117 53.415 L 34.181 53.839 L 33.208 54.149 L 32.21 54.337 L 31.2 54.4 L 30.19 54.337 L 29.192 54.149 L 28.219 53.839 L 27.283 53.415 L 26.393 52.883 L 25.559 52.253 L 24.787 51.538 L 24.084 50.75 L 23.453 49.902 L 22.896 49.007 L 22.412 48.081 L 22 47.135 L 21.655 46.182 L 21.373 45.234 L 21.147 44.301 L 20.971 43.391 L 20.836 42.511 L 20.735 41.665 L 20.66 40.858 L 20.605 40.09 L 20.563 39.362 L 20.528 38.673 L 20.495 38.02 L 20.461 37.4 L 20.424 36.809 L 20.383 36.244 L 20.338 35.699 L 20.288 35.172 L 20.237 34.657 L 20.185 34.152 L 20.135 33.653 L 20.09 33.159 L 20.053 32.668 L 20.024 32.178 L 20.006 31.689 L 20 31.2 L 20.006 30.711 L 20.024 30.222 L 20.053 29.732 L 20.09 29.241 L 20.135 28.747 L 20.185 28.248 L 20.237 27.743 L 20.288 27.228 L 20.338 26.701 L 20.383 26.156 L 20.424 25.591 L 20.461 25 L 20.495 24.38 L 20.528 23.727 L 20.563 23.038 L 20.605 22.31 L 20.66 21.542 L 20.735 20.735 L 20.836 19.889 L 20.971 19.009 L 21.147 18.099 L 21.373 17.166 L 21.655 16.218 L 22 15.265 L 22.412 14.319 L 22.896 13.393 L 23.453 12.498 L 24.084 11.65 L 24.787 10.862 L 25.559 10.147 L 26.393 9.517 L 27.283 8.985 L 28.219 8.561 L 29.192 8.251 L 30.19 8.063 Z" class="cut cam-outline" data-cam-key="oval" data-base-radius-mm="16" data-eccentricity-mm="6" data-cam-lobes="2" data-profile-harmonic="0.2" data-rise-deg="120" data-high-dwell-deg="30" data-return-deg="120" data-physical-cam-preset="oval" data-profile-source="automataii.domain.mechanisms.cam.profile.build_pear_cam_profile_from_params" data-profile-sample-count="144"/>
  </g>
  <g transform="translate(218 112)">
  <circle cx="31.2" cy="31.2" r="2" class="drill axle-hole" data-hole-role="axle" data-hole-diameter-mm="4"/>
  </g>
  <g transform="translate(218 112)">
  <line x1="31.2" y1="31.2" x2="47.2" y2="31.2" class="score cam-base-radius"/>
  </g>
  <g transform="translate(218 112)">
  <circle cx="31.2" cy="31.2" r="16" class="score cam-base-circle"/>
  </g>
  <g transform="translate(218 112)">
  <circle cx="37.782" cy="47.091" r="2" class="drill linkage-hole bracket-hole crank-hole handle-hole" data-hole-role="linkage-bracket-crank-handle" data-attachment-kinds="linkage bracket crank handle" data-hole-diameter-mm="4" data-hole-index="0" data-hole-x-offset-mm="6.582" data-hole-y-offset-mm="15.891"/>
  </g>
  <g transform="translate(218 112)">
  <circle cx="24.618" cy="47.091" r="2" class="drill linkage-hole bracket-hole crank-hole handle-hole" data-hole-role="linkage-bracket-crank-handle" data-attachment-kinds="linkage bracket crank handle" data-hole-diameter-mm="4" data-hole-index="1" data-hole-x-offset-mm="-6.582" data-hole-y-offset-mm="15.891"/>
  </g>
  <g transform="translate(218 112)">
  <circle cx="24.618" cy="15.309" r="2" class="drill linkage-hole bracket-hole crank-hole handle-hole" data-hole-role="linkage-bracket-crank-handle" data-attachment-kinds="linkage bracket crank handle" data-hole-diameter-mm="4" data-hole-index="2" data-hole-x-offset-mm="-6.582" data-hole-y-offset-mm="-15.891"/>
  </g>
  <g transform="translate(218 112)">
  <circle cx="37.782" cy="15.309" r="2" class="drill linkage-hole bracket-hole crank-hole handle-hole" data-hole-role="linkage-bracket-crank-handle" data-attachment-kinds="linkage bracket crank handle" data-hole-diameter-mm="4" data-hole-index="3" data-hole-x-offset-mm="6.582" data-hole-y-offset-mm="-15.891"/>
  </g>
  <g transform="translate(218 24)">
  <path d="M 38.15 8 L 39.464 8.049 L 40.771 8.197 L 42.061 8.441 L 43.329 8.78 L 44.566 9.211 L 45.765 9.731 L 46.92 10.336 L 48.024 11.021 L 49.073 11.78 L 50.06 12.609 L 50.982 13.5 L 51.835 14.448 L 52.615 15.444 L 53.321 16.484 L 53.951 17.558 L 54.503 18.661 L 54.979 19.784 L 55.378 20.922 L 55.701 22.067 L 55.951 23.213 L 56.13 24.353 L 56.241 25.483 L 56.287 26.596 L 56.272 27.687 L 56.2 28.754 L 56.076 29.791 L 55.904 30.796 L 55.689 31.766 L 55.437 32.699 L 55.152 33.594 L 54.838 34.45 L 54.501 35.267 L 54.144 36.044 L 53.773 36.783 L 53.39 37.485 L 53 38.15 L 52.606 38.781 L 52.21 39.38 L 51.815 39.949 L 51.422 40.49 L 51.034 41.006 L 50.652 41.5 L 50.275 41.973 L 49.904 42.428 L 49.54 42.868 L 49.181 43.294 L 48.827 43.708 L 48.477 44.112 L 48.13 44.508 L 47.784 44.896 L 47.437 45.276 L 47.088 45.65 L 46.736 46.017 L 46.378 46.378 L 46.013 46.731 L 45.64 47.076 L 45.257 47.412 L 44.864 47.738 L 44.458 48.052 L 44.04 48.352 L 43.61 48.638 L 43.166 48.906 L 42.709 49.156 L 42.239 49.385 L 41.758 49.592 L 41.265 49.775 L 40.762 49.932 L 40.251 50.063 L 39.732 50.166 L 39.208 50.24 L 38.68 50.285 L 38.15 50.3 L 37.62 50.285 L 37.092 50.24 L 36.568 50.166 L 36.049 50.063 L 35.538 49.932 L 35.035 49.775 L 34.542 49.592 L 34.061 49.385 L 33.591 49.156 L 33.134 48.906 L 32.69 48.638 L 32.26 48.352 L 31.842 48.052 L 31.436 47.738 L 31.043 47.412 L 30.66 47.076 L 30.287 46.731 L 29.922 46.378 L 29.564 46.017 L 29.212 45.65 L 28.863 45.276 L 28.516 44.896 L 28.17 44.508 L 27.823 44.113 L 27.473 43.708 L 27.119 43.294 L 26.76 42.868 L 26.396 42.428 L 26.025 41.973 L 25.648 41.5 L 25.266 41.006 L 24.878 40.49 L 24.485 39.949 L 24.09 39.38 L 23.694 38.781 L 23.3 38.15 L 22.91 37.485 L 22.527 36.783 L 22.156 36.044 L 21.799 35.267 L 21.462 34.45 L 21.148 33.594 L 20.863 32.699 L 20.611 31.766 L 20.396 30.796 L 20.224 29.791 L 20.1 28.754 L 20.028 27.687 L 20.013 26.596 L 20.059 25.483 L 20.17 24.353 L 20.349 23.213 L 20.599 22.067 L 20.922 20.922 L 21.321 19.784 L 21.797 18.661 L 22.349 17.558 L 22.979 16.484 L 23.685 15.444 L 24.465 14.448 L 25.318 13.5 L 26.24 12.609 L 27.227 11.78 L 28.276 11.021 L 29.38 10.336 L 30.535 9.731 L 31.734 9.211 L 32.971 8.78 L 34.239 8.441 L 35.529 8.197 L 36.836 8.049 Z" class="cut cam-outline" data-cam-key="pear" data-base-radius-mm="18" data-eccentricity-mm="9" data-cam-lobes="1" data-profile-harmonic="0.35" data-rise-deg="150" data-high-dwell-deg="45" data-return-deg="75" data-physical-cam-preset="pear" data-profile-source="automataii.domain.mechanisms.cam.profile.build_pear_cam_profile_from_params" data-profile-sample-count="144"/>
  </g>
  <g transform="translate(218 24)">
  <circle cx="38.15" cy="38.15" r="2" class="drill axle-hole" data-hole-role="axle" data-hole-diameter-mm="4"/>
  </g>
  <g transform="translate(218 24)">
  <line x1="38.15" y1="38.15" x2="56.15" y2="38.15" class="score cam-base-radius"/>
  </g>
  <g transform="translate(218 24)">
  <circle cx="38.15" cy="38.15" r="18" class="score cam-base-circle"/>
  </g>
  <g transform="translate(218 24)">
  <circle cx="23.368" cy="32.027" r="2" class="drill linkage-hole bracket-hole crank-hole handle-hole" data-hole-role="linkage-bracket-crank-handle" data-attachment-kinds="linkage bracket crank handle" data-hole-diameter-mm="4" data-hole-index="0" data-hole-x-offset-mm="-14.782" data-hole-y-offset-mm="-6.123"/>
  </g>
  <g transform="translate(218 24)">
  <circle cx="32.027" cy="23.368" r="2" class="drill linkage-hole bracket-hole crank-hole handle-hole" data-hole-role="linkage-bracket-crank-handle" data-attachment-kinds="linkage bracket crank handle" data-hole-diameter-mm="4" data-hole-index="1" data-hole-x-offset-mm="-6.123" data-hole-y-offset-mm="-14.782"/>
  </g>
  <g transform="translate(218 24)">
  <circle cx="44.273" cy="23.368" r="2" class="drill linkage-hole bracket-hole crank-hole handle-hole" data-hole-role="linkage-bracket-crank-handle" data-attachment-kinds="linkage bracket crank handle" data-hole-diameter-mm="4" data-hole-index="2" data-hole-x-offset-mm="6.123" data-hole-y-offset-mm="-14.782"/>
  </g>
  <g transform="translate(218 24)">
  <circle cx="52.932" cy="32.027" r="2" class="drill linkage-hole bracket-hole crank-hole handle-hole" data-hole-role="linkage-bracket-crank-handle" data-attachment-kinds="linkage bracket crank handle" data-hole-diameter-mm="4" data-hole-index="3" data-hole-x-offset-mm="14.782" data-hole-y-offset-mm="-6.123"/>
  </g>
  <g transform="translate(10 210)">
  <path d="M 3 3 L 37 3 L 37 17 L 17 17 L 17 37 L 3 37 Z" class="cut bracket-outline" data-bracket-key="l-3-hole" data-pitch-mm="20" data-hole-count="3"/>
  </g>
  <g transform="translate(10 210)">
  <circle cx="10" cy="10" r="2" class="drill bracket-hole linkage-hole" data-hole-role="bracket" data-hole-diameter-mm="4" data-hole-index="0" data-hole-x-mm="10" data-hole-y-mm="10"/>
  </g>
  <g transform="translate(10 210)">
  <circle cx="30" cy="10" r="2" class="drill bracket-hole linkage-hole" data-hole-role="bracket" data-hole-diameter-mm="4" data-hole-index="1" data-hole-x-mm="30" data-hole-y-mm="10"/>
  </g>
  <g transform="translate(10 210)">
  <circle cx="10" cy="30" r="2" class="drill bracket-hole linkage-hole" data-hole-role="bracket" data-hole-diameter-mm="4" data-hole-index="2" data-hole-x-mm="10" data-hole-y-mm="30"/>
  </g>
  <g transform="translate(70 210)">
  <path d="M 3 3 L 39 3 L 3 39 Z" class="cut bracket-outline" data-bracket-key="triangle-3-hole" data-pitch-mm="20" data-hole-count="3"/>
  </g>
  <g transform="translate(70 210)">
  <circle cx="10" cy="10" r="2" class="drill bracket-hole linkage-hole" data-hole-role="bracket" data-hole-diameter-mm="4" data-hole-index="0" data-hole-x-mm="10" data-hole-y-mm="10"/>
  </g>
  <g transform="translate(70 210)">
  <circle cx="30" cy="10" r="2" class="drill bracket-hole linkage-hole" data-hole-role="bracket" data-hole-diameter-mm="4" data-hole-index="1" data-hole-x-mm="30" data-hole-y-mm="10"/>
  </g>
  <g transform="translate(70 210)">
  <circle cx="10" cy="30" r="2" class="drill bracket-hole linkage-hole" data-hole-role="bracket" data-hole-diameter-mm="4" data-hole-index="2" data-hole-x-mm="10" data-hole-y-mm="30"/>
  </g>
</svg>
