<?xml version="1.0" encoding="UTF-8"?>
<svg xmlns="http://www.w3.org/2000/svg" version="1.1"
     width="420mm" height="320mm"
     viewBox="0 0 420 320"
     data-profile-key="motionsmith-ms4n"
     data-grid-pitch-mm="20"
     data-hole-diameter-mm="6">
  <title>Automataii fabrication sheet 05-prototype-set-b: Prototype set B</title>
  <desc>Workshop sheet containing: gears, linkages, cams, brackets. Nominal holes are 6 mm.</desc>
  <defs>
    <style>
      .cut { fill: none; stroke: #ed1c24; stroke-width: 0.25; stroke-miterlimit: 10; }
      .drill { fill: none; stroke: #0071bc; stroke-width: 0.2; stroke-miterlimit: 10; }
      .score { fill: none; stroke: #777777; stroke-width: 0.15; stroke-dasharray: 2 1; }
      .label { fill: #333333; font-family: Arial, Helvetica, sans-serif; font-size: 4px; }
      .tiny { fill: #333333; font-family: Arial, Helvetica, sans-serif; font-size: 3px; }
      .paper { fill: #ffffff; stroke: none; }
    </style>
  </defs>
  <text x="12" y="12" class="label" text-anchor="start">05 Prototype set B</text>
  <text x="12" y="18" class="tiny" text-anchor="start">Extended mix: larger gears, longer linkages, profile cams, brackets</text>
  <g transform="translate(10 24)">
  <path d="M 87.9 50.4 L 92.669 53.727 L 92.278 57.033 L 86.864 59.154 L 86.065 61.988 L 89.572 66.626 L 88.179 69.649 L 82.374 69.994 L 80.738 72.442 L 82.641 77.937 L 80.381 80.381 L 74.754 78.915 L 72.442 80.738 L 72.554 86.552 L 69.649 88.179 L 64.751 85.045 L 61.988 86.065 L 60.298 91.628 L 57.033 92.278 L 53.342 87.784 L 50.4 87.9 L 47.073 92.669 L 43.767 92.278 L 41.646 86.864 L 38.812 86.065 L 34.174 89.572 L 31.151 88.179 L 30.806 82.374 L 28.358 80.738 L 22.863 82.641 L 20.419 80.381 L 21.885 74.754 L 20.062 72.442 L 14.248 72.554 L 12.621 69.649 L 15.755 64.751 L 14.735 61.988 L 9.172 60.298 L 8.522 57.033 L 13.016 53.342 L 12.9 50.4 L 8.131 47.073 L 8.522 43.767 L 13.936 41.646 L 14.735 38.812 L 11.228 34.174 L 12.621 31.151 L 18.426 30.806 L 20.062 28.358 L 18.159 22.863 L 20.419 20.419 L 26.046 21.885 L 28.358 20.062 L 28.246 14.248 L 31.151 12.621 L 36.049 15.755 L 38.812 14.735 L 40.502 9.172 L 43.767 8.522 L 47.458 13.016 L 50.4 12.9 L 53.727 8.131 L 57.033 8.522 L 59.154 13.936 L 61.988 14.735 L 66.626 11.228 L 69.649 12.621 L 69.994 18.426 L 72.442 20.062 L 77.937 18.159 L 80.381 20.419 L 78.915 26.046 L 80.738 28.358 L 86.552 28.246 L 88.179 31.151 L 85.045 36.049 L 86.065 38.812 L 91.628 40.502 L 92.278 43.767 L 87.784 47.458 Z" class="cut gear-outline" data-teeth="20" data-pitch-radius-mm="40" data-root-radius-mm="37.5" data-outer-radius-mm="42.4" data-attachment-hole-pattern="grid"/>
  </g>
  <g transform="translate(10 24)">
  <circle cx="50.4" cy="50.4" r="3" class="drill axle-hole" data-hole-role="axle" data-hole-diameter-mm="6"/>
  </g>
  <g transform="translate(10 24)">
  <circle cx="50.4" cy="50.4" r="40" class="score pitch-circle"/>
  </g>
  <g transform="translate(10 24)">
  <circle cx="50.4" cy="30.4" r="3" class="drill linkage-hole bracket-hole crank-hole handle-hole" data-hole-role="linkage-bracket-crank-handle" data-attachment-kinds="linkage bracket crank handle" data-hole-diameter-mm="6" data-hole-index="0" data-hole-x-offset-mm="0" data-hole-y-offset-mm="-20" data-hole-radius-mm="20"/>
  </g>
  <g transform="translate(10 24)">
  <circle cx="30.4" cy="50.4" r="3" class="drill linkage-hole bracket-hole crank-hole handle-hole" data-hole-role="linkage-bracket-crank-handle" data-attachment-kinds="linkage bracket crank handle" data-hole-diameter-mm="6" data-hole-index="1" data-hole-x-offset-mm="-20" data-hole-y-offset-mm="0" data-hole-radius-mm="20"/>
  </g>
  <g transform="translate(10 24)">
  <circle cx="70.4" cy="50.4" r="3" class="drill linkage-hole bracket-hole crank-hole handle-hole" data-hole-role="linkage-bracket-crank-handle" data-attachment-kinds="linkage bracket crank handle" data-hole-diameter-mm="6" data-hole-index="2" data-hole-x-offset-mm="20" data-hole-y-offset-mm="0" data-hole-radius-mm="20"/>
  </g>
  <g transform="translate(10 24)">
  <circle cx="50.4" cy="70.4" r="3" class="drill linkage-hole bracket-hole crank-hole handle-hole" data-hole-role="linkage-bracket-crank-handle" data-attachment-kinds="linkage bracket crank handle" data-hole-diameter-mm="6" data-hole-index="3" data-hole-x-offset-mm="0" data-hole-y-offset-mm="20" data-hole-radius-mm="20"/>
  </g>
  <g transform="translate(10 24)">
  <circle cx="30.4" cy="30.4" r="3" class="drill linkage-hole bracket-hole crank-hole handle-hole" data-hole-role="linkage-bracket-crank-handle" data-attachment-kinds="linkage bracket crank handle" data-hole-diameter-mm="6" data-hole-index="4" data-hole-x-offset-mm="-20" data-hole-y-offset-mm="-20" data-hole-radius-mm="28.284"/>
  </g>
  <g transform="translate(10 24)">
  <circle cx="70.4" cy="30.4" r="3" class="drill linkage-hole bracket-hole crank-hole handle-hole" data-hole-role="linkage-bracket-crank-handle" data-attachment-kinds="linkage bracket crank handle" data-hole-diameter-mm="6" data-hole-index="5" data-hole-x-offset-mm="20" data-hole-y-offset-mm="-20" data-hole-radius-mm="28.284"/>
  </g>
  <g transform="translate(10 24)">
  <circle cx="30.4" cy="70.4" r="3" class="drill linkage-hole bracket-hole crank-hole handle-hole" data-hole-role="linkage-bracket-crank-handle" data-attachment-kinds="linkage bracket crank handle" data-hole-diameter-mm="6" data-hole-index="6" data-hole-x-offset-mm="-20" data-hole-y-offset-mm="20" data-hole-radius-mm="28.284"/>
  </g>
  <g transform="translate(10 24)">
  <circle cx="70.4" cy="70.4" r="3" class="drill linkage-hole bracket-hole crank-hole handle-hole" data-hole-role="linkage-bracket-crank-handle" data-attachment-kinds="linkage bracket crank handle" data-hole-diameter-mm="6" data-hole-index="7" data-hole-x-offset-mm="20" data-hole-y-offset-mm="20" data-hole-radius-mm="28.284"/>
  </g>
  <g transform="translate(132 24)">
  <path d="M 103.9 58.4 L 108.692 61.696 L 108.369 64.979 L 103.026 67.277 L 102.35 70.176 L 106.125 74.601 L 104.964 77.687 L 99.208 78.524 L 97.804 81.15 L 100.306 86.401 L 98.385 89.082 L 92.609 88.4 L 90.573 90.573 L 91.631 96.293 L 89.082 98.385 L 83.678 96.232 L 81.15 97.804 L 80.691 103.602 L 77.687 104.964 L 73.025 101.485 L 70.176 102.35 L 68.233 107.832 L 64.979 108.369 L 61.376 103.803 L 58.4 103.9 L 55.104 108.692 L 51.821 108.369 L 49.523 103.026 L 46.624 102.35 L 42.199 106.125 L 39.113 104.964 L 38.276 99.208 L 35.65 97.804 L 30.399 100.306 L 27.718 98.385 L 28.4 92.609 L 26.227 90.573 L 20.507 91.631 L 18.415 89.082 L 20.568 83.678 L 18.996 81.15 L 13.198 80.691 L 11.836 77.687 L 15.315 73.025 L 14.45 70.176 L 8.968 68.233 L 8.431 64.979 L 12.997 61.376 L 12.9 58.4 L 8.108 55.104 L 8.431 51.821 L 13.774 49.523 L 14.45 46.624 L 10.675 42.199 L 11.836 39.113 L 17.592 38.276 L 18.996 35.65 L 16.494 30.399 L 18.415 27.718 L 24.191 28.4 L 26.227 26.227 L 25.169 20.507 L 27.718 18.415 L 33.122 20.568 L 35.65 18.996 L 36.109 13.198 L 39.113 11.836 L 43.775 15.315 L 46.624 14.45 L 48.567 8.968 L 51.821 8.431 L 55.424 12.997 L 58.4 12.9 L 61.696 8.108 L 64.979 8.431 L 67.277 13.774 L 70.176 14.45 L 74.601 10.675 L 77.687 11.836 L 78.524 17.592 L 81.15 18.996 L 86.401 16.494 L 89.082 18.415 L 88.4 24.191 L 90.573 26.227 L 96.293 25.169 L 98.385 27.718 L 96.232 33.122 L 97.804 35.65 L 103.602 36.109 L 104.964 39.113 L 101.485 43.775 L 102.35 46.624 L 107.832 48.567 L 108.369 51.821 L 103.803 55.424 Z" class="cut gear-outline" data-teeth="24" data-pitch-radius-mm="48" data-root-radius-mm="45.5" data-outer-radius-mm="50.4" data-attachment-hole-pattern="grid"/>
  </g>
  <g transform="translate(132 24)">
  <circle cx="58.4" cy="58.4" r="3" class="drill axle-hole" data-hole-role="axle" data-hole-diameter-mm="6"/>
  </g>
  <g transform="translate(132 24)">
  <circle cx="58.4" cy="58.4" r="48" class="score pitch-circle"/>
  </g>
  <g transform="translate(132 24)">
  <circle cx="58.4" cy="38.4" r="3" class="drill linkage-hole bracket-hole crank-hole handle-hole" data-hole-role="linkage-bracket-crank-handle" data-attachment-kinds="linkage bracket crank handle" data-hole-diameter-mm="6" data-hole-index="0" data-hole-x-offset-mm="0" data-hole-y-offset-mm="-20" data-hole-radius-mm="20"/>
  </g>
  <g transform="translate(132 24)">
  <circle cx="38.4" cy="58.4" r="3" class="drill linkage-hole bracket-hole crank-hole handle-hole" data-hole-role="linkage-bracket-crank-handle" data-attachment-kinds="linkage bracket crank handle" data-hole-diameter-mm="6" data-hole-index="1" data-hole-x-offset-mm="-20" data-hole-y-offset-mm="0" data-hole-radius-mm="20"/>
  </g>
  <g transform="translate(132 24)">
  <circle cx="78.4" cy="58.4" r="3" class="drill linkage-hole bracket-hole crank-hole handle-hole" data-hole-role="linkage-bracket-crank-handle" data-attachment-kinds="linkage bracket crank handle" data-hole-diameter-mm="6" data-hole-index="2" data-hole-x-offset-mm="20" data-hole-y-offset-mm="0" data-hole-radius-mm="20"/>
  </g>
  <g transform="translate(132 24)">
  <circle cx="58.4" cy="78.4" r="3" class="drill linkage-hole bracket-hole crank-hole handle-hole" data-hole-role="linkage-bracket-crank-handle" data-attachment-kinds="linkage bracket crank handle" data-hole-diameter-mm="6" data-hole-index="3" data-hole-x-offset-mm="0" data-hole-y-offset-mm="20" data-hole-radius-mm="20"/>
  </g>
  <g transform="translate(132 24)">
  <circle cx="38.4" cy="38.4" r="3" class="drill linkage-hole bracket-hole crank-hole handle-hole" data-hole-role="linkage-bracket-crank-handle" data-attachment-kinds="linkage bracket crank handle" data-hole-diameter-mm="6" data-hole-index="4" data-hole-x-offset-mm="-20" data-hole-y-offset-mm="-20" data-hole-radius-mm="28.284"/>
  </g>
  <g transform="translate(132 24)">
  <circle cx="78.4" cy="38.4" r="3" class="drill linkage-hole bracket-hole crank-hole handle-hole" data-hole-role="linkage-bracket-crank-handle" data-attachment-kinds="linkage bracket crank handle" data-hole-diameter-mm="6" data-hole-index="5" data-hole-x-offset-mm="20" data-hole-y-offset-mm="-20" data-hole-radius-mm="28.284"/>
  </g>
  <g transform="translate(132 24)">
  <circle cx="38.4" cy="78.4" r="3" class="drill linkage-hole bracket-hole crank-hole handle-hole" data-hole-role="linkage-bracket-crank-handle" data-attachment-kinds="linkage bracket crank handle" data-hole-diameter-mm="6" data-hole-index="6" data-hole-x-offset-mm="-20" data-hole-y-offset-mm="20" data-hole-radius-mm="28.284"/>
  </g>
  <g transform="translate(132 24)">
  <circle cx="78.4" cy="78.4" r="3" class="drill linkage-hole bracket-hole crank-hole handle-hole" data-hole-role="linkage-bracket-crank-handle" data-attachment-kinds="linkage bracket crank handle" data-hole-diameter-mm="6" data-hole-index="7" data-hole-x-offset-mm="20" data-hole-y-offset-mm="20" data-hole-radius-mm="28.284"/>
  </g>
  <g transform="translate(10 150)">
  <path d="M 14 7 L 134 7 A 7 7 0 0 1 134 21 L 14 21 A 7 7 0 0 1 14 7 Z" class="cut linkage-outline" data-cells="6" data-length-mm="120" data-pitch-mm="20" data-hole-count="7"/>
  </g>
  <g transform="translate(10 150)">
  <circle cx="14" cy="14" r="3" class="drill linkage-hole bracket-hole" data-hole-role="linkage-bracket" data-hole-diameter-mm="6" data-hole-index="0"/>
  </g>
  <g transform="translate(10 150)">
  <circle cx="34" cy="14" r="3" class="drill linkage-hole bracket-hole" data-hole-role="linkage-bracket" data-hole-diameter-mm="6" data-hole-index="1"/>
  </g>
  <g transform="translate(10 150)">
  <circle cx="54" cy="14" r="3" class="drill linkage-hole bracket-hole" data-hole-role="linkage-bracket" data-hole-diameter-mm="6" data-hole-index="2"/>
  </g>
  <g transform="translate(10 150)">
  <circle cx="74" cy="14" r="3" class="drill linkage-hole bracket-hole" data-hole-role="linkage-bracket" data-hole-diameter-mm="6" data-hole-index="3"/>
  </g>
  <g transform="translate(10 150)">
  <circle cx="94" cy="14" r="3" class="drill linkage-hole bracket-hole" data-hole-role="linkage-bracket" data-hole-diameter-mm="6" data-hole-index="4"/>
  </g>
  <g transform="translate(10 150)">
  <circle cx="114" cy="14" r="3" class="drill linkage-hole bracket-hole" data-hole-role="linkage-bracket" data-hole-diameter-mm="6" data-hole-index="5"/>
  </g>
  <g transform="translate(10 150)">
  <circle cx="134" cy="14" r="3" class="drill linkage-hole bracket-hole" data-hole-role="linkage-bracket" data-hole-diameter-mm="6" data-hole-index="6"/>
  </g>
  <g transform="translate(10 178)">
  <path d="M 14 7 L 174 7 A 7 7 0 0 1 174 21 L 14 21 A 7 7 0 0 1 14 7 Z" class="cut linkage-outline" data-cells="8" data-length-mm="160" data-pitch-mm="20" data-hole-count="9"/>
  </g>
  <g transform="translate(10 178)">
  <circle cx="14" cy="14" r="3" class="drill linkage-hole bracket-hole" data-hole-role="linkage-bracket" data-hole-diameter-mm="6" data-hole-index="0"/>
  </g>
  <g transform="translate(10 178)">
  <circle cx="34" cy="14" r="3" class="drill linkage-hole bracket-hole" data-hole-role="linkage-bracket" data-hole-diameter-mm="6" data-hole-index="1"/>
  </g>
  <g transform="translate(10 178)">
  <circle cx="54" cy="14" r="3" class="drill linkage-hole bracket-hole" data-hole-role="linkage-bracket" data-hole-diameter-mm="6" data-hole-index="2"/>
  </g>
  <g transform="translate(10 178)">
  <circle cx="74" cy="14" r="3" class="drill linkage-hole bracket-hole" data-hole-role="linkage-bracket" data-hole-diameter-mm="6" data-hole-index="3"/>
  </g>
  <g transform="translate(10 178)">
  <circle cx="94" cy="14" r="3" class="drill linkage-hole bracket-hole" data-hole-role="linkage-bracket" data-hole-diameter-mm="6" data-hole-index="4"/>
  </g>
  <g transform="translate(10 178)">
  <circle cx="114" cy="14" r="3" class="drill linkage-hole bracket-hole" data-hole-role="linkage-bracket" data-hole-diameter-mm="6" data-hole-index="5"/>
  </g>
  <g transform="translate(10 178)">
  <circle cx="134" cy="14" r="3" class="drill linkage-hole bracket-hole" data-hole-role="linkage-bracket" data-hole-diameter-mm="6" data-hole-index="6"/>
  </g>
  <g transform="translate(10 178)">
  <circle cx="154" cy="14" r="3" class="drill linkage-hole bracket-hole" data-hole-role="linkage-bracket" data-hole-diameter-mm="6" data-hole-index="7"/>
  </g>
  <g transform="translate(10 178)">
  <circle cx="174" cy="14" r="3" class="drill linkage-hole bracket-hole" data-hole-role="linkage-bracket" data-hole-diameter-mm="6" data-hole-index="8"/>
  </g>
  <g transform="translate(218 112)">
  <path d="M 60.5 8 L 62.787 8.126 L 65.049 8.501 L 67.264 9.119 L 69.41 9.968 L 71.467 11.031 L 73.418 12.29 L 75.249 13.723 L 76.949 15.306 L 78.513 17.012 L 79.938 18.816 L 81.224 20.69 L 82.375 22.611 L 83.399 24.555 L 84.306 26.501 L 85.108 28.43 L 85.818 30.328 L 86.449 32.182 L 87.017 33.983 L 87.533 35.729 L 88.012 37.415 L 88.463 39.043 L 88.896 40.617 L 89.316 42.142 L 89.728 43.625 L 90.134 45.073 L 90.533 46.495 L 90.922 47.899 L 91.297 49.291 L 91.652 50.678 L 91.979 52.065 L 92.272 53.456 L 92.524 54.853 L 92.728 56.257 L 92.877 57.667 L 92.969 59.082 L 93 60.5 L 92.969 61.918 L 92.877 63.333 L 92.728 64.743 L 92.524 66.147 L 92.272 67.544 L 91.979 68.935 L 91.652 70.322 L 91.297 71.709 L 90.922 73.101 L 90.533 74.505 L 90.134 75.927 L 89.728 77.375 L 89.316 78.858 L 88.896 80.383 L 88.463 81.957 L 88.012 83.585 L 87.533 85.271 L 87.017 87.017 L 86.449 88.818 L 85.818 90.672 L 85.108 92.57 L 84.306 94.499 L 83.399 96.445 L 82.375 98.389 L 81.224 100.31 L 79.938 102.184 L 78.513 103.988 L 76.949 105.694 L 75.249 107.277 L 73.418 108.71 L 71.467 109.969 L 69.41 111.032 L 67.264 111.881 L 65.049 112.499 L 62.787 112.874 L 60.5 113 L 58.213 112.874 L 55.951 112.499 L 53.736 111.881 L 51.59 111.032 L 49.533 109.969 L 47.582 108.71 L 45.751 107.277 L 44.051 105.694 L 42.487 103.988 L 41.062 102.184 L 39.776 100.31 L 38.625 98.389 L 37.601 96.445 L 36.694 94.499 L 35.892 92.57 L 35.182 90.672 L 34.551 88.818 L 33.983 87.017 L 33.467 85.271 L 32.988 83.585 L 32.537 81.957 L 32.104 80.383 L 31.684 78.858 L 31.272 77.375 L 30.866 75.927 L 30.467 74.505 L 30.078 73.101 L 29.703 71.709 L 29.348 70.322 L 29.021 68.935 L 28.728 67.544 L 28.476 66.147 L 28.272 64.743 L 28.123 63.333 L 28.031 61.918 L 28 60.5 L 28.031 59.082 L 28.123 57.667 L 28.272 56.257 L 28.476 54.853 L 28.728 53.456 L 29.021 52.065 L 29.348 50.678 L 29.703 49.291 L 30.078 47.899 L 30.467 46.495 L 30.866 45.073 L 31.272 43.625 L 31.684 42.142 L 32.104 40.617 L 32.537 39.043 L 32.988 37.415 L 33.467 35.729 L 33.983 33.983 L 34.551 32.182 L 35.182 30.328 L 35.892 28.43 L 36.694 26.501 L 37.601 24.555 L 38.625 22.611 L 39.776 20.69 L 41.062 18.816 L 42.487 17.012 L 44.051 15.306 L 45.751 13.723 L 47.582 12.29 L 49.533 11.031 L 51.59 9.968 L 53.736 9.119 L 55.951 8.501 L 58.213 8.126 Z" class="cut cam-outline" data-cam-key="oval" data-base-radius-mm="40" data-eccentricity-mm="10" data-cam-lobes="2" data-profile-harmonic="0.25" data-rise-deg="120" data-high-dwell-deg="30" data-return-deg="120" data-physical-cam-preset="oval" data-profile-source="automataii.domain.mechanisms.cam.profile.build_pear_cam_profile_from_params" data-profile-sample-count="144"/>
  </g>
  <g transform="translate(218 112)">
  <circle cx="60.5" cy="60.5" r="3" class="drill axle-hole" data-hole-role="axle" data-hole-diameter-mm="6"/>
  </g>
  <g transform="translate(218 112)">
  <line x1="60.5" y1="60.5" x2="100.5" y2="60.5" class="score cam-base-radius"/>
  </g>
  <g transform="translate(218 112)">
  <circle cx="60.5" cy="60.5" r="40" class="score cam-base-circle"/>
  </g>
  <g transform="translate(218 112)">
  <circle cx="60.5" cy="40.5" r="3" class="drill linkage-hole bracket-hole crank-hole handle-hole" data-hole-role="linkage-bracket-crank-handle" data-attachment-kinds="linkage bracket crank handle" data-hole-diameter-mm="6" data-hole-index="0" data-hole-x-offset-mm="0" data-hole-y-offset-mm="-20"/>
  </g>
  <g transform="translate(218 112)">
  <circle cx="40.5" cy="60.5" r="3" class="drill linkage-hole bracket-hole crank-hole handle-hole" data-hole-role="linkage-bracket-crank-handle" data-attachment-kinds="linkage bracket crank handle" data-hole-diameter-mm="6" data-hole-index="1" data-hole-x-offset-mm="-20" data-hole-y-offset-mm="0"/>
  </g>
  <g transform="translate(218 112)">
  <circle cx="80.5" cy="60.5" r="3" class="drill linkage-hole bracket-hole crank-hole handle-hole" data-hole-role="linkage-bracket-crank-handle" data-attachment-kinds="linkage bracket crank handle" data-hole-diameter-mm="6" data-hole-index="2" data-hole-x-offset-mm="20" data-hole-y-offset-mm="0"/>
  </g>
  <g transform="translate(218 112)">
  <circle cx="60.5" cy="80.5" r="3" class="drill linkage-hole bracket-hole crank-hole handle-hole" data-hole-role="linkage-bracket-crank-handle" data-attachment-kinds="linkage bracket crank handle" data-hole-diameter-mm="6" data-hole-index="3" data-hole-x-offset-mm="0" data-hole-y-offset-mm="20"/>
  </g>
  <g transform="translate(218 112)">
  <circle cx="40.5" cy="40.5" r="3" class="drill linkage-hole bracket-hole crank-hole handle-hole" data-hole-role="linkage-bracket-crank-handle" data-attachment-kinds="linkage bracket crank handle" data-hole-diameter-mm="6" data-hole-index="4" data-hole-x-offset-mm="-20" data-hole-y-offset-mm="-20"/>
  </g>
  <g transform="translate(218 112)">
  <circle cx="80.5" cy="40.5" r="3" class="drill linkage-hole bracket-hole crank-hole handle-hole" data-hole-role="linkage-bracket-crank-handle" data-attachment-kinds="linkage bracket crank handle" data-hole-diameter-mm="6" data-hole-index="5" data-hole-x-offset-mm="20" data-hole-y-offset-mm="-20"/>
  </g>
  <g transform="translate(218 112)">
  <circle cx="40.5" cy="80.5" r="3" class="drill linkage-hole bracket-hole crank-hole handle-hole" data-hole-role="linkage-bracket-crank-handle" data-attachment-kinds="linkage bracket crank handle" data-hole-diameter-mm="6" data-hole-index="6" data-hole-x-offset-mm="-20" data-hole-y-offset-mm="20"/>
  </g>
  <g transform="translate(218 112)">
  <circle cx="80.5" cy="80.5" r="3" class="drill linkage-hole bracket-hole crank-hole handle-hole" data-hole-role="linkage-bracket-crank-handle" data-attachment-kinds="linkage bracket crank handle" data-hole-diameter-mm="6" data-hole-index="7" data-hole-x-offset-mm="20" data-hole-y-offset-mm="20"/>
  </g>
  <g transform="translate(218 112)">
  <circle cx="60.5" cy="20.5" r="3" class="drill linkage-hole bracket-hole crank-hole handle-hole" data-hole-role="linkage-bracket-crank-handle" data-attachment-kinds="linkage bracket crank handle" data-hole-diameter-mm="6" data-hole-index="8" data-hole-x-offset-mm="0" data-hole-y-offset-mm="-40"/>
  </g>
  <g transform="translate(218 112)">
  <circle cx="60.5" cy="100.5" r="3" class="drill linkage-hole bracket-hole crank-hole handle-hole" data-hole-role="linkage-bracket-crank-handle" data-attachment-kinds="linkage bracket crank handle" data-hole-diameter-mm="6" data-hole-index="9" data-hole-x-offset-mm="0" data-hole-y-offset-mm="40"/>
  </g>
  <g transform="translate(218 24)">
  <path d="M 78 8 L 81.051 8.124 L 84.081 8.494 L 87.07 9.106 L 89.998 9.957 L 92.845 11.037 L 95.594 12.338 L 98.227 13.847 L 100.729 15.553 L 103.084 17.441 L 105.282 19.494 L 107.31 21.696 L 109.16 24.029 L 110.826 26.474 L 112.302 29.012 L 113.585 31.624 L 114.676 34.292 L 115.574 36.995 L 116.284 39.716 L 116.81 42.437 L 117.16 45.141 L 117.34 47.813 L 117.361 50.439 L 117.234 53.005 L 116.971 55.5 L 116.584 57.914 L 116.087 60.24 L 115.493 62.47 L 114.817 64.6 L 114.072 66.627 L 113.272 68.549 L 112.43 70.367 L 111.558 72.083 L 110.669 73.699 L 109.774 75.22 L 108.881 76.652 L 108 78 L 107.138 79.272 L 106.301 80.476 L 105.493 81.62 L 104.718 82.711 L 103.977 83.759 L 103.272 84.772 L 102.601 85.757 L 101.961 86.721 L 101.351 87.672 L 100.766 88.616 L 100.201 89.557 L 99.651 90.5 L 99.108 91.447 L 98.567 92.402 L 98.022 93.363 L 97.463 94.332 L 96.887 95.306 L 96.284 96.284 L 95.65 97.262 L 94.98 98.236 L 94.267 99.199 L 93.508 100.148 L 92.7 101.074 L 91.84 101.971 L 90.927 102.832 L 89.961 103.65 L 88.942 104.417 L 87.873 105.126 L 86.756 105.77 L 85.594 106.342 L 84.393 106.837 L 83.157 107.25 L 81.894 107.575 L 80.608 107.81 L 79.308 107.952 L 78 108 L 76.692 107.952 L 75.392 107.81 L 74.106 107.575 L 72.843 107.25 L 71.607 106.837 L 70.406 106.342 L 69.244 105.77 L 68.127 105.126 L 67.058 104.417 L 66.039 103.65 L 65.073 102.832 L 64.16 101.971 L 63.3 101.074 L 62.492 100.148 L 61.733 99.199 L 61.02 98.236 L 60.35 97.262 L 59.716 96.284 L 59.113 95.306 L 58.537 94.332 L 57.978 93.363 L 57.433 92.402 L 56.892 91.447 L 56.349 90.5 L 55.799 89.557 L 55.234 88.616 L 54.649 87.672 L 54.039 86.721 L 53.399 85.757 L 52.728 84.772 L 52.023 83.759 L 51.282 82.711 L 50.507 81.62 L 49.699 80.476 L 48.862 79.272 L 48 78 L 47.119 76.652 L 46.226 75.22 L 45.331 73.699 L 44.442 72.083 L 43.57 70.367 L 42.728 68.549 L 41.928 66.627 L 41.183 64.6 L 40.507 62.47 L 39.913 60.24 L 39.416 57.914 L 39.029 55.5 L 38.766 53.005 L 38.639 50.439 L 38.66 47.813 L 38.84 45.141 L 39.19 42.437 L 39.716 39.716 L 40.426 36.995 L 41.324 34.292 L 42.415 31.624 L 43.698 29.012 L 45.174 26.474 L 46.84 24.029 L 48.69 21.696 L 50.718 19.494 L 52.916 17.441 L 55.271 15.553 L 57.773 13.847 L 60.406 12.338 L 63.155 11.037 L 66.002 9.957 L 68.93 9.106 L 71.919 8.494 L 74.949 8.124 Z" class="cut cam-outline" data-cam-key="pear" data-base-radius-mm="40" data-eccentricity-mm="20" data-cam-lobes="1" data-profile-harmonic="0.5" data-rise-deg="150" data-high-dwell-deg="45" data-return-deg="75" data-physical-cam-preset="pear" data-profile-source="automataii.domain.mechanisms.cam.profile.build_pear_cam_profile_from_params" data-profile-sample-count="144"/>
  </g>
  <g transform="translate(218 24)">
  <circle cx="78" cy="78" r="3" class="drill axle-hole" data-hole-role="axle" data-hole-diameter-mm="6"/>
  </g>
  <g transform="translate(218 24)">
  <line x1="78" y1="78" x2="118" y2="78" class="score cam-base-radius"/>
  </g>
  <g transform="translate(218 24)">
  <circle cx="78" cy="78" r="40" class="score cam-base-circle"/>
  </g>
  <g transform="translate(218 24)">
  <circle cx="78" cy="58" r="3" class="drill linkage-hole bracket-hole crank-hole handle-hole" data-hole-role="linkage-bracket-crank-handle" data-attachment-kinds="linkage bracket crank handle" data-hole-diameter-mm="6" data-hole-index="0" data-hole-x-offset-mm="0" data-hole-y-offset-mm="-20"/>
  </g>
  <g transform="translate(218 24)">
  <circle cx="58" cy="78" r="3" class="drill linkage-hole bracket-hole crank-hole handle-hole" data-hole-role="linkage-bracket-crank-handle" data-attachment-kinds="linkage bracket crank handle" data-hole-diameter-mm="6" data-hole-index="1" data-hole-x-offset-mm="-20" data-hole-y-offset-mm="0"/>
  </g>
  <g transform="translate(218 24)">
  <circle cx="98" cy="78" r="3" class="drill linkage-hole bracket-hole crank-hole handle-hole" data-hole-role="linkage-bracket-crank-handle" data-attachment-kinds="linkage bracket crank handle" data-hole-diameter-mm="6" data-hole-index="2" data-hole-x-offset-mm="20" data-hole-y-offset-mm="0"/>
  </g>
  <g transform="translate(218 24)">
  <circle cx="78" cy="98" r="3" class="drill linkage-hole bracket-hole crank-hole handle-hole" data-hole-role="linkage-bracket-crank-handle" data-attachment-kinds="linkage bracket crank handle" data-hole-diameter-mm="6" data-hole-index="3" data-hole-x-offset-mm="0" data-hole-y-offset-mm="20"/>
  </g>
  <g transform="translate(218 24)">
  <circle cx="58" cy="58" r="3" class="drill linkage-hole bracket-hole crank-hole handle-hole" data-hole-role="linkage-bracket-crank-handle" data-attachment-kinds="linkage bracket crank handle" data-hole-diameter-mm="6" data-hole-index="4" data-hole-x-offset-mm="-20" data-hole-y-offset-mm="-20"/>
  </g>
  <g transform="translate(218 24)">
  <circle cx="98" cy="58" r="3" class="drill linkage-hole bracket-hole crank-hole handle-hole" data-hole-role="linkage-bracket-crank-handle" data-attachment-kinds="linkage bracket crank handle" data-hole-diameter-mm="6" data-hole-index="5" data-hole-x-offset-mm="20" data-hole-y-offset-mm="-20"/>
  </g>
  <g transform="translate(218 24)">
  <circle cx="78" cy="38" r="3" class="drill linkage-hole bracket-hole crank-hole handle-hole" data-hole-role="linkage-bracket-crank-handle" data-attachment-kinds="linkage bracket crank handle" data-hole-diameter-mm="6" data-hole-index="6" data-hole-x-offset-mm="0" data-hole-y-offset-mm="-40"/>
  </g>
  <g transform="translate(218 24)">
  <circle cx="58" cy="38" r="3" class="drill linkage-hole bracket-hole crank-hole handle-hole" data-hole-role="linkage-bracket-crank-handle" data-attachment-kinds="linkage bracket crank handle" data-hole-diameter-mm="6" data-hole-index="7" data-hole-x-offset-mm="-20" data-hole-y-offset-mm="-40"/>
  </g>
  <g transform="translate(218 24)">
  <circle cx="98" cy="38" r="3" class="drill linkage-hole bracket-hole crank-hole handle-hole" data-hole-role="linkage-bracket-crank-handle" data-attachment-kinds="linkage bracket crank handle" data-hole-diameter-mm="6" data-hole-index="8" data-hole-x-offset-mm="20" data-hole-y-offset-mm="-40"/>
  </g>
  <g transform="translate(218 24)">
  <circle cx="78" cy="18" r="3" class="drill linkage-hole bracket-hole crank-hole handle-hole" data-hole-role="linkage-bracket-crank-handle" data-attachment-kinds="linkage bracket crank handle" data-hole-diameter-mm="6" data-hole-index="9" data-hole-x-offset-mm="0" data-hole-y-offset-mm="-60"/>
  </g>
  <g transform="translate(10 210)">
  <path d="M 3 3 L 37 3 L 37 17 L 17 17 L 17 37 L 3 37 Z" class="cut bracket-outline" data-bracket-key="l-3-hole" data-pitch-mm="20" data-hole-count="3"/>
  </g>
  <g transform="translate(10 210)">
  <circle cx="10" cy="10" r="3" class="drill bracket-hole linkage-hole" data-hole-role="bracket" data-hole-diameter-mm="6" data-hole-index="0" data-hole-x-mm="10" data-hole-y-mm="10"/>
  </g>
  <g transform="translate(10 210)">
  <circle cx="30" cy="10" r="3" class="drill bracket-hole linkage-hole" data-hole-role="bracket" data-hole-diameter-mm="6" data-hole-index="1" data-hole-x-mm="30" data-hole-y-mm="10"/>
  </g>
  <g transform="translate(10 210)">
  <circle cx="10" cy="30" r="3" class="drill bracket-hole linkage-hole" data-hole-role="bracket" data-hole-diameter-mm="6" data-hole-index="2" data-hole-x-mm="10" data-hole-y-mm="30"/>
  </g>
  <g transform="translate(70 210)">
  <path d="M 3 3 L 39 3 L 3 39 Z" class="cut bracket-outline" data-bracket-key="triangle-3-hole" data-pitch-mm="20" data-hole-count="3"/>
  </g>
  <g transform="translate(70 210)">
  <circle cx="10" cy="10" r="3" class="drill bracket-hole linkage-hole" data-hole-role="bracket" data-hole-diameter-mm="6" data-hole-index="0" data-hole-x-mm="10" data-hole-y-mm="10"/>
  </g>
  <g transform="translate(70 210)">
  <circle cx="30" cy="10" r="3" class="drill bracket-hole linkage-hole" data-hole-role="bracket" data-hole-diameter-mm="6" data-hole-index="1" data-hole-x-mm="30" data-hole-y-mm="10"/>
  </g>
  <g transform="translate(70 210)">
  <circle cx="10" cy="30" r="3" class="drill bracket-hole linkage-hole" data-hole-role="bracket" data-hole-diameter-mm="6" data-hole-index="2" data-hole-x-mm="10" data-hole-y-mm="30"/>
  </g>
</svg>
