<?xml version="1.0" encoding="UTF-8"?>
<svg xmlns="http://www.w3.org/2000/svg" version="1.1"
     width="215.9mm" height="279.4mm"
     viewBox="0 0 215.9 279.4"
     data-profile-key="motionsmith-ms4n"
     data-grid-pitch-mm="20"
     data-hole-diameter-mm="4">
  <title>Automataii fabrication sheet 05-prototype-set-b: Prototype set B</title>
  <desc>Workshop sheet containing: gears, linkages, cams, brackets. Nominal holes are 4 mm.</desc>
  <defs>
    <style>
      .cut { fill: none; stroke: #ed1c24; stroke-width: 0.25; stroke-miterlimit: 10; }
      .drill { fill: none; stroke: #0071bc; stroke-width: 0.2; stroke-miterlimit: 10; }
      .score { fill: none; stroke: #777777; stroke-width: 0.15; stroke-dasharray: 2 1; }
      .label { fill: #333333; font-family: Arial, Helvetica, sans-serif; font-size: 4px; }
      .tiny { fill: #333333; font-family: Arial, Helvetica, sans-serif; font-size: 3px; }
      .small { fill: #333333; font-family: Arial, Helvetica, sans-serif; font-size: 3.6px; }
      .step-title { fill: #111827; font-family: Arial, Helvetica, sans-serif; font-size: 5px; font-weight: bold; }
      .part-card-label { fill: #111827; font-family: Arial, Helvetica, sans-serif; font-size: 3.5px; font-weight: bold; }
      .coord-label { fill: #111827; font-family: Arial, Helvetica, sans-serif; font-size: 6px; font-weight: bold; }
      .paper { fill: #ffffff; stroke: none; }
    </style>
  </defs>
  <text x="12" y="12" class="label" text-anchor="start">05 Prototype set B</text>
  <text x="12" y="18" class="tiny" text-anchor="start">Extended mix: larger gears, longer linkages, profile cams, brackets</text>
  <g transform="translate(12 24)">
  <path d="M 107.938 59.5 L 110.96 61.522 L 110.841 63.541 L 107.602 65.193 L 107.341 67.077 L 110.01 69.547 L 109.577 71.522 L 106.119 72.648 L 105.567 74.468 L 107.817 77.325 L 107.08 79.208 L 103.488 79.779 L 102.658 81.49 L 104.434 84.664 L 103.411 86.409 L 99.774 86.41 L 98.687 87.971 L 99.944 91.383 L 98.661 92.947 L 95.069 92.379 L 93.75 93.75 L 94.458 97.318 L 92.947 98.661 L 89.487 97.539 L 87.971 98.687 L 88.112 102.321 L 86.409 103.411 L 83.168 101.762 L 81.49 102.658 L 81.061 106.269 L 79.208 107.08 L 76.265 104.944 L 74.468 105.567 L 73.479 109.066 L 71.522 109.577 L 68.95 107.007 L 67.077 107.341 L 65.553 110.643 L 63.541 110.841 L 61.402 107.9 L 59.5 107.938 L 57.478 110.96 L 55.459 110.841 L 53.807 107.602 L 51.923 107.341 L 49.453 110.01 L 47.478 109.577 L 46.352 106.119 L 44.532 105.567 L 41.675 107.817 L 39.792 107.08 L 39.221 103.488 L 37.51 102.658 L 34.336 104.434 L 32.591 103.411 L 32.59 99.774 L 31.029 98.687 L 27.617 99.944 L 26.053 98.661 L 26.621 95.069 L 25.25 93.75 L 21.682 94.458 L 20.339 92.947 L 21.461 89.487 L 20.313 87.971 L 16.679 88.112 L 15.589 86.409 L 17.238 83.168 L 16.342 81.49 L 12.731 81.061 L 11.92 79.208 L 14.056 76.265 L 13.433 74.468 L 9.934 73.479 L 9.423 71.522 L 11.993 68.95 L 11.659 67.077 L 8.357 65.553 L 8.159 63.541 L 11.1 61.402 L 11.062 59.5 L 8.04 57.478 L 8.159 55.459 L 11.398 53.807 L 11.659 51.923 L 8.99 49.453 L 9.423 47.478 L 12.881 46.352 L 13.433 44.532 L 11.183 41.675 L 11.92 39.792 L 15.512 39.221 L 16.342 37.51 L 14.566 34.336 L 15.589 32.591 L 19.226 32.59 L 20.313 31.029 L 19.056 27.617 L 20.339 26.053 L 23.931 26.621 L 25.25 25.25 L 24.542 21.682 L 26.053 20.339 L 29.513 21.461 L 31.029 20.313 L 30.888 16.679 L 32.591 15.589 L 35.832 17.238 L 37.51 16.342 L 37.939 12.731 L 39.792 11.92 L 42.735 14.056 L 44.532 13.433 L 45.521 9.934 L 47.478 9.423 L 50.05 11.993 L 51.923 11.659 L 53.447 8.357 L 55.459 8.159 L 57.598 11.1 L 59.5 11.062 L 61.522 8.04 L 63.541 8.159 L 65.193 11.398 L 67.077 11.659 L 69.547 8.99 L 71.522 9.423 L 72.648 12.881 L 74.468 13.433 L 77.325 11.183 L 79.208 11.92 L 79.779 15.512 L 81.49 16.342 L 84.664 14.566 L 86.409 15.589 L 86.41 19.226 L 87.971 20.313 L 91.383 19.056 L 92.947 20.339 L 92.379 23.931 L 93.75 25.25 L 97.318 24.542 L 98.661 26.053 L 97.539 29.513 L 98.687 31.029 L 102.321 30.888 L 103.411 32.591 L 101.762 35.832 L 102.658 37.51 L 106.269 37.939 L 107.08 39.792 L 104.944 42.735 L 105.567 44.532 L 109.066 45.521 L 109.577 47.478 L 107.007 50.05 L 107.341 51.923 L 110.643 53.447 L 110.841 55.459 L 107.9 57.598 Z" class="cut gear-outline" data-teeth="40" data-pitch-radius-mm="50" data-root-radius-mm="48.438" data-outer-radius-mm="51.5" data-attachment-hole-pattern="grid"/>
  </g>
  <g transform="translate(12 24)">
  <circle cx="59.5" cy="59.5" r="2" class="drill axle-hole" data-hole-role="axle" data-hole-diameter-mm="4"/>
  </g>
  <g transform="translate(12 24)">
  <circle cx="59.5" cy="59.5" r="50" class="score pitch-circle"/>
  </g>
  <g transform="translate(12 24)">
  <circle cx="59.5" cy="39.5" r="2" class="drill linkage-hole bracket-hole crank-hole handle-hole" data-hole-role="linkage-bracket-crank-handle" data-attachment-kinds="linkage bracket crank handle" data-hole-diameter-mm="4" data-hole-index="0" data-hole-x-offset-mm="0" data-hole-y-offset-mm="-20" data-hole-radius-mm="20"/>
  </g>
  <g transform="translate(12 24)">
  <circle cx="39.5" cy="59.5" r="2" class="drill linkage-hole bracket-hole crank-hole handle-hole" data-hole-role="linkage-bracket-crank-handle" data-attachment-kinds="linkage bracket crank handle" data-hole-diameter-mm="4" data-hole-index="1" data-hole-x-offset-mm="-20" data-hole-y-offset-mm="0" data-hole-radius-mm="20"/>
  </g>
  <g transform="translate(12 24)">
  <circle cx="79.5" cy="59.5" r="2" class="drill linkage-hole bracket-hole crank-hole handle-hole" data-hole-role="linkage-bracket-crank-handle" data-attachment-kinds="linkage bracket crank handle" data-hole-diameter-mm="4" data-hole-index="2" data-hole-x-offset-mm="20" data-hole-y-offset-mm="0" data-hole-radius-mm="20"/>
  </g>
  <g transform="translate(12 24)">
  <circle cx="59.5" cy="79.5" r="2" class="drill linkage-hole bracket-hole crank-hole handle-hole" data-hole-role="linkage-bracket-crank-handle" data-attachment-kinds="linkage bracket crank handle" data-hole-diameter-mm="4" data-hole-index="3" data-hole-x-offset-mm="0" data-hole-y-offset-mm="20" data-hole-radius-mm="20"/>
  </g>
  <g transform="translate(12 24)">
  <circle cx="39.5" cy="39.5" r="2" class="drill linkage-hole bracket-hole crank-hole handle-hole" data-hole-role="linkage-bracket-crank-handle" data-attachment-kinds="linkage bracket crank handle" data-hole-diameter-mm="4" data-hole-index="4" data-hole-x-offset-mm="-20" data-hole-y-offset-mm="-20" data-hole-radius-mm="28.284"/>
  </g>
  <g transform="translate(12 24)">
  <circle cx="79.5" cy="39.5" r="2" class="drill linkage-hole bracket-hole crank-hole handle-hole" data-hole-role="linkage-bracket-crank-handle" data-attachment-kinds="linkage bracket crank handle" data-hole-diameter-mm="4" data-hole-index="5" data-hole-x-offset-mm="20" data-hole-y-offset-mm="-20" data-hole-radius-mm="28.284"/>
  </g>
  <g transform="translate(12 24)">
  <circle cx="39.5" cy="79.5" r="2" class="drill linkage-hole bracket-hole crank-hole handle-hole" data-hole-role="linkage-bracket-crank-handle" data-attachment-kinds="linkage bracket crank handle" data-hole-diameter-mm="4" data-hole-index="6" data-hole-x-offset-mm="-20" data-hole-y-offset-mm="20" data-hole-radius-mm="28.284"/>
  </g>
  <g transform="translate(12 24)">
  <circle cx="79.5" cy="79.5" r="2" class="drill linkage-hole bracket-hole crank-hole handle-hole" data-hole-role="linkage-bracket-crank-handle" data-attachment-kinds="linkage bracket crank handle" data-hole-diameter-mm="4" data-hole-index="7" data-hole-x-offset-mm="20" data-hole-y-offset-mm="20" data-hole-radius-mm="28.284"/>
  </g>
  <g transform="translate(12 24)">
  <circle cx="59.5" cy="19.5" r="2" class="drill linkage-hole bracket-hole crank-hole handle-hole" data-hole-role="linkage-bracket-crank-handle" data-attachment-kinds="linkage bracket crank handle" data-hole-diameter-mm="4" data-hole-index="8" data-hole-x-offset-mm="0" data-hole-y-offset-mm="-40" data-hole-radius-mm="40"/>
  </g>
  <g transform="translate(12 24)">
  <circle cx="19.5" cy="59.5" r="2" class="drill linkage-hole bracket-hole crank-hole handle-hole" data-hole-role="linkage-bracket-crank-handle" data-attachment-kinds="linkage bracket crank handle" data-hole-diameter-mm="4" data-hole-index="9" data-hole-x-offset-mm="-40" data-hole-y-offset-mm="0" data-hole-radius-mm="40"/>
  </g>
  <g transform="translate(12 24)">
  <circle cx="99.5" cy="59.5" r="2" class="drill linkage-hole bracket-hole crank-hole handle-hole" data-hole-role="linkage-bracket-crank-handle" data-attachment-kinds="linkage bracket crank handle" data-hole-diameter-mm="4" data-hole-index="10" data-hole-x-offset-mm="40" data-hole-y-offset-mm="0" data-hole-radius-mm="40"/>
  </g>
  <g transform="translate(12 24)">
  <circle cx="59.5" cy="99.5" r="2" class="drill linkage-hole bracket-hole crank-hole handle-hole" data-hole-role="linkage-bracket-crank-handle" data-attachment-kinds="linkage bracket crank handle" data-hole-diameter-mm="4" data-hole-index="11" data-hole-x-offset-mm="0" data-hole-y-offset-mm="40" data-hole-radius-mm="40"/>
  </g>
  <g transform="translate(12 118)">
  <path d="M 14 7 L 134 7 A 7 7 0 0 1 134 21 L 14 21 A 7 7 0 0 1 14 7 Z" class="cut linkage-outline" data-cells="6" data-length-mm="120" data-pitch-mm="20" data-hole-count="7"/>
  </g>
  <g transform="translate(12 118)">
  <circle cx="14" cy="14" r="2" class="drill linkage-hole bracket-hole" data-hole-role="linkage-bracket" data-hole-diameter-mm="4" data-hole-index="0"/>
  </g>
  <g transform="translate(12 118)">
  <circle cx="34" cy="14" r="2" class="drill linkage-hole bracket-hole" data-hole-role="linkage-bracket" data-hole-diameter-mm="4" data-hole-index="1"/>
  </g>
  <g transform="translate(12 118)">
  <circle cx="54" cy="14" r="2" class="drill linkage-hole bracket-hole" data-hole-role="linkage-bracket" data-hole-diameter-mm="4" data-hole-index="2"/>
  </g>
  <g transform="translate(12 118)">
  <circle cx="74" cy="14" r="2" class="drill linkage-hole bracket-hole" data-hole-role="linkage-bracket" data-hole-diameter-mm="4" data-hole-index="3"/>
  </g>
  <g transform="translate(12 118)">
  <circle cx="94" cy="14" r="2" class="drill linkage-hole bracket-hole" data-hole-role="linkage-bracket" data-hole-diameter-mm="4" data-hole-index="4"/>
  </g>
  <g transform="translate(12 118)">
  <circle cx="114" cy="14" r="2" class="drill linkage-hole bracket-hole" data-hole-role="linkage-bracket" data-hole-diameter-mm="4" data-hole-index="5"/>
  </g>
  <g transform="translate(12 118)">
  <circle cx="134" cy="14" r="2" class="drill linkage-hole bracket-hole" data-hole-role="linkage-bracket" data-hole-diameter-mm="4" data-hole-index="6"/>
  </g>
  <g transform="translate(12 154)">
  <path d="M 14 7 L 174 7 A 7 7 0 0 1 174 21 L 14 21 A 7 7 0 0 1 14 7 Z" class="cut linkage-outline" data-cells="8" data-length-mm="160" data-pitch-mm="20" data-hole-count="9"/>
  </g>
  <g transform="translate(12 154)">
  <circle cx="14" cy="14" r="2" class="drill linkage-hole bracket-hole" data-hole-role="linkage-bracket" data-hole-diameter-mm="4" data-hole-index="0"/>
  </g>
  <g transform="translate(12 154)">
  <circle cx="34" cy="14" r="2" class="drill linkage-hole bracket-hole" data-hole-role="linkage-bracket" data-hole-diameter-mm="4" data-hole-index="1"/>
  </g>
  <g transform="translate(12 154)">
  <circle cx="54" cy="14" r="2" class="drill linkage-hole bracket-hole" data-hole-role="linkage-bracket" data-hole-diameter-mm="4" data-hole-index="2"/>
  </g>
  <g transform="translate(12 154)">
  <circle cx="74" cy="14" r="2" class="drill linkage-hole bracket-hole" data-hole-role="linkage-bracket" data-hole-diameter-mm="4" data-hole-index="3"/>
  </g>
  <g transform="translate(12 154)">
  <circle cx="94" cy="14" r="2" class="drill linkage-hole bracket-hole" data-hole-role="linkage-bracket" data-hole-diameter-mm="4" data-hole-index="4"/>
  </g>
  <g transform="translate(12 154)">
  <circle cx="114" cy="14" r="2" class="drill linkage-hole bracket-hole" data-hole-role="linkage-bracket" data-hole-diameter-mm="4" data-hole-index="5"/>
  </g>
  <g transform="translate(12 154)">
  <circle cx="134" cy="14" r="2" class="drill linkage-hole bracket-hole" data-hole-role="linkage-bracket" data-hole-diameter-mm="4" data-hole-index="6"/>
  </g>
  <g transform="translate(12 154)">
  <circle cx="154" cy="14" r="2" class="drill linkage-hole bracket-hole" data-hole-role="linkage-bracket" data-hole-diameter-mm="4" data-hole-index="7"/>
  </g>
  <g transform="translate(12 154)">
  <circle cx="174" cy="14" r="2" class="drill linkage-hole bracket-hole" data-hole-role="linkage-bracket" data-hole-diameter-mm="4" data-hole-index="8"/>
  </g>
  <g transform="translate(12 194)">
  <path d="M 31.2 8 L 32.21 8.063 L 33.208 8.251 L 34.181 8.561 L 35.117 8.985 L 36.007 9.517 L 36.841 10.147 L 37.613 10.862 L 38.316 11.65 L 38.947 12.498 L 39.504 13.393 L 39.988 14.319 L 40.4 15.265 L 40.745 16.218 L 41.027 17.166 L 41.253 18.099 L 41.429 19.009 L 41.564 19.889 L 41.665 20.735 L 41.74 21.542 L 41.795 22.31 L 41.837 23.038 L 41.872 23.727 L 41.905 24.38 L 41.939 25 L 41.976 25.591 L 42.017 26.156 L 42.062 26.701 L 42.112 27.228 L 42.163 27.743 L 42.215 28.248 L 42.265 28.747 L 42.31 29.241 L 42.347 29.732 L 42.376 30.222 L 42.394 30.711 L 42.4 31.2 L 42.394 31.689 L 42.376 32.178 L 42.347 32.668 L 42.31 33.159 L 42.265 33.653 L 42.215 34.152 L 42.163 34.657 L 42.112 35.172 L 42.062 35.699 L 42.017 36.244 L 41.976 36.809 L 41.939 37.4 L 41.905 38.02 L 41.872 38.673 L 41.837 39.362 L 41.795 40.09 L 41.74 40.858 L 41.665 41.665 L 41.564 42.511 L 41.429 43.391 L 41.253 44.301 L 41.027 45.234 L 40.745 46.182 L 40.4 47.135 L 39.988 48.081 L 39.504 49.007 L 38.947 49.902 L 38.316 50.75 L 37.613 51.538 L 36.841 52.253 L 36.007 52.883 L 35.117 53.415 L 34.181 53.839 L 33.208 54.149 L 32.21 54.337 L 31.2 54.4 L 30.19 54.337 L 29.192 54.149 L 28.219 53.839 L 27.283 53.415 L 26.393 52.883 L 25.559 52.253 L 24.787 51.538 L 24.084 50.75 L 23.453 49.902 L 22.896 49.007 L 22.412 48.081 L 22 47.135 L 21.655 46.182 L 21.373 45.234 L 21.147 44.301 L 20.971 43.391 L 20.836 42.511 L 20.735 41.665 L 20.66 40.858 L 20.605 40.09 L 20.563 39.362 L 20.528 38.673 L 20.495 38.02 L 20.461 37.4 L 20.424 36.809 L 20.383 36.244 L 20.338 35.699 L 20.288 35.172 L 20.237 34.657 L 20.185 34.152 L 20.135 33.653 L 20.09 33.159 L 20.053 32.668 L 20.024 32.178 L 20.006 31.689 L 20 31.2 L 20.006 30.711 L 20.024 30.222 L 20.053 29.732 L 20.09 29.241 L 20.135 28.747 L 20.185 28.248 L 20.237 27.743 L 20.288 27.228 L 20.338 26.701 L 20.383 26.156 L 20.424 25.591 L 20.461 25 L 20.495 24.38 L 20.528 23.727 L 20.563 23.038 L 20.605 22.31 L 20.66 21.542 L 20.735 20.735 L 20.836 19.889 L 20.971 19.009 L 21.147 18.099 L 21.373 17.166 L 21.655 16.218 L 22 15.265 L 22.412 14.319 L 22.896 13.393 L 23.453 12.498 L 24.084 11.65 L 24.787 10.862 L 25.559 10.147 L 26.393 9.517 L 27.283 8.985 L 28.219 8.561 L 29.192 8.251 L 30.19 8.063 Z" class="cut cam-outline" data-cam-key="oval" data-base-radius-mm="16" data-eccentricity-mm="6" data-cam-lobes="2" data-profile-harmonic="0.2" data-rise-deg="120" data-high-dwell-deg="30" data-return-deg="120" data-physical-cam-preset="oval" data-profile-source="automataii.domain.mechanisms.cam.profile.build_pear_cam_profile_from_params" data-profile-sample-count="144"/>
  </g>
  <g transform="translate(12 194)">
  <circle cx="31.2" cy="31.2" r="2" class="drill axle-hole" data-hole-role="axle" data-hole-diameter-mm="4"/>
  </g>
  <g transform="translate(12 194)">
  <line x1="31.2" y1="31.2" x2="47.2" y2="31.2" class="score cam-base-radius"/>
  </g>
  <g transform="translate(12 194)">
  <circle cx="31.2" cy="31.2" r="16" class="score cam-base-circle"/>
  </g>
  <g transform="translate(12 194)">
  <circle cx="37.782" cy="47.091" r="2" class="drill linkage-hole bracket-hole crank-hole handle-hole" data-hole-role="linkage-bracket-crank-handle" data-attachment-kinds="linkage bracket crank handle" data-hole-diameter-mm="4" data-hole-index="0" data-hole-x-offset-mm="6.582" data-hole-y-offset-mm="15.891"/>
  </g>
  <g transform="translate(12 194)">
  <circle cx="24.618" cy="47.091" r="2" class="drill linkage-hole bracket-hole crank-hole handle-hole" data-hole-role="linkage-bracket-crank-handle" data-attachment-kinds="linkage bracket crank handle" data-hole-diameter-mm="4" data-hole-index="1" data-hole-x-offset-mm="-6.582" data-hole-y-offset-mm="15.891"/>
  </g>
  <g transform="translate(12 194)">
  <circle cx="24.618" cy="15.309" r="2" class="drill linkage-hole bracket-hole crank-hole handle-hole" data-hole-role="linkage-bracket-crank-handle" data-attachment-kinds="linkage bracket crank handle" data-hole-diameter-mm="4" data-hole-index="2" data-hole-x-offset-mm="-6.582" data-hole-y-offset-mm="-15.891"/>
  </g>
  <g transform="translate(12 194)">
  <circle cx="37.782" cy="15.309" r="2" class="drill linkage-hole bracket-hole crank-hole handle-hole" data-hole-role="linkage-bracket-crank-handle" data-attachment-kinds="linkage bracket crank handle" data-hole-diameter-mm="4" data-hole-index="3" data-hole-x-offset-mm="6.582" data-hole-y-offset-mm="-15.891"/>
  </g>
  <g transform="translate(112 186)">
  <path d="M 38.15 8 L 39.464 8.049 L 40.771 8.197 L 42.061 8.441 L 43.329 8.78 L 44.566 9.211 L 45.765 9.731 L 46.92 10.336 L 48.024 11.021 L 49.073 11.78 L 50.06 12.609 L 50.982 13.5 L 51.835 14.448 L 52.615 15.444 L 53.321 16.484 L 53.951 17.558 L 54.503 18.661 L 54.979 19.784 L 55.378 20.922 L 55.701 22.067 L 55.951 23.213 L 56.13 24.353 L 56.241 25.483 L 56.287 26.596 L 56.272 27.687 L 56.2 28.754 L 56.076 29.791 L 55.904 30.796 L 55.689 31.766 L 55.437 32.699 L 55.152 33.594 L 54.838 34.45 L 54.501 35.267 L 54.144 36.044 L 53.773 36.783 L 53.39 37.485 L 53 38.15 L 52.606 38.781 L 52.21 39.38 L 51.815 39.949 L 51.422 40.49 L 51.034 41.006 L 50.652 41.5 L 50.275 41.973 L 49.904 42.428 L 49.54 42.868 L 49.181 43.294 L 48.827 43.708 L 48.477 44.112 L 48.13 44.508 L 47.784 44.896 L 47.437 45.276 L 47.088 45.65 L 46.736 46.017 L 46.378 46.378 L 46.013 46.731 L 45.64 47.076 L 45.257 47.412 L 44.864 47.738 L 44.458 48.052 L 44.04 48.352 L 43.61 48.638 L 43.166 48.906 L 42.709 49.156 L 42.239 49.385 L 41.758 49.592 L 41.265 49.775 L 40.762 49.932 L 40.251 50.063 L 39.732 50.166 L 39.208 50.24 L 38.68 50.285 L 38.15 50.3 L 37.62 50.285 L 37.092 50.24 L 36.568 50.166 L 36.049 50.063 L 35.538 49.932 L 35.035 49.775 L 34.542 49.592 L 34.061 49.385 L 33.591 49.156 L 33.134 48.906 L 32.69 48.638 L 32.26 48.352 L 31.842 48.052 L 31.436 47.738 L 31.043 47.412 L 30.66 47.076 L 30.287 46.731 L 29.922 46.378 L 29.564 46.017 L 29.212 45.65 L 28.863 45.276 L 28.516 44.896 L 28.17 44.508 L 27.823 44.113 L 27.473 43.708 L 27.119 43.294 L 26.76 42.868 L 26.396 42.428 L 26.025 41.973 L 25.648 41.5 L 25.266 41.006 L 24.878 40.49 L 24.485 39.949 L 24.09 39.38 L 23.694 38.781 L 23.3 38.15 L 22.91 37.485 L 22.527 36.783 L 22.156 36.044 L 21.799 35.267 L 21.462 34.45 L 21.148 33.594 L 20.863 32.699 L 20.611 31.766 L 20.396 30.796 L 20.224 29.791 L 20.1 28.754 L 20.028 27.687 L 20.013 26.596 L 20.059 25.483 L 20.17 24.353 L 20.349 23.213 L 20.599 22.067 L 20.922 20.922 L 21.321 19.784 L 21.797 18.661 L 22.349 17.558 L 22.979 16.484 L 23.685 15.444 L 24.465 14.448 L 25.318 13.5 L 26.24 12.609 L 27.227 11.78 L 28.276 11.021 L 29.38 10.336 L 30.535 9.731 L 31.734 9.211 L 32.971 8.78 L 34.239 8.441 L 35.529 8.197 L 36.836 8.049 Z" class="cut cam-outline" data-cam-key="pear" data-base-radius-mm="18" data-eccentricity-mm="9" data-cam-lobes="1" data-profile-harmonic="0.35" data-rise-deg="150" data-high-dwell-deg="45" data-return-deg="75" data-physical-cam-preset="pear" data-profile-source="automataii.domain.mechanisms.cam.profile.build_pear_cam_profile_from_params" data-profile-sample-count="144"/>
  </g>
  <g transform="translate(112 186)">
  <circle cx="38.15" cy="38.15" r="2" class="drill axle-hole" data-hole-role="axle" data-hole-diameter-mm="4"/>
  </g>
  <g transform="translate(112 186)">
  <line x1="38.15" y1="38.15" x2="56.15" y2="38.15" class="score cam-base-radius"/>
  </g>
  <g transform="translate(112 186)">
  <circle cx="38.15" cy="38.15" r="18" class="score cam-base-circle"/>
  </g>
  <g transform="translate(112 186)">
  <circle cx="23.368" cy="32.027" r="2" class="drill linkage-hole bracket-hole crank-hole handle-hole" data-hole-role="linkage-bracket-crank-handle" data-attachment-kinds="linkage bracket crank handle" data-hole-diameter-mm="4" data-hole-index="0" data-hole-x-offset-mm="-14.782" data-hole-y-offset-mm="-6.123"/>
  </g>
  <g transform="translate(112 186)">
  <circle cx="32.027" cy="23.368" r="2" class="drill linkage-hole bracket-hole crank-hole handle-hole" data-hole-role="linkage-bracket-crank-handle" data-attachment-kinds="linkage bracket crank handle" data-hole-diameter-mm="4" data-hole-index="1" data-hole-x-offset-mm="-6.123" data-hole-y-offset-mm="-14.782"/>
  </g>
  <g transform="translate(112 186)">
  <circle cx="44.273" cy="23.368" r="2" class="drill linkage-hole bracket-hole crank-hole handle-hole" data-hole-role="linkage-bracket-crank-handle" data-attachment-kinds="linkage bracket crank handle" data-hole-diameter-mm="4" data-hole-index="2" data-hole-x-offset-mm="6.123" data-hole-y-offset-mm="-14.782"/>
  </g>
  <g transform="translate(112 186)">
  <circle cx="52.932" cy="32.027" r="2" class="drill linkage-hole bracket-hole crank-hole handle-hole" data-hole-role="linkage-bracket-crank-handle" data-attachment-kinds="linkage bracket crank handle" data-hole-diameter-mm="4" data-hole-index="3" data-hole-x-offset-mm="14.782" data-hole-y-offset-mm="-6.123"/>
  </g>
  <g transform="translate(166 122)">
  <path d="M 3 3 L 37 3 L 37 17 L 17 17 L 17 37 L 3 37 Z" class="cut bracket-outline" data-bracket-key="l-3-hole" data-pitch-mm="20" data-hole-count="3"/>
  </g>
  <g transform="translate(166 122)">
  <circle cx="10" cy="10" r="2" class="drill bracket-hole linkage-hole" data-hole-role="bracket" data-hole-diameter-mm="4" data-hole-index="0" data-hole-x-mm="10" data-hole-y-mm="10"/>
  </g>
  <g transform="translate(166 122)">
  <circle cx="30" cy="10" r="2" class="drill bracket-hole linkage-hole" data-hole-role="bracket" data-hole-diameter-mm="4" data-hole-index="1" data-hole-x-mm="30" data-hole-y-mm="10"/>
  </g>
  <g transform="translate(166 122)">
  <circle cx="10" cy="30" r="2" class="drill bracket-hole linkage-hole" data-hole-role="bracket" data-hole-diameter-mm="4" data-hole-index="2" data-hole-x-mm="10" data-hole-y-mm="30"/>
  </g>
  <g transform="translate(166 158)">
  <path d="M 3 3 L 39 3 L 3 39 Z" class="cut bracket-outline" data-bracket-key="triangle-3-hole" data-pitch-mm="20" data-hole-count="3"/>
  </g>
  <g transform="translate(166 158)">
  <circle cx="10" cy="10" r="2" class="drill bracket-hole linkage-hole" data-hole-role="bracket" data-hole-diameter-mm="4" data-hole-index="0" data-hole-x-mm="10" data-hole-y-mm="10"/>
  </g>
  <g transform="translate(166 158)">
  <circle cx="30" cy="10" r="2" class="drill bracket-hole linkage-hole" data-hole-role="bracket" data-hole-diameter-mm="4" data-hole-index="1" data-hole-x-mm="30" data-hole-y-mm="10"/>
  </g>
  <g transform="translate(166 158)">
  <circle cx="10" cy="30" r="2" class="drill bracket-hole linkage-hole" data-hole-role="bracket" data-hole-diameter-mm="4" data-hole-index="2" data-hole-x-mm="10" data-hole-y-mm="30"/>
  </g>
</svg>
