<?xml version="1.0" encoding="UTF-8"?>
<svg xmlns="http://www.w3.org/2000/svg" version="1.1"
     width="420mm" height="320mm"
     viewBox="0 0 420 320"
     data-profile-key="motionsmith-ms4n"
     data-grid-pitch-mm="20"
     data-hole-diameter-mm="6">
  <title>Automataii fabrication sheet 07-follower-set: Follower set</title>
  <desc>Workshop sheet containing: followers. Nominal holes are 6 mm.</desc>
  <defs>
    <style>
      .cut { fill: none; stroke: #ed1c24; stroke-width: 0.25; stroke-miterlimit: 10; }
      .drill { fill: none; stroke: #0071bc; stroke-width: 0.2; stroke-miterlimit: 10; }
      .score { fill: none; stroke: #777777; stroke-width: 0.15; stroke-dasharray: 2 1; }
      .label { fill: #333333; font-family: Arial, Helvetica, sans-serif; font-size: 4px; }
      .tiny { fill: #333333; font-family: Arial, Helvetica, sans-serif; font-size: 3px; }
      .paper { fill: #ffffff; stroke: none; }
    </style>
  </defs>
  <text x="12" y="12" class="label" text-anchor="start">07 Follower set</text>
  <text x="12" y="18" class="tiny" text-anchor="start">Slotted cam followers: guide on fixed 6 mm pins, output holes move with the cam</text>
  <g transform="translate(10 30)">
  <path d="M 9 25 A 17 17 0 0 1 43 25 L 43 191 A 17 17 0 0 1 9 191 Z" class="cut follower-outline" data-follower-key="round-nose" data-contact-style="round_nose" data-pitch-mm="20" data-guide-slot-travel-mm="50"/>
  </g>
  <g transform="translate(10 30)">
  <circle cx="26" cy="28" r="3" class="drill linkage-hole follower-output-hole" data-hole-role="linkage-output" data-hole-diameter-mm="6" data-hole-index="0" data-hole-y-mm="20"/>
  </g>
  <g transform="translate(10 30)">
  <circle cx="26" cy="48" r="3" class="drill linkage-hole follower-output-hole" data-hole-role="linkage-output" data-hole-diameter-mm="6" data-hole-index="1" data-hole-y-mm="40"/>
  </g>
  <g transform="translate(10 30)">
  <path d="M 23 76 A 3 3 0 0 1 29 76 L 29 126 A 3 3 0 0 1 23 126 Z" class="cut guide-slot follower-guide-slot" data-slot-role="guide" data-hole-role="guide-slot" data-slot-index="0" data-slot-width-mm="6" data-slot-travel-mm="50" data-slot-center-y-mm="93"/>
  </g>
  <g transform="translate(10 30)">
  <path d="M 23 140 A 3 3 0 0 1 29 140 L 29 190 A 3 3 0 0 1 23 190 Z" class="cut guide-slot follower-guide-slot" data-slot-role="guide" data-hole-role="guide-slot" data-slot-index="1" data-slot-width-mm="6" data-slot-travel-mm="50" data-slot-center-y-mm="157"/>
  </g>
  <g transform="translate(110 30)">
  <path d="M 9 25 A 17 17 0 0 1 43 25 L 43 191 A 17 17 0 0 1 9 191 Z" class="cut follower-outline" data-follower-key="roller-pin" data-contact-style="roller_pin" data-pitch-mm="20" data-guide-slot-travel-mm="50"/>
  </g>
  <g transform="translate(110 30)">
  <circle cx="26" cy="28" r="3" class="drill linkage-hole follower-output-hole" data-hole-role="linkage-output" data-hole-diameter-mm="6" data-hole-index="0" data-hole-y-mm="20"/>
  </g>
  <g transform="translate(110 30)">
  <circle cx="26" cy="48" r="3" class="drill linkage-hole follower-output-hole" data-hole-role="linkage-output" data-hole-diameter-mm="6" data-hole-index="1" data-hole-y-mm="40"/>
  </g>
  <g transform="translate(110 30)">
  <path d="M 23 76 A 3 3 0 0 1 29 76 L 29 126 A 3 3 0 0 1 23 126 Z" class="cut guide-slot follower-guide-slot" data-slot-role="guide" data-hole-role="guide-slot" data-slot-index="0" data-slot-width-mm="6" data-slot-travel-mm="50" data-slot-center-y-mm="93"/>
  </g>
  <g transform="translate(110 30)">
  <path d="M 23 140 A 3 3 0 0 1 29 140 L 29 190 A 3 3 0 0 1 23 190 Z" class="cut guide-slot follower-guide-slot" data-slot-role="guide" data-hole-role="guide-slot" data-slot-index="1" data-slot-width-mm="6" data-slot-travel-mm="50" data-slot-center-y-mm="157"/>
  </g>
  <g transform="translate(110 30)">
  <circle cx="26" cy="196" r="3" class="drill roller-axle-hole follower-contact-hole" data-hole-role="roller-axle" data-hole-diameter-mm="6" data-contact-style="roller_pin"/>
  </g>
  <g transform="translate(210 30)">
  <path d="M 21 25 L 38 8 L 55 25 L 55 190 L 68 190 L 68 208 L 8 208 L 8 190 L 21 190 Z" class="cut follower-outline" data-follower-key="flat-shoe" data-contact-style="flat_shoe" data-pitch-mm="20" data-guide-slot-travel-mm="50"/>
  </g>
  <g transform="translate(210 30)">
  <circle cx="38" cy="28" r="3" class="drill linkage-hole follower-output-hole" data-hole-role="linkage-output" data-hole-diameter-mm="6" data-hole-index="0" data-hole-y-mm="20"/>
  </g>
  <g transform="translate(210 30)">
  <circle cx="38" cy="48" r="3" class="drill linkage-hole follower-output-hole" data-hole-role="linkage-output" data-hole-diameter-mm="6" data-hole-index="1" data-hole-y-mm="40"/>
  </g>
  <g transform="translate(210 30)">
  <path d="M 35 76 A 3 3 0 0 1 41 76 L 41 126 A 3 3 0 0 1 35 126 Z" class="cut guide-slot follower-guide-slot" data-slot-role="guide" data-hole-role="guide-slot" data-slot-index="0" data-slot-width-mm="6" data-slot-travel-mm="50" data-slot-center-y-mm="93"/>
  </g>
  <g transform="translate(210 30)">
  <path d="M 35 140 A 3 3 0 0 1 41 140 L 41 190 A 3 3 0 0 1 35 190 Z" class="cut guide-slot follower-guide-slot" data-slot-role="guide" data-hole-role="guide-slot" data-slot-index="1" data-slot-width-mm="6" data-slot-travel-mm="50" data-slot-center-y-mm="157"/>
  </g>
  <g transform="translate(310 30)">
  <path d="M 11 25 A 17 17 0 0 1 45 25 L 45 191 A 17 17 0 0 1 11 191 Z" class="cut follower-outline" data-follower-key="linkage-output" data-contact-style="linkage_output" data-pitch-mm="20" data-guide-slot-travel-mm="50"/>
  </g>
  <g transform="translate(310 30)">
  <circle cx="28" cy="28" r="3" class="drill linkage-hole follower-output-hole" data-hole-role="linkage-output" data-hole-diameter-mm="6" data-hole-index="0" data-hole-y-mm="20"/>
  </g>
  <g transform="translate(310 30)">
  <circle cx="28" cy="48" r="3" class="drill linkage-hole follower-output-hole" data-hole-role="linkage-output" data-hole-diameter-mm="6" data-hole-index="1" data-hole-y-mm="40"/>
  </g>
  <g transform="translate(310 30)">
  <circle cx="28" cy="68" r="3" class="drill linkage-hole follower-output-hole" data-hole-role="linkage-output" data-hole-diameter-mm="6" data-hole-index="2" data-hole-y-mm="60"/>
  </g>
  <g transform="translate(310 30)">
  <path d="M 25 76 A 3 3 0 0 1 31 76 L 31 126 A 3 3 0 0 1 25 126 Z" class="cut guide-slot follower-guide-slot" data-slot-role="guide" data-hole-role="guide-slot" data-slot-index="0" data-slot-width-mm="6" data-slot-travel-mm="50" data-slot-center-y-mm="93"/>
  </g>
  <g transform="translate(310 30)">
  <path d="M 25 140 A 3 3 0 0 1 31 140 L 31 190 A 3 3 0 0 1 25 190 Z" class="cut guide-slot follower-guide-slot" data-slot-role="guide" data-hole-role="guide-slot" data-slot-index="1" data-slot-width-mm="6" data-slot-travel-mm="50" data-slot-center-y-mm="157"/>
  </g>
</svg>
