<?xml version="1.0" encoding="UTF-8"?>
<svg xmlns="http://www.w3.org/2000/svg" version="1.1"
     width="215.9mm" height="279.4mm"
     viewBox="0 0 215.9 279.4"
     data-profile-key="motionsmith-ms4n"
     data-grid-pitch-mm="20"
     data-hole-diameter-mm="4">
  <title>Automataii fabrication sheet 10-gear-set-large: Gear set B</title>
  <desc>Workshop sheet containing: gears. Nominal holes are 4 mm.</desc>
  <defs>
    <style>
      .cut { fill: none; stroke: #ed1c24; stroke-width: 0.25; stroke-miterlimit: 10; }
      .drill { fill: none; stroke: #0071bc; stroke-width: 0.2; stroke-miterlimit: 10; }
      .score { fill: none; stroke: #777777; stroke-width: 0.15; stroke-dasharray: 2 1; }
      .label { fill: #333333; font-family: Arial, Helvetica, sans-serif; font-size: 4px; }
      .tiny { fill: #333333; font-family: Arial, Helvetica, sans-serif; font-size: 3px; }
      .small { fill: #333333; font-family: Arial, Helvetica, sans-serif; font-size: 3.6px; }
      .step-title { fill: #111827; font-family: Arial, Helvetica, sans-serif; font-size: 5px; font-weight: bold; }
      .part-card-label { fill: #111827; font-family: Arial, Helvetica, sans-serif; font-size: 3.5px; font-weight: bold; }
      .coord-label { fill: #111827; font-family: Arial, Helvetica, sans-serif; font-size: 6px; font-weight: bold; }
      .paper { fill: #ffffff; stroke: none; }
    </style>
  </defs>
  <text x="12" y="12" class="label" text-anchor="start">10 Gear set B</text>
  <text x="12" y="18" class="tiny" text-anchor="start">Large 7-space gear on its own Letter page at actual size</text>
  <g transform="translate(28 36)">
  <path d="M 147.938 79.5 L 150.972 81.505 L 150.888 83.509 L 147.695 85.252 L 147.507 87.163 L 150.298 89.495 L 149.99 91.477 L 146.622 92.851 L 146.222 94.729 L 148.734 97.359 L 148.206 99.294 L 144.706 100.283 L 144.097 102.103 L 146.299 104.998 L 145.557 106.862 L 141.969 107.453 L 141.16 109.194 L 143.024 112.317 L 142.078 114.086 L 138.446 114.271 L 137.448 115.911 L 138.95 119.223 L 137.813 120.875 L 134.182 120.653 L 133.007 122.17 L 134.129 125.63 L 132.813 127.144 L 129.231 126.516 L 127.893 127.893 L 128.62 131.456 L 127.144 132.813 L 123.654 131.789 L 122.17 133.007 L 122.494 136.629 L 120.875 137.813 L 117.522 136.404 L 115.911 137.448 L 115.827 141.084 L 114.086 142.078 L 110.912 140.303 L 109.194 141.16 L 108.704 144.764 L 106.862 145.557 L 103.906 143.438 L 102.103 144.097 L 101.213 147.623 L 99.294 148.206 L 96.594 145.768 L 94.729 146.222 L 93.449 149.626 L 91.477 149.99 L 89.067 147.266 L 87.163 147.507 L 85.51 150.747 L 83.509 150.888 L 81.419 147.911 L 79.5 147.938 L 77.495 150.972 L 75.491 150.888 L 73.748 147.695 L 71.837 147.507 L 69.505 150.298 L 67.523 149.99 L 66.149 146.622 L 64.271 146.222 L 61.641 148.734 L 59.706 148.206 L 58.717 144.706 L 56.897 144.097 L 54.002 146.299 L 52.138 145.557 L 51.547 141.969 L 49.806 141.16 L 46.683 143.024 L 44.914 142.078 L 44.729 138.446 L 43.089 137.448 L 39.777 138.95 L 38.125 137.813 L 38.347 134.182 L 36.83 133.007 L 33.37 134.129 L 31.856 132.813 L 32.484 129.231 L 31.107 127.893 L 27.544 128.62 L 26.187 127.144 L 27.211 123.654 L 25.993 122.17 L 22.371 122.494 L 21.187 120.875 L 22.596 117.522 L 21.552 115.911 L 17.916 115.827 L 16.922 114.086 L 18.697 110.912 L 17.84 109.194 L 14.236 108.704 L 13.443 106.862 L 15.562 103.906 L 14.903 102.103 L 11.377 101.213 L 10.794 99.294 L 13.232 96.594 L 12.778 94.729 L 9.374 93.449 L 9.01 91.477 L 11.734 89.067 L 11.493 87.163 L 8.253 85.51 L 8.112 83.509 L 11.089 81.419 L 11.062 79.5 L 8.028 77.495 L 8.112 75.491 L 11.305 73.748 L 11.493 71.837 L 8.702 69.505 L 9.01 67.523 L 12.378 66.149 L 12.778 64.271 L 10.266 61.641 L 10.794 59.706 L 14.294 58.717 L 14.903 56.897 L 12.701 54.002 L 13.443 52.138 L 17.031 51.547 L 17.84 49.806 L 15.976 46.683 L 16.922 44.914 L 20.554 44.729 L 21.552 43.089 L 20.05 39.777 L 21.187 38.125 L 24.818 38.347 L 25.993 36.83 L 24.871 33.37 L 26.187 31.856 L 29.769 32.484 L 31.107 31.107 L 30.38 27.544 L 31.856 26.187 L 35.346 27.211 L 36.83 25.993 L 36.506 22.371 L 38.125 21.187 L 41.478 22.596 L 43.089 21.552 L 43.173 17.916 L 44.914 16.922 L 48.088 18.697 L 49.806 17.84 L 50.296 14.236 L 52.138 13.443 L 55.094 15.562 L 56.897 14.903 L 57.787 11.377 L 59.706 10.794 L 62.406 13.232 L 64.271 12.778 L 65.551 9.374 L 67.523 9.01 L 69.933 11.734 L 71.837 11.493 L 73.49 8.253 L 75.491 8.112 L 77.581 11.089 L 79.5 11.062 L 81.505 8.028 L 83.509 8.112 L 85.252 11.305 L 87.163 11.493 L 89.495 8.702 L 91.477 9.01 L 92.851 12.378 L 94.729 12.778 L 97.359 10.266 L 99.294 10.794 L 100.283 14.294 L 102.103 14.903 L 104.998 12.701 L 106.862 13.443 L 107.453 17.031 L 109.194 17.84 L 112.317 15.976 L 114.086 16.922 L 114.271 20.554 L 115.911 21.552 L 119.223 20.05 L 120.875 21.187 L 120.653 24.818 L 122.17 25.993 L 125.63 24.871 L 127.144 26.187 L 126.516 29.769 L 127.893 31.107 L 131.456 30.38 L 132.813 31.856 L 131.789 35.346 L 133.007 36.83 L 136.629 36.506 L 137.813 38.125 L 136.404 41.478 L 137.448 43.089 L 141.084 43.173 L 142.078 44.914 L 140.303 48.088 L 141.16 49.806 L 144.764 50.296 L 145.557 52.138 L 143.438 55.094 L 144.097 56.897 L 147.623 57.787 L 148.206 59.706 L 145.768 62.406 L 146.222 64.271 L 149.626 65.551 L 149.99 67.523 L 147.266 69.933 L 147.507 71.837 L 150.747 73.49 L 150.888 75.491 L 147.911 77.581 Z" class="cut gear-outline" data-teeth="56" data-pitch-radius-mm="70" data-root-radius-mm="68.438" data-outer-radius-mm="71.5" data-attachment-hole-pattern="grid"/>
  </g>
  <g transform="translate(28 36)">
  <circle cx="79.5" cy="79.5" r="2" class="drill axle-hole" data-hole-role="axle" data-hole-diameter-mm="4"/>
  </g>
  <g transform="translate(28 36)">
  <circle cx="79.5" cy="79.5" r="70" class="score pitch-circle"/>
  </g>
  <g transform="translate(28 36)">
  <circle cx="79.5" cy="59.5" r="2" class="drill linkage-hole bracket-hole crank-hole handle-hole" data-hole-role="linkage-bracket-crank-handle" data-attachment-kinds="linkage bracket crank handle" data-hole-diameter-mm="4" data-hole-index="0" data-hole-x-offset-mm="0" data-hole-y-offset-mm="-20" data-hole-radius-mm="20"/>
  </g>
  <g transform="translate(28 36)">
  <circle cx="59.5" cy="79.5" r="2" class="drill linkage-hole bracket-hole crank-hole handle-hole" data-hole-role="linkage-bracket-crank-handle" data-attachment-kinds="linkage bracket crank handle" data-hole-diameter-mm="4" data-hole-index="1" data-hole-x-offset-mm="-20" data-hole-y-offset-mm="0" data-hole-radius-mm="20"/>
  </g>
  <g transform="translate(28 36)">
  <circle cx="99.5" cy="79.5" r="2" class="drill linkage-hole bracket-hole crank-hole handle-hole" data-hole-role="linkage-bracket-crank-handle" data-attachment-kinds="linkage bracket crank handle" data-hole-diameter-mm="4" data-hole-index="2" data-hole-x-offset-mm="20" data-hole-y-offset-mm="0" data-hole-radius-mm="20"/>
  </g>
  <g transform="translate(28 36)">
  <circle cx="79.5" cy="99.5" r="2" class="drill linkage-hole bracket-hole crank-hole handle-hole" data-hole-role="linkage-bracket-crank-handle" data-attachment-kinds="linkage bracket crank handle" data-hole-diameter-mm="4" data-hole-index="3" data-hole-x-offset-mm="0" data-hole-y-offset-mm="20" data-hole-radius-mm="20"/>
  </g>
  <g transform="translate(28 36)">
  <circle cx="59.5" cy="59.5" r="2" class="drill linkage-hole bracket-hole crank-hole handle-hole" data-hole-role="linkage-bracket-crank-handle" data-attachment-kinds="linkage bracket crank handle" data-hole-diameter-mm="4" data-hole-index="4" data-hole-x-offset-mm="-20" data-hole-y-offset-mm="-20" data-hole-radius-mm="28.284"/>
  </g>
  <g transform="translate(28 36)">
  <circle cx="99.5" cy="59.5" r="2" class="drill linkage-hole bracket-hole crank-hole handle-hole" data-hole-role="linkage-bracket-crank-handle" data-attachment-kinds="linkage bracket crank handle" data-hole-diameter-mm="4" data-hole-index="5" data-hole-x-offset-mm="20" data-hole-y-offset-mm="-20" data-hole-radius-mm="28.284"/>
  </g>
  <g transform="translate(28 36)">
  <circle cx="59.5" cy="99.5" r="2" class="drill linkage-hole bracket-hole crank-hole handle-hole" data-hole-role="linkage-bracket-crank-handle" data-attachment-kinds="linkage bracket crank handle" data-hole-diameter-mm="4" data-hole-index="6" data-hole-x-offset-mm="-20" data-hole-y-offset-mm="20" data-hole-radius-mm="28.284"/>
  </g>
  <g transform="translate(28 36)">
  <circle cx="99.5" cy="99.5" r="2" class="drill linkage-hole bracket-hole crank-hole handle-hole" data-hole-role="linkage-bracket-crank-handle" data-attachment-kinds="linkage bracket crank handle" data-hole-diameter-mm="4" data-hole-index="7" data-hole-x-offset-mm="20" data-hole-y-offset-mm="20" data-hole-radius-mm="28.284"/>
  </g>
  <g transform="translate(28 36)">
  <circle cx="79.5" cy="39.5" r="2" class="drill linkage-hole bracket-hole crank-hole handle-hole" data-hole-role="linkage-bracket-crank-handle" data-attachment-kinds="linkage bracket crank handle" data-hole-diameter-mm="4" data-hole-index="8" data-hole-x-offset-mm="0" data-hole-y-offset-mm="-40" data-hole-radius-mm="40"/>
  </g>
  <g transform="translate(28 36)">
  <circle cx="39.5" cy="79.5" r="2" class="drill linkage-hole bracket-hole crank-hole handle-hole" data-hole-role="linkage-bracket-crank-handle" data-attachment-kinds="linkage bracket crank handle" data-hole-diameter-mm="4" data-hole-index="9" data-hole-x-offset-mm="-40" data-hole-y-offset-mm="0" data-hole-radius-mm="40"/>
  </g>
  <g transform="translate(28 36)">
  <circle cx="119.5" cy="79.5" r="2" class="drill linkage-hole bracket-hole crank-hole handle-hole" data-hole-role="linkage-bracket-crank-handle" data-attachment-kinds="linkage bracket crank handle" data-hole-diameter-mm="4" data-hole-index="10" data-hole-x-offset-mm="40" data-hole-y-offset-mm="0" data-hole-radius-mm="40"/>
  </g>
  <g transform="translate(28 36)">
  <circle cx="79.5" cy="119.5" r="2" class="drill linkage-hole bracket-hole crank-hole handle-hole" data-hole-role="linkage-bracket-crank-handle" data-attachment-kinds="linkage bracket crank handle" data-hole-diameter-mm="4" data-hole-index="11" data-hole-x-offset-mm="0" data-hole-y-offset-mm="40" data-hole-radius-mm="40"/>
  </g>
  <g transform="translate(28 36)">
  <circle cx="59.5" cy="39.5" r="2" class="drill linkage-hole bracket-hole crank-hole handle-hole" data-hole-role="linkage-bracket-crank-handle" data-attachment-kinds="linkage bracket crank handle" data-hole-diameter-mm="4" data-hole-index="12" data-hole-x-offset-mm="-20" data-hole-y-offset-mm="-40" data-hole-radius-mm="44.721"/>
  </g>
  <g transform="translate(28 36)">
  <circle cx="99.5" cy="39.5" r="2" class="drill linkage-hole bracket-hole crank-hole handle-hole" data-hole-role="linkage-bracket-crank-handle" data-attachment-kinds="linkage bracket crank handle" data-hole-diameter-mm="4" data-hole-index="13" data-hole-x-offset-mm="20" data-hole-y-offset-mm="-40" data-hole-radius-mm="44.721"/>
  </g>
  <g transform="translate(28 36)">
  <circle cx="39.5" cy="59.5" r="2" class="drill linkage-hole bracket-hole crank-hole handle-hole" data-hole-role="linkage-bracket-crank-handle" data-attachment-kinds="linkage bracket crank handle" data-hole-diameter-mm="4" data-hole-index="14" data-hole-x-offset-mm="-40" data-hole-y-offset-mm="-20" data-hole-radius-mm="44.721"/>
  </g>
  <g transform="translate(28 36)">
  <circle cx="119.5" cy="59.5" r="2" class="drill linkage-hole bracket-hole crank-hole handle-hole" data-hole-role="linkage-bracket-crank-handle" data-attachment-kinds="linkage bracket crank handle" data-hole-diameter-mm="4" data-hole-index="15" data-hole-x-offset-mm="40" data-hole-y-offset-mm="-20" data-hole-radius-mm="44.721"/>
  </g>
  <g transform="translate(28 36)">
  <circle cx="39.5" cy="99.5" r="2" class="drill linkage-hole bracket-hole crank-hole handle-hole" data-hole-role="linkage-bracket-crank-handle" data-attachment-kinds="linkage bracket crank handle" data-hole-diameter-mm="4" data-hole-index="16" data-hole-x-offset-mm="-40" data-hole-y-offset-mm="20" data-hole-radius-mm="44.721"/>
  </g>
  <g transform="translate(28 36)">
  <circle cx="119.5" cy="99.5" r="2" class="drill linkage-hole bracket-hole crank-hole handle-hole" data-hole-role="linkage-bracket-crank-handle" data-attachment-kinds="linkage bracket crank handle" data-hole-diameter-mm="4" data-hole-index="17" data-hole-x-offset-mm="40" data-hole-y-offset-mm="20" data-hole-radius-mm="44.721"/>
  </g>
  <g transform="translate(28 36)">
  <circle cx="59.5" cy="119.5" r="2" class="drill linkage-hole bracket-hole crank-hole handle-hole" data-hole-role="linkage-bracket-crank-handle" data-attachment-kinds="linkage bracket crank handle" data-hole-diameter-mm="4" data-hole-index="18" data-hole-x-offset-mm="-20" data-hole-y-offset-mm="40" data-hole-radius-mm="44.721"/>
  </g>
  <g transform="translate(28 36)">
  <circle cx="99.5" cy="119.5" r="2" class="drill linkage-hole bracket-hole crank-hole handle-hole" data-hole-role="linkage-bracket-crank-handle" data-attachment-kinds="linkage bracket crank handle" data-hole-diameter-mm="4" data-hole-index="19" data-hole-x-offset-mm="20" data-hole-y-offset-mm="40" data-hole-radius-mm="44.721"/>
  </g>
  <g transform="translate(28 36)">
  <circle cx="39.5" cy="39.5" r="2" class="drill linkage-hole bracket-hole crank-hole handle-hole" data-hole-role="linkage-bracket-crank-handle" data-attachment-kinds="linkage bracket crank handle" data-hole-diameter-mm="4" data-hole-index="20" data-hole-x-offset-mm="-40" data-hole-y-offset-mm="-40" data-hole-radius-mm="56.569"/>
  </g>
  <g transform="translate(28 36)">
  <circle cx="119.5" cy="39.5" r="2" class="drill linkage-hole bracket-hole crank-hole handle-hole" data-hole-role="linkage-bracket-crank-handle" data-attachment-kinds="linkage bracket crank handle" data-hole-diameter-mm="4" data-hole-index="21" data-hole-x-offset-mm="40" data-hole-y-offset-mm="-40" data-hole-radius-mm="56.569"/>
  </g>
  <g transform="translate(28 36)">
  <circle cx="39.5" cy="119.5" r="2" class="drill linkage-hole bracket-hole crank-hole handle-hole" data-hole-role="linkage-bracket-crank-handle" data-attachment-kinds="linkage bracket crank handle" data-hole-diameter-mm="4" data-hole-index="22" data-hole-x-offset-mm="-40" data-hole-y-offset-mm="40" data-hole-radius-mm="56.569"/>
  </g>
  <g transform="translate(28 36)">
  <circle cx="119.5" cy="119.5" r="2" class="drill linkage-hole bracket-hole crank-hole handle-hole" data-hole-role="linkage-bracket-crank-handle" data-attachment-kinds="linkage bracket crank handle" data-hole-diameter-mm="4" data-hole-index="23" data-hole-x-offset-mm="40" data-hole-y-offset-mm="40" data-hole-radius-mm="56.569"/>
  </g>
  <g transform="translate(28 36)">
  <circle cx="79.5" cy="19.5" r="2" class="drill linkage-hole bracket-hole crank-hole handle-hole" data-hole-role="linkage-bracket-crank-handle" data-attachment-kinds="linkage bracket crank handle" data-hole-diameter-mm="4" data-hole-index="24" data-hole-x-offset-mm="0" data-hole-y-offset-mm="-60" data-hole-radius-mm="60"/>
  </g>
  <g transform="translate(28 36)">
  <circle cx="19.5" cy="79.5" r="2" class="drill linkage-hole bracket-hole crank-hole handle-hole" data-hole-role="linkage-bracket-crank-handle" data-attachment-kinds="linkage bracket crank handle" data-hole-diameter-mm="4" data-hole-index="25" data-hole-x-offset-mm="-60" data-hole-y-offset-mm="0" data-hole-radius-mm="60"/>
  </g>
  <g transform="translate(28 36)">
  <circle cx="139.5" cy="79.5" r="2" class="drill linkage-hole bracket-hole crank-hole handle-hole" data-hole-role="linkage-bracket-crank-handle" data-attachment-kinds="linkage bracket crank handle" data-hole-diameter-mm="4" data-hole-index="26" data-hole-x-offset-mm="60" data-hole-y-offset-mm="0" data-hole-radius-mm="60"/>
  </g>
  <g transform="translate(28 36)">
  <circle cx="79.5" cy="139.5" r="2" class="drill linkage-hole bracket-hole crank-hole handle-hole" data-hole-role="linkage-bracket-crank-handle" data-attachment-kinds="linkage bracket crank handle" data-hole-diameter-mm="4" data-hole-index="27" data-hole-x-offset-mm="0" data-hole-y-offset-mm="60" data-hole-radius-mm="60"/>
  </g>
</svg>
