<?xml version="1.0" encoding="UTF-8"?>
<svg xmlns="http://www.w3.org/2000/svg" version="1.1"
     width="100.8mm" height="110.8mm"
     viewBox="0 0 100.8 110.8"
     data-profile-key="motionsmith-ms4n"
     data-grid-pitch-mm="20"
     data-hole-diameter-mm="6">
  <title>Automataii fabrication gear 20 teeth</title>
  <desc>G20 medium gear with 6 mm axle and linkage/bracket/crank/handle holes.</desc>
  <defs>
    <style>
      .cut { fill: none; stroke: #ed1c24; stroke-width: 0.25; stroke-miterlimit: 10; }
      .drill { fill: none; stroke: #0071bc; stroke-width: 0.2; stroke-miterlimit: 10; }
      .score { fill: none; stroke: #777777; stroke-width: 0.15; stroke-dasharray: 2 1; }
      .label { fill: #333333; font-family: Arial, Helvetica, sans-serif; font-size: 4px; }
      .tiny { fill: #333333; font-family: Arial, Helvetica, sans-serif; font-size: 3px; }
      .paper { fill: #ffffff; stroke: none; }
    </style>
  </defs>
  <path d="M 87.9 50.4 L 92.669 53.727 L 92.278 57.033 L 86.864 59.154 L 86.065 61.988 L 89.572 66.626 L 88.179 69.649 L 82.374 69.994 L 80.738 72.442 L 82.641 77.937 L 80.381 80.381 L 74.754 78.915 L 72.442 80.738 L 72.554 86.552 L 69.649 88.179 L 64.751 85.045 L 61.988 86.065 L 60.298 91.628 L 57.033 92.278 L 53.342 87.784 L 50.4 87.9 L 47.073 92.669 L 43.767 92.278 L 41.646 86.864 L 38.812 86.065 L 34.174 89.572 L 31.151 88.179 L 30.806 82.374 L 28.358 80.738 L 22.863 82.641 L 20.419 80.381 L 21.885 74.754 L 20.062 72.442 L 14.248 72.554 L 12.621 69.649 L 15.755 64.751 L 14.735 61.988 L 9.172 60.298 L 8.522 57.033 L 13.016 53.342 L 12.9 50.4 L 8.131 47.073 L 8.522 43.767 L 13.936 41.646 L 14.735 38.812 L 11.228 34.174 L 12.621 31.151 L 18.426 30.806 L 20.062 28.358 L 18.159 22.863 L 20.419 20.419 L 26.046 21.885 L 28.358 20.062 L 28.246 14.248 L 31.151 12.621 L 36.049 15.755 L 38.812 14.735 L 40.502 9.172 L 43.767 8.522 L 47.458 13.016 L 50.4 12.9 L 53.727 8.131 L 57.033 8.522 L 59.154 13.936 L 61.988 14.735 L 66.626 11.228 L 69.649 12.621 L 69.994 18.426 L 72.442 20.062 L 77.937 18.159 L 80.381 20.419 L 78.915 26.046 L 80.738 28.358 L 86.552 28.246 L 88.179 31.151 L 85.045 36.049 L 86.065 38.812 L 91.628 40.502 L 92.278 43.767 L 87.784 47.458 Z" class="cut gear-outline" data-teeth="20" data-pitch-radius-mm="40" data-root-radius-mm="37.5" data-outer-radius-mm="42.4" data-attachment-hole-pattern="grid"/>
  <circle cx="50.4" cy="50.4" r="3" class="drill axle-hole" data-hole-role="axle" data-hole-diameter-mm="6"/>
  <circle cx="50.4" cy="50.4" r="40" class="score pitch-circle"/>
  <circle cx="50.4" cy="30.4" r="3" class="drill linkage-hole bracket-hole crank-hole handle-hole" data-hole-role="linkage-bracket-crank-handle" data-attachment-kinds="linkage bracket crank handle" data-hole-diameter-mm="6" data-hole-index="0" data-hole-x-offset-mm="0" data-hole-y-offset-mm="-20" data-hole-radius-mm="20"/>
  <circle cx="30.4" cy="50.4" r="3" class="drill linkage-hole bracket-hole crank-hole handle-hole" data-hole-role="linkage-bracket-crank-handle" data-attachment-kinds="linkage bracket crank handle" data-hole-diameter-mm="6" data-hole-index="1" data-hole-x-offset-mm="-20" data-hole-y-offset-mm="0" data-hole-radius-mm="20"/>
  <circle cx="70.4" cy="50.4" r="3" class="drill linkage-hole bracket-hole crank-hole handle-hole" data-hole-role="linkage-bracket-crank-handle" data-attachment-kinds="linkage bracket crank handle" data-hole-diameter-mm="6" data-hole-index="2" data-hole-x-offset-mm="20" data-hole-y-offset-mm="0" data-hole-radius-mm="20"/>
  <circle cx="50.4" cy="70.4" r="3" class="drill linkage-hole bracket-hole crank-hole handle-hole" data-hole-role="linkage-bracket-crank-handle" data-attachment-kinds="linkage bracket crank handle" data-hole-diameter-mm="6" data-hole-index="3" data-hole-x-offset-mm="0" data-hole-y-offset-mm="20" data-hole-radius-mm="20"/>
  <circle cx="30.4" cy="30.4" r="3" class="drill linkage-hole bracket-hole crank-hole handle-hole" data-hole-role="linkage-bracket-crank-handle" data-attachment-kinds="linkage bracket crank handle" data-hole-diameter-mm="6" data-hole-index="4" data-hole-x-offset-mm="-20" data-hole-y-offset-mm="-20" data-hole-radius-mm="28.284"/>
  <circle cx="70.4" cy="30.4" r="3" class="drill linkage-hole bracket-hole crank-hole handle-hole" data-hole-role="linkage-bracket-crank-handle" data-attachment-kinds="linkage bracket crank handle" data-hole-diameter-mm="6" data-hole-index="5" data-hole-x-offset-mm="20" data-hole-y-offset-mm="-20" data-hole-radius-mm="28.284"/>
  <circle cx="30.4" cy="70.4" r="3" class="drill linkage-hole bracket-hole crank-hole handle-hole" data-hole-role="linkage-bracket-crank-handle" data-attachment-kinds="linkage bracket crank handle" data-hole-diameter-mm="6" data-hole-index="6" data-hole-x-offset-mm="-20" data-hole-y-offset-mm="20" data-hole-radius-mm="28.284"/>
  <circle cx="70.4" cy="70.4" r="3" class="drill linkage-hole bracket-hole crank-hole handle-hole" data-hole-role="linkage-bracket-crank-handle" data-attachment-kinds="linkage bracket crank handle" data-hole-diameter-mm="6" data-hole-index="7" data-hole-x-offset-mm="20" data-hole-y-offset-mm="20" data-hole-radius-mm="28.284"/>
  <text x="50.4" y="98.8" class="label" text-anchor="middle">G20 medium / 20T</text>
</svg>
