<?xml version="1.0" encoding="UTF-8"?>
<svg xmlns="http://www.w3.org/2000/svg" version="1.1"
     width="84.8mm" height="94.8mm"
     viewBox="0 0 84.8 94.8"
     data-profile-key="motionsmith-ms4n"
     data-grid-pitch-mm="20"
     data-hole-diameter-mm="6">
  <title>Automataii fabrication gear 16 teeth</title>
  <desc>G16 small gear with 6 mm axle and linkage/bracket/crank/handle holes.</desc>
  <defs>
    <style>
      .cut { fill: none; stroke: #ed1c24; stroke-width: 0.25; stroke-miterlimit: 10; }
      .drill { fill: none; stroke: #0071bc; stroke-width: 0.2; stroke-miterlimit: 10; }
      .score { fill: none; stroke: #777777; stroke-width: 0.15; stroke-dasharray: 2 1; }
      .label { fill: #333333; font-family: Arial, Helvetica, sans-serif; font-size: 4px; }
      .tiny { fill: #333333; font-family: Arial, Helvetica, sans-serif; font-size: 3px; }
      .paper { fill: #ffffff; stroke: none; }
    </style>
  </defs>
  <path d="M 71.9 42.4 L 76.634 45.772 L 76.139 49.111 L 70.63 50.963 L 69.654 53.689 L 72.738 58.616 L 71.003 61.512 L 65.204 61.115 L 63.26 63.26 L 64.223 68.992 L 61.512 71.003 L 56.306 68.417 L 53.689 69.654 L 52.386 75.319 L 49.111 76.139 L 45.292 71.758 L 42.4 71.9 L 39.028 76.634 L 35.689 76.139 L 33.837 70.63 L 31.111 69.654 L 26.184 72.738 L 23.288 71.003 L 23.685 65.204 L 21.54 63.26 L 15.808 64.223 L 13.797 61.512 L 16.383 56.306 L 15.146 53.689 L 9.481 52.386 L 8.661 49.111 L 13.042 45.292 L 12.9 42.4 L 8.166 39.028 L 8.661 35.689 L 14.17 33.837 L 15.146 31.111 L 12.062 26.184 L 13.797 23.288 L 19.596 23.685 L 21.54 21.54 L 20.577 15.808 L 23.288 13.797 L 28.494 16.383 L 31.111 15.146 L 32.414 9.481 L 35.689 8.661 L 39.508 13.042 L 42.4 12.9 L 45.772 8.166 L 49.111 8.661 L 50.963 14.17 L 53.689 15.146 L 58.616 12.062 L 61.512 13.797 L 61.115 19.596 L 63.26 21.54 L 68.992 20.577 L 71.003 23.288 L 68.417 28.494 L 69.654 31.111 L 75.319 32.414 L 76.139 35.689 L 71.758 39.508 Z" class="cut gear-outline" data-teeth="16" data-pitch-radius-mm="32" data-root-radius-mm="29.5" data-outer-radius-mm="34.4" data-attachment-hole-pattern="grid"/>
  <circle cx="42.4" cy="42.4" r="3" class="drill axle-hole" data-hole-role="axle" data-hole-diameter-mm="6"/>
  <circle cx="42.4" cy="42.4" r="32" class="score pitch-circle"/>
  <circle cx="42.4" cy="22.4" r="3" class="drill linkage-hole bracket-hole crank-hole handle-hole" data-hole-role="linkage-bracket-crank-handle" data-attachment-kinds="linkage bracket crank handle" data-hole-diameter-mm="6" data-hole-index="0" data-hole-x-offset-mm="0" data-hole-y-offset-mm="-20" data-hole-radius-mm="20"/>
  <circle cx="22.4" cy="42.4" r="3" class="drill linkage-hole bracket-hole crank-hole handle-hole" data-hole-role="linkage-bracket-crank-handle" data-attachment-kinds="linkage bracket crank handle" data-hole-diameter-mm="6" data-hole-index="1" data-hole-x-offset-mm="-20" data-hole-y-offset-mm="0" data-hole-radius-mm="20"/>
  <circle cx="62.4" cy="42.4" r="3" class="drill linkage-hole bracket-hole crank-hole handle-hole" data-hole-role="linkage-bracket-crank-handle" data-attachment-kinds="linkage bracket crank handle" data-hole-diameter-mm="6" data-hole-index="2" data-hole-x-offset-mm="20" data-hole-y-offset-mm="0" data-hole-radius-mm="20"/>
  <circle cx="42.4" cy="62.4" r="3" class="drill linkage-hole bracket-hole crank-hole handle-hole" data-hole-role="linkage-bracket-crank-handle" data-attachment-kinds="linkage bracket crank handle" data-hole-diameter-mm="6" data-hole-index="3" data-hole-x-offset-mm="0" data-hole-y-offset-mm="20" data-hole-radius-mm="20"/>
  <text x="42.4" y="82.8" class="label" text-anchor="middle">G16 small / 16T</text>
</svg>
