<?xml version="1.0" encoding="UTF-8"?>
<svg xmlns="http://www.w3.org/2000/svg" version="1.1"
     width="119mm" height="129mm"
     viewBox="0 0 119 129"
     data-profile-key="motionsmith-ms4n"
     data-grid-pitch-mm="20"
     data-hole-diameter-mm="4">
  <title>Automataii fabrication gear G5 / 5-space gear (40 teeth)</title>
  <desc>G5 / 5-space gear with 4 mm axle. Attachment holes, when present, sit on the board grid.</desc>
  <defs>
    <style>
      .cut { fill: none; stroke: #ed1c24; stroke-width: 0.25; stroke-miterlimit: 10; }
      .drill { fill: none; stroke: #0071bc; stroke-width: 0.2; stroke-miterlimit: 10; }
      .score { fill: none; stroke: #777777; stroke-width: 0.15; stroke-dasharray: 2 1; }
      .label { fill: #333333; font-family: Arial, Helvetica, sans-serif; font-size: 4px; }
      .tiny { fill: #333333; font-family: Arial, Helvetica, sans-serif; font-size: 3px; }
      .small { fill: #333333; font-family: Arial, Helvetica, sans-serif; font-size: 3.6px; }
      .step-title { fill: #111827; font-family: Arial, Helvetica, sans-serif; font-size: 5px; font-weight: bold; }
      .part-card-label { fill: #111827; font-family: Arial, Helvetica, sans-serif; font-size: 3.5px; font-weight: bold; }
      .coord-label { fill: #111827; font-family: Arial, Helvetica, sans-serif; font-size: 6px; font-weight: bold; }
      .paper { fill: #ffffff; stroke: none; }
    </style>
  </defs>
  <path d="M 107.938 59.5 L 110.96 61.522 L 110.841 63.541 L 107.602 65.193 L 107.341 67.077 L 110.01 69.547 L 109.577 71.522 L 106.119 72.648 L 105.567 74.468 L 107.817 77.325 L 107.08 79.208 L 103.488 79.779 L 102.658 81.49 L 104.434 84.664 L 103.411 86.409 L 99.774 86.41 L 98.687 87.971 L 99.944 91.383 L 98.661 92.947 L 95.069 92.379 L 93.75 93.75 L 94.458 97.318 L 92.947 98.661 L 89.487 97.539 L 87.971 98.687 L 88.112 102.321 L 86.409 103.411 L 83.168 101.762 L 81.49 102.658 L 81.061 106.269 L 79.208 107.08 L 76.265 104.944 L 74.468 105.567 L 73.479 109.066 L 71.522 109.577 L 68.95 107.007 L 67.077 107.341 L 65.553 110.643 L 63.541 110.841 L 61.402 107.9 L 59.5 107.938 L 57.478 110.96 L 55.459 110.841 L 53.807 107.602 L 51.923 107.341 L 49.453 110.01 L 47.478 109.577 L 46.352 106.119 L 44.532 105.567 L 41.675 107.817 L 39.792 107.08 L 39.221 103.488 L 37.51 102.658 L 34.336 104.434 L 32.591 103.411 L 32.59 99.774 L 31.029 98.687 L 27.617 99.944 L 26.053 98.661 L 26.621 95.069 L 25.25 93.75 L 21.682 94.458 L 20.339 92.947 L 21.461 89.487 L 20.313 87.971 L 16.679 88.112 L 15.589 86.409 L 17.238 83.168 L 16.342 81.49 L 12.731 81.061 L 11.92 79.208 L 14.056 76.265 L 13.433 74.468 L 9.934 73.479 L 9.423 71.522 L 11.993 68.95 L 11.659 67.077 L 8.357 65.553 L 8.159 63.541 L 11.1 61.402 L 11.062 59.5 L 8.04 57.478 L 8.159 55.459 L 11.398 53.807 L 11.659 51.923 L 8.99 49.453 L 9.423 47.478 L 12.881 46.352 L 13.433 44.532 L 11.183 41.675 L 11.92 39.792 L 15.512 39.221 L 16.342 37.51 L 14.566 34.336 L 15.589 32.591 L 19.226 32.59 L 20.313 31.029 L 19.056 27.617 L 20.339 26.053 L 23.931 26.621 L 25.25 25.25 L 24.542 21.682 L 26.053 20.339 L 29.513 21.461 L 31.029 20.313 L 30.888 16.679 L 32.591 15.589 L 35.832 17.238 L 37.51 16.342 L 37.939 12.731 L 39.792 11.92 L 42.735 14.056 L 44.532 13.433 L 45.521 9.934 L 47.478 9.423 L 50.05 11.993 L 51.923 11.659 L 53.447 8.357 L 55.459 8.159 L 57.598 11.1 L 59.5 11.062 L 61.522 8.04 L 63.541 8.159 L 65.193 11.398 L 67.077 11.659 L 69.547 8.99 L 71.522 9.423 L 72.648 12.881 L 74.468 13.433 L 77.325 11.183 L 79.208 11.92 L 79.779 15.512 L 81.49 16.342 L 84.664 14.566 L 86.409 15.589 L 86.41 19.226 L 87.971 20.313 L 91.383 19.056 L 92.947 20.339 L 92.379 23.931 L 93.75 25.25 L 97.318 24.542 L 98.661 26.053 L 97.539 29.513 L 98.687 31.029 L 102.321 30.888 L 103.411 32.591 L 101.762 35.832 L 102.658 37.51 L 106.269 37.939 L 107.08 39.792 L 104.944 42.735 L 105.567 44.532 L 109.066 45.521 L 109.577 47.478 L 107.007 50.05 L 107.341 51.923 L 110.643 53.447 L 110.841 55.459 L 107.9 57.598 Z" class="cut gear-outline" data-teeth="40" data-pitch-radius-mm="50" data-root-radius-mm="48.438" data-outer-radius-mm="51.5" data-attachment-hole-pattern="grid"/>
  <circle cx="59.5" cy="59.5" r="2" class="drill axle-hole" data-hole-role="axle" data-hole-diameter-mm="4"/>
  <circle cx="59.5" cy="59.5" r="50" class="score pitch-circle"/>
  <circle cx="59.5" cy="39.5" r="2" class="drill linkage-hole bracket-hole crank-hole handle-hole" data-hole-role="linkage-bracket-crank-handle" data-attachment-kinds="linkage bracket crank handle" data-hole-diameter-mm="4" data-hole-index="0" data-hole-x-offset-mm="0" data-hole-y-offset-mm="-20" data-hole-radius-mm="20"/>
  <circle cx="39.5" cy="59.5" r="2" class="drill linkage-hole bracket-hole crank-hole handle-hole" data-hole-role="linkage-bracket-crank-handle" data-attachment-kinds="linkage bracket crank handle" data-hole-diameter-mm="4" data-hole-index="1" data-hole-x-offset-mm="-20" data-hole-y-offset-mm="0" data-hole-radius-mm="20"/>
  <circle cx="79.5" cy="59.5" r="2" class="drill linkage-hole bracket-hole crank-hole handle-hole" data-hole-role="linkage-bracket-crank-handle" data-attachment-kinds="linkage bracket crank handle" data-hole-diameter-mm="4" data-hole-index="2" data-hole-x-offset-mm="20" data-hole-y-offset-mm="0" data-hole-radius-mm="20"/>
  <circle cx="59.5" cy="79.5" r="2" class="drill linkage-hole bracket-hole crank-hole handle-hole" data-hole-role="linkage-bracket-crank-handle" data-attachment-kinds="linkage bracket crank handle" data-hole-diameter-mm="4" data-hole-index="3" data-hole-x-offset-mm="0" data-hole-y-offset-mm="20" data-hole-radius-mm="20"/>
  <circle cx="39.5" cy="39.5" r="2" class="drill linkage-hole bracket-hole crank-hole handle-hole" data-hole-role="linkage-bracket-crank-handle" data-attachment-kinds="linkage bracket crank handle" data-hole-diameter-mm="4" data-hole-index="4" data-hole-x-offset-mm="-20" data-hole-y-offset-mm="-20" data-hole-radius-mm="28.284"/>
  <circle cx="79.5" cy="39.5" r="2" class="drill linkage-hole bracket-hole crank-hole handle-hole" data-hole-role="linkage-bracket-crank-handle" data-attachment-kinds="linkage bracket crank handle" data-hole-diameter-mm="4" data-hole-index="5" data-hole-x-offset-mm="20" data-hole-y-offset-mm="-20" data-hole-radius-mm="28.284"/>
  <circle cx="39.5" cy="79.5" r="2" class="drill linkage-hole bracket-hole crank-hole handle-hole" data-hole-role="linkage-bracket-crank-handle" data-attachment-kinds="linkage bracket crank handle" data-hole-diameter-mm="4" data-hole-index="6" data-hole-x-offset-mm="-20" data-hole-y-offset-mm="20" data-hole-radius-mm="28.284"/>
  <circle cx="79.5" cy="79.5" r="2" class="drill linkage-hole bracket-hole crank-hole handle-hole" data-hole-role="linkage-bracket-crank-handle" data-attachment-kinds="linkage bracket crank handle" data-hole-diameter-mm="4" data-hole-index="7" data-hole-x-offset-mm="20" data-hole-y-offset-mm="20" data-hole-radius-mm="28.284"/>
  <circle cx="59.5" cy="19.5" r="2" class="drill linkage-hole bracket-hole crank-hole handle-hole" data-hole-role="linkage-bracket-crank-handle" data-attachment-kinds="linkage bracket crank handle" data-hole-diameter-mm="4" data-hole-index="8" data-hole-x-offset-mm="0" data-hole-y-offset-mm="-40" data-hole-radius-mm="40"/>
  <circle cx="19.5" cy="59.5" r="2" class="drill linkage-hole bracket-hole crank-hole handle-hole" data-hole-role="linkage-bracket-crank-handle" data-attachment-kinds="linkage bracket crank handle" data-hole-diameter-mm="4" data-hole-index="9" data-hole-x-offset-mm="-40" data-hole-y-offset-mm="0" data-hole-radius-mm="40"/>
  <circle cx="99.5" cy="59.5" r="2" class="drill linkage-hole bracket-hole crank-hole handle-hole" data-hole-role="linkage-bracket-crank-handle" data-attachment-kinds="linkage bracket crank handle" data-hole-diameter-mm="4" data-hole-index="10" data-hole-x-offset-mm="40" data-hole-y-offset-mm="0" data-hole-radius-mm="40"/>
  <circle cx="59.5" cy="99.5" r="2" class="drill linkage-hole bracket-hole crank-hole handle-hole" data-hole-role="linkage-bracket-crank-handle" data-attachment-kinds="linkage bracket crank handle" data-hole-diameter-mm="4" data-hole-index="11" data-hole-x-offset-mm="0" data-hole-y-offset-mm="40" data-hole-radius-mm="40"/>
  <text x="59.5" y="117" class="label" text-anchor="middle">G5 / 5-space gear / 40T</text>
</svg>
