<?xml version="1.0" encoding="UTF-8"?>
<svg xmlns="http://www.w3.org/2000/svg" version="1.1"
     width="67.6mm" height="77.6mm"
     viewBox="0 0 67.6 77.6"
     data-profile-key="motionsmith-ms4n"
     data-grid-pitch-mm="20"
     data-hole-diameter-mm="4">
  <title>Automataii fabrication gear 16 teeth</title>
  <desc>G16 small gear with 4 mm axle and linkage/bracket/crank/handle holes.</desc>
  <defs>
    <style>
      .cut { fill: none; stroke: #ed1c24; stroke-width: 0.25; stroke-miterlimit: 10; }
      .drill { fill: none; stroke: #0071bc; stroke-width: 0.2; stroke-miterlimit: 10; }
      .score { fill: none; stroke: #777777; stroke-width: 0.15; stroke-dasharray: 2 1; }
      .label { fill: #333333; font-family: Arial, Helvetica, sans-serif; font-size: 4px; }
      .tiny { fill: #333333; font-family: Arial, Helvetica, sans-serif; font-size: 3px; }
      .small { fill: #333333; font-family: Arial, Helvetica, sans-serif; font-size: 3.6px; }
      .step-title { fill: #111827; font-family: Arial, Helvetica, sans-serif; font-size: 5px; font-weight: bold; }
      .part-card-label { fill: #111827; font-family: Arial, Helvetica, sans-serif; font-size: 3.5px; font-weight: bold; }
      .coord-label { fill: #111827; font-family: Arial, Helvetica, sans-serif; font-size: 6px; font-weight: bold; }
      .paper { fill: #ffffff; stroke: none; }
    </style>
  </defs>
  <path d="M 55.925 33.8 L 59.476 36.329 L 59.104 38.833 L 54.972 40.223 L 54.241 42.267 L 56.554 45.962 L 55.252 48.134 L 50.903 47.836 L 49.445 49.445 L 50.167 53.744 L 48.134 55.252 L 44.23 53.313 L 42.267 54.241 L 41.289 58.489 L 38.833 59.104 L 35.969 55.818 L 33.8 55.925 L 31.271 59.476 L 28.767 59.104 L 27.377 54.972 L 25.333 54.241 L 21.638 56.554 L 19.466 55.252 L 19.764 50.903 L 18.155 49.445 L 13.856 50.167 L 12.348 48.134 L 14.287 44.23 L 13.359 42.267 L 9.111 41.289 L 8.496 38.833 L 11.782 35.969 L 11.675 33.8 L 8.124 31.271 L 8.496 28.767 L 12.628 27.377 L 13.359 25.333 L 11.046 21.638 L 12.348 19.466 L 16.697 19.764 L 18.155 18.155 L 17.433 13.856 L 19.466 12.348 L 23.37 14.287 L 25.333 13.359 L 26.311 9.111 L 28.767 8.496 L 31.631 11.782 L 33.8 11.675 L 36.329 8.124 L 38.833 8.496 L 40.223 12.628 L 42.267 13.359 L 45.962 11.046 L 48.134 12.348 L 47.836 16.697 L 49.445 18.155 L 53.744 17.433 L 55.252 19.466 L 53.313 23.37 L 54.241 25.333 L 58.489 26.311 L 59.104 28.767 L 55.818 31.631 Z" class="cut gear-outline" data-teeth="16" data-pitch-radius-mm="24" data-root-radius-mm="22.125" data-outer-radius-mm="25.8" data-attachment-hole-pattern="radial"/>
  <circle cx="33.8" cy="33.8" r="2" class="drill axle-hole" data-hole-role="axle" data-hole-diameter-mm="4"/>
  <circle cx="33.8" cy="33.8" r="24" class="score pitch-circle"/>
  <circle cx="49.925" cy="33.8" r="2" class="drill linkage-hole bracket-hole crank-hole handle-hole" data-hole-role="linkage-bracket-crank-handle" data-attachment-kinds="linkage bracket crank handle" data-hole-diameter-mm="4" data-hole-index="0" data-hole-x-offset-mm="16.125" data-hole-y-offset-mm="0" data-hole-radius-mm="16.125"/>
  <circle cx="33.8" cy="49.925" r="2" class="drill linkage-hole bracket-hole crank-hole handle-hole" data-hole-role="linkage-bracket-crank-handle" data-attachment-kinds="linkage bracket crank handle" data-hole-diameter-mm="4" data-hole-index="1" data-hole-x-offset-mm="0" data-hole-y-offset-mm="16.125" data-hole-radius-mm="16.125"/>
  <circle cx="17.675" cy="33.8" r="2" class="drill linkage-hole bracket-hole crank-hole handle-hole" data-hole-role="linkage-bracket-crank-handle" data-attachment-kinds="linkage bracket crank handle" data-hole-diameter-mm="4" data-hole-index="2" data-hole-x-offset-mm="-16.125" data-hole-y-offset-mm="0" data-hole-radius-mm="16.125"/>
  <circle cx="33.8" cy="17.675" r="2" class="drill linkage-hole bracket-hole crank-hole handle-hole" data-hole-role="linkage-bracket-crank-handle" data-attachment-kinds="linkage bracket crank handle" data-hole-diameter-mm="4" data-hole-index="3" data-hole-x-offset-mm="-0" data-hole-y-offset-mm="-16.125" data-hole-radius-mm="16.125"/>
  <text x="33.8" y="65.6" class="label" text-anchor="middle">G16 small / 16T</text>
</svg>
