<?xml version="1.0" encoding="UTF-8"?>
<svg xmlns="http://www.w3.org/2000/svg" version="1.1"
     width="116.8mm" height="126.8mm"
     viewBox="0 0 116.8 126.8"
     data-profile-key="motionsmith-ms4n"
     data-grid-pitch-mm="20"
     data-hole-diameter-mm="6">
  <title>Automataii fabrication gear 24 teeth</title>
  <desc>G24 large gear with 6 mm axle and linkage/bracket/crank/handle holes.</desc>
  <defs>
    <style>
      .cut { fill: none; stroke: #ed1c24; stroke-width: 0.25; stroke-miterlimit: 10; }
      .drill { fill: none; stroke: #0071bc; stroke-width: 0.2; stroke-miterlimit: 10; }
      .score { fill: none; stroke: #777777; stroke-width: 0.15; stroke-dasharray: 2 1; }
      .label { fill: #333333; font-family: Arial, Helvetica, sans-serif; font-size: 4px; }
      .tiny { fill: #333333; font-family: Arial, Helvetica, sans-serif; font-size: 3px; }
      .paper { fill: #ffffff; stroke: none; }
    </style>
  </defs>
  <path d="M 103.9 58.4 L 108.692 61.696 L 108.369 64.979 L 103.026 67.277 L 102.35 70.176 L 106.125 74.601 L 104.964 77.687 L 99.208 78.524 L 97.804 81.15 L 100.306 86.401 L 98.385 89.082 L 92.609 88.4 L 90.573 90.573 L 91.631 96.293 L 89.082 98.385 L 83.678 96.232 L 81.15 97.804 L 80.691 103.602 L 77.687 104.964 L 73.025 101.485 L 70.176 102.35 L 68.233 107.832 L 64.979 108.369 L 61.376 103.803 L 58.4 103.9 L 55.104 108.692 L 51.821 108.369 L 49.523 103.026 L 46.624 102.35 L 42.199 106.125 L 39.113 104.964 L 38.276 99.208 L 35.65 97.804 L 30.399 100.306 L 27.718 98.385 L 28.4 92.609 L 26.227 90.573 L 20.507 91.631 L 18.415 89.082 L 20.568 83.678 L 18.996 81.15 L 13.198 80.691 L 11.836 77.687 L 15.315 73.025 L 14.45 70.176 L 8.968 68.233 L 8.431 64.979 L 12.997 61.376 L 12.9 58.4 L 8.108 55.104 L 8.431 51.821 L 13.774 49.523 L 14.45 46.624 L 10.675 42.199 L 11.836 39.113 L 17.592 38.276 L 18.996 35.65 L 16.494 30.399 L 18.415 27.718 L 24.191 28.4 L 26.227 26.227 L 25.169 20.507 L 27.718 18.415 L 33.122 20.568 L 35.65 18.996 L 36.109 13.198 L 39.113 11.836 L 43.775 15.315 L 46.624 14.45 L 48.567 8.968 L 51.821 8.431 L 55.424 12.997 L 58.4 12.9 L 61.696 8.108 L 64.979 8.431 L 67.277 13.774 L 70.176 14.45 L 74.601 10.675 L 77.687 11.836 L 78.524 17.592 L 81.15 18.996 L 86.401 16.494 L 89.082 18.415 L 88.4 24.191 L 90.573 26.227 L 96.293 25.169 L 98.385 27.718 L 96.232 33.122 L 97.804 35.65 L 103.602 36.109 L 104.964 39.113 L 101.485 43.775 L 102.35 46.624 L 107.832 48.567 L 108.369 51.821 L 103.803 55.424 Z" class="cut gear-outline" data-teeth="24" data-pitch-radius-mm="48" data-root-radius-mm="45.5" data-outer-radius-mm="50.4" data-attachment-hole-pattern="grid"/>
  <circle cx="58.4" cy="58.4" r="3" class="drill axle-hole" data-hole-role="axle" data-hole-diameter-mm="6"/>
  <circle cx="58.4" cy="58.4" r="48" class="score pitch-circle"/>
  <circle cx="58.4" cy="38.4" r="3" class="drill linkage-hole bracket-hole crank-hole handle-hole" data-hole-role="linkage-bracket-crank-handle" data-attachment-kinds="linkage bracket crank handle" data-hole-diameter-mm="6" data-hole-index="0" data-hole-x-offset-mm="0" data-hole-y-offset-mm="-20" data-hole-radius-mm="20"/>
  <circle cx="38.4" cy="58.4" r="3" class="drill linkage-hole bracket-hole crank-hole handle-hole" data-hole-role="linkage-bracket-crank-handle" data-attachment-kinds="linkage bracket crank handle" data-hole-diameter-mm="6" data-hole-index="1" data-hole-x-offset-mm="-20" data-hole-y-offset-mm="0" data-hole-radius-mm="20"/>
  <circle cx="78.4" cy="58.4" r="3" class="drill linkage-hole bracket-hole crank-hole handle-hole" data-hole-role="linkage-bracket-crank-handle" data-attachment-kinds="linkage bracket crank handle" data-hole-diameter-mm="6" data-hole-index="2" data-hole-x-offset-mm="20" data-hole-y-offset-mm="0" data-hole-radius-mm="20"/>
  <circle cx="58.4" cy="78.4" r="3" class="drill linkage-hole bracket-hole crank-hole handle-hole" data-hole-role="linkage-bracket-crank-handle" data-attachment-kinds="linkage bracket crank handle" data-hole-diameter-mm="6" data-hole-index="3" data-hole-x-offset-mm="0" data-hole-y-offset-mm="20" data-hole-radius-mm="20"/>
  <circle cx="38.4" cy="38.4" r="3" class="drill linkage-hole bracket-hole crank-hole handle-hole" data-hole-role="linkage-bracket-crank-handle" data-attachment-kinds="linkage bracket crank handle" data-hole-diameter-mm="6" data-hole-index="4" data-hole-x-offset-mm="-20" data-hole-y-offset-mm="-20" data-hole-radius-mm="28.284"/>
  <circle cx="78.4" cy="38.4" r="3" class="drill linkage-hole bracket-hole crank-hole handle-hole" data-hole-role="linkage-bracket-crank-handle" data-attachment-kinds="linkage bracket crank handle" data-hole-diameter-mm="6" data-hole-index="5" data-hole-x-offset-mm="20" data-hole-y-offset-mm="-20" data-hole-radius-mm="28.284"/>
  <circle cx="38.4" cy="78.4" r="3" class="drill linkage-hole bracket-hole crank-hole handle-hole" data-hole-role="linkage-bracket-crank-handle" data-attachment-kinds="linkage bracket crank handle" data-hole-diameter-mm="6" data-hole-index="6" data-hole-x-offset-mm="-20" data-hole-y-offset-mm="20" data-hole-radius-mm="28.284"/>
  <circle cx="78.4" cy="78.4" r="3" class="drill linkage-hole bracket-hole crank-hole handle-hole" data-hole-role="linkage-bracket-crank-handle" data-attachment-kinds="linkage bracket crank handle" data-hole-diameter-mm="6" data-hole-index="7" data-hole-x-offset-mm="20" data-hole-y-offset-mm="20" data-hole-radius-mm="28.284"/>
  <text x="58.4" y="114.8" class="label" text-anchor="middle">G24 large / 24T</text>
</svg>
