<?xml version="1.0" encoding="UTF-8"?>
<svg xmlns="http://www.w3.org/2000/svg" version="1.1"
     width="61.6mm" height="71.6mm"
     viewBox="0 0 61.6 71.6"
     data-profile-key="motionsmith-ms4n"
     data-grid-pitch-mm="20"
     data-hole-diameter-mm="6">
  <title>Automataii fabrication gear 14 teeth</title>
  <desc>G14 compact gear with 6 mm axle and linkage/bracket/crank/handle holes.</desc>
  <defs>
    <style>
      .cut { fill: none; stroke: #ed1c24; stroke-width: 0.25; stroke-miterlimit: 10; }
      .drill { fill: none; stroke: #0071bc; stroke-width: 0.2; stroke-miterlimit: 10; }
      .score { fill: none; stroke: #777777; stroke-width: 0.15; stroke-dasharray: 2 1; }
      .label { fill: #333333; font-family: Arial, Helvetica, sans-serif; font-size: 4px; }
      .tiny { fill: #333333; font-family: Arial, Helvetica, sans-serif; font-size: 3px; }
      .paper { fill: #ffffff; stroke: none; }
    </style>
  </defs>
  <path d="M 49.925 30.8 L 53.457 33.353 L 53.028 35.873 L 48.852 37.117 L 48.031 39.098 L 50.105 42.93 L 48.626 45.016 L 44.323 44.323 L 42.724 45.753 L 42.93 50.105 L 40.693 51.342 L 37.117 48.852 L 35.056 49.445 L 33.353 53.457 L 30.8 53.6 L 28.659 49.805 L 26.544 49.445 L 23.27 52.321 L 20.907 51.342 L 20.625 46.994 L 18.876 45.753 L 14.678 46.922 L 12.974 45.016 L 14.606 40.975 L 13.569 39.098 L 9.279 38.33 L 8.572 35.873 L 11.795 32.941 L 11.675 30.8 L 8.143 28.247 L 8.572 25.727 L 12.748 24.483 L 13.569 22.502 L 11.495 18.67 L 12.974 16.584 L 17.277 17.277 L 18.876 15.847 L 18.67 11.495 L 20.907 10.258 L 24.483 12.748 L 26.544 12.155 L 28.247 8.143 L 30.8 8 L 32.941 11.795 L 35.056 12.155 L 38.33 9.279 L 40.693 10.258 L 40.975 14.606 L 42.724 15.847 L 46.922 14.678 L 48.626 16.584 L 46.994 20.625 L 48.031 22.502 L 52.321 23.27 L 53.028 25.727 L 49.805 28.659 Z" class="cut gear-outline" data-teeth="14" data-pitch-radius-mm="21" data-root-radius-mm="19.125" data-outer-radius-mm="22.8" data-attachment-hole-pattern="radial"/>
  <circle cx="30.8" cy="30.8" r="3" class="drill axle-hole" data-hole-role="axle" data-hole-diameter-mm="6"/>
  <circle cx="30.8" cy="30.8" r="21" class="score pitch-circle"/>
  <circle cx="42.925" cy="30.8" r="3" class="drill linkage-hole bracket-hole crank-hole handle-hole" data-hole-role="linkage-bracket-crank-handle" data-attachment-kinds="linkage bracket crank handle" data-hole-diameter-mm="6" data-hole-index="0" data-hole-x-offset-mm="12.125" data-hole-y-offset-mm="0" data-hole-radius-mm="12.125"/>
  <circle cx="30.8" cy="42.925" r="3" class="drill linkage-hole bracket-hole crank-hole handle-hole" data-hole-role="linkage-bracket-crank-handle" data-attachment-kinds="linkage bracket crank handle" data-hole-diameter-mm="6" data-hole-index="1" data-hole-x-offset-mm="0" data-hole-y-offset-mm="12.125" data-hole-radius-mm="12.125"/>
  <circle cx="18.675" cy="30.8" r="3" class="drill linkage-hole bracket-hole crank-hole handle-hole" data-hole-role="linkage-bracket-crank-handle" data-attachment-kinds="linkage bracket crank handle" data-hole-diameter-mm="6" data-hole-index="2" data-hole-x-offset-mm="-12.125" data-hole-y-offset-mm="0" data-hole-radius-mm="12.125"/>
  <circle cx="30.8" cy="18.675" r="3" class="drill linkage-hole bracket-hole crank-hole handle-hole" data-hole-role="linkage-bracket-crank-handle" data-attachment-kinds="linkage bracket crank handle" data-hole-diameter-mm="6" data-hole-index="3" data-hole-x-offset-mm="-0" data-hole-y-offset-mm="-12.125" data-hole-radius-mm="12.125"/>
  <text x="30.8" y="59.6" class="label" text-anchor="middle">G14 compact / 14T</text>
</svg>
