<?xml version="1.0" encoding="UTF-8"?>
<svg xmlns="http://www.w3.org/2000/svg" version="1.1"
     width="56mm" height="228mm"
     viewBox="0 0 56 228"
     data-profile-key="motionsmith-ms4n"
     data-grid-pitch-mm="20"
     data-hole-diameter-mm="6">
  <title>Automataii fabrication follower linkage-output</title>
  <desc>Linkage-output sliding follower with 6 mm output/guide geometry. Guide slots slide on fixed pegboard pins or bracket hardware.</desc>
  <defs>
    <style>
      .cut { fill: none; stroke: #ed1c24; stroke-width: 0.25; stroke-miterlimit: 10; }
      .drill { fill: none; stroke: #0071bc; stroke-width: 0.2; stroke-miterlimit: 10; }
      .score { fill: none; stroke: #777777; stroke-width: 0.15; stroke-dasharray: 2 1; }
      .label { fill: #333333; font-family: Arial, Helvetica, sans-serif; font-size: 4px; }
      .tiny { fill: #333333; font-family: Arial, Helvetica, sans-serif; font-size: 3px; }
      .paper { fill: #ffffff; stroke: none; }
    </style>
  </defs>
  <path d="M 11 25 A 17 17 0 0 1 45 25 L 45 191 A 17 17 0 0 1 11 191 Z" class="cut follower-outline" data-follower-key="linkage-output" data-contact-style="linkage_output" data-pitch-mm="20" data-guide-slot-travel-mm="50"/>
  <circle cx="28" cy="28" r="3" class="drill linkage-hole follower-output-hole" data-hole-role="linkage-output" data-hole-diameter-mm="6" data-hole-index="0" data-hole-y-mm="20"/>
  <circle cx="28" cy="48" r="3" class="drill linkage-hole follower-output-hole" data-hole-role="linkage-output" data-hole-diameter-mm="6" data-hole-index="1" data-hole-y-mm="40"/>
  <circle cx="28" cy="68" r="3" class="drill linkage-hole follower-output-hole" data-hole-role="linkage-output" data-hole-diameter-mm="6" data-hole-index="2" data-hole-y-mm="60"/>
  <path d="M 25 76 A 3 3 0 0 1 31 76 L 31 126 A 3 3 0 0 1 25 126 Z" class="cut guide-slot follower-guide-slot" data-slot-role="guide" data-hole-role="guide-slot" data-slot-index="0" data-slot-width-mm="6" data-slot-travel-mm="50" data-slot-center-y-mm="93"/>
  <path d="M 25 140 A 3 3 0 0 1 31 140 L 31 190 A 3 3 0 0 1 25 190 Z" class="cut guide-slot follower-guide-slot" data-slot-role="guide" data-hole-role="guide-slot" data-slot-index="1" data-slot-width-mm="6" data-slot-travel-mm="50" data-slot-center-y-mm="157"/>
  <text x="28" y="224" class="label" text-anchor="middle">Linkage-output sliding follower</text>
</svg>
