<?xml version="1.0" encoding="UTF-8"?>
<svg xmlns="http://www.w3.org/2000/svg" version="1.1"
     width="52mm" height="228mm"
     viewBox="0 0 52 228"
     data-profile-key="motionsmith-ms4n"
     data-grid-pitch-mm="20"
     data-hole-diameter-mm="6">
  <title>Automataii fabrication follower roller-pin</title>
  <desc>Roller-pin sliding follower with 6 mm output/guide geometry. Guide slots slide on fixed pegboard pins or bracket hardware.</desc>
  <defs>
    <style>
      .cut { fill: none; stroke: #ed1c24; stroke-width: 0.25; stroke-miterlimit: 10; }
      .drill { fill: none; stroke: #0071bc; stroke-width: 0.2; stroke-miterlimit: 10; }
      .score { fill: none; stroke: #777777; stroke-width: 0.15; stroke-dasharray: 2 1; }
      .label { fill: #333333; font-family: Arial, Helvetica, sans-serif; font-size: 4px; }
      .tiny { fill: #333333; font-family: Arial, Helvetica, sans-serif; font-size: 3px; }
      .paper { fill: #ffffff; stroke: none; }
    </style>
  </defs>
  <path d="M 9 25 A 17 17 0 0 1 43 25 L 43 191 A 17 17 0 0 1 9 191 Z" class="cut follower-outline" data-follower-key="roller-pin" data-contact-style="roller_pin" data-pitch-mm="20" data-guide-slot-travel-mm="50"/>
  <circle cx="26" cy="28" r="3" class="drill linkage-hole follower-output-hole" data-hole-role="linkage-output" data-hole-diameter-mm="6" data-hole-index="0" data-hole-y-mm="20"/>
  <circle cx="26" cy="48" r="3" class="drill linkage-hole follower-output-hole" data-hole-role="linkage-output" data-hole-diameter-mm="6" data-hole-index="1" data-hole-y-mm="40"/>
  <path d="M 23 76 A 3 3 0 0 1 29 76 L 29 126 A 3 3 0 0 1 23 126 Z" class="cut guide-slot follower-guide-slot" data-slot-role="guide" data-hole-role="guide-slot" data-slot-index="0" data-slot-width-mm="6" data-slot-travel-mm="50" data-slot-center-y-mm="93"/>
  <path d="M 23 140 A 3 3 0 0 1 29 140 L 29 190 A 3 3 0 0 1 23 190 Z" class="cut guide-slot follower-guide-slot" data-slot-role="guide" data-hole-role="guide-slot" data-slot-index="1" data-slot-width-mm="6" data-slot-travel-mm="50" data-slot-center-y-mm="157"/>
  <circle cx="26" cy="196" r="3" class="drill roller-axle-hole follower-contact-hole" data-hole-role="roller-axle" data-hole-diameter-mm="6" data-contact-style="roller_pin"/>
  <text x="26" y="224" class="label" text-anchor="middle">Roller-pin sliding follower</text>
</svg>
