<?xml version="1.0" encoding="UTF-8"?>
<svg xmlns="http://www.w3.org/2000/svg" version="1.1"
     width="196mm" height="206mm"
     viewBox="0 0 196 206"
     data-profile-key="motionsmith-ms4n"
     data-grid-pitch-mm="20"
     data-hole-diameter-mm="4">
  <title>Automataii fabrication planetary ring gear R40</title>
  <desc>Fixed internal ring gear for G12 sun and G14 planet gears, with 4 mm board-mount holes.</desc>
  <defs>
    <style>
      .cut { fill: none; stroke: #ed1c24; stroke-width: 0.25; stroke-miterlimit: 10; }
      .drill { fill: none; stroke: #0071bc; stroke-width: 0.2; stroke-miterlimit: 10; }
      .score { fill: none; stroke: #777777; stroke-width: 0.15; stroke-dasharray: 2 1; }
      .label { fill: #333333; font-family: Arial, Helvetica, sans-serif; font-size: 4px; }
      .tiny { fill: #333333; font-family: Arial, Helvetica, sans-serif; font-size: 3px; }
      .small { fill: #333333; font-family: Arial, Helvetica, sans-serif; font-size: 3.6px; }
      .step-title { fill: #111827; font-family: Arial, Helvetica, sans-serif; font-size: 5px; font-weight: bold; }
      .part-card-label { fill: #111827; font-family: Arial, Helvetica, sans-serif; font-size: 3.5px; font-weight: bold; }
      .coord-label { fill: #111827; font-family: Arial, Helvetica, sans-serif; font-size: 6px; font-weight: bold; }
      .paper { fill: #ffffff; stroke: none; }
    </style>
  </defs>
  <circle cx="98" cy="98" r="90" class="cut ring-outer-outline" data-ring-key="ring-g12-g14" data-outer-radius-mm="90" data-internal-teeth="40"/>
  <path d="M 126.275 98 L 123.256 98.992 L 123.197 99.983 L 126.079 101.323 L 125.927 102.423 L 122.789 102.931 L 122.577 103.9 L 125.213 105.675 L 124.891 106.737 L 121.713 106.748 L 121.351 107.672 L 123.678 109.838 L 123.193 110.837 L 120.052 110.35 L 119.55 111.206 L 121.51 113.709 L 120.875 114.62 L 117.849 113.648 L 117.219 114.415 L 118.763 117.193 L 117.993 117.993 L 115.157 116.56 L 114.415 117.219 L 115.505 120.205 L 114.62 120.875 L 112.042 119.015 L 111.206 119.55 L 111.816 122.67 L 110.837 123.193 L 108.582 120.953 L 107.672 121.351 L 107.786 124.527 L 106.737 124.891 L 104.861 122.326 L 103.9 122.577 L 103.516 125.732 L 102.423 125.927 L 100.971 123.1 L 99.983 123.197 L 99.11 126.253 L 98 126.275 L 97.008 123.256 L 96.017 123.197 L 94.677 126.079 L 93.577 125.927 L 93.069 122.789 L 92.1 122.577 L 90.325 125.213 L 89.263 124.891 L 89.252 121.713 L 88.328 121.351 L 86.162 123.678 L 85.163 123.193 L 85.65 120.052 L 84.794 119.55 L 82.291 121.51 L 81.38 120.875 L 82.352 117.849 L 81.585 117.219 L 78.807 118.763 L 78.007 117.993 L 79.44 115.157 L 78.781 114.415 L 75.795 115.505 L 75.125 114.62 L 76.985 112.042 L 76.45 111.206 L 73.33 111.816 L 72.807 110.837 L 75.047 108.582 L 74.649 107.672 L 71.473 107.786 L 71.109 106.737 L 73.674 104.861 L 73.423 103.9 L 70.268 103.516 L 70.073 102.423 L 72.9 100.971 L 72.803 99.983 L 69.747 99.11 L 69.725 98 L 72.744 97.008 L 72.803 96.017 L 69.921 94.677 L 70.073 93.577 L 73.211 93.069 L 73.423 92.1 L 70.787 90.325 L 71.109 89.263 L 74.287 89.252 L 74.649 88.328 L 72.322 86.162 L 72.807 85.163 L 75.948 85.65 L 76.45 84.794 L 74.49 82.291 L 75.125 81.38 L 78.151 82.352 L 78.781 81.585 L 77.237 78.807 L 78.007 78.007 L 80.843 79.44 L 81.585 78.781 L 80.495 75.795 L 81.38 75.125 L 83.958 76.985 L 84.794 76.45 L 84.184 73.33 L 85.163 72.807 L 87.418 75.047 L 88.328 74.649 L 88.214 71.473 L 89.263 71.109 L 91.139 73.674 L 92.1 73.423 L 92.484 70.268 L 93.577 70.073 L 95.029 72.9 L 96.017 72.803 L 96.89 69.747 L 98 69.725 L 98.992 72.744 L 99.983 72.803 L 101.323 69.921 L 102.423 70.073 L 102.931 73.211 L 103.9 73.423 L 105.675 70.787 L 106.737 71.109 L 106.748 74.287 L 107.672 74.649 L 109.838 72.322 L 110.837 72.807 L 110.35 75.948 L 111.206 76.45 L 113.709 74.49 L 114.62 75.125 L 113.648 78.151 L 114.415 78.781 L 117.193 77.237 L 117.993 78.007 L 116.56 80.843 L 117.219 81.585 L 120.205 80.495 L 120.875 81.38 L 119.015 83.958 L 119.55 84.794 L 122.67 84.184 L 123.193 85.163 L 120.953 87.418 L 121.351 88.328 L 124.527 88.214 L 124.891 89.263 L 122.326 91.139 L 122.577 92.1 L 125.732 92.484 L 125.927 93.577 L 123.1 95.029 L 123.197 96.017 L 126.253 96.89 Z" class="cut ring-inner-gear-outline" data-ring-key="ring-g12-g14" data-internal-teeth="40" data-pitch-radius-mm="27" data-tip-radius-mm="25.275" data-root-radius-mm="28.275"/>
  <circle cx="98" cy="98" r="27" class="score ring-pitch-circle"/>
  <circle cx="98" cy="18" r="2" class="drill ring-mount-hole bracket-hole" data-hole-role="ring-mount" data-hole-diameter-mm="4" data-hole-index="0" data-hole-x-offset-mm="0" data-hole-y-offset-mm="-80" data-mount-radius-mm="80"/>
  <circle cx="18" cy="98" r="2" class="drill ring-mount-hole bracket-hole" data-hole-role="ring-mount" data-hole-diameter-mm="4" data-hole-index="1" data-hole-x-offset-mm="-80" data-hole-y-offset-mm="0" data-mount-radius-mm="80"/>
  <circle cx="178" cy="98" r="2" class="drill ring-mount-hole bracket-hole" data-hole-role="ring-mount" data-hole-diameter-mm="4" data-hole-index="2" data-hole-x-offset-mm="80" data-hole-y-offset-mm="0" data-mount-radius-mm="80"/>
  <circle cx="98" cy="178" r="2" class="drill ring-mount-hole bracket-hole" data-hole-role="ring-mount" data-hole-diameter-mm="4" data-hole-index="3" data-hole-x-offset-mm="0" data-hole-y-offset-mm="80" data-mount-radius-mm="80"/>
  <text x="98" y="194" class="label" text-anchor="middle">R40 ring for G12+G14</text>
</svg>
